0
SECTION
2
HEADER
9
$ACADVER
1
AC1003
9
$INSBASE
10
0.0
20
0.0
30
0.0
9
$EXTMIN
10
0.000
20
0.000
30
0.0
9
$EXTMAX
10
1421.000
20
1824.000
30
0.0
9
$LIMMIN
10
0.000
20
0.000
9
$LIMMAX
10
1421.000
20
1824.000
9
$LTSCALE
40
1.0
9
$LUNITS
70
2
9
$LUPREC
70
3
9
$LIMCHECK
70
0
9
$UCSNAME
2

9
$UCSORG
10
0.0
20
0.0
30
0.0
9
$UCSXDIR
10
1.0
20
0.0
30
0.0
9
$UCSYDIR
10
0.0
20
1.0
30
0.0
9
$WORLDVIEW
70
1
9
$UNITMODE
70
0
0
ENDSEC
0
SECTION
2
TABLES
0
TABLE
2
VPORT
70
1
0
VPORT
2
*ACTIVE
70
0
10
0.0
20
0.0
11
1.0
21
1.0
12
710.500
22
912.000
13
0.0
23
0.0
14
1.0
24
1.0
15
0.0
25
0.0
16
0.0
26
0.0
36
1.0
17
0.0
27
0.0
37
0.0
40
500.0
41
1.284
42
50.0
43
0.0
44
0.0
50
0.0
51
0.0
71
0
72
100
73
1
74
1
75
0
76
0
77
0
78
0
0
ENDTAB
0
TABLE
2
LTYPE
70
1
0
LTYPE
2
CONTINUOUS
70
64
3
Solid line
72
65
73
0
40
0.000
0
ENDTAB
0
TABLE
2
LAYER
70
1
0
LAYER
2
0
70
64
62
7
6
CONTINUOUS
0
ENDTAB
0
ENDSEC
0
SECTION
2
BLOCKS
0
ENDSEC
0
SECTION
2
ENTITIES
0
POLYLINE
8
0
6
CONTINUOUS
66
1
62
250
10
0.0
20
0.0
30
0.000000
0
VERTEX
8
0
10
313.000000
20
1625.000000
0
VERTEX
8
0
10
325.000000
20
1625.000000
0
SEQEND
0
POLYLINE
8
0
6
CONTINUOUS
66
1
62
250
10
0.0
20
0.0
30
0.000000
0
VERTEX
8
0
10
338.000000
20
1625.000000
0
VERTEX
8
0
10
350.000000
20
1625.000000
0
SEQEND
0
POLYLINE
8
0
6
CONTINUOUS
66
1
62
250
10
0.0
20
0.0
30
0.000000
0
VERTEX
8
0
10
363.000000
20
1625.000000
0
VERTEX
8
0
10
375.000000
20
1625.000000
0
SEQEND
0
POLYLINE
8
0
6
CONTINUOUS
66
1
62
250
10
0.0
20
0.0
30
0.000000
0
VERTEX
8
0
10
388.000000
20
1625.000000
0
VERTEX
8
0
10
400.000000
20
1625.000000
0
SEQEND
0
POLYLINE
8
0
6
CONTINUOUS
66
1
62
250
10
0.0
20
0.0
30
0.000000
0
VERTEX
8
0
10
413.000000
20
1625.000000
0
VERTEX
8
0
10
425.000000
20
1625.000000
0
SEQEND
0
POLYLINE
8
0
6
CONTINUOUS
66
1
62
250
10
0.0
20
0.0
30
0.000000
0
VERTEX
8
0
10
438.000000
20
1625.000000
0
VERTEX
8
0
10
450.000000
20
1625.000000
0
SEQEND
0
POLYLINE
8
0
6
CONTINUOUS
66
1
62
250
10
0.0
20
0.0
30
0.000000
0
VERTEX
8
0
10
463.000000
20
1625.000000
0
VERTEX
8
0
10
475.000000
20
1625.000000
0
SEQEND
0
POLYLINE
8
0
6
CONTINUOUS
66
1
62
250
10
0.0
20
0.0
30
0.000000
0
VERTEX
8
0
10
488.000000
20
1625.000000
0
VERTEX
8
0
10
500.000000
20
1625.000000
0
SEQEND
0
POLYLINE
8
0
6
CONTINUOUS
66
1
62
250
10
0.0
20
0.0
30
0.000000
0
VERTEX
8
0
10
513.000000
20
1625.000000
0
VERTEX
8
0
10
525.000000
20
1625.000000
0
SEQEND
0
POLYLINE
8
0
6
CONTINUOUS
66
1
62
250
10
0.0
20
0.0
30
0.000000
0
VERTEX
8
0
10
538.000000
20
1625.000000
0
VERTEX
8
0
10
550.000000
20
1625.000000
0
SEQEND
0
POLYLINE
8
0
6
CONTINUOUS
66
1
62
250
10
0.0
20
0.0
30
0.000000
0
VERTEX
8
0
10
563.000000
20
1625.000000
0
VERTEX
8
0
10
575.000000
20
1625.000000
0
SEQEND
0
POLYLINE
8
0
6
CONTINUOUS
66
1
62
250
10
0.0
20
0.0
30
0.000000
0
VERTEX
8
0
10
588.000000
20
1625.000000
0
VERTEX
8
0
10
600.000000
20
1625.000000
0
SEQEND
0
POLYLINE
8
0
6
CONTINUOUS
66
1
62
250
10
0.0
20
0.0
30
0.000000
0
VERTEX
8
0
10
613.000000
20
1625.000000
0
VERTEX
8
0
10
625.000000
20
1625.000000
0
SEQEND
0
POLYLINE
8
0
6
CONTINUOUS
66
1
62
250
10
0.0
20
0.0
30
0.000000
0
VERTEX
8
0
10
638.000000
20
1625.000000
0
VERTEX
8
0
10
650.000000
20
1625.000000
0
SEQEND
0
POLYLINE
8
0
6
CONTINUOUS
66
1
62
250
10
0.0
20
0.0
30
0.000000
0
VERTEX
8
0
10
663.000000
20
1625.000000
0
VERTEX
8
0
10
675.000000
20
1625.000000
0
SEQEND
0
POLYLINE
8
0
6
CONTINUOUS
66
1
62
250
10
0.0
20
0.0
30
0.000000
0
VERTEX
8
0
10
688.000000
20
1625.000000
0
VERTEX
8
0
10
700.000000
20
1625.000000
0
SEQEND
0
POLYLINE
8
0
6
CONTINUOUS
66
1
62
250
10
0.0
20
0.0
30
0.000000
0
VERTEX
8
0
10
713.000000
20
1625.000000
0
VERTEX
8
0
10
725.000000
20
1625.000000
0
SEQEND
0
POLYLINE
8
0
6
CONTINUOUS
66
1
62
250
10
0.0
20
0.0
30
0.000000
0
VERTEX
8
0
10
738.000000
20
1625.000000
0
VERTEX
8
0
10
750.000000
20
1625.000000
0
SEQEND
0
POLYLINE
8
0
6
CONTINUOUS
66
1
62
250
10
0.0
20
0.0
30
0.000000
0
VERTEX
8
0
10
763.000000
20
1625.000000
0
VERTEX
8
0
10
775.000000
20
1625.000000
0
SEQEND
0
POLYLINE
8
0
6
CONTINUOUS
66
1
62
250
10
0.0
20
0.0
30
0.000000
0
VERTEX
8
0
10
788.000000
20
1625.000000
0
VERTEX
8
0
10
800.000000
20
1625.000000
0
SEQEND
0
POLYLINE
8
0
6
CONTINUOUS
66
1
62
250
10
0.0
20
0.0
30
0.000000
0
VERTEX
8
0
10
813.000000
20
1625.000000
0
VERTEX
8
0
10
825.000000
20
1625.000000
0
SEQEND
0
POLYLINE
8
0
6
CONTINUOUS
66
1
62
250
10
0.0
20
0.0
30
0.000000
0
VERTEX
8
0
10
838.000000
20
1625.000000
0
VERTEX
8
0
10
850.000000
20
1625.000000
0
SEQEND
0
POLYLINE
8
0
6
CONTINUOUS
66
1
62
250
10
0.0
20
0.0
30
0.000000
0
VERTEX
8
0
10
863.000000
20
1625.000000
0
VERTEX
8
0
10
875.000000
20
1625.000000
0
SEQEND
0
POLYLINE
8
0
6
CONTINUOUS
66
1
62
250
10
0.0
20
0.0
30
0.000000
0
VERTEX
8
0
10
888.000000
20
1625.000000
0
VERTEX
8
0
10
900.000000
20
1625.000000
0
SEQEND
0
POLYLINE
8
0
6
CONTINUOUS
66
1
62
250
10
0.0
20
0.0
30
0.000000
0
VERTEX
8
0
10
913.000000
20
1625.000000
0
VERTEX
8
0
10
921.000000
20
1626.000000
0
SEQEND
0
POLYLINE
8
0
6
CONTINUOUS
66
1
62
250
10
0.0
20
0.0
30
0.000000
0
VERTEX
8
0
10
1125.000000
20
1623.000000
0
VERTEX
8
0
10
1138.000000
20
1623.000000
0
SEQEND
0
POLYLINE
8
0
6
CONTINUOUS
66
1
62
250
10
0.0
20
0.0
30
0.000000
0
VERTEX
8
0
10
1151.000000
20
1623.000000
0
VERTEX
8
0
10
1163.000000
20
1623.000000
0
SEQEND
0
POLYLINE
8
0
6
CONTINUOUS
66
1
62
250
10
0.0
20
0.0
30
0.000000
0
VERTEX
8
0
10
1176.000000
20
1623.000000
0
VERTEX
8
0
10
1188.000000
20
1623.000000
0
SEQEND
0
POLYLINE
8
0
6
CONTINUOUS
66
1
62
250
10
0.0
20
0.0
30
0.000000
0
VERTEX
8
0
10
1201.000000
20
1623.000000
0
VERTEX
8
0
10
1213.000000
20
1623.000000
0
SEQEND
0
POLYLINE
8
0
6
CONTINUOUS
66
1
62
250
10
0.0
20
0.0
30
0.000000
0
VERTEX
8
0
10
1226.000000
20
1623.000000
0
VERTEX
8
0
10
1238.000000
20
1623.000000
0
SEQEND
0
POLYLINE
8
0
6
CONTINUOUS
66
1
62
250
10
0.0
20
0.0
30
0.000000
0
VERTEX
8
0
10
1251.000000
20
1623.000000
0
VERTEX
8
0
10
1263.000000
20
1623.000000
0
SEQEND
0
POLYLINE
8
0
6
CONTINUOUS
66
1
62
250
10
0.0
20
0.0
30
0.000000
0
VERTEX
8
0
10
1276.000000
20
1623.000000
0
VERTEX
8
0
10
1288.000000
20
1623.000000
0
SEQEND
0
POLYLINE
8
0
6
CONTINUOUS
66
1
62
250
10
0.0
20
0.0
30
0.000000
0
VERTEX
8
0
10
309.000000
20
1604.000000
0
VERTEX
8
0
10
309.000000
20
1615.000000
0
SEQEND
0
POLYLINE
8
0
6
CONTINUOUS
66
1
62
250
10
0.0
20
0.0
30
0.000000
0
VERTEX
8
0
10
921.000000
20
1596.000000
0
VERTEX
8
0
10
921.000000
20
1607.000000
0
SEQEND
0
POLYLINE
8
0
6
CONTINUOUS
66
1
62
250
10
0.0
20
0.0
30
0.000000
0
VERTEX
8
0
10
309.000000
20
1579.000000
0
VERTEX
8
0
10
309.000000
20
1590.000000
0
SEQEND
0
POLYLINE
8
0
6
CONTINUOUS
66
1
62
250
10
0.0
20
0.0
30
0.000000
0
VERTEX
8
0
10
921.000000
20
1571.000000
0
VERTEX
8
0
10
921.000000
20
1582.000000
0
SEQEND
0
POLYLINE
8
0
6
CONTINUOUS
66
1
62
250
10
0.0
20
0.0
30
0.000000
0
VERTEX
8
0
10
1008.000000
20
1556.000000
0
VERTEX
8
0
10
1008.000000
20
1568.000000
0
SEQEND
0
POLYLINE
8
0
6
CONTINUOUS
66
1
62
250
10
0.0
20
0.0
30
0.000000
0
VERTEX
8
0
10
309.000000
20
1554.000000
0
VERTEX
8
0
10
309.000000
20
1565.000000
0
SEQEND
0
POLYLINE
8
0
6
CONTINUOUS
66
1
62
250
10
0.0
20
0.0
30
0.000000
0
VERTEX
8
0
10
1068.000000
20
1553.000000
0
VERTEX
8
0
10
1068.000000
20
1563.000000
0
SEQEND
0
POLYLINE
8
0
6
CONTINUOUS
66
1
62
250
10
0.0
20
0.0
30
0.000000
0
VERTEX
8
0
10
1157.000000
20
1551.000000
0
VERTEX
8
0
10
1157.000000
20
1562.000000
0
SEQEND
0
POLYLINE
8
0
6
CONTINUOUS
66
1
62
250
10
0.0
20
0.0
30
0.000000
0
VERTEX
8
0
10
921.000000
20
1546.000000
0
VERTEX
8
0
10
921.000000
20
1557.000000
0
SEQEND
0
POLYLINE
8
0
6
CONTINUOUS
66
1
62
250
10
0.0
20
0.0
30
0.000000
0
VERTEX
8
0
10
1008.000000
20
1531.000000
0
VERTEX
8
0
10
1008.000000
20
1541.000000
0
SEQEND
0
POLYLINE
8
0
6
CONTINUOUS
66
1
62
250
10
0.0
20
0.0
30
0.000000
0
VERTEX
8
0
10
309.000000
20
1529.000000
0
VERTEX
8
0
10
309.000000
20
1540.000000
0
SEQEND
0
POLYLINE
8
0
6
CONTINUOUS
66
1
62
250
10
0.0
20
0.0
30
0.000000
0
VERTEX
8
0
10
1068.000000
20
1528.000000
0
VERTEX
8
0
10
1068.000000
20
1538.000000
0
SEQEND
0
POLYLINE
8
0
6
CONTINUOUS
66
1
62
250
10
0.0
20
0.0
30
0.000000
0
VERTEX
8
0
10
1157.000000
20
1526.000000
0
VERTEX
8
0
10
1157.000000
20
1537.000000
0
SEQEND
0
POLYLINE
8
0
6
CONTINUOUS
66
1
62
250
10
0.0
20
0.0
30
0.000000
0
VERTEX
8
0
10
921.000000
20
1521.000000
0
VERTEX
8
0
10
921.000000
20
1532.000000
0
SEQEND
0
POLYLINE
8
0
6
CONTINUOUS
66
1
62
250
10
0.0
20
0.0
30
0.000000
0
VERTEX
8
0
10
1008.000000
20
1506.000000
0
VERTEX
8
0
10
1008.000000
20
1516.000000
0
SEQEND
0
POLYLINE
8
0
6
CONTINUOUS
66
1
62
250
10
0.0
20
0.0
30
0.000000
0
VERTEX
8
0
10
309.000000
20
1504.000000
0
VERTEX
8
0
10
309.000000
20
1515.000000
0
SEQEND
0
POLYLINE
8
0
6
CONTINUOUS
66
1
62
250
10
0.0
20
0.0
30
0.000000
0
VERTEX
8
0
10
1068.000000
20
1503.000000
0
VERTEX
8
0
10
1068.000000
20
1513.000000
0
SEQEND
0
POLYLINE
8
0
6
CONTINUOUS
66
1
62
250
10
0.0
20
0.0
30
0.000000
0
VERTEX
8
0
10
1157.000000
20
1501.000000
0
VERTEX
8
0
10
1157.000000
20
1512.000000
0
SEQEND
0
POLYLINE
8
0
6
CONTINUOUS
66
1
62
250
10
0.0
20
0.0
30
0.000000
0
VERTEX
8
0
10
921.000000
20
1496.000000
0
VERTEX
8
0
10
921.000000
20
1507.000000
0
SEQEND
0
POLYLINE
8
0
6
CONTINUOUS
66
1
62
250
10
0.0
20
0.0
30
0.000000
0
VERTEX
8
0
10
1008.000000
20
1481.000000
0
VERTEX
8
0
10
1008.000000
20
1491.000000
0
SEQEND
0
POLYLINE
8
0
6
CONTINUOUS
66
1
62
250
10
0.0
20
0.0
30
0.000000
0
VERTEX
8
0
10
309.000000
20
1479.000000
0
VERTEX
8
0
10
309.000000
20
1490.000000
0
SEQEND
0
POLYLINE
8
0
6
CONTINUOUS
66
1
62
250
10
0.0
20
0.0
30
0.000000
0
VERTEX
8
0
10
1068.000000
20
1478.000000
0
VERTEX
8
0
10
1068.000000
20
1488.000000
0
SEQEND
0
POLYLINE
8
0
6
CONTINUOUS
66
1
62
250
10
0.0
20
0.0
30
0.000000
0
VERTEX
8
0
10
1157.000000
20
1476.000000
0
VERTEX
8
0
10
1157.000000
20
1487.000000
0
SEQEND
0
POLYLINE
8
0
6
CONTINUOUS
66
1
62
250
10
0.0
20
0.0
30
0.000000
0
VERTEX
8
0
10
921.000000
20
1471.000000
0
VERTEX
8
0
10
921.000000
20
1482.000000
0
SEQEND
0
POLYLINE
8
0
6
CONTINUOUS
66
1
62
250
10
0.0
20
0.0
30
0.000000
0
VERTEX
8
0
10
1008.000000
20
1456.000000
0
VERTEX
8
0
10
1008.000000
20
1466.000000
0
SEQEND
0
POLYLINE
8
0
6
CONTINUOUS
66
1
62
250
10
0.0
20
0.0
30
0.000000
0
VERTEX
8
0
10
309.000000
20
1454.000000
0
VERTEX
8
0
10
309.000000
20
1465.000000
0
SEQEND
0
POLYLINE
8
0
6
CONTINUOUS
66
1
62
250
10
0.0
20
0.0
30
0.000000
0
VERTEX
8
0
10
1068.000000
20
1453.000000
0
VERTEX
8
0
10
1068.000000
20
1463.000000
0
SEQEND
0
POLYLINE
8
0
6
CONTINUOUS
66
1
62
250
10
0.0
20
0.0
30
0.000000
0
VERTEX
8
0
10
1157.000000
20
1451.000000
0
VERTEX
8
0
10
1157.000000
20
1462.000000
0
SEQEND
0
POLYLINE
8
0
6
CONTINUOUS
66
1
62
250
10
0.0
20
0.0
30
0.000000
0
VERTEX
8
0
10
921.000000
20
1446.000000
0
VERTEX
8
0
10
921.000000
20
1457.000000
0
SEQEND
0
POLYLINE
8
0
6
CONTINUOUS
66
1
62
250
10
0.0
20
0.0
30
0.000000
0
VERTEX
8
0
10
1008.000000
20
1431.000000
0
VERTEX
8
0
10
1008.000000
20
1441.000000
0
SEQEND
0
POLYLINE
8
0
6
CONTINUOUS
66
1
62
250
10
0.0
20
0.0
30
0.000000
0
VERTEX
8
0
10
309.000000
20
1429.000000
0
VERTEX
8
0
10
309.000000
20
1440.000000
0
SEQEND
0
POLYLINE
8
0
6
CONTINUOUS
66
1
62
250
10
0.0
20
0.0
30
0.000000
0
VERTEX
8
0
10
1068.000000
20
1428.000000
0
VERTEX
8
0
10
1068.000000
20
1438.000000
0
SEQEND
0
POLYLINE
8
0
6
CONTINUOUS
66
1
62
250
10
0.0
20
0.0
30
0.000000
0
VERTEX
8
0
10
1157.000000
20
1426.000000
0
VERTEX
8
0
10
1157.000000
20
1437.000000
0
SEQEND
0
POLYLINE
8
0
6
CONTINUOUS
66
1
62
250
10
0.0
20
0.0
30
0.000000
0
VERTEX
8
0
10
921.000000
20
1421.000000
0
VERTEX
8
0
10
921.000000
20
1432.000000
0
SEQEND
0
POLYLINE
8
0
6
CONTINUOUS
66
1
62
250
10
0.0
20
0.0
30
0.000000
0
VERTEX
8
0
10
1008.000000
20
1406.000000
0
VERTEX
8
0
10
1008.000000
20
1416.000000
0
SEQEND
0
POLYLINE
8
0
6
CONTINUOUS
66
1
62
250
10
0.0
20
0.0
30
0.000000
0
VERTEX
8
0
10
309.000000
20
1404.000000
0
VERTEX
8
0
10
309.000000
20
1415.000000
0
SEQEND
0
POLYLINE
8
0
6
CONTINUOUS
66
1
62
250
10
0.0
20
0.0
30
0.000000
0
VERTEX
8
0
10
1068.000000
20
1403.000000
0
VERTEX
8
0
10
1068.000000
20
1413.000000
0
SEQEND
0
POLYLINE
8
0
6
CONTINUOUS
66
1
62
250
10
0.0
20
0.0
30
0.000000
0
VERTEX
8
0
10
1157.000000
20
1401.000000
0
VERTEX
8
0
10
1157.000000
20
1412.000000
0
SEQEND
0
POLYLINE
8
0
6
CONTINUOUS
66
1
62
250
10
0.0
20
0.0
30
0.000000
0
VERTEX
8
0
10
921.000000
20
1396.000000
0
VERTEX
8
0
10
921.000000
20
1407.000000
0
SEQEND
0
POLYLINE
8
0
6
CONTINUOUS
66
1
62
250
10
0.0
20
0.0
30
0.000000
0
VERTEX
8
0
10
1008.000000
20
1381.000000
0
VERTEX
8
0
10
1008.000000
20
1391.000000
0
SEQEND
0
POLYLINE
8
0
6
CONTINUOUS
66
1
62
250
10
0.0
20
0.0
30
0.000000
0
VERTEX
8
0
10
309.000000
20
1379.000000
0
VERTEX
8
0
10
309.000000
20
1390.000000
0
SEQEND
0
POLYLINE
8
0
6
CONTINUOUS
66
1
62
250
10
0.0
20
0.0
30
0.000000
0
VERTEX
8
0
10
1068.000000
20
1378.000000
0
VERTEX
8
0
10
1068.000000
20
1388.000000
0
SEQEND
0
POLYLINE
8
0
6
CONTINUOUS
66
1
62
250
10
0.0
20
0.0
30
0.000000
0
VERTEX
8
0
10
1157.000000
20
1376.000000
0
VERTEX
8
0
10
1157.000000
20
1387.000000
0
SEQEND
0
POLYLINE
8
0
6
CONTINUOUS
66
1
62
250
10
0.0
20
0.0
30
0.000000
0
VERTEX
8
0
10
921.000000
20
1371.000000
0
VERTEX
8
0
10
921.000000
20
1382.000000
0
SEQEND
0
POLYLINE
8
0
6
CONTINUOUS
66
1
62
250
10
0.0
20
0.0
30
0.000000
0
VERTEX
8
0
10
1008.000000
20
1356.000000
0
VERTEX
8
0
10
1008.000000
20
1366.000000
0
SEQEND
0
POLYLINE
8
0
6
CONTINUOUS
66
1
62
250
10
0.0
20
0.0
30
0.000000
0
VERTEX
8
0
10
309.000000
20
1354.000000
0
VERTEX
8
0
10
309.000000
20
1365.000000
0
SEQEND
0
POLYLINE
8
0
6
CONTINUOUS
66
1
62
250
10
0.0
20
0.0
30
0.000000
0
VERTEX
8
0
10
1068.000000
20
1353.000000
0
VERTEX
8
0
10
1068.000000
20
1363.000000
0
SEQEND
0
POLYLINE
8
0
6
CONTINUOUS
66
1
62
250
10
0.0
20
0.0
30
0.000000
0
VERTEX
8
0
10
1157.000000
20
1351.000000
0
VERTEX
8
0
10
1157.000000
20
1362.000000
0
SEQEND
0
POLYLINE
8
0
6
CONTINUOUS
66
1
62
250
10
0.0
20
0.0
30
0.000000
0
VERTEX
8
0
10
921.000000
20
1346.000000
0
VERTEX
8
0
10
921.000000
20
1357.000000
0
SEQEND
0
POLYLINE
8
0
6
CONTINUOUS
66
1
62
250
10
0.0
20
0.0
30
0.000000
0
VERTEX
8
0
10
1008.000000
20
1331.000000
0
VERTEX
8
0
10
1008.000000
20
1341.000000
0
SEQEND
0
POLYLINE
8
0
6
CONTINUOUS
66
1
62
250
10
0.0
20
0.0
30
0.000000
0
VERTEX
8
0
10
309.000000
20
1329.000000
0
VERTEX
8
0
10
309.000000
20
1340.000000
0
SEQEND
0
POLYLINE
8
0
6
CONTINUOUS
66
1
62
250
10
0.0
20
0.0
30
0.000000
0
VERTEX
8
0
10
1068.000000
20
1328.000000
0
VERTEX
8
0
10
1068.000000
20
1338.000000
0
SEQEND
0
POLYLINE
8
0
6
CONTINUOUS
66
1
62
250
10
0.0
20
0.0
30
0.000000
0
VERTEX
8
0
10
1157.000000
20
1326.000000
0
VERTEX
8
0
10
1157.000000
20
1337.000000
0
SEQEND
0
POLYLINE
8
0
6
CONTINUOUS
66
1
62
250
10
0.0
20
0.0
30
0.000000
0
VERTEX
8
0
10
921.000000
20
1321.000000
0
VERTEX
8
0
10
921.000000
20
1332.000000
0
SEQEND
0
POLYLINE
8
0
6
CONTINUOUS
66
1
62
250
10
0.0
20
0.0
30
0.000000
0
VERTEX
8
0
10
1008.000000
20
1306.000000
0
VERTEX
8
0
10
1008.000000
20
1316.000000
0
SEQEND
0
POLYLINE
8
0
6
CONTINUOUS
66
1
62
250
10
0.0
20
0.0
30
0.000000
0
VERTEX
8
0
10
309.000000
20
1304.000000
0
VERTEX
8
0
10
309.000000
20
1315.000000
0
SEQEND
0
POLYLINE
8
0
6
CONTINUOUS
66
1
62
250
10
0.0
20
0.0
30
0.000000
0
VERTEX
8
0
10
1068.000000
20
1303.000000
0
VERTEX
8
0
10
1068.000000
20
1313.000000
0
SEQEND
0
POLYLINE
8
0
6
CONTINUOUS
66
1
62
250
10
0.0
20
0.0
30
0.000000
0
VERTEX
8
0
10
1157.000000
20
1301.000000
0
VERTEX
8
0
10
1157.000000
20
1312.000000
0
SEQEND
0
POLYLINE
8
0
6
CONTINUOUS
66
1
62
250
10
0.0
20
0.0
30
0.000000
0
VERTEX
8
0
10
921.000000
20
1296.000000
0
VERTEX
8
0
10
921.000000
20
1307.000000
0
SEQEND
0
POLYLINE
8
0
6
CONTINUOUS
66
1
62
250
10
0.0
20
0.0
30
0.000000
0
VERTEX
8
0
10
1008.000000
20
1281.000000
0
VERTEX
8
0
10
1008.000000
20
1291.000000
0
SEQEND
0
POLYLINE
8
0
6
CONTINUOUS
66
1
62
250
10
0.0
20
0.0
30
0.000000
0
VERTEX
8
0
10
309.000000
20
1279.000000
0
VERTEX
8
0
10
309.000000
20
1290.000000
0
SEQEND
0
POLYLINE
8
0
6
CONTINUOUS
66
1
62
250
10
0.0
20
0.0
30
0.000000
0
VERTEX
8
0
10
1068.000000
20
1278.000000
0
VERTEX
8
0
10
1068.000000
20
1288.000000
0
SEQEND
0
POLYLINE
8
0
6
CONTINUOUS
66
1
62
250
10
0.0
20
0.0
30
0.000000
0
VERTEX
8
0
10
1157.000000
20
1276.000000
0
VERTEX
8
0
10
1157.000000
20
1287.000000
0
SEQEND
0
POLYLINE
8
0
6
CONTINUOUS
66
1
62
250
10
0.0
20
0.0
30
0.000000
0
VERTEX
8
0
10
921.000000
20
1271.000000
0
VERTEX
8
0
10
921.000000
20
1282.000000
0
SEQEND
0
POLYLINE
8
0
6
CONTINUOUS
66
1
62
250
10
0.0
20
0.0
30
0.000000
0
VERTEX
8
0
10
1008.000000
20
1256.000000
0
VERTEX
8
0
10
1008.000000
20
1266.000000
0
SEQEND
0
POLYLINE
8
0
6
CONTINUOUS
66
1
62
250
10
0.0
20
0.0
30
0.000000
0
VERTEX
8
0
10
309.000000
20
1254.000000
0
VERTEX
8
0
10
309.000000
20
1265.000000
0
SEQEND
0
POLYLINE
8
0
6
CONTINUOUS
66
1
62
250
10
0.0
20
0.0
30
0.000000
0
VERTEX
8
0
10
1068.000000
20
1251.000000
0
VERTEX
8
0
10
1068.000000
20
1263.000000
0
SEQEND
0
POLYLINE
8
0
6
CONTINUOUS
66
1
62
250
10
0.0
20
0.0
30
0.000000
0
VERTEX
8
0
10
1157.000000
20
1251.000000
0
VERTEX
8
0
10
1157.000000
20
1262.000000
0
SEQEND
0
POLYLINE
8
0
6
CONTINUOUS
66
1
62
250
10
0.0
20
0.0
30
0.000000
0
VERTEX
8
0
10
925.000000
20
1250.000000
0
VERTEX
8
0
10
1068.000000
20
1251.000000
0
VERTEX
8
0
10
1070.000000
20
1250.000000
0
VERTEX
8
0
10
1155.000000
20
1250.000000
0
VERTEX
8
0
10
1157.000000
20
1251.000000
0
VERTEX
8
0
10
1158.000000
20
1250.000000
0
VERTEX
8
0
10
1301.000000
20
1250.000000
0
SEQEND
0
POLYLINE
8
0
6
CONTINUOUS
66
1
62
250
10
0.0
20
0.0
30
0.000000
0
VERTEX
8
0
10
319.000000
20
1249.000000
0
VERTEX
8
0
10
305.000000
20
1249.000000
42
0.074745
0
VERTEX
8
0
10
289.900000
20
1255.800000
0
VERTEX
8
0
10
154.100000
20
1307.300000
0
VERTEX
8
0
10
117.000000
20
1322.000000
0
VERTEX
8
0
10
117.000000
20
1459.000000
0
VERTEX
8
0
10
219.000000
20
1547.000000
0
VERTEX
8
0
10
220.000000
20
1548.000000
42
-0.076982
0
VERTEX
8
0
10
226.000000
20
1553.000000
0
VERTEX
8
0
10
236.000000
20
1562.000000
42
-0.150174
0
VERTEX
8
0
10
240.000000
20
1565.000000
0
VERTEX
8
0
10
241.000000
20
1566.000000
0
VERTEX
8
0
10
301.000000
20
1618.000000
42
0.138458
0
VERTEX
8
0
10
310.352941
20
1630.911765
42
-0.087091
0
VERTEX
8
0
10
336.800000
20
1693.100000
42
-0.178982
0
VERTEX
8
0
10
388.088235
20
1735.647059
0
VERTEX
8
0
10
390.911765
20
1736.352941
0
VERTEX
8
0
10
402.000000
20
1739.000000
0
VERTEX
8
0
10
863.000000
20
1739.000000
0
VERTEX
8
0
10
879.900000
20
1729.800000
0
VERTEX
8
0
10
887.100000
20
1726.200000
0
VERTEX
8
0
10
903.000000
20
1718.000000
0
VERTEX
8
0
10
907.000000
20
1714.000000
0
VERTEX
8
0
10
920.647059
20
1628.911765
0
VERTEX
8
0
10
921.000000
20
1626.000000
42
0.120368
0
VERTEX
8
0
10
923.249201
20
1622.230032
0
VERTEX
8
0
10
946.750799
20
1596.769968
0
VERTEX
8
0
10
972.900000
20
1568.800000
0
VERTEX
8
0
10
974.000000
20
1568.000000
0
VERTEX
8
0
10
1122.000000
20
1568.000000
0
VERTEX
8
0
10
1125.000000
20
1569.000000
0
VERTEX
8
0
10
1155.000000
20
1568.000000
0
SEQEND
0
POLYLINE
8
0
6
CONTINUOUS
66
1
62
251
10
0.0
20
0.0
30
0.000000
0
VERTEX
8
0
10
332.000000
20
1249.000000
0
VERTEX
8
0
10
344.000000
20
1249.000000
0
SEQEND
0
POLYLINE
8
0
6
CONTINUOUS
66
1
62
251
10
0.0
20
0.0
30
0.000000
0
VERTEX
8
0
10
357.000000
20
1249.000000
0
VERTEX
8
0
10
369.000000
20
1249.000000
0
SEQEND
0
POLYLINE
8
0
6
CONTINUOUS
66
1
62
251
10
0.0
20
0.0
30
0.000000
0
VERTEX
8
0
10
382.000000
20
1249.000000
0
VERTEX
8
0
10
394.000000
20
1249.000000
0
SEQEND
0
POLYLINE
8
0
6
CONTINUOUS
66
1
62
251
10
0.0
20
0.0
30
0.000000
0
VERTEX
8
0
10
407.000000
20
1249.000000
0
VERTEX
8
0
10
419.000000
20
1249.000000
0
SEQEND
0
POLYLINE
8
0
6
CONTINUOUS
66
1
62
251
10
0.0
20
0.0
30
0.000000
0
VERTEX
8
0
10
432.000000
20
1249.000000
0
VERTEX
8
0
10
444.000000
20
1249.000000
0
SEQEND
0
POLYLINE
8
0
6
CONTINUOUS
66
1
62
251
10
0.0
20
0.0
30
0.000000
0
VERTEX
8
0
10
457.000000
20
1249.000000
0
VERTEX
8
0
10
469.000000
20
1249.000000
0
SEQEND
0
POLYLINE
8
0
6
CONTINUOUS
66
1
62
251
10
0.0
20
0.0
30
0.000000
0
VERTEX
8
0
10
482.000000
20
1249.000000
0
VERTEX
8
0
10
494.000000
20
1249.000000
0
SEQEND
0
POLYLINE
8
0
6
CONTINUOUS
66
1
62
251
10
0.0
20
0.0
30
0.000000
0
VERTEX
8
0
10
507.000000
20
1249.000000
0
VERTEX
8
0
10
519.000000
20
1249.000000
0
SEQEND
0
POLYLINE
8
0
6
CONTINUOUS
66
1
62
251
10
0.0
20
0.0
30
0.000000
0
VERTEX
8
0
10
532.000000
20
1249.000000
0
VERTEX
8
0
10
544.000000
20
1249.000000
0
SEQEND
0
POLYLINE
8
0
6
CONTINUOUS
66
1
62
251
10
0.0
20
0.0
30
0.000000
0
VERTEX
8
0
10
557.000000
20
1249.000000
0
VERTEX
8
0
10
569.000000
20
1249.000000
0
SEQEND
0
POLYLINE
8
0
6
CONTINUOUS
66
1
62
251
10
0.0
20
0.0
30
0.000000
0
VERTEX
8
0
10
582.000000
20
1249.000000
0
VERTEX
8
0
10
594.000000
20
1249.000000
0
SEQEND
0
POLYLINE
8
0
6
CONTINUOUS
66
1
62
251
10
0.0
20
0.0
30
0.000000
0
VERTEX
8
0
10
607.000000
20
1249.000000
0
VERTEX
8
0
10
619.000000
20
1249.000000
0
SEQEND
0
POLYLINE
8
0
6
CONTINUOUS
66
1
62
251
10
0.0
20
0.0
30
0.000000
0
VERTEX
8
0
10
632.000000
20
1249.000000
0
VERTEX
8
0
10
644.000000
20
1249.000000
0
SEQEND
0
POLYLINE
8
0
6
CONTINUOUS
66
1
62
251
10
0.0
20
0.0
30
0.000000
0
VERTEX
8
0
10
657.000000
20
1249.000000
0
VERTEX
8
0
10
669.000000
20
1249.000000
0
SEQEND
0
POLYLINE
8
0
6
CONTINUOUS
66
1
62
251
10
0.0
20
0.0
30
0.000000
0
VERTEX
8
0
10
682.000000
20
1249.000000
0
VERTEX
8
0
10
694.000000
20
1249.000000
0
SEQEND
0
POLYLINE
8
0
6
CONTINUOUS
66
1
62
252
10
0.0
20
0.0
30
0.000000
0
VERTEX
8
0
10
719.000000
20
1249.000000
0
VERTEX
8
0
10
708.000000
20
1249.000000
0
VERTEX
8
0
10
707.000000
20
1250.000000
0
SEQEND
0
POLYLINE
8
0
6
CONTINUOUS
66
1
62
252
10
0.0
20
0.0
30
0.000000
0
VERTEX
8
0
10
744.000000
20
1249.000000
0
VERTEX
8
0
10
733.000000
20
1249.000000
0
VERTEX
8
0
10
732.000000
20
1250.000000
0
SEQEND
0
POLYLINE
8
0
6
CONTINUOUS
66
1
62
252
10
0.0
20
0.0
30
0.000000
0
VERTEX
8
0
10
769.000000
20
1249.000000
0
VERTEX
8
0
10
758.000000
20
1249.000000
0
VERTEX
8
0
10
757.000000
20
1250.000000
0
SEQEND
0
POLYLINE
8
0
6
CONTINUOUS
66
1
62
252
10
0.0
20
0.0
30
0.000000
0
VERTEX
8
0
10
794.000000
20
1249.000000
0
VERTEX
8
0
10
783.000000
20
1249.000000
0
VERTEX
8
0
10
782.000000
20
1250.000000
0
SEQEND
0
POLYLINE
8
0
6
CONTINUOUS
66
1
62
252
10
0.0
20
0.0
30
0.000000
0
VERTEX
8
0
10
819.000000
20
1249.000000
0
VERTEX
8
0
10
808.000000
20
1249.000000
0
VERTEX
8
0
10
807.000000
20
1250.000000
0
SEQEND
0
POLYLINE
8
0
6
CONTINUOUS
66
1
62
252
10
0.0
20
0.0
30
0.000000
0
VERTEX
8
0
10
844.000000
20
1249.000000
0
VERTEX
8
0
10
833.000000
20
1249.000000
0
VERTEX
8
0
10
832.000000
20
1250.000000
0
SEQEND
0
POLYLINE
8
0
6
CONTINUOUS
66
1
62
252
10
0.0
20
0.0
30
0.000000
0
VERTEX
8
0
10
869.000000
20
1249.000000
0
VERTEX
8
0
10
858.000000
20
1249.000000
0
VERTEX
8
0
10
857.000000
20
1250.000000
0
SEQEND
0
POLYLINE
8
0
6
CONTINUOUS
66
1
62
252
10
0.0
20
0.0
30
0.000000
0
VERTEX
8
0
10
894.000000
20
1249.000000
0
VERTEX
8
0
10
883.000000
20
1249.000000
0
VERTEX
8
0
10
882.000000
20
1250.000000
0
SEQEND
0
POLYLINE
8
0
6
CONTINUOUS
66
1
62
252
10
0.0
20
0.0
30
0.000000
0
VERTEX
8
0
10
916.000000
20
1249.000000
0
VERTEX
8
0
10
908.000000
20
1249.000000
0
VERTEX
8
0
10
907.000000
20
1250.000000
0
SEQEND
0
POLYLINE
8
0
6
CONTINUOUS
66
1
62
250
10
0.0
20
0.0
30
0.000000
0
VERTEX
8
0
10
921.000000
20
1246.000000
0
VERTEX
8
0
10
921.000000
20
1257.000000
0
SEQEND
0
POLYLINE
8
0
6
CONTINUOUS
66
1
62
250
10
0.0
20
0.0
30
0.000000
0
VERTEX
8
0
10
286.000000
20
1229.000000
42
-0.071068
0
VERTEX
8
0
10
293.000000
20
1235.000000
0
VERTEX
8
0
10
294.000000
20
1237.000000
0
SEQEND
0
POLYLINE
8
0
6
CONTINUOUS
66
1
62
250
10
0.0
20
0.0
30
0.000000
0
VERTEX
8
0
10
309.000000
20
1229.000000
0
VERTEX
8
0
10
309.000000
20
1240.000000
0
SEQEND
0
POLYLINE
8
0
6
CONTINUOUS
66
1
62
250
10
0.0
20
0.0
30
0.000000
0
VERTEX
8
0
10
921.000000
20
1221.000000
0
VERTEX
8
0
10
921.000000
20
1232.000000
0
SEQEND
0
POLYLINE
8
0
6
CONTINUOUS
66
1
62
250
10
0.0
20
0.0
30
0.000000
0
VERTEX
8
0
10
268.000000
20
1211.000000
42
-0.071068
0
VERTEX
8
0
10
276.000000
20
1218.000000
0
SEQEND
0
POLYLINE
8
0
6
CONTINUOUS
66
1
62
250
10
0.0
20
0.0
30
0.000000
0
VERTEX
8
0
10
309.000000
20
1204.000000
0
VERTEX
8
0
10
309.000000
20
1215.000000
0
SEQEND
0
POLYLINE
8
0
6
CONTINUOUS
66
1
62
250
10
0.0
20
0.0
30
0.000000
0
VERTEX
8
0
10
921.000000
20
1196.000000
0
VERTEX
8
0
10
921.000000
20
1207.000000
0
SEQEND
0
POLYLINE
8
0
6
CONTINUOUS
66
1
62
250
10
0.0
20
0.0
30
0.000000
0
VERTEX
8
0
10
250.000000
20
1193.000000
42
-0.071068
0
VERTEX
8
0
10
258.000000
20
1200.000000
0
SEQEND
0
POLYLINE
8
0
6
CONTINUOUS
66
1
62
250
10
0.0
20
0.0
30
0.000000
0
VERTEX
8
0
10
309.000000
20
1179.000000
0
VERTEX
8
0
10
309.000000
20
1190.000000
0
SEQEND
0
POLYLINE
8
0
6
CONTINUOUS
66
1
62
250
10
0.0
20
0.0
30
0.000000
0
VERTEX
8
0
10
233.000000
20
1175.000000
0
VERTEX
8
0
10
241.000000
20
1183.000000
0
SEQEND
0
POLYLINE
8
0
6
CONTINUOUS
66
1
62
250
10
0.0
20
0.0
30
0.000000
0
VERTEX
8
0
10
921.000000
20
1171.000000
0
VERTEX
8
0
10
921.000000
20
1182.000000
0
SEQEND
0
POLYLINE
8
0
6
CONTINUOUS
66
1
62
250
10
0.0
20
0.0
30
0.000000
0
VERTEX
8
0
10
214.000000
20
1157.000000
0
VERTEX
8
0
10
214.900000
20
1157.200000
0
VERTEX
8
0
10
219.000000
20
1161.000000
42
-0.150174
0
VERTEX
8
0
10
223.000000
20
1164.000000
0
SEQEND
0
POLYLINE
8
0
6
CONTINUOUS
66
1
62
250
10
0.0
20
0.0
30
0.000000
0
VERTEX
8
0
10
309.000000
20
1154.000000
0
VERTEX
8
0
10
309.000000
20
1165.000000
0
SEQEND
0
POLYLINE
8
0
6
CONTINUOUS
66
1
62
250
10
0.0
20
0.0
30
0.000000
0
VERTEX
8
0
10
921.000000
20
1146.000000
0
VERTEX
8
0
10
921.000000
20
1157.000000
0
SEQEND
0
POLYLINE
8
0
6
CONTINUOUS
66
1
62
250
10
0.0
20
0.0
30
0.000000
0
VERTEX
8
0
10
198.000000
20
1140.000000
42
-0.071068
0
VERTEX
8
0
10
206.000000
20
1147.000000
0
SEQEND
0
POLYLINE
8
0
6
CONTINUOUS
66
1
62
250
10
0.0
20
0.0
30
0.000000
0
VERTEX
8
0
10
309.000000
20
1129.000000
0
VERTEX
8
0
10
309.000000
20
1140.000000
0
SEQEND
0
POLYLINE
8
0
6
CONTINUOUS
66
1
62
250
10
0.0
20
0.0
30
0.000000
0
VERTEX
8
0
10
1302.000000
20
1129.000000
42
-0.101886
0
VERTEX
8
0
10
1303.000000
20
1146.000000
0
VERTEX
8
0
10
1301.000000
20
1250.000000
0
VERTEX
8
0
10
1301.300000
20
1251.900000
0
VERTEX
8
0
10
1302.000000
20
1253.000000
0
VERTEX
8
0
10
1302.000000
20
1701.000000
0
VERTEX
8
0
10
1300.000000
20
1703.000000
0
VERTEX
8
0
10
1127.000000
20
1703.000000
0
VERTEX
8
0
10
1125.493592
20
1700.993752
0
VERTEX
8
0
10
1125.000000
20
1623.000000
0
VERTEX
8
0
10
1125.000000
20
1569.000000
0
SEQEND
0
POLYLINE
8
0
6
CONTINUOUS
66
1
62
250
10
0.0
20
0.0
30
0.000000
0
VERTEX
8
0
10
180.000000
20
1122.000000
42
-0.071068
0
VERTEX
8
0
10
188.000000
20
1129.000000
0
SEQEND
0
POLYLINE
8
0
6
CONTINUOUS
66
1
62
250
10
0.0
20
0.0
30
0.000000
0
VERTEX
8
0
10
921.000000
20
1121.000000
0
VERTEX
8
0
10
921.000000
20
1132.000000
0
SEQEND
0
POLYLINE
8
0
6
CONTINUOUS
66
1
62
250
10
0.0
20
0.0
30
0.000000
0
VERTEX
8
0
10
1301.000000
20
1112.000000
0
VERTEX
8
0
10
1301.000000
20
1123.000000
0
SEQEND
0
POLYLINE
8
0
6
CONTINUOUS
66
1
62
250
10
0.0
20
0.0
30
0.000000
0
VERTEX
8
0
10
162.000000
20
1104.000000
42
-0.071068
0
VERTEX
8
0
10
170.000000
20
1111.000000
0
SEQEND
0
POLYLINE
8
0
6
CONTINUOUS
66
1
62
250
10
0.0
20
0.0
30
0.000000
0
VERTEX
8
0
10
309.000000
20
1104.000000
0
VERTEX
8
0
10
309.000000
20
1115.000000
0
SEQEND
0
POLYLINE
8
0
6
CONTINUOUS
66
1
62
250
10
0.0
20
0.0
30
0.000000
0
VERTEX
8
0
10
921.000000
20
1096.000000
0
VERTEX
8
0
10
921.000000
20
1107.000000
0
SEQEND
0
POLYLINE
8
0
6
CONTINUOUS
66
1
62
250
10
0.0
20
0.0
30
0.000000
0
VERTEX
8
0
10
145.000000
20
1087.000000
42
-0.071068
0
VERTEX
8
0
10
153.000000
20
1094.000000
0
SEQEND
0
POLYLINE
8
0
6
CONTINUOUS
66
1
62
250
10
0.0
20
0.0
30
0.000000
0
VERTEX
8
0
10
1301.000000
20
1087.000000
0
VERTEX
8
0
10
1301.000000
20
1098.000000
0
SEQEND
0
POLYLINE
8
0
6
CONTINUOUS
66
1
62
250
10
0.0
20
0.0
30
0.000000
0
VERTEX
8
0
10
309.000000
20
1079.000000
0
VERTEX
8
0
10
309.000000
20
1090.000000
0
SEQEND
0
POLYLINE
8
0
6
CONTINUOUS
66
1
62
250
10
0.0
20
0.0
30
0.000000
0
VERTEX
8
0
10
921.000000
20
1071.000000
0
VERTEX
8
0
10
921.000000
20
1082.000000
0
SEQEND
0
POLYLINE
8
0
6
CONTINUOUS
66
1
62
250
10
0.0
20
0.0
30
0.000000
0
VERTEX
8
0
10
127.000000
20
1069.000000
42
-0.071068
0
VERTEX
8
0
10
135.000000
20
1076.000000
0
SEQEND
0
POLYLINE
8
0
6
CONTINUOUS
66
1
62
250
10
0.0
20
0.0
30
0.000000
0
VERTEX
8
0
10
1301.000000
20
1062.000000
0
VERTEX
8
0
10
1301.000000
20
1073.000000
0
SEQEND
0
POLYLINE
8
0
6
CONTINUOUS
66
1
62
250
10
0.0
20
0.0
30
0.000000
0
VERTEX
8
0
10
309.000000
20
1054.000000
0
VERTEX
8
0
10
309.000000
20
1065.000000
0
SEQEND
0
POLYLINE
8
0
6
CONTINUOUS
66
1
62
250
10
0.0
20
0.0
30
0.000000
0
VERTEX
8
0
10
106.000000
20
1049.000000
0
VERTEX
8
0
10
66.000000
20
1097.000000
0
VERTEX
8
0
10
66.000000
20
1247.000000
0
VERTEX
8
0
10
68.000000
20
1249.000000
0
VERTEX
8
0
10
281.000000
20
1249.000000
0
VERTEX
8
0
10
293.000000
20
1237.000000
0
VERTEX
8
0
10
295.000000
20
1237.000000
0
VERTEX
8
0
10
303.000000
20
1245.000000
0
VERTEX
8
0
10
306.000000
20
1249.000000
0
SEQEND
0
POLYLINE
8
0
6
CONTINUOUS
66
1
62
250
10
0.0
20
0.0
30
0.000000
0
VERTEX
8
0
10
921.000000
20
1046.000000
0
VERTEX
8
0
10
921.000000
20
1057.000000
0
SEQEND
0
POLYLINE
8
0
6
CONTINUOUS
66
1
62
250
10
0.0
20
0.0
30
0.000000
0
VERTEX
8
0
10
1301.000000
20
1037.000000
0
VERTEX
8
0
10
1301.000000
20
1048.000000
0
SEQEND
0
POLYLINE
8
0
6
CONTINUOUS
66
1
62
250
10
0.0
20
0.0
30
0.000000
0
VERTEX
8
0
10
309.000000
20
1029.000000
0
VERTEX
8
0
10
309.000000
20
1040.000000
0
SEQEND
0
POLYLINE
8
0
6
CONTINUOUS
66
1
62
250
10
0.0
20
0.0
30
0.000000
0
VERTEX
8
0
10
921.000000
20
1021.000000
0
VERTEX
8
0
10
921.000000
20
1032.000000
0
SEQEND
0
POLYLINE
8
0
6
CONTINUOUS
66
1
62
250
10
0.0
20
0.0
30
0.000000
0
VERTEX
8
0
10
1301.000000
20
1012.000000
0
VERTEX
8
0
10
1301.000000
20
1023.000000
0
SEQEND
0
POLYLINE
8
0
6
CONTINUOUS
66
1
62
250
10
0.0
20
0.0
30
0.000000
0
VERTEX
8
0
10
309.000000
20
1004.000000
0
VERTEX
8
0
10
309.000000
20
1015.000000
0
SEQEND
0
POLYLINE
8
0
6
CONTINUOUS
66
1
62
250
10
0.0
20
0.0
30
0.000000
0
VERTEX
8
0
10
921.000000
20
996.000000
0
VERTEX
8
0
10
921.000000
20
1007.000000
0
SEQEND
0
POLYLINE
8
0
6
CONTINUOUS
66
1
62
250
10
0.0
20
0.0
30
0.000000
0
VERTEX
8
0
10
1301.000000
20
987.000000
0
VERTEX
8
0
10
1301.000000
20
998.000000
0
SEQEND
0
POLYLINE
8
0
6
CONTINUOUS
66
1
62
250
10
0.0
20
0.0
30
0.000000
0
VERTEX
8
0
10
309.000000
20
979.000000
0
VERTEX
8
0
10
309.000000
20
990.000000
0
SEQEND
0
POLYLINE
8
0
6
CONTINUOUS
66
1
62
250
10
0.0
20
0.0
30
0.000000
0
VERTEX
8
0
10
921.000000
20
971.000000
0
VERTEX
8
0
10
921.000000
20
982.000000
0
SEQEND
0
POLYLINE
8
0
6
CONTINUOUS
66
1
62
250
10
0.0
20
0.0
30
0.000000
0
VERTEX
8
0
10
1302.000000
20
959.000000
42
0.175706
0
VERTEX
8
0
10
1314.048780
20
958.560976
42
0.161517
0
VERTEX
8
0
10
1348.100000
20
969.800000
0
VERTEX
8
0
10
1349.000000
20
970.000000
0
VERTEX
8
0
10
1354.000000
20
978.000000
0
VERTEX
8
0
10
1354.000000
20
1124.000000
42
0.227949
0
VERTEX
8
0
10
1327.100000
20
1141.300000
0
VERTEX
8
0
10
1303.000000
20
1146.000000
0
SEQEND
0
POLYLINE
8
0
6
CONTINUOUS
66
1
62
250
10
0.0
20
0.0
30
0.000000
0
VERTEX
8
0
10
309.000000
20
954.000000
0
VERTEX
8
0
10
309.000000
20
965.000000
0
SEQEND
0
POLYLINE
8
0
6
CONTINUOUS
66
1
62
250
10
0.0
20
0.0
30
0.000000
0
VERTEX
8
0
10
921.000000
20
946.000000
0
VERTEX
8
0
10
921.000000
20
957.000000
0
SEQEND
0
POLYLINE
8
0
6
CONTINUOUS
66
1
62
250
10
0.0
20
0.0
30
0.000000
0
VERTEX
8
0
10
309.000000
20
929.000000
0
VERTEX
8
0
10
309.000000
20
940.000000
0
SEQEND
0
POLYLINE
8
0
6
CONTINUOUS
66
1
62
250
10
0.0
20
0.0
30
0.000000
0
VERTEX
8
0
10
921.000000
20
921.000000
0
VERTEX
8
0
10
921.000000
20
932.000000
0
SEQEND
0
POLYLINE
8
0
6
CONTINUOUS
66
1
62
250
10
0.0
20
0.0
30
0.000000
0
VERTEX
8
0
10
309.000000
20
904.000000
0
VERTEX
8
0
10
309.000000
20
915.000000
0
SEQEND
0
POLYLINE
8
0
6
CONTINUOUS
66
1
62
250
10
0.0
20
0.0
30
0.000000
0
VERTEX
8
0
10
921.000000
20
896.000000
0
VERTEX
8
0
10
921.000000
20
907.000000
0
SEQEND
0
POLYLINE
8
0
6
CONTINUOUS
66
1
62
250
10
0.0
20
0.0
30
0.000000
0
VERTEX
8
0
10
309.000000
20
879.000000
0
VERTEX
8
0
10
309.000000
20
890.000000
0
SEQEND
0
POLYLINE
8
0
6
CONTINUOUS
66
1
62
250
10
0.0
20
0.0
30
0.000000
0
VERTEX
8
0
10
921.000000
20
871.000000
0
VERTEX
8
0
10
921.000000
20
882.000000
0
SEQEND
0
POLYLINE
8
0
6
CONTINUOUS
66
1
62
250
10
0.0
20
0.0
30
0.000000
0
VERTEX
8
0
10
319.000000
20
867.000000
0
VERTEX
8
0
10
318.000000
20
866.000000
0
VERTEX
8
0
10
310.000000
20
867.000000
0
VERTEX
8
0
10
309.000000
20
866.000000
0
VERTEX
8
0
10
172.955446
20
880.554455
0
VERTEX
8
0
10
153.955446
20
882.554455
0
VERTEX
8
0
10
66.000000
20
892.000000
0
VERTEX
8
0
10
66.000000
20
1007.000000
0
VERTEX
8
0
10
104.000000
20
1045.000000
42
0.120666
0
VERTEX
8
0
10
106.000000
20
1049.000000
0
VERTEX
8
0
10
106.900000
20
1049.200000
0
VERTEX
8
0
10
111.000000
20
1053.000000
0
VERTEX
8
0
10
112.000000
20
1054.000000
42
-0.099020
0
VERTEX
8
0
10
117.000000
20
1058.000000
0
SEQEND
0
POLYLINE
8
0
6
CONTINUOUS
66
1
62
252
10
0.0
20
0.0
30
0.000000
0
VERTEX
8
0
10
332.000000
20
866.000000
0
VERTEX
8
0
10
343.000000
20
866.000000
0
VERTEX
8
0
10
344.000000
20
867.000000
0
SEQEND
0
POLYLINE
8
0
6
CONTINUOUS
66
1
62
252
10
0.0
20
0.0
30
0.000000
0
VERTEX
8
0
10
357.000000
20
866.000000
0
VERTEX
8
0
10
368.000000
20
866.000000
0
VERTEX
8
0
10
369.000000
20
867.000000
0
SEQEND
0
POLYLINE
8
0
6
CONTINUOUS
66
1
62
252
10
0.0
20
0.0
30
0.000000
0
VERTEX
8
0
10
382.000000
20
866.000000
0
VERTEX
8
0
10
393.000000
20
866.000000
0
VERTEX
8
0
10
394.000000
20
867.000000
0
SEQEND
0
POLYLINE
8
0
6
CONTINUOUS
66
1
62
252
10
0.0
20
0.0
30
0.000000
0
VERTEX
8
0
10
407.000000
20
866.000000
0
VERTEX
8
0
10
418.000000
20
866.000000
0
VERTEX
8
0
10
419.000000
20
867.000000
0
SEQEND
0
POLYLINE
8
0
6
CONTINUOUS
66
1
62
252
10
0.0
20
0.0
30
0.000000
0
VERTEX
8
0
10
432.000000
20
866.000000
0
VERTEX
8
0
10
443.000000
20
866.000000
0
VERTEX
8
0
10
444.000000
20
867.000000
0
SEQEND
0
POLYLINE
8
0
6
CONTINUOUS
66
1
62
252
10
0.0
20
0.0
30
0.000000
0
VERTEX
8
0
10
457.000000
20
866.000000
0
VERTEX
8
0
10
468.000000
20
866.000000
0
VERTEX
8
0
10
469.000000
20
867.000000
0
SEQEND
0
POLYLINE
8
0
6
CONTINUOUS
66
1
62
252
10
0.0
20
0.0
30
0.000000
0
VERTEX
8
0
10
482.000000
20
866.000000
0
VERTEX
8
0
10
493.000000
20
866.000000
0
VERTEX
8
0
10
494.000000
20
867.000000
0
SEQEND
0
POLYLINE
8
0
6
CONTINUOUS
66
1
62
252
10
0.0
20
0.0
30
0.000000
0
VERTEX
8
0
10
507.000000
20
866.000000
0
VERTEX
8
0
10
518.000000
20
866.000000
0
VERTEX
8
0
10
519.000000
20
867.000000
0
SEQEND
0
POLYLINE
8
0
6
CONTINUOUS
66
1
62
252
10
0.0
20
0.0
30
0.000000
0
VERTEX
8
0
10
532.000000
20
866.000000
0
VERTEX
8
0
10
543.000000
20
866.000000
0
VERTEX
8
0
10
544.000000
20
867.000000
0
SEQEND
0
POLYLINE
8
0
6
CONTINUOUS
66
1
62
252
10
0.0
20
0.0
30
0.000000
0
VERTEX
8
0
10
557.000000
20
866.000000
0
VERTEX
8
0
10
568.000000
20
866.000000
0
VERTEX
8
0
10
569.000000
20
867.000000
0
SEQEND
0
POLYLINE
8
0
6
CONTINUOUS
66
1
62
251
10
0.0
20
0.0
30
0.000000
0
VERTEX
8
0
10
582.000000
20
866.000000
0
VERTEX
8
0
10
594.000000
20
866.000000
0
SEQEND
0
POLYLINE
8
0
6
CONTINUOUS
66
1
62
251
10
0.0
20
0.0
30
0.000000
0
VERTEX
8
0
10
607.000000
20
866.000000
0
VERTEX
8
0
10
619.000000
20
866.000000
0
SEQEND
0
POLYLINE
8
0
6
CONTINUOUS
66
1
62
251
10
0.0
20
0.0
30
0.000000
0
VERTEX
8
0
10
632.000000
20
866.000000
0
VERTEX
8
0
10
644.000000
20
866.000000
0
SEQEND
0
POLYLINE
8
0
6
CONTINUOUS
66
1
62
251
10
0.0
20
0.0
30
0.000000
0
VERTEX
8
0
10
657.000000
20
866.000000
0
VERTEX
8
0
10
669.000000
20
866.000000
0
SEQEND
0
POLYLINE
8
0
6
CONTINUOUS
66
1
62
251
10
0.0
20
0.0
30
0.000000
0
VERTEX
8
0
10
682.000000
20
866.000000
0
VERTEX
8
0
10
694.000000
20
866.000000
0
SEQEND
0
POLYLINE
8
0
6
CONTINUOUS
66
1
62
251
10
0.0
20
0.0
30
0.000000
0
VERTEX
8
0
10
707.000000
20
866.000000
0
VERTEX
8
0
10
719.000000
20
866.000000
0
SEQEND
0
POLYLINE
8
0
6
CONTINUOUS
66
1
62
251
10
0.0
20
0.0
30
0.000000
0
VERTEX
8
0
10
732.000000
20
866.000000
0
VERTEX
8
0
10
744.000000
20
866.000000
0
SEQEND
0
POLYLINE
8
0
6
CONTINUOUS
66
1
62
251
10
0.0
20
0.0
30
0.000000
0
VERTEX
8
0
10
757.000000
20
866.000000
0
VERTEX
8
0
10
769.000000
20
866.000000
0
SEQEND
0
POLYLINE
8
0
6
CONTINUOUS
66
1
62
251
10
0.0
20
0.0
30
0.000000
0
VERTEX
8
0
10
782.000000
20
866.000000
0
VERTEX
8
0
10
794.000000
20
866.000000
0
SEQEND
0
POLYLINE
8
0
6
CONTINUOUS
66
1
62
251
10
0.0
20
0.0
30
0.000000
0
VERTEX
8
0
10
807.000000
20
866.000000
0
VERTEX
8
0
10
819.000000
20
866.000000
0
SEQEND
0
POLYLINE
8
0
6
CONTINUOUS
66
1
62
251
10
0.0
20
0.0
30
0.000000
0
VERTEX
8
0
10
832.000000
20
866.000000
0
VERTEX
8
0
10
844.000000
20
866.000000
0
SEQEND
0
POLYLINE
8
0
6
CONTINUOUS
66
1
62
251
10
0.0
20
0.0
30
0.000000
0
VERTEX
8
0
10
857.000000
20
866.000000
0
VERTEX
8
0
10
869.000000
20
866.000000
0
SEQEND
0
POLYLINE
8
0
6
CONTINUOUS
66
1
62
251
10
0.0
20
0.0
30
0.000000
0
VERTEX
8
0
10
882.000000
20
866.000000
0
VERTEX
8
0
10
894.000000
20
866.000000
0
SEQEND
0
POLYLINE
8
0
6
CONTINUOUS
66
1
62
251
10
0.0
20
0.0
30
0.000000
0
VERTEX
8
0
10
907.000000
20
866.000000
0
VERTEX
8
0
10
916.000000
20
866.000000
0
SEQEND
0
POLYLINE
8
0
6
CONTINUOUS
66
1
62
250
10
0.0
20
0.0
30
0.000000
0
VERTEX
8
0
10
1301.000000
20
855.000000
0
VERTEX
8
0
10
1302.000000
20
959.000000
0
VERTEX
8
0
10
1301.000000
20
960.000000
0
VERTEX
8
0
10
1301.000000
20
975.000000
0
SEQEND
0
POLYLINE
8
0
6
CONTINUOUS
66
1
62
250
10
0.0
20
0.0
30
0.000000
0
VERTEX
8
0
10
309.000000
20
854.000000
42
0.094028
0
VERTEX
8
0
10
308.000000
20
866.000000
0
SEQEND
0
POLYLINE
8
0
6
CONTINUOUS
66
1
62
250
10
0.0
20
0.0
30
0.000000
0
VERTEX
8
0
10
921.000000
20
846.000000
0
VERTEX
8
0
10
921.000000
20
857.000000
0
SEQEND
0
POLYLINE
8
0
6
CONTINUOUS
66
1
62
250
10
0.0
20
0.0
30
0.000000
0
VERTEX
8
0
10
1008.000000
20
843.000000
0
VERTEX
8
0
10
1008.000000
20
854.000000
0
SEQEND
0
POLYLINE
8
0
6
CONTINUOUS
66
1
62
250
10
0.0
20
0.0
30
0.000000
0
VERTEX
8
0
10
1086.000000
20
843.000000
0
VERTEX
8
0
10
1086.000000
20
854.000000
0
SEQEND
0
POLYLINE
8
0
6
CONTINUOUS
66
1
62
251
10
0.0
20
0.0
30
0.000000
0
VERTEX
8
0
10
1234.000000
20
842.000000
0
VERTEX
8
0
10
1234.000000
20
854.000000
0
SEQEND
0
POLYLINE
8
0
6
CONTINUOUS
66
1
62
250
10
0.0
20
0.0
30
0.000000
0
VERTEX
8
0
10
309.000000
20
829.000000
0
VERTEX
8
0
10
309.000000
20
840.000000
0
SEQEND
0
POLYLINE
8
0
6
CONTINUOUS
66
1
62
250
10
0.0
20
0.0
30
0.000000
0
VERTEX
8
0
10
921.000000
20
821.000000
0
VERTEX
8
0
10
921.000000
20
832.000000
0
SEQEND
0
POLYLINE
8
0
6
CONTINUOUS
66
1
62
250
10
0.0
20
0.0
30
0.000000
0
VERTEX
8
0
10
1008.000000
20
818.000000
0
VERTEX
8
0
10
1008.000000
20
828.000000
0
SEQEND
0
POLYLINE
8
0
6
CONTINUOUS
66
1
62
250
10
0.0
20
0.0
30
0.000000
0
VERTEX
8
0
10
1086.000000
20
818.000000
0
VERTEX
8
0
10
1086.000000
20
828.000000
0
SEQEND
0
POLYLINE
8
0
6
CONTINUOUS
66
1
62
251
10
0.0
20
0.0
30
0.000000
0
VERTEX
8
0
10
1234.000000
20
817.000000
0
VERTEX
8
0
10
1234.000000
20
828.000000
0
SEQEND
0
POLYLINE
8
0
6
CONTINUOUS
66
1
62
250
10
0.0
20
0.0
30
0.000000
0
VERTEX
8
0
10
309.000000
20
804.000000
0
VERTEX
8
0
10
309.000000
20
815.000000
0
SEQEND
0
POLYLINE
8
0
6
CONTINUOUS
66
1
62
250
10
0.0
20
0.0
30
0.000000
0
VERTEX
8
0
10
921.000000
20
796.000000
0
VERTEX
8
0
10
921.000000
20
807.000000
0
SEQEND
0
POLYLINE
8
0
6
CONTINUOUS
66
1
62
250
10
0.0
20
0.0
30
0.000000
0
VERTEX
8
0
10
1008.000000
20
793.000000
0
VERTEX
8
0
10
1008.000000
20
803.000000
0
SEQEND
0
POLYLINE
8
0
6
CONTINUOUS
66
1
62
250
10
0.0
20
0.0
30
0.000000
0
VERTEX
8
0
10
1086.000000
20
793.000000
0
VERTEX
8
0
10
1086.000000
20
803.000000
0
SEQEND
0
POLYLINE
8
0
6
CONTINUOUS
66
1
62
251
10
0.0
20
0.0
30
0.000000
0
VERTEX
8
0
10
1234.000000
20
792.000000
0
VERTEX
8
0
10
1234.000000
20
803.000000
0
SEQEND
0
POLYLINE
8
0
6
CONTINUOUS
66
1
62
250
10
0.0
20
0.0
30
0.000000
0
VERTEX
8
0
10
309.000000
20
779.000000
0
VERTEX
8
0
10
309.000000
20
790.000000
0
SEQEND
0
POLYLINE
8
0
6
CONTINUOUS
66
1
62
250
10
0.0
20
0.0
30
0.000000
0
VERTEX
8
0
10
921.000000
20
771.000000
0
VERTEX
8
0
10
921.000000
20
782.000000
0
SEQEND
0
POLYLINE
8
0
6
CONTINUOUS
66
1
62
250
10
0.0
20
0.0
30
0.000000
0
VERTEX
8
0
10
1008.000000
20
768.000000
0
VERTEX
8
0
10
1008.000000
20
778.000000
0
SEQEND
0
POLYLINE
8
0
6
CONTINUOUS
66
1
62
250
10
0.0
20
0.0
30
0.000000
0
VERTEX
8
0
10
1086.000000
20
768.000000
0
VERTEX
8
0
10
1086.000000
20
778.000000
0
SEQEND
0
POLYLINE
8
0
6
CONTINUOUS
66
1
62
251
10
0.0
20
0.0
30
0.000000
0
VERTEX
8
0
10
1234.000000
20
767.000000
0
VERTEX
8
0
10
1234.000000
20
778.000000
0
SEQEND
0
POLYLINE
8
0
6
CONTINUOUS
66
1
62
250
10
0.0
20
0.0
30
0.000000
0
VERTEX
8
0
10
309.000000
20
754.000000
0
VERTEX
8
0
10
309.000000
20
765.000000
0
SEQEND
0
POLYLINE
8
0
6
CONTINUOUS
66
1
62
250
10
0.0
20
0.0
30
0.000000
0
VERTEX
8
0
10
921.000000
20
746.000000
0
VERTEX
8
0
10
921.000000
20
757.000000
0
SEQEND
0
POLYLINE
8
0
6
CONTINUOUS
66
1
62
250
10
0.0
20
0.0
30
0.000000
0
VERTEX
8
0
10
1008.000000
20
743.000000
0
VERTEX
8
0
10
1008.000000
20
753.000000
0
SEQEND
0
POLYLINE
8
0
6
CONTINUOUS
66
1
62
250
10
0.0
20
0.0
30
0.000000
0
VERTEX
8
0
10
1086.000000
20
743.000000
0
VERTEX
8
0
10
1086.000000
20
753.000000
0
SEQEND
0
POLYLINE
8
0
6
CONTINUOUS
66
1
62
251
10
0.0
20
0.0
30
0.000000
0
VERTEX
8
0
10
1234.000000
20
742.000000
0
VERTEX
8
0
10
1234.000000
20
753.000000
0
SEQEND
0
POLYLINE
8
0
6
CONTINUOUS
66
1
62
250
10
0.0
20
0.0
30
0.000000
0
VERTEX
8
0
10
309.000000
20
729.000000
0
VERTEX
8
0
10
309.000000
20
740.000000
0
SEQEND
0
POLYLINE
8
0
6
CONTINUOUS
66
1
62
250
10
0.0
20
0.0
30
0.000000
0
VERTEX
8
0
10
921.000000
20
721.000000
0
VERTEX
8
0
10
921.000000
20
732.000000
0
SEQEND
0
POLYLINE
8
0
6
CONTINUOUS
66
1
62
250
10
0.0
20
0.0
30
0.000000
0
VERTEX
8
0
10
1008.000000
20
718.000000
0
VERTEX
8
0
10
1008.000000
20
728.000000
0
SEQEND
0
POLYLINE
8
0
6
CONTINUOUS
66
1
62
250
10
0.0
20
0.0
30
0.000000
0
VERTEX
8
0
10
1086.000000
20
718.000000
0
VERTEX
8
0
10
1086.000000
20
728.000000
0
SEQEND
0
POLYLINE
8
0
6
CONTINUOUS
66
1
62
251
10
0.0
20
0.0
30
0.000000
0
VERTEX
8
0
10
1234.000000
20
717.000000
0
VERTEX
8
0
10
1234.000000
20
727.000000
0
VERTEX
8
0
10
1233.000000
20
728.000000
0
SEQEND
0
POLYLINE
8
0
6
CONTINUOUS
66
1
62
250
10
0.0
20
0.0
30
0.000000
0
VERTEX
8
0
10
309.000000
20
704.000000
0
VERTEX
8
0
10
309.000000
20
715.000000
0
SEQEND
0
POLYLINE
8
0
6
CONTINUOUS
66
1
62
250
10
0.0
20
0.0
30
0.000000
0
VERTEX
8
0
10
921.000000
20
696.000000
0
VERTEX
8
0
10
921.000000
20
707.000000
0
SEQEND
0
POLYLINE
8
0
6
CONTINUOUS
66
1
62
250
10
0.0
20
0.0
30
0.000000
0
VERTEX
8
0
10
1008.000000
20
693.000000
0
VERTEX
8
0
10
1008.000000
20
703.000000
0
SEQEND
0
POLYLINE
8
0
6
CONTINUOUS
66
1
62
250
10
0.0
20
0.0
30
0.000000
0
VERTEX
8
0
10
1086.000000
20
693.000000
0
VERTEX
8
0
10
1086.000000
20
703.000000
0
SEQEND
0
POLYLINE
8
0
6
CONTINUOUS
66
1
62
251
10
0.0
20
0.0
30
0.000000
0
VERTEX
8
0
10
1234.000000
20
692.000000
0
VERTEX
8
0
10
1234.000000
20
702.000000
0
VERTEX
8
0
10
1233.000000
20
703.000000
0
SEQEND
0
POLYLINE
8
0
6
CONTINUOUS
66
1
62
250
10
0.0
20
0.0
30
0.000000
0
VERTEX
8
0
10
309.000000
20
679.000000
0
VERTEX
8
0
10
309.000000
20
690.000000
0
SEQEND
0
POLYLINE
8
0
6
CONTINUOUS
66
1
62
250
10
0.0
20
0.0
30
0.000000
0
VERTEX
8
0
10
921.000000
20
671.000000
0
VERTEX
8
0
10
921.000000
20
682.000000
0
SEQEND
0
POLYLINE
8
0
6
CONTINUOUS
66
1
62
250
10
0.0
20
0.0
30
0.000000
0
VERTEX
8
0
10
1008.000000
20
668.000000
0
VERTEX
8
0
10
1008.000000
20
678.000000
0
SEQEND
0
POLYLINE
8
0
6
CONTINUOUS
66
1
62
250
10
0.0
20
0.0
30
0.000000
0
VERTEX
8
0
10
1086.000000
20
668.000000
0
VERTEX
8
0
10
1086.000000
20
678.000000
0
SEQEND
0
POLYLINE
8
0
6
CONTINUOUS
66
1
62
251
10
0.0
20
0.0
30
0.000000
0
VERTEX
8
0
10
1234.000000
20
667.000000
0
VERTEX
8
0
10
1234.000000
20
677.000000
0
VERTEX
8
0
10
1233.000000
20
678.000000
0
SEQEND
0
POLYLINE
8
0
6
CONTINUOUS
66
1
62
250
10
0.0
20
0.0
30
0.000000
0
VERTEX
8
0
10
309.000000
20
654.000000
0
VERTEX
8
0
10
309.000000
20
665.000000
0
SEQEND
0
POLYLINE
8
0
6
CONTINUOUS
66
1
62
250
10
0.0
20
0.0
30
0.000000
0
VERTEX
8
0
10
921.000000
20
646.000000
0
VERTEX
8
0
10
921.000000
20
657.000000
0
SEQEND
0
POLYLINE
8
0
6
CONTINUOUS
66
1
62
250
10
0.0
20
0.0
30
0.000000
0
VERTEX
8
0
10
1008.000000
20
643.000000
0
VERTEX
8
0
10
1008.000000
20
653.000000
0
SEQEND
0
POLYLINE
8
0
6
CONTINUOUS
66
1
62
250
10
0.0
20
0.0
30
0.000000
0
VERTEX
8
0
10
1086.000000
20
643.000000
0
VERTEX
8
0
10
1086.000000
20
653.000000
0
SEQEND
0
POLYLINE
8
0
6
CONTINUOUS
66
1
62
251
10
0.0
20
0.0
30
0.000000
0
VERTEX
8
0
10
1234.000000
20
642.000000
0
VERTEX
8
0
10
1234.000000
20
652.000000
0
VERTEX
8
0
10
1233.000000
20
653.000000
0
SEQEND
0
POLYLINE
8
0
6
CONTINUOUS
66
1
62
250
10
0.0
20
0.0
30
0.000000
0
VERTEX
8
0
10
309.000000
20
629.000000
0
VERTEX
8
0
10
309.000000
20
640.000000
0
SEQEND
0
POLYLINE
8
0
6
CONTINUOUS
66
1
62
250
10
0.0
20
0.0
30
0.000000
0
VERTEX
8
0
10
921.000000
20
621.000000
0
VERTEX
8
0
10
921.000000
20
632.000000
0
SEQEND
0
POLYLINE
8
0
6
CONTINUOUS
66
1
62
250
10
0.0
20
0.0
30
0.000000
0
VERTEX
8
0
10
1008.000000
20
618.000000
0
VERTEX
8
0
10
1008.000000
20
628.000000
0
SEQEND
0
POLYLINE
8
0
6
CONTINUOUS
66
1
62
250
10
0.0
20
0.0
30
0.000000
0
VERTEX
8
0
10
1086.000000
20
618.000000
0
VERTEX
8
0
10
1086.000000
20
628.000000
0
SEQEND
0
POLYLINE
8
0
6
CONTINUOUS
66
1
62
251
10
0.0
20
0.0
30
0.000000
0
VERTEX
8
0
10
1234.000000
20
617.000000
0
VERTEX
8
0
10
1234.000000
20
627.000000
0
VERTEX
8
0
10
1233.000000
20
628.000000
0
SEQEND
0
POLYLINE
8
0
6
CONTINUOUS
66
1
62
250
10
0.0
20
0.0
30
0.000000
0
VERTEX
8
0
10
309.000000
20
604.000000
0
VERTEX
8
0
10
309.000000
20
615.000000
0
SEQEND
0
POLYLINE
8
0
6
CONTINUOUS
66
1
62
250
10
0.0
20
0.0
30
0.000000
0
VERTEX
8
0
10
921.000000
20
596.000000
0
VERTEX
8
0
10
921.000000
20
607.000000
0
SEQEND
0
POLYLINE
8
0
6
CONTINUOUS
66
1
62
250
10
0.0
20
0.0
30
0.000000
0
VERTEX
8
0
10
1008.000000
20
593.000000
0
VERTEX
8
0
10
1008.000000
20
603.000000
0
SEQEND
0
POLYLINE
8
0
6
CONTINUOUS
66
1
62
250
10
0.0
20
0.0
30
0.000000
0
VERTEX
8
0
10
1086.000000
20
593.000000
0
VERTEX
8
0
10
1086.000000
20
603.000000
0
SEQEND
0
POLYLINE
8
0
6
CONTINUOUS
66
1
62
251
10
0.0
20
0.0
30
0.000000
0
VERTEX
8
0
10
1234.000000
20
592.000000
0
VERTEX
8
0
10
1234.000000
20
602.000000
0
VERTEX
8
0
10
1233.000000
20
603.000000
0
SEQEND
0
POLYLINE
8
0
6
CONTINUOUS
66
1
62
250
10
0.0
20
0.0
30
0.000000
0
VERTEX
8
0
10
309.000000
20
579.000000
0
VERTEX
8
0
10
309.000000
20
590.000000
0
SEQEND
0
POLYLINE
8
0
6
CONTINUOUS
66
1
62
250
10
0.0
20
0.0
30
0.000000
0
VERTEX
8
0
10
921.000000
20
571.000000
0
VERTEX
8
0
10
921.000000
20
582.000000
0
SEQEND
0
POLYLINE
8
0
6
CONTINUOUS
66
1
62
250
10
0.0
20
0.0
30
0.000000
0
VERTEX
8
0
10
1008.000000
20
568.000000
0
VERTEX
8
0
10
1008.000000
20
578.000000
0
SEQEND
0
POLYLINE
8
0
6
CONTINUOUS
66
1
62
250
10
0.0
20
0.0
30
0.000000
0
VERTEX
8
0
10
1086.000000
20
568.000000
0
VERTEX
8
0
10
1086.000000
20
578.000000
0
SEQEND
0
POLYLINE
8
0
6
CONTINUOUS
66
1
62
251
10
0.0
20
0.0
30
0.000000
0
VERTEX
8
0
10
1234.000000
20
567.000000
0
VERTEX
8
0
10
1234.000000
20
577.000000
0
VERTEX
8
0
10
1233.000000
20
578.000000
0
SEQEND
0
POLYLINE
8
0
6
CONTINUOUS
66
1
62
250
10
0.0
20
0.0
30
0.000000
0
VERTEX
8
0
10
309.000000
20
554.000000
0
VERTEX
8
0
10
309.000000
20
565.000000
0
SEQEND
0
POLYLINE
8
0
6
CONTINUOUS
66
1
62
250
10
0.0
20
0.0
30
0.000000
0
VERTEX
8
0
10
921.000000
20
546.000000
0
VERTEX
8
0
10
921.000000
20
557.000000
0
SEQEND
0
POLYLINE
8
0
6
CONTINUOUS
66
1
62
250
10
0.0
20
0.0
30
0.000000
0
VERTEX
8
0
10
1008.000000
20
543.000000
0
VERTEX
8
0
10
1008.000000
20
553.000000
0
SEQEND
0
POLYLINE
8
0
6
CONTINUOUS
66
1
62
250
10
0.0
20
0.0
30
0.000000
0
VERTEX
8
0
10
1086.000000
20
543.000000
0
VERTEX
8
0
10
1086.000000
20
553.000000
0
SEQEND
0
POLYLINE
8
0
6
CONTINUOUS
66
1
62
251
10
0.0
20
0.0
30
0.000000
0
VERTEX
8
0
10
1234.000000
20
542.000000
0
VERTEX
8
0
10
1234.000000
20
552.000000
0
VERTEX
8
0
10
1233.000000
20
553.000000
0
SEQEND
0
POLYLINE
8
0
6
CONTINUOUS
66
1
62
250
10
0.0
20
0.0
30
0.000000
0
VERTEX
8
0
10
309.000000
20
529.000000
0
VERTEX
8
0
10
309.000000
20
540.000000
0
SEQEND
0
POLYLINE
8
0
6
CONTINUOUS
66
1
62
250
10
0.0
20
0.0
30
0.000000
0
VERTEX
8
0
10
921.000000
20
521.000000
0
VERTEX
8
0
10
921.000000
20
532.000000
0
SEQEND
0
POLYLINE
8
0
6
CONTINUOUS
66
1
62
250
10
0.0
20
0.0
30
0.000000
0
VERTEX
8
0
10
309.000000
20
504.000000
0
VERTEX
8
0
10
309.000000
20
515.000000
0
SEQEND
0
POLYLINE
8
0
6
CONTINUOUS
66
1
62
250
10
0.0
20
0.0
30
0.000000
0
VERTEX
8
0
10
921.000000
20
496.000000
0
VERTEX
8
0
10
921.000000
20
507.000000
0
SEQEND
0
POLYLINE
8
0
6
CONTINUOUS
66
1
62
250
10
0.0
20
0.0
30
0.000000
0
VERTEX
8
0
10
308.000000
20
480.000000
42
0.075231
0
VERTEX
8
0
10
309.000000
20
490.000000
0
SEQEND
0
POLYLINE
8
0
6
CONTINUOUS
66
1
62
250
10
0.0
20
0.0
30
0.000000
0
VERTEX
8
0
10
331.000000
20
479.000000
0
VERTEX
8
0
10
343.000000
20
479.000000
0
SEQEND
0
POLYLINE
8
0
6
CONTINUOUS
66
1
62
250
10
0.0
20
0.0
30
0.000000
0
VERTEX
8
0
10
356.000000
20
479.000000
0
VERTEX
8
0
10
368.000000
20
479.000000
0
SEQEND
0
POLYLINE
8
0
6
CONTINUOUS
66
1
62
250
10
0.0
20
0.0
30
0.000000
0
VERTEX
8
0
10
381.000000
20
479.000000
0
VERTEX
8
0
10
393.000000
20
479.000000
0
SEQEND
0
POLYLINE
8
0
6
CONTINUOUS
66
1
62
250
10
0.0
20
0.0
30
0.000000
0
VERTEX
8
0
10
406.000000
20
479.000000
0
VERTEX
8
0
10
418.000000
20
479.000000
0
SEQEND
0
POLYLINE
8
0
6
CONTINUOUS
66
1
62
250
10
0.0
20
0.0
30
0.000000
0
VERTEX
8
0
10
431.000000
20
479.000000
0
VERTEX
8
0
10
443.000000
20
479.000000
0
SEQEND
0
POLYLINE
8
0
6
CONTINUOUS
66
1
62
250
10
0.0
20
0.0
30
0.000000
0
VERTEX
8
0
10
456.000000
20
479.000000
0
VERTEX
8
0
10
468.000000
20
479.000000
0
SEQEND
0
POLYLINE
8
0
6
CONTINUOUS
66
1
62
250
10
0.0
20
0.0
30
0.000000
0
VERTEX
8
0
10
481.000000
20
479.000000
0
VERTEX
8
0
10
493.000000
20
479.000000
0
SEQEND
0
POLYLINE
8
0
6
CONTINUOUS
66
1
62
250
10
0.0
20
0.0
30
0.000000
0
VERTEX
8
0
10
506.000000
20
479.000000
0
VERTEX
8
0
10
518.000000
20
479.000000
0
SEQEND
0
POLYLINE
8
0
6
CONTINUOUS
66
1
62
250
10
0.0
20
0.0
30
0.000000
0
VERTEX
8
0
10
531.000000
20
479.000000
0
VERTEX
8
0
10
543.000000
20
479.000000
0
SEQEND
0
POLYLINE
8
0
6
CONTINUOUS
66
1
62
250
10
0.0
20
0.0
30
0.000000
0
VERTEX
8
0
10
556.000000
20
479.000000
0
VERTEX
8
0
10
568.000000
20
479.000000
0
SEQEND
0
POLYLINE
8
0
6
CONTINUOUS
66
1
62
250
10
0.0
20
0.0
30
0.000000
0
VERTEX
8
0
10
581.000000
20
479.000000
0
VERTEX
8
0
10
593.000000
20
479.000000
0
SEQEND
0
POLYLINE
8
0
6
CONTINUOUS
66
1
62
250
10
0.0
20
0.0
30
0.000000
0
VERTEX
8
0
10
606.000000
20
479.000000
0
VERTEX
8
0
10
618.000000
20
479.000000
0
SEQEND
0
POLYLINE
8
0
6
CONTINUOUS
66
1
62
250
10
0.0
20
0.0
30
0.000000
0
VERTEX
8
0
10
631.000000
20
479.000000
0
VERTEX
8
0
10
643.000000
20
479.000000
0
SEQEND
0
POLYLINE
8
0
6
CONTINUOUS
66
1
62
250
10
0.0
20
0.0
30
0.000000
0
VERTEX
8
0
10
656.000000
20
479.000000
0
VERTEX
8
0
10
668.000000
20
479.000000
0
SEQEND
0
POLYLINE
8
0
6
CONTINUOUS
66
1
62
250
10
0.0
20
0.0
30
0.000000
0
VERTEX
8
0
10
681.000000
20
479.000000
0
VERTEX
8
0
10
693.000000
20
479.000000
0
SEQEND
0
POLYLINE
8
0
6
CONTINUOUS
66
1
62
250
10
0.0
20
0.0
30
0.000000
0
VERTEX
8
0
10
706.000000
20
479.000000
0
VERTEX
8
0
10
718.000000
20
479.000000
0
SEQEND
0
POLYLINE
8
0
6
CONTINUOUS
66
1
62
250
10
0.0
20
0.0
30
0.000000
0
VERTEX
8
0
10
731.000000
20
479.000000
0
VERTEX
8
0
10
743.000000
20
479.000000
0
SEQEND
0
POLYLINE
8
0
6
CONTINUOUS
66
1
62
250
10
0.0
20
0.0
30
0.000000
0
VERTEX
8
0
10
756.000000
20
479.000000
0
VERTEX
8
0
10
768.000000
20
479.000000
0
SEQEND
0
POLYLINE
8
0
6
CONTINUOUS
66
1
62
250
10
0.0
20
0.0
30
0.000000
0
VERTEX
8
0
10
781.000000
20
479.000000
0
VERTEX
8
0
10
793.000000
20
479.000000
0
SEQEND
0
POLYLINE
8
0
6
CONTINUOUS
66
1
62
250
10
0.0
20
0.0
30
0.000000
0
VERTEX
8
0
10
806.000000
20
479.000000
0
VERTEX
8
0
10
818.000000
20
479.000000
0
SEQEND
0
POLYLINE
8
0
6
CONTINUOUS
66
1
62
250
10
0.0
20
0.0
30
0.000000
0
VERTEX
8
0
10
831.000000
20
479.000000
0
VERTEX
8
0
10
843.000000
20
479.000000
0
SEQEND
0
POLYLINE
8
0
6
CONTINUOUS
66
1
62
250
10
0.0
20
0.0
30
0.000000
0
VERTEX
8
0
10
856.000000
20
479.000000
0
VERTEX
8
0
10
868.000000
20
479.000000
0
SEQEND
0
POLYLINE
8
0
6
CONTINUOUS
66
1
62
250
10
0.0
20
0.0
30
0.000000
0
VERTEX
8
0
10
881.000000
20
479.000000
0
VERTEX
8
0
10
893.000000
20
479.000000
0
SEQEND
0
POLYLINE
8
0
6
CONTINUOUS
66
1
62
250
10
0.0
20
0.0
30
0.000000
0
VERTEX
8
0
10
906.000000
20
479.000000
0
VERTEX
8
0
10
918.000000
20
479.000000
0
SEQEND
0
POLYLINE
8
0
6
CONTINUOUS
66
1
62
250
10
0.0
20
0.0
30
0.000000
0
VERTEX
8
0
10
305.000000
20
478.000000
0
VERTEX
8
0
10
300.846154
20
480.769231
0
VERTEX
8
0
10
120.900000
20
545.700000
0
VERTEX
8
0
10
119.000000
20
546.000000
0
VERTEX
8
0
10
117.000000
20
548.000000
0
VERTEX
8
0
10
117.000000
20
690.000000
0
VERTEX
8
0
10
167.000000
20
737.000000
0
VERTEX
8
0
10
302.000000
20
862.000000
42
0.245916
0
VERTEX
8
0
10
304.000000
20
866.000000
0
SEQEND
0
POLYLINE
8
0
6
CONTINUOUS
66
1
62
250
10
0.0
20
0.0
30
0.000000
0
VERTEX
8
0
10
923.000000
20
470.000000
0
VERTEX
8
0
10
968.000000
20
524.000000
42
0.083767
0
VERTEX
8
0
10
972.000000
20
529.000000
0
VERTEX
8
0
10
977.001488
20
533.501497
0
VERTEX
8
0
10
1311.000000
20
534.000000
0
VERTEX
8
0
10
1313.000000
20
536.000000
0
VERTEX
8
0
10
1313.000000
20
852.000000
0
VERTEX
8
0
10
1311.000000
20
854.000000
0
VERTEX
8
0
10
1301.900000
20
854.800000
0
VERTEX
8
0
10
1301.000000
20
855.000000
0
VERTEX
8
0
10
925.000000
20
854.000000
0
SEQEND
0
POLYLINE
8
0
6
CONTINUOUS
66
1
62
250
10
0.0
20
0.0
30
0.000000
0
VERTEX
8
0
10
309.000000
20
454.000000
0
VERTEX
8
0
10
309.000000
20
465.000000
0
SEQEND
0
POLYLINE
8
0
6
CONTINUOUS
66
1
62
250
10
0.0
20
0.0
30
0.000000
0
VERTEX
8
0
10
278.000000
20
449.000000
0
VERTEX
8
0
10
279.000000
20
450.000000
0
VERTEX
8
0
10
286.000000
20
457.000000
0
VERTEX
8
0
10
286.000000
20
458.000000
0
SEQEND
0
POLYLINE
8
0
6
CONTINUOUS
66
1
62
250
10
0.0
20
0.0
30
0.000000
0
VERTEX
8
0
10
921.000000
20
446.000000
0
VERTEX
8
0
10
921.000000
20
457.000000
0
SEQEND
0
POLYLINE
8
0
6
CONTINUOUS
66
1
62
250
10
0.0
20
0.0
30
0.000000
0
VERTEX
8
0
10
261.000000
20
432.000000
42
-0.071068
0
VERTEX
8
0
10
269.000000
20
439.000000
0
SEQEND
0
POLYLINE
8
0
6
CONTINUOUS
66
1
62
250
10
0.0
20
0.0
30
0.000000
0
VERTEX
8
0
10
309.000000
20
429.000000
0
VERTEX
8
0
10
309.000000
20
440.000000
0
SEQEND
0
POLYLINE
8
0
6
CONTINUOUS
66
1
62
250
10
0.0
20
0.0
30
0.000000
0
VERTEX
8
0
10
921.000000
20
421.000000
0
VERTEX
8
0
10
921.000000
20
432.000000
0
SEQEND
0
POLYLINE
8
0
6
CONTINUOUS
66
1
62
250
10
0.0
20
0.0
30
0.000000
0
VERTEX
8
0
10
243.000000
20
414.000000
42
-0.071068
0
VERTEX
8
0
10
251.000000
20
421.000000
0
SEQEND
0
POLYLINE
8
0
6
CONTINUOUS
66
1
62
250
10
0.0
20
0.0
30
0.000000
0
VERTEX
8
0
10
309.000000
20
404.000000
0
VERTEX
8
0
10
309.000000
20
415.000000
0
SEQEND
0
POLYLINE
8
0
6
CONTINUOUS
66
1
62
250
10
0.0
20
0.0
30
0.000000
0
VERTEX
8
0
10
225.000000
20
396.000000
42
-0.071068
0
VERTEX
8
0
10
233.000000
20
403.000000
0
SEQEND
0
POLYLINE
8
0
6
CONTINUOUS
66
1
62
250
10
0.0
20
0.0
30
0.000000
0
VERTEX
8
0
10
921.000000
20
396.000000
0
VERTEX
8
0
10
921.000000
20
407.000000
0
SEQEND
0
POLYLINE
8
0
6
CONTINUOUS
66
1
62
250
10
0.0
20
0.0
30
0.000000
0
VERTEX
8
0
10
208.000000
20
379.000000
42
-0.064905
0
VERTEX
8
0
10
216.000000
20
386.000000
0
SEQEND
0
POLYLINE
8
0
6
CONTINUOUS
66
1
62
250
10
0.0
20
0.0
30
0.000000
0
VERTEX
8
0
10
309.000000
20
379.000000
0
VERTEX
8
0
10
309.000000
20
390.000000
0
SEQEND
0
POLYLINE
8
0
6
CONTINUOUS
66
1
62
250
10
0.0
20
0.0
30
0.000000
0
VERTEX
8
0
10
921.000000
20
371.000000
0
VERTEX
8
0
10
921.000000
20
382.000000
0
SEQEND
0
POLYLINE
8
0
6
CONTINUOUS
66
1
62
250
10
0.0
20
0.0
30
0.000000
0
VERTEX
8
0
10
190.000000
20
361.000000
42
-0.071068
0
VERTEX
8
0
10
198.000000
20
368.000000
0
SEQEND
0
POLYLINE
8
0
6
CONTINUOUS
66
1
62
250
10
0.0
20
0.0
30
0.000000
0
VERTEX
8
0
10
309.000000
20
354.000000
0
VERTEX
8
0
10
309.000000
20
365.000000
0
SEQEND
0
POLYLINE
8
0
6
CONTINUOUS
66
1
62
250
10
0.0
20
0.0
30
0.000000
0
VERTEX
8
0
10
172.000000
20
343.000000
42
-0.071068
0
VERTEX
8
0
10
180.000000
20
350.000000
0
SEQEND
0
POLYLINE
8
0
6
CONTINUOUS
66
1
62
250
10
0.0
20
0.0
30
0.000000
0
VERTEX
8
0
10
309.000000
20
329.000000
0
VERTEX
8
0
10
309.000000
20
340.000000
0
SEQEND
0
POLYLINE
8
0
6
CONTINUOUS
66
1
62
250
10
0.0
20
0.0
30
0.000000
0
VERTEX
8
0
10
154.000000
20
324.000000
42
-0.140771
0
VERTEX
8
0
10
163.000000
20
333.000000
0
SEQEND
0
POLYLINE
8
0
6
CONTINUOUS
66
1
62
250
10
0.0
20
0.0
30
0.000000
0
VERTEX
8
0
10
136.000000
20
307.000000
0
VERTEX
8
0
10
137.000000
20
307.000000
0
VERTEX
8
0
10
141.000000
20
311.000000
42
-0.150174
0
VERTEX
8
0
10
145.000000
20
314.000000
0
SEQEND
0
POLYLINE
8
0
6
CONTINUOUS
66
1
62
250
10
0.0
20
0.0
30
0.000000
0
VERTEX
8
0
10
309.000000
20
304.000000
0
VERTEX
8
0
10
309.000000
20
315.000000
0
SEQEND
0
POLYLINE
8
0
6
CONTINUOUS
66
1
62
250
10
0.0
20
0.0
30
0.000000
0
VERTEX
8
0
10
119.000000
20
288.000000
42
-0.071068
0
VERTEX
8
0
10
127.000000
20
297.000000
0
SEQEND
0
POLYLINE
8
0
6
CONTINUOUS
66
1
62
250
10
0.0
20
0.0
30
0.000000
0
VERTEX
8
0
10
122.000000
20
287.000000
0
VERTEX
8
0
10
120.000000
20
287.000000
0
VERTEX
8
0
10
119.000000
20
288.000000
0
VERTEX
8
0
10
118.000000
20
288.000000
0
VERTEX
8
0
10
116.216814
20
289.247788
0
VERTEX
8
0
10
66.000000
20
331.000000
0
VERTEX
8
0
10
66.000000
20
465.000000
0
VERTEX
8
0
10
68.000000
20
467.000000
0
VERTEX
8
0
10
276.000000
20
467.000000
0
VERTEX
8
0
10
285.000000
20
458.000000
0
VERTEX
8
0
10
287.000000
20
458.000000
0
VERTEX
8
0
10
303.000000
20
476.000000
0
VERTEX
8
0
10
305.000000
20
478.000000
0
VERTEX
8
0
10
308.000000
20
480.000000
42
0.075231
0
VERTEX
8
0
10
318.000000
20
479.000000
0
SEQEND
0
POLYLINE
8
0
6
CONTINUOUS
66
1
62
250
10
0.0
20
0.0
30
0.000000
0
VERTEX
8
0
10
309.000000
20
279.000000
0
VERTEX
8
0
10
309.000000
20
290.000000
0
SEQEND
0
POLYLINE
8
0
6
CONTINUOUS
66
1
62
250
10
0.0
20
0.0
30
0.000000
0
VERTEX
8
0
10
309.000000
20
254.000000
0
VERTEX
8
0
10
309.000000
20
265.000000
0
SEQEND
0
POLYLINE
8
0
6
CONTINUOUS
66
1
62
250
10
0.0
20
0.0
30
0.000000
0
VERTEX
8
0
10
309.000000
20
229.000000
0
VERTEX
8
0
10
309.000000
20
240.000000
0
SEQEND
0
POLYLINE
8
0
6
CONTINUOUS
66
1
62
250
10
0.0
20
0.0
30
0.000000
0
VERTEX
8
0
10
309.000000
20
204.000000
0
VERTEX
8
0
10
309.000000
20
215.000000
0
SEQEND
0
POLYLINE
8
0
6
CONTINUOUS
66
1
62
250
10
0.0
20
0.0
30
0.000000
0
VERTEX
8
0
10
920.000000
20
192.000000
0
VERTEX
8
0
10
920.000000
20
365.000000
0
SEQEND
0
POLYLINE
8
0
6
CONTINUOUS
66
1
62
250
10
0.0
20
0.0
30
0.000000
0
VERTEX
8
0
10
309.000000
20
179.000000
0
VERTEX
8
0
10
309.000000
20
190.000000
0
SEQEND
0
POLYLINE
8
0
6
CONTINUOUS
66
1
62
250
10
0.0
20
0.0
30
0.000000
0
VERTEX
8
0
10
921.000000
20
161.000000
0
VERTEX
8
0
10
921.000000
20
172.000000
0
SEQEND
0
POLYLINE
8
0
6
CONTINUOUS
66
1
62
250
10
0.0
20
0.0
30
0.000000
0
VERTEX
8
0
10
309.000000
20
154.000000
0
VERTEX
8
0
10
309.000000
20
165.000000
0
SEQEND
0
POLYLINE
8
0
6
CONTINUOUS
66
1
62
250
10
0.0
20
0.0
30
0.000000
0
VERTEX
8
0
10
921.000000
20
136.000000
0
VERTEX
8
0
10
921.000000
20
147.000000
0
SEQEND
0
POLYLINE
8
0
6
CONTINUOUS
66
1
62
250
10
0.0
20
0.0
30
0.000000
0
VERTEX
8
0
10
309.000000
20
129.000000
0
VERTEX
8
0
10
309.000000
20
140.000000
0
SEQEND
0
POLYLINE
8
0
6
CONTINUOUS
66
1
62
250
10
0.0
20
0.0
30
0.000000
0
VERTEX
8
0
10
921.000000
20
111.000000
0
VERTEX
8
0
10
921.000000
20
122.000000
0
SEQEND
0
POLYLINE
8
0
6
CONTINUOUS
66
1
62
250
10
0.0
20
0.0
30
0.000000
0
VERTEX
8
0
10
309.000000
20
104.000000
0
VERTEX
8
0
10
309.000000
20
115.000000
0
SEQEND
0
POLYLINE
8
0
6
CONTINUOUS
66
1
62
250
10
0.0
20
0.0
30
0.000000
0
VERTEX
8
0
10
922.000000
20
88.000000
42
0.152233
0
VERTEX
8
0
10
930.000000
20
96.000000
0
VERTEX
8
0
10
949.000000
20
118.000000
0
VERTEX
8
0
10
976.000000
20
150.000000
0
VERTEX
8
0
10
976.000000
20
405.000000
0
VERTEX
8
0
10
975.200000
20
406.100000
0
VERTEX
8
0
10
922.000000
20
468.000000
0
VERTEX
8
0
10
923.000000
20
470.000000
0
VERTEX
8
0
10
922.000000
20
470.000000
0
VERTEX
8
0
10
921.000000
20
471.000000
0
VERTEX
8
0
10
921.000000
20
482.000000
0
SEQEND
0
POLYLINE
8
0
6
CONTINUOUS
66
1
62
250
10
0.0
20
0.0
30
0.000000
0
VERTEX
8
0
10
118.000000
20
288.000000
0
VERTEX
8
0
10
109.000000
20
282.000000
0
VERTEX
8
0
10
72.800000
20
245.100000
0
VERTEX
8
0
10
71.000000
20
243.000000
0
VERTEX
8
0
10
66.000000
20
238.000000
0
VERTEX
8
0
10
66.000000
20
182.000000
0
VERTEX
8
0
10
69.000000
20
179.000000
0
VERTEX
8
0
10
236.100000
20
113.300000
0
VERTEX
8
0
10
304.100000
20
86.300000
42
0.210208
0
VERTEX
8
0
10
309.000000
20
86.000000
0
VERTEX
8
0
10
310.000000
20
85.000000
0
VERTEX
8
0
10
919.000000
20
85.000000
42
0.196637
0
VERTEX
8
0
10
922.000000
20
88.000000
0
VERTEX
8
0
10
921.000000
20
89.000000
0
VERTEX
8
0
10
921.000000
20
97.000000
0
SEQEND
0
POLYLINE
8
0
6
CONTINUOUS
66
1
62
250
10
0.0
20
0.0
30
0.000000
0
VERTEX
8
0
10
309.000000
20
86.000000
0
VERTEX
8
0
10
309.000000
20
90.000000
0
SEQEND
0
ENDSEC
0
EOF
