0
SECTION
2
HEADER
9
$ACADVER
1
AC1003
9
$INSBASE
10
0.0
20
0.0
30
0.0
9
$EXTMIN
10
0.000
20
0.000
30
0.0
9
$EXTMAX
10
1090.000
20
1824.000
30
0.0
9
$LIMMIN
10
0.000
20
0.000
9
$LIMMAX
10
1090.000
20
1824.000
9
$LTSCALE
40
1.0
9
$LUNITS
70
2
9
$LUPREC
70
3
9
$LIMCHECK
70
0
9
$UCSNAME
2

9
$UCSORG
10
0.0
20
0.0
30
0.0
9
$UCSXDIR
10
1.0
20
0.0
30
0.0
9
$UCSYDIR
10
0.0
20
1.0
30
0.0
9
$WORLDVIEW
70
1
9
$UNITMODE
70
0
0
ENDSEC
0
SECTION
2
TABLES
0
TABLE
2
VPORT
70
1
0
VPORT
2
*ACTIVE
70
0
10
0.0
20
0.0
11
1.0
21
1.0
12
545.000
22
912.000
13
0.0
23
0.0
14
1.0
24
1.0
15
0.0
25
0.0
16
0.0
26
0.0
36
1.0
17
0.0
27
0.0
37
0.0
40
500.0
41
1.673
42
50.0
43
0.0
44
0.0
50
0.0
51
0.0
71
0
72
100
73
1
74
1
75
0
76
0
77
0
78
0
0
ENDTAB
0
TABLE
2
LTYPE
70
1
0
LTYPE
2
CONTINUOUS
70
64
3
Solid line
72
65
73
0
40
0.000
0
ENDTAB
0
TABLE
2
LAYER
70
1
0
LAYER
2
0
70
64
62
7
6
CONTINUOUS
0
ENDTAB
0
ENDSEC
0
SECTION
2
BLOCKS
0
ENDSEC
0
SECTION
2
ENTITIES
0
POLYLINE
8
0
6
CONTINUOUS
66
1
62
250
10
0.0
20
0.0
30
0.000000
0
VERTEX
8
0
10
631.000000
20
1640.000000
42
0.390160
0
VERTEX
8
0
10
656.352941
20
1675.088235
42
0.337716
0
VERTEX
8
0
10
628.000000
20
1701.000000
0
VERTEX
8
0
10
460.000000
20
1701.000000
42
0.709127
0
VERTEX
8
0
10
445.900000
20
1644.800000
42
0.075203
0
VERTEX
8
0
10
457.002841
20
1640.497127
0
VERTEX
8
0
10
631.000000
20
1640.000000
0
SEQEND
0
POLYLINE
8
0
6
CONTINUOUS
66
1
62
250
10
0.0
20
0.0
30
0.000000
0
VERTEX
8
0
10
162.000000
20
1601.000000
42
-0.091428
0
VERTEX
8
0
10
151.000000
20
1602.000000
0
SEQEND
0
POLYLINE
8
0
6
CONTINUOUS
66
1
62
250
10
0.0
20
0.0
30
0.000000
0
VERTEX
8
0
10
176.000000
20
1601.000000
0
VERTEX
8
0
10
187.000000
20
1601.000000
0
SEQEND
0
POLYLINE
8
0
6
CONTINUOUS
66
1
62
250
10
0.0
20
0.0
30
0.000000
0
VERTEX
8
0
10
201.000000
20
1601.000000
0
VERTEX
8
0
10
212.000000
20
1601.000000
0
SEQEND
0
POLYLINE
8
0
6
CONTINUOUS
66
1
62
250
10
0.0
20
0.0
30
0.000000
0
VERTEX
8
0
10
226.000000
20
1601.000000
0
VERTEX
8
0
10
237.000000
20
1601.000000
0
SEQEND
0
POLYLINE
8
0
6
CONTINUOUS
66
1
62
250
10
0.0
20
0.0
30
0.000000
0
VERTEX
8
0
10
251.000000
20
1601.000000
0
VERTEX
8
0
10
262.000000
20
1601.000000
0
SEQEND
0
POLYLINE
8
0
6
CONTINUOUS
66
1
62
250
10
0.0
20
0.0
30
0.000000
0
VERTEX
8
0
10
276.000000
20
1601.000000
0
VERTEX
8
0
10
287.000000
20
1601.000000
0
SEQEND
0
POLYLINE
8
0
6
CONTINUOUS
66
1
62
250
10
0.0
20
0.0
30
0.000000
0
VERTEX
8
0
10
301.000000
20
1601.000000
0
VERTEX
8
0
10
312.000000
20
1601.000000
0
SEQEND
0
POLYLINE
8
0
6
CONTINUOUS
66
1
62
250
10
0.0
20
0.0
30
0.000000
0
VERTEX
8
0
10
326.000000
20
1601.000000
0
VERTEX
8
0
10
337.000000
20
1601.000000
0
SEQEND
0
POLYLINE
8
0
6
CONTINUOUS
66
1
62
250
10
0.0
20
0.0
30
0.000000
0
VERTEX
8
0
10
351.000000
20
1601.000000
0
VERTEX
8
0
10
362.000000
20
1601.000000
0
SEQEND
0
POLYLINE
8
0
6
CONTINUOUS
66
1
62
250
10
0.0
20
0.0
30
0.000000
0
VERTEX
8
0
10
376.000000
20
1601.000000
0
VERTEX
8
0
10
387.000000
20
1601.000000
0
SEQEND
0
POLYLINE
8
0
6
CONTINUOUS
66
1
62
250
10
0.0
20
0.0
30
0.000000
0
VERTEX
8
0
10
401.000000
20
1601.000000
0
VERTEX
8
0
10
412.000000
20
1601.000000
0
SEQEND
0
POLYLINE
8
0
6
CONTINUOUS
66
1
62
250
10
0.0
20
0.0
30
0.000000
0
VERTEX
8
0
10
426.000000
20
1601.000000
0
VERTEX
8
0
10
437.000000
20
1601.000000
0
SEQEND
0
POLYLINE
8
0
6
CONTINUOUS
66
1
62
250
10
0.0
20
0.0
30
0.000000
0
VERTEX
8
0
10
451.000000
20
1601.000000
0
VERTEX
8
0
10
462.000000
20
1601.000000
0
SEQEND
0
POLYLINE
8
0
6
CONTINUOUS
66
1
62
250
10
0.0
20
0.0
30
0.000000
0
VERTEX
8
0
10
476.000000
20
1601.000000
0
VERTEX
8
0
10
487.000000
20
1601.000000
0
SEQEND
0
POLYLINE
8
0
6
CONTINUOUS
66
1
62
250
10
0.0
20
0.0
30
0.000000
0
VERTEX
8
0
10
501.000000
20
1601.000000
0
VERTEX
8
0
10
512.000000
20
1601.000000
0
SEQEND
0
POLYLINE
8
0
6
CONTINUOUS
66
1
62
250
10
0.0
20
0.0
30
0.000000
0
VERTEX
8
0
10
526.000000
20
1601.000000
0
VERTEX
8
0
10
537.000000
20
1601.000000
0
SEQEND
0
POLYLINE
8
0
6
CONTINUOUS
66
1
62
250
10
0.0
20
0.0
30
0.000000
0
VERTEX
8
0
10
551.000000
20
1601.000000
0
VERTEX
8
0
10
562.000000
20
1601.000000
0
SEQEND
0
POLYLINE
8
0
6
CONTINUOUS
66
1
62
250
10
0.0
20
0.0
30
0.000000
0
VERTEX
8
0
10
576.000000
20
1601.000000
0
VERTEX
8
0
10
587.000000
20
1601.000000
0
SEQEND
0
POLYLINE
8
0
6
CONTINUOUS
66
1
62
250
10
0.0
20
0.0
30
0.000000
0
VERTEX
8
0
10
601.000000
20
1601.000000
0
VERTEX
8
0
10
612.000000
20
1601.000000
0
SEQEND
0
POLYLINE
8
0
6
CONTINUOUS
66
1
62
250
10
0.0
20
0.0
30
0.000000
0
VERTEX
8
0
10
626.000000
20
1601.000000
0
VERTEX
8
0
10
637.000000
20
1601.000000
0
SEQEND
0
POLYLINE
8
0
6
CONTINUOUS
66
1
62
250
10
0.0
20
0.0
30
0.000000
0
VERTEX
8
0
10
651.000000
20
1601.000000
0
VERTEX
8
0
10
662.000000
20
1601.000000
0
SEQEND
0
POLYLINE
8
0
6
CONTINUOUS
66
1
62
250
10
0.0
20
0.0
30
0.000000
0
VERTEX
8
0
10
676.000000
20
1601.000000
0
VERTEX
8
0
10
687.000000
20
1601.000000
0
SEQEND
0
POLYLINE
8
0
6
CONTINUOUS
66
1
62
250
10
0.0
20
0.0
30
0.000000
0
VERTEX
8
0
10
701.000000
20
1601.000000
0
VERTEX
8
0
10
712.000000
20
1601.000000
0
SEQEND
0
POLYLINE
8
0
6
CONTINUOUS
66
1
62
250
10
0.0
20
0.0
30
0.000000
0
VERTEX
8
0
10
726.000000
20
1601.000000
0
VERTEX
8
0
10
737.000000
20
1601.000000
0
SEQEND
0
POLYLINE
8
0
6
CONTINUOUS
66
1
62
250
10
0.0
20
0.0
30
0.000000
0
VERTEX
8
0
10
751.000000
20
1601.000000
0
VERTEX
8
0
10
762.000000
20
1601.000000
0
SEQEND
0
POLYLINE
8
0
6
CONTINUOUS
66
1
62
250
10
0.0
20
0.0
30
0.000000
0
VERTEX
8
0
10
776.000000
20
1601.000000
0
VERTEX
8
0
10
787.000000
20
1601.000000
0
SEQEND
0
POLYLINE
8
0
6
CONTINUOUS
66
1
62
250
10
0.0
20
0.0
30
0.000000
0
VERTEX
8
0
10
801.000000
20
1601.000000
0
VERTEX
8
0
10
812.000000
20
1601.000000
0
SEQEND
0
POLYLINE
8
0
6
CONTINUOUS
66
1
62
250
10
0.0
20
0.0
30
0.000000
0
VERTEX
8
0
10
826.000000
20
1601.000000
0
VERTEX
8
0
10
837.000000
20
1601.000000
0
SEQEND
0
POLYLINE
8
0
6
CONTINUOUS
66
1
62
250
10
0.0
20
0.0
30
0.000000
0
VERTEX
8
0
10
851.000000
20
1601.000000
0
VERTEX
8
0
10
862.000000
20
1601.000000
0
SEQEND
0
POLYLINE
8
0
6
CONTINUOUS
66
1
62
250
10
0.0
20
0.0
30
0.000000
0
VERTEX
8
0
10
876.000000
20
1601.000000
0
VERTEX
8
0
10
887.000000
20
1601.000000
0
SEQEND
0
POLYLINE
8
0
6
CONTINUOUS
66
1
62
250
10
0.0
20
0.0
30
0.000000
0
VERTEX
8
0
10
901.000000
20
1601.000000
0
VERTEX
8
0
10
912.000000
20
1601.000000
0
SEQEND
0
POLYLINE
8
0
6
CONTINUOUS
66
1
62
250
10
0.0
20
0.0
30
0.000000
0
VERTEX
8
0
10
926.000000
20
1601.000000
42
0.091428
0
VERTEX
8
0
10
937.000000
20
1602.000000
0
SEQEND
0
POLYLINE
8
0
6
CONTINUOUS
66
1
62
250
10
0.0
20
0.0
30
0.000000
0
VERTEX
8
0
10
156.000000
20
1586.000000
0
VERTEX
8
0
10
150.000000
20
1597.000000
0
VERTEX
8
0
10
148.000000
20
1597.000000
0
SEQEND
0
POLYLINE
8
0
6
CONTINUOUS
66
1
62
250
10
0.0
20
0.0
30
0.000000
0
VERTEX
8
0
10
932.000000
20
1585.000000
42
-0.096994
0
VERTEX
8
0
10
936.000000
20
1596.000000
0
SEQEND
0
POLYLINE
8
0
6
CONTINUOUS
66
1
62
250
10
0.0
20
0.0
30
0.000000
0
VERTEX
8
0
10
164.000000
20
1562.000000
0
VERTEX
8
0
10
160.000000
20
1572.000000
0
SEQEND
0
POLYLINE
8
0
6
CONTINUOUS
66
1
62
27
10
0.0
20
0.0
30
0.000000
0
VERTEX
8
0
10
924.000000
20
1562.000000
0
VERTEX
8
0
10
926.352941
20
1569.911765
42
-0.105630
0
VERTEX
8
0
10
928.000000
20
1573.000000
0
SEQEND
0
POLYLINE
8
0
6
CONTINUOUS
66
1
62
250
10
0.0
20
0.0
30
0.000000
0
VERTEX
8
0
10
171.000000
20
1538.000000
0
VERTEX
8
0
10
168.000000
20
1549.000000
0
SEQEND
0
POLYLINE
8
0
6
CONTINUOUS
66
1
62
250
10
0.0
20
0.0
30
0.000000
0
VERTEX
8
0
10
917.000000
20
1538.000000
42
-0.084719
0
VERTEX
8
0
10
920.000000
20
1548.000000
0
SEQEND
0
POLYLINE
8
0
6
CONTINUOUS
66
1
62
27
10
0.0
20
0.0
30
0.000000
0
VERTEX
8
0
10
910.000000
20
1515.000000
0
VERTEX
8
0
10
913.000000
20
1524.000000
0
SEQEND
0
POLYLINE
8
0
6
CONTINUOUS
66
1
62
250
10
0.0
20
0.0
30
0.000000
0
VERTEX
8
0
10
178.000000
20
1514.000000
0
VERTEX
8
0
10
175.000000
20
1525.000000
0
SEQEND
0
POLYLINE
8
0
6
CONTINUOUS
66
1
62
250
10
0.0
20
0.0
30
0.000000
0
VERTEX
8
0
10
184.000000
20
1490.000000
0
VERTEX
8
0
10
182.000000
20
1500.000000
0
SEQEND
0
POLYLINE
8
0
6
CONTINUOUS
66
1
62
27
10
0.0
20
0.0
30
0.000000
0
VERTEX
8
0
10
904.000000
20
1490.000000
0
VERTEX
8
0
10
907.000000
20
1500.000000
0
SEQEND
0
POLYLINE
8
0
6
CONTINUOUS
66
1
62
247
10
0.0
20
0.0
30
0.000000
0
VERTEX
8
0
10
190.000000
20
1465.000000
0
VERTEX
8
0
10
188.000000
20
1476.000000
0
SEQEND
0
POLYLINE
8
0
6
CONTINUOUS
66
1
62
250
10
0.0
20
0.0
30
0.000000
0
VERTEX
8
0
10
899.000000
20
1465.000000
0
VERTEX
8
0
10
901.000000
20
1476.000000
0
SEQEND
0
POLYLINE
8
0
6
CONTINUOUS
66
1
62
250
10
0.0
20
0.0
30
0.000000
0
VERTEX
8
0
10
195.000000
20
1441.000000
0
VERTEX
8
0
10
193.000000
20
1452.000000
0
SEQEND
0
POLYLINE
8
0
6
CONTINUOUS
66
1
62
250
10
0.0
20
0.0
30
0.000000
0
VERTEX
8
0
10
894.000000
20
1441.000000
42
0.063906
0
VERTEX
8
0
10
896.000000
20
1451.000000
0
SEQEND
0
POLYLINE
8
0
6
CONTINUOUS
66
1
62
250
10
0.0
20
0.0
30
0.000000
0
VERTEX
8
0
10
890.000000
20
1417.000000
0
VERTEX
8
0
10
892.000000
20
1426.000000
0
SEQEND
0
POLYLINE
8
0
6
CONTINUOUS
66
1
62
250
10
0.0
20
0.0
30
0.000000
0
VERTEX
8
0
10
199.000000
20
1416.000000
42
0.078284
0
VERTEX
8
0
10
197.000000
20
1427.000000
0
SEQEND
0
POLYLINE
8
0
6
CONTINUOUS
66
1
62
237
10
0.0
20
0.0
30
0.000000
0
VERTEX
8
0
10
203.000000
20
1392.000000
42
0.114653
0
VERTEX
8
0
10
200.000000
20
1403.000000
0
SEQEND
0
POLYLINE
8
0
6
CONTINUOUS
66
1
62
250
10
0.0
20
0.0
30
0.000000
0
VERTEX
8
0
10
887.000000
20
1391.000000
0
VERTEX
8
0
10
888.000000
20
1402.000000
0
SEQEND
0
POLYLINE
8
0
6
CONTINUOUS
66
1
62
250
10
0.0
20
0.0
30
0.000000
0
VERTEX
8
0
10
206.000000
20
1367.000000
0
VERTEX
8
0
10
205.000000
20
1377.000000
0
SEQEND
0
POLYLINE
8
0
6
CONTINUOUS
66
1
62
250
10
0.0
20
0.0
30
0.000000
0
VERTEX
8
0
10
884.000000
20
1366.000000
0
VERTEX
8
0
10
885.000000
20
1377.000000
0
SEQEND
0
POLYLINE
8
0
6
CONTINUOUS
66
1
62
27
10
0.0
20
0.0
30
0.000000
0
VERTEX
8
0
10
209.000000
20
1342.000000
0
VERTEX
8
0
10
208.000000
20
1353.000000
0
SEQEND
0
POLYLINE
8
0
6
CONTINUOUS
66
1
62
247
10
0.0
20
0.0
30
0.000000
0
VERTEX
8
0
10
881.000000
20
1342.000000
42
0.075231
0
VERTEX
8
0
10
882.000000
20
1352.000000
0
SEQEND
0
POLYLINE
8
0
6
CONTINUOUS
66
1
62
250
10
0.0
20
0.0
30
0.000000
0
VERTEX
8
0
10
211.000000
20
1317.000000
0
VERTEX
8
0
10
210.000000
20
1328.000000
0
SEQEND
0
POLYLINE
8
0
6
CONTINUOUS
66
1
62
197
10
0.0
20
0.0
30
0.000000
0
VERTEX
8
0
10
880.000000
20
1316.000000
0
VERTEX
8
0
10
880.000000
20
1327.000000
0
VERTEX
8
0
10
881.000000
20
1328.000000
0
SEQEND
0
POLYLINE
8
0
6
CONTINUOUS
66
1
62
197
10
0.0
20
0.0
30
0.000000
0
VERTEX
8
0
10
212.000000
20
1292.000000
42
0.091428
0
VERTEX
8
0
10
211.000000
20
1303.000000
0
SEQEND
0
POLYLINE
8
0
6
CONTINUOUS
66
1
62
251
10
0.0
20
0.0
30
0.000000
0
VERTEX
8
0
10
878.000000
20
1292.000000
0
VERTEX
8
0
10
879.000000
20
1302.000000
0
SEQEND
0
POLYLINE
8
0
6
CONTINUOUS
66
1
62
237
10
0.0
20
0.0
30
0.000000
0
VERTEX
8
0
10
213.000000
20
1267.000000
0
VERTEX
8
0
10
212.000000
20
1278.000000
0
SEQEND
0
POLYLINE
8
0
6
CONTINUOUS
66
1
62
250
10
0.0
20
0.0
30
0.000000
0
VERTEX
8
0
10
878.000000
20
1266.000000
0
VERTEX
8
0
10
878.000000
20
1277.000000
0
SEQEND
0
POLYLINE
8
0
6
CONTINUOUS
66
1
62
251
10
0.0
20
0.0
30
0.000000
0
VERTEX
8
0
10
213.000000
20
1242.000000
0
VERTEX
8
0
10
213.000000
20
1253.000000
0
SEQEND
0
POLYLINE
8
0
6
CONTINUOUS
66
1
62
250
10
0.0
20
0.0
30
0.000000
0
VERTEX
8
0
10
878.000000
20
1241.000000
0
VERTEX
8
0
10
878.000000
20
1252.000000
0
SEQEND
0
POLYLINE
8
0
6
CONTINUOUS
66
1
62
250
10
0.0
20
0.0
30
0.000000
0
VERTEX
8
0
10
212.000000
20
1217.000000
0
VERTEX
8
0
10
212.000000
20
1228.000000
0
SEQEND
0
POLYLINE
8
0
6
CONTINUOUS
66
1
62
37
10
0.0
20
0.0
30
0.000000
0
VERTEX
8
0
10
879.000000
20
1216.000000
0
VERTEX
8
0
10
878.000000
20
1227.000000
0
SEQEND
0
POLYLINE
8
0
6
CONTINUOUS
66
1
62
250
10
0.0
20
0.0
30
0.000000
0
VERTEX
8
0
10
211.000000
20
1192.000000
0
VERTEX
8
0
10
211.000000
20
1203.000000
0
SEQEND
0
POLYLINE
8
0
6
CONTINUOUS
66
1
62
197
10
0.0
20
0.0
30
0.000000
0
VERTEX
8
0
10
880.000000
20
1191.000000
0
VERTEX
8
0
10
880.000000
20
1201.000000
0
VERTEX
8
0
10
878.000000
20
1203.000000
0
SEQEND
0
POLYLINE
8
0
6
CONTINUOUS
66
1
62
250
10
0.0
20
0.0
30
0.000000
0
VERTEX
8
0
10
209.000000
20
1167.000000
0
VERTEX
8
0
10
209.000000
20
1177.000000
0
SEQEND
0
POLYLINE
8
0
6
CONTINUOUS
66
1
62
250
10
0.0
20
0.0
30
0.000000
0
VERTEX
8
0
10
882.000000
20
1166.000000
42
0.091428
0
VERTEX
8
0
10
881.000000
20
1177.000000
0
SEQEND
0
POLYLINE
8
0
6
CONTINUOUS
66
1
62
250
10
0.0
20
0.0
30
0.000000
0
VERTEX
8
0
10
206.000000
20
1142.000000
0
VERTEX
8
0
10
207.000000
20
1153.000000
0
SEQEND
0
POLYLINE
8
0
6
CONTINUOUS
66
1
62
250
10
0.0
20
0.0
30
0.000000
0
VERTEX
8
0
10
885.000000
20
1141.000000
0
VERTEX
8
0
10
884.000000
20
1152.000000
0
SEQEND
0
POLYLINE
8
0
6
CONTINUOUS
66
1
62
250
10
0.0
20
0.0
30
0.000000
0
VERTEX
8
0
10
202.000000
20
1118.000000
0
VERTEX
8
0
10
204.000000
20
1128.000000
0
SEQEND
0
POLYLINE
8
0
6
CONTINUOUS
66
1
62
250
10
0.0
20
0.0
30
0.000000
0
VERTEX
8
0
10
889.000000
20
1117.000000
0
VERTEX
8
0
10
887.000000
20
1128.000000
0
SEQEND
0
POLYLINE
8
0
6
CONTINUOUS
66
1
62
250
10
0.0
20
0.0
30
0.000000
0
VERTEX
8
0
10
198.000000
20
1094.000000
0
VERTEX
8
0
10
200.000000
20
1103.000000
0
SEQEND
0
POLYLINE
8
0
6
CONTINUOUS
66
1
62
250
10
0.0
20
0.0
30
0.000000
0
VERTEX
8
0
10
893.000000
20
1092.000000
0
VERTEX
8
0
10
891.000000
20
1103.000000
0
SEQEND
0
POLYLINE
8
0
6
CONTINUOUS
66
1
62
250
10
0.0
20
0.0
30
0.000000
0
VERTEX
8
0
10
193.000000
20
1069.000000
0
VERTEX
8
0
10
194.384615
20
1073.923077
42
-0.070651
0
VERTEX
8
0
10
196.000000
20
1079.000000
0
SEQEND
0
POLYLINE
8
0
6
CONTINUOUS
66
1
62
250
10
0.0
20
0.0
30
0.000000
0
VERTEX
8
0
10
897.000000
20
1068.000000
42
0.180261
0
VERTEX
8
0
10
894.000000
20
1079.000000
0
SEQEND
0
POLYLINE
8
0
6
CONTINUOUS
66
1
62
250
10
0.0
20
0.0
30
0.000000
0
VERTEX
8
0
10
188.000000
20
1044.000000
0
VERTEX
8
0
10
190.000000
20
1054.000000
0
SEQEND
0
POLYLINE
8
0
6
CONTINUOUS
66
1
62
250
10
0.0
20
0.0
30
0.000000
0
VERTEX
8
0
10
903.000000
20
1043.000000
0
VERTEX
8
0
10
901.000000
20
1054.000000
0
SEQEND
0
POLYLINE
8
0
6
CONTINUOUS
66
1
62
27
10
0.0
20
0.0
30
0.000000
0
VERTEX
8
0
10
181.000000
20
1020.000000
0
VERTEX
8
0
10
185.000000
20
1031.000000
0
SEQEND
0
POLYLINE
8
0
6
CONTINUOUS
66
1
62
250
10
0.0
20
0.0
30
0.000000
0
VERTEX
8
0
10
910.000000
20
1019.000000
42
-0.084895
0
VERTEX
8
0
10
907.000000
20
1029.000000
0
SEQEND
0
POLYLINE
8
0
6
CONTINUOUS
66
1
62
250
10
0.0
20
0.0
30
0.000000
0
VERTEX
8
0
10
174.000000
20
996.000000
0
VERTEX
8
0
10
178.000000
20
1007.000000
0
SEQEND
0
POLYLINE
8
0
6
CONTINUOUS
66
1
62
250
10
0.0
20
0.0
30
0.000000
0
VERTEX
8
0
10
917.000000
20
995.000000
0
VERTEX
8
0
10
915.700000
20
997.900000
42
0.079845
0
VERTEX
8
0
10
912.000000
20
1006.000000
0
SEQEND
0
POLYLINE
8
0
6
CONTINUOUS
66
1
62
250
10
0.0
20
0.0
30
0.000000
0
VERTEX
8
0
10
166.000000
20
972.000000
0
VERTEX
8
0
10
170.000000
20
982.000000
0
SEQEND
0
POLYLINE
8
0
6
CONTINUOUS
66
1
62
250
10
0.0
20
0.0
30
0.000000
0
VERTEX
8
0
10
924.000000
20
971.000000
0
VERTEX
8
0
10
921.000000
20
982.000000
0
SEQEND
0
POLYLINE
8
0
6
CONTINUOUS
66
1
62
250
10
0.0
20
0.0
30
0.000000
0
VERTEX
8
0
10
158.000000
20
948.000000
0
VERTEX
8
0
10
161.000000
20
958.000000
0
SEQEND
0
POLYLINE
8
0
6
CONTINUOUS
66
1
62
250
10
0.0
20
0.0
30
0.000000
0
VERTEX
8
0
10
933.000000
20
948.000000
0
VERTEX
8
0
10
929.000000
20
958.000000
0
SEQEND
0
POLYLINE
8
0
6
CONTINUOUS
66
1
62
250
10
0.0
20
0.0
30
0.000000
0
VERTEX
8
0
10
149.000000
20
925.000000
0
VERTEX
8
0
10
152.000000
20
935.000000
0
SEQEND
0
POLYLINE
8
0
6
CONTINUOUS
66
1
62
250
10
0.0
20
0.0
30
0.000000
0
VERTEX
8
0
10
942.000000
20
925.000000
0
VERTEX
8
0
10
938.000000
20
935.000000
0
SEQEND
0
POLYLINE
8
0
6
CONTINUOUS
66
1
62
250
10
0.0
20
0.0
30
0.000000
0
VERTEX
8
0
10
141.000000
20
909.000000
0
VERTEX
8
0
10
143.000000
20
912.000000
0
SEQEND
0
POLYLINE
8
0
6
CONTINUOUS
66
1
62
250
10
0.0
20
0.0
30
0.000000
0
VERTEX
8
0
10
951.000000
20
907.000000
42
-0.157649
0
VERTEX
8
0
10
947.000000
20
912.000000
0
SEQEND
0
POLYLINE
8
0
6
CONTINUOUS
66
1
62
251
10
0.0
20
0.0
30
0.000000
0
VERTEX
8
0
10
138.000000
20
904.000000
0
VERTEX
8
0
10
150.000000
20
904.000000
0
SEQEND
0
POLYLINE
8
0
6
CONTINUOUS
66
1
62
251
10
0.0
20
0.0
30
0.000000
0
VERTEX
8
0
10
163.000000
20
904.000000
0
VERTEX
8
0
10
175.000000
20
904.000000
0
SEQEND
0
POLYLINE
8
0
6
CONTINUOUS
66
1
62
251
10
0.0
20
0.0
30
0.000000
0
VERTEX
8
0
10
188.000000
20
904.000000
0
VERTEX
8
0
10
200.000000
20
904.000000
0
SEQEND
0
POLYLINE
8
0
6
CONTINUOUS
66
1
62
251
10
0.0
20
0.0
30
0.000000
0
VERTEX
8
0
10
213.000000
20
904.000000
0
VERTEX
8
0
10
225.000000
20
904.000000
0
SEQEND
0
POLYLINE
8
0
6
CONTINUOUS
66
1
62
251
10
0.0
20
0.0
30
0.000000
0
VERTEX
8
0
10
238.000000
20
904.000000
0
VERTEX
8
0
10
250.000000
20
904.000000
0
SEQEND
0
POLYLINE
8
0
6
CONTINUOUS
66
1
62
251
10
0.0
20
0.0
30
0.000000
0
VERTEX
8
0
10
263.000000
20
904.000000
0
VERTEX
8
0
10
275.000000
20
904.000000
0
SEQEND
0
POLYLINE
8
0
6
CONTINUOUS
66
1
62
251
10
0.0
20
0.0
30
0.000000
0
VERTEX
8
0
10
288.000000
20
904.000000
0
VERTEX
8
0
10
300.000000
20
904.000000
0
SEQEND
0
POLYLINE
8
0
6
CONTINUOUS
66
1
62
251
10
0.0
20
0.0
30
0.000000
0
VERTEX
8
0
10
313.000000
20
904.000000
0
VERTEX
8
0
10
325.000000
20
904.000000
0
SEQEND
0
POLYLINE
8
0
6
CONTINUOUS
66
1
62
251
10
0.0
20
0.0
30
0.000000
0
VERTEX
8
0
10
338.000000
20
904.000000
0
VERTEX
8
0
10
350.000000
20
904.000000
0
SEQEND
0
POLYLINE
8
0
6
CONTINUOUS
66
1
62
251
10
0.0
20
0.0
30
0.000000
0
VERTEX
8
0
10
363.000000
20
904.000000
0
VERTEX
8
0
10
375.000000
20
904.000000
0
SEQEND
0
POLYLINE
8
0
6
CONTINUOUS
66
1
62
251
10
0.0
20
0.0
30
0.000000
0
VERTEX
8
0
10
388.000000
20
904.000000
0
VERTEX
8
0
10
400.000000
20
904.000000
0
SEQEND
0
POLYLINE
8
0
6
CONTINUOUS
66
1
62
251
10
0.0
20
0.0
30
0.000000
0
VERTEX
8
0
10
413.000000
20
904.000000
0
VERTEX
8
0
10
425.000000
20
904.000000
0
SEQEND
0
POLYLINE
8
0
6
CONTINUOUS
66
1
62
251
10
0.0
20
0.0
30
0.000000
0
VERTEX
8
0
10
438.000000
20
904.000000
0
VERTEX
8
0
10
450.000000
20
904.000000
0
SEQEND
0
POLYLINE
8
0
6
CONTINUOUS
66
1
62
251
10
0.0
20
0.0
30
0.000000
0
VERTEX
8
0
10
463.000000
20
904.000000
0
VERTEX
8
0
10
475.000000
20
904.000000
0
SEQEND
0
POLYLINE
8
0
6
CONTINUOUS
66
1
62
251
10
0.0
20
0.0
30
0.000000
0
VERTEX
8
0
10
488.000000
20
904.000000
0
VERTEX
8
0
10
500.000000
20
904.000000
0
SEQEND
0
POLYLINE
8
0
6
CONTINUOUS
66
1
62
251
10
0.0
20
0.0
30
0.000000
0
VERTEX
8
0
10
513.000000
20
904.000000
0
VERTEX
8
0
10
525.000000
20
904.000000
0
SEQEND
0
POLYLINE
8
0
6
CONTINUOUS
66
1
62
251
10
0.0
20
0.0
30
0.000000
0
VERTEX
8
0
10
538.000000
20
904.000000
0
VERTEX
8
0
10
550.000000
20
904.000000
0
SEQEND
0
POLYLINE
8
0
6
CONTINUOUS
66
1
62
251
10
0.0
20
0.0
30
0.000000
0
VERTEX
8
0
10
563.000000
20
904.000000
0
VERTEX
8
0
10
575.000000
20
904.000000
0
SEQEND
0
POLYLINE
8
0
6
CONTINUOUS
66
1
62
251
10
0.0
20
0.0
30
0.000000
0
VERTEX
8
0
10
588.000000
20
904.000000
0
VERTEX
8
0
10
600.000000
20
904.000000
0
SEQEND
0
POLYLINE
8
0
6
CONTINUOUS
66
1
62
251
10
0.0
20
0.0
30
0.000000
0
VERTEX
8
0
10
613.000000
20
904.000000
0
VERTEX
8
0
10
625.000000
20
904.000000
0
SEQEND
0
POLYLINE
8
0
6
CONTINUOUS
66
1
62
251
10
0.0
20
0.0
30
0.000000
0
VERTEX
8
0
10
638.000000
20
904.000000
0
VERTEX
8
0
10
650.000000
20
904.000000
0
SEQEND
0
POLYLINE
8
0
6
CONTINUOUS
66
1
62
251
10
0.0
20
0.0
30
0.000000
0
VERTEX
8
0
10
663.000000
20
904.000000
0
VERTEX
8
0
10
675.000000
20
904.000000
0
SEQEND
0
POLYLINE
8
0
6
CONTINUOUS
66
1
62
251
10
0.0
20
0.0
30
0.000000
0
VERTEX
8
0
10
688.000000
20
904.000000
0
VERTEX
8
0
10
700.000000
20
904.000000
0
SEQEND
0
POLYLINE
8
0
6
CONTINUOUS
66
1
62
251
10
0.0
20
0.0
30
0.000000
0
VERTEX
8
0
10
713.000000
20
904.000000
0
VERTEX
8
0
10
725.000000
20
904.000000
0
SEQEND
0
POLYLINE
8
0
6
CONTINUOUS
66
1
62
251
10
0.0
20
0.0
30
0.000000
0
VERTEX
8
0
10
738.000000
20
904.000000
0
VERTEX
8
0
10
750.000000
20
904.000000
0
SEQEND
0
POLYLINE
8
0
6
CONTINUOUS
66
1
62
251
10
0.0
20
0.0
30
0.000000
0
VERTEX
8
0
10
763.000000
20
904.000000
0
VERTEX
8
0
10
775.000000
20
904.000000
0
SEQEND
0
POLYLINE
8
0
6
CONTINUOUS
66
1
62
251
10
0.0
20
0.0
30
0.000000
0
VERTEX
8
0
10
788.000000
20
904.000000
0
VERTEX
8
0
10
800.000000
20
904.000000
0
SEQEND
0
POLYLINE
8
0
6
CONTINUOUS
66
1
62
251
10
0.0
20
0.0
30
0.000000
0
VERTEX
8
0
10
813.000000
20
904.000000
0
VERTEX
8
0
10
825.000000
20
904.000000
0
SEQEND
0
POLYLINE
8
0
6
CONTINUOUS
66
1
62
251
10
0.0
20
0.0
30
0.000000
0
VERTEX
8
0
10
838.000000
20
904.000000
0
VERTEX
8
0
10
850.000000
20
904.000000
0
SEQEND
0
POLYLINE
8
0
6
CONTINUOUS
66
1
62
251
10
0.0
20
0.0
30
0.000000
0
VERTEX
8
0
10
863.000000
20
904.000000
0
VERTEX
8
0
10
875.000000
20
904.000000
0
SEQEND
0
POLYLINE
8
0
6
CONTINUOUS
66
1
62
251
10
0.0
20
0.0
30
0.000000
0
VERTEX
8
0
10
888.000000
20
904.000000
0
VERTEX
8
0
10
900.000000
20
904.000000
0
SEQEND
0
POLYLINE
8
0
6
CONTINUOUS
66
1
62
251
10
0.0
20
0.0
30
0.000000
0
VERTEX
8
0
10
913.000000
20
904.000000
0
VERTEX
8
0
10
925.000000
20
904.000000
0
SEQEND
0
POLYLINE
8
0
6
CONTINUOUS
66
1
62
250
10
0.0
20
0.0
30
0.000000
0
VERTEX
8
0
10
143.000000
20
894.000000
42
-0.078207
0
VERTEX
8
0
10
141.000000
20
899.000000
0
VERTEX
8
0
10
138.000000
20
902.000000
0
VERTEX
8
0
10
137.000000
20
902.000000
0
SEQEND
0
POLYLINE
8
0
6
CONTINUOUS
66
1
62
250
10
0.0
20
0.0
30
0.000000
0
VERTEX
8
0
10
943.000000
20
894.000000
0
VERTEX
8
0
10
947.000000
20
904.000000
0
SEQEND
0
POLYLINE
8
0
6
CONTINUOUS
66
1
62
250
10
0.0
20
0.0
30
0.000000
0
VERTEX
8
0
10
152.000000
20
871.000000
42
0.114006
0
VERTEX
8
0
10
148.000000
20
881.000000
0
SEQEND
0
POLYLINE
8
0
6
CONTINUOUS
66
1
62
250
10
0.0
20
0.0
30
0.000000
0
VERTEX
8
0
10
933.000000
20
871.000000
0
VERTEX
8
0
10
937.000000
20
881.000000
0
SEQEND
0
POLYLINE
8
0
6
CONTINUOUS
66
1
62
250
10
0.0
20
0.0
30
0.000000
0
VERTEX
8
0
10
162.000000
20
847.000000
0
VERTEX
8
0
10
158.000000
20
857.000000
0
SEQEND
0
POLYLINE
8
0
6
CONTINUOUS
66
1
62
250
10
0.0
20
0.0
30
0.000000
0
VERTEX
8
0
10
924.000000
20
847.000000
0
VERTEX
8
0
10
925.200000
20
850.900000
42
0.073400
0
VERTEX
8
0
10
927.000000
20
857.000000
0
SEQEND
0
POLYLINE
8
0
6
CONTINUOUS
66
1
62
250
10
0.0
20
0.0
30
0.000000
0
VERTEX
8
0
10
169.000000
20
824.000000
42
0.098611
0
VERTEX
8
0
10
166.000000
20
834.000000
0
SEQEND
0
POLYLINE
8
0
6
CONTINUOUS
66
1
62
250
10
0.0
20
0.0
30
0.000000
0
VERTEX
8
0
10
916.000000
20
824.000000
0
VERTEX
8
0
10
919.000000
20
834.000000
0
SEQEND
0
POLYLINE
8
0
6
CONTINUOUS
66
1
62
250
10
0.0
20
0.0
30
0.000000
0
VERTEX
8
0
10
178.000000
20
800.000000
42
-0.084978
0
VERTEX
8
0
10
174.700000
20
807.900000
0
VERTEX
8
0
10
174.000000
20
810.000000
0
SEQEND
0
POLYLINE
8
0
6
CONTINUOUS
66
1
62
250
10
0.0
20
0.0
30
0.000000
0
VERTEX
8
0
10
908.000000
20
800.000000
42
0.084895
0
VERTEX
8
0
10
911.000000
20
810.000000
0
SEQEND
0
POLYLINE
8
0
6
CONTINUOUS
66
1
62
250
10
0.0
20
0.0
30
0.000000
0
VERTEX
8
0
10
184.000000
20
776.000000
0
VERTEX
8
0
10
181.000000
20
786.000000
0
SEQEND
0
POLYLINE
8
0
6
CONTINUOUS
66
1
62
250
10
0.0
20
0.0
30
0.000000
0
VERTEX
8
0
10
902.000000
20
776.000000
42
-0.100044
0
VERTEX
8
0
10
905.000000
20
787.000000
0
SEQEND
0
POLYLINE
8
0
6
CONTINUOUS
66
1
62
250
10
0.0
20
0.0
30
0.000000
0
VERTEX
8
0
10
190.000000
20
751.000000
0
VERTEX
8
0
10
188.000000
20
762.000000
0
SEQEND
0
POLYLINE
8
0
6
CONTINUOUS
66
1
62
250
10
0.0
20
0.0
30
0.000000
0
VERTEX
8
0
10
895.000000
20
751.000000
0
VERTEX
8
0
10
898.000000
20
762.000000
0
SEQEND
0
POLYLINE
8
0
6
CONTINUOUS
66
1
62
247
10
0.0
20
0.0
30
0.000000
0
VERTEX
8
0
10
196.000000
20
727.000000
0
VERTEX
8
0
10
193.000000
20
738.000000
0
SEQEND
0
POLYLINE
8
0
6
CONTINUOUS
66
1
62
250
10
0.0
20
0.0
30
0.000000
0
VERTEX
8
0
10
890.000000
20
727.000000
0
VERTEX
8
0
10
892.000000
20
738.000000
0
SEQEND
0
POLYLINE
8
0
6
CONTINUOUS
66
1
62
247
10
0.0
20
0.0
30
0.000000
0
VERTEX
8
0
10
200.000000
20
703.000000
42
0.097790
0
VERTEX
8
0
10
198.000000
20
713.000000
0
SEQEND
0
POLYLINE
8
0
6
CONTINUOUS
66
1
62
250
10
0.0
20
0.0
30
0.000000
0
VERTEX
8
0
10
885.000000
20
703.000000
42
0.063906
0
VERTEX
8
0
10
887.000000
20
713.000000
0
SEQEND
0
POLYLINE
8
0
6
CONTINUOUS
66
1
62
197
10
0.0
20
0.0
30
0.000000
0
VERTEX
8
0
10
881.000000
20
679.000000
0
VERTEX
8
0
10
883.000000
20
688.000000
0
SEQEND
0
POLYLINE
8
0
6
CONTINUOUS
66
1
62
250
10
0.0
20
0.0
30
0.000000
0
VERTEX
8
0
10
205.000000
20
678.000000
42
-0.063906
0
VERTEX
8
0
10
203.000000
20
688.000000
0
SEQEND
0
POLYLINE
8
0
6
CONTINUOUS
66
1
62
27
10
0.0
20
0.0
30
0.000000
0
VERTEX
8
0
10
208.000000
20
653.000000
0
VERTEX
8
0
10
206.000000
20
664.000000
0
SEQEND
0
POLYLINE
8
0
6
CONTINUOUS
66
1
62
250
10
0.0
20
0.0
30
0.000000
0
VERTEX
8
0
10
878.000000
20
653.000000
0
VERTEX
8
0
10
879.000000
20
664.000000
0
SEQEND
0
POLYLINE
8
0
6
CONTINUOUS
66
1
62
27
10
0.0
20
0.0
30
0.000000
0
VERTEX
8
0
10
210.000000
20
629.000000
0
VERTEX
8
0
10
210.000000
20
638.000000
0
VERTEX
8
0
10
209.000000
20
639.000000
0
SEQEND
0
POLYLINE
8
0
6
CONTINUOUS
66
1
62
250
10
0.0
20
0.0
30
0.000000
0
VERTEX
8
0
10
875.000000
20
628.000000
0
VERTEX
8
0
10
876.000000
20
639.000000
0
SEQEND
0
POLYLINE
8
0
6
CONTINUOUS
66
1
62
250
10
0.0
20
0.0
30
0.000000
0
VERTEX
8
0
10
212.000000
20
604.000000
0
VERTEX
8
0
10
212.000000
20
614.000000
0
SEQEND
0
POLYLINE
8
0
6
CONTINUOUS
66
1
62
247
10
0.0
20
0.0
30
0.000000
0
VERTEX
8
0
10
873.000000
20
603.000000
0
VERTEX
8
0
10
874.000000
20
614.000000
0
SEQEND
0
POLYLINE
8
0
6
CONTINUOUS
66
1
62
250
10
0.0
20
0.0
30
0.000000
0
VERTEX
8
0
10
214.000000
20
578.000000
0
VERTEX
8
0
10
213.000000
20
589.000000
0
SEQEND
0
POLYLINE
8
0
6
CONTINUOUS
66
1
62
250
10
0.0
20
0.0
30
0.000000
0
VERTEX
8
0
10
872.000000
20
578.000000
0
VERTEX
8
0
10
872.000000
20
589.000000
0
SEQEND
0
POLYLINE
8
0
6
CONTINUOUS
66
1
62
250
10
0.0
20
0.0
30
0.000000
0
VERTEX
8
0
10
214.000000
20
553.000000
0
VERTEX
8
0
10
214.000000
20
564.000000
0
SEQEND
0
POLYLINE
8
0
6
CONTINUOUS
66
1
62
251
10
0.0
20
0.0
30
0.000000
0
VERTEX
8
0
10
872.000000
20
553.000000
0
VERTEX
8
0
10
872.000000
20
564.000000
0
SEQEND
0
POLYLINE
8
0
6
CONTINUOUS
66
1
62
250
10
0.0
20
0.0
30
0.000000
0
VERTEX
8
0
10
214.000000
20
528.000000
0
VERTEX
8
0
10
214.000000
20
539.000000
0
SEQEND
0
POLYLINE
8
0
6
CONTINUOUS
66
1
62
251
10
0.0
20
0.0
30
0.000000
0
VERTEX
8
0
10
872.000000
20
528.000000
0
VERTEX
8
0
10
872.000000
20
539.000000
0
SEQEND
0
POLYLINE
8
0
6
CONTINUOUS
66
1
62
250
10
0.0
20
0.0
30
0.000000
0
VERTEX
8
0
10
213.000000
20
503.000000
0
VERTEX
8
0
10
213.000000
20
514.000000
0
SEQEND
0
POLYLINE
8
0
6
CONTINUOUS
66
1
62
237
10
0.0
20
0.0
30
0.000000
0
VERTEX
8
0
10
873.000000
20
503.000000
0
VERTEX
8
0
10
872.000000
20
514.000000
0
SEQEND
0
POLYLINE
8
0
6
CONTINUOUS
66
1
62
247
10
0.0
20
0.0
30
0.000000
0
VERTEX
8
0
10
211.000000
20
478.000000
0
VERTEX
8
0
10
212.000000
20
489.000000
0
SEQEND
0
POLYLINE
8
0
6
CONTINUOUS
66
1
62
250
10
0.0
20
0.0
30
0.000000
0
VERTEX
8
0
10
875.000000
20
478.000000
0
VERTEX
8
0
10
874.000000
20
489.000000
0
SEQEND
0
POLYLINE
8
0
6
CONTINUOUS
66
1
62
250
10
0.0
20
0.0
30
0.000000
0
VERTEX
8
0
10
877.000000
20
454.000000
0
VERTEX
8
0
10
876.000000
20
464.000000
0
SEQEND
0
POLYLINE
8
0
6
CONTINUOUS
66
1
62
250
10
0.0
20
0.0
30
0.000000
0
VERTEX
8
0
10
208.000000
20
453.000000
0
VERTEX
8
0
10
209.000000
20
464.000000
0
SEQEND
0
POLYLINE
8
0
6
CONTINUOUS
66
1
62
27
10
0.0
20
0.0
30
0.000000
0
VERTEX
8
0
10
205.000000
20
429.000000
42
-0.078284
0
VERTEX
8
0
10
207.000000
20
440.000000
0
SEQEND
0
POLYLINE
8
0
6
CONTINUOUS
66
1
62
37
10
0.0
20
0.0
30
0.000000
0
VERTEX
8
0
10
880.000000
20
428.000000
42
0.258477
0
VERTEX
8
0
10
879.000000
20
439.000000
0
SEQEND
0
POLYLINE
8
0
6
CONTINUOUS
66
1
62
250
10
0.0
20
0.0
30
0.000000
0
VERTEX
8
0
10
200.000000
20
404.000000
42
0.106907
0
VERTEX
8
0
10
202.000000
20
415.000000
0
SEQEND
0
POLYLINE
8
0
6
CONTINUOUS
66
1
62
250
10
0.0
20
0.0
30
0.000000
0
VERTEX
8
0
10
885.000000
20
404.000000
0
VERTEX
8
0
10
883.000000
20
415.000000
0
SEQEND
0
POLYLINE
8
0
6
CONTINUOUS
66
1
62
250
10
0.0
20
0.0
30
0.000000
0
VERTEX
8
0
10
195.000000
20
380.000000
0
VERTEX
8
0
10
198.000000
20
390.000000
0
SEQEND
0
POLYLINE
8
0
6
CONTINUOUS
66
1
62
250
10
0.0
20
0.0
30
0.000000
0
VERTEX
8
0
10
890.000000
20
379.000000
0
VERTEX
8
0
10
888.000000
20
390.000000
0
SEQEND
0
POLYLINE
8
0
6
CONTINUOUS
66
1
62
250
10
0.0
20
0.0
30
0.000000
0
VERTEX
8
0
10
190.000000
20
355.000000
0
VERTEX
8
0
10
192.000000
20
366.000000
0
SEQEND
0
POLYLINE
8
0
6
CONTINUOUS
66
1
62
250
10
0.0
20
0.0
30
0.000000
0
VERTEX
8
0
10
896.000000
20
355.000000
0
VERTEX
8
0
10
893.000000
20
366.000000
0
SEQEND
0
POLYLINE
8
0
6
CONTINUOUS
66
1
62
250
10
0.0
20
0.0
30
0.000000
0
VERTEX
8
0
10
183.000000
20
331.000000
0
VERTEX
8
0
10
185.000000
20
341.000000
0
SEQEND
0
POLYLINE
8
0
6
CONTINUOUS
66
1
62
250
10
0.0
20
0.0
30
0.000000
0
VERTEX
8
0
10
903.000000
20
331.000000
0
VERTEX
8
0
10
900.000000
20
341.000000
0
SEQEND
0
POLYLINE
8
0
6
CONTINUOUS
66
1
62
250
10
0.0
20
0.0
30
0.000000
0
VERTEX
8
0
10
175.000000
20
308.000000
42
0.085094
0
VERTEX
8
0
10
178.000000
20
317.000000
0
SEQEND
0
POLYLINE
8
0
6
CONTINUOUS
66
1
62
250
10
0.0
20
0.0
30
0.000000
0
VERTEX
8
0
10
910.000000
20
307.000000
0
VERTEX
8
0
10
907.000000
20
318.000000
0
SEQEND
0
POLYLINE
8
0
6
CONTINUOUS
66
1
62
250
10
0.0
20
0.0
30
0.000000
0
VERTEX
8
0
10
167.000000
20
285.000000
0
VERTEX
8
0
10
171.000000
20
294.000000
0
SEQEND
0
POLYLINE
8
0
6
CONTINUOUS
66
1
62
250
10
0.0
20
0.0
30
0.000000
0
VERTEX
8
0
10
918.000000
20
284.000000
0
VERTEX
8
0
10
915.000000
20
294.000000
0
SEQEND
0
POLYLINE
8
0
6
CONTINUOUS
66
1
62
250
10
0.0
20
0.0
30
0.000000
0
VERTEX
8
0
10
158.000000
20
260.000000
42
-0.081845
0
VERTEX
8
0
10
162.000000
20
270.000000
0
SEQEND
0
POLYLINE
8
0
6
CONTINUOUS
66
1
62
250
10
0.0
20
0.0
30
0.000000
0
VERTEX
8
0
10
928.000000
20
260.000000
0
VERTEX
8
0
10
924.000000
20
270.000000
0
SEQEND
0
POLYLINE
8
0
6
CONTINUOUS
66
1
62
250
10
0.0
20
0.0
30
0.000000
0
VERTEX
8
0
10
937.000000
20
238.000000
42
0.078690
0
VERTEX
8
0
10
933.000000
20
247.000000
0
SEQEND
0
POLYLINE
8
0
6
CONTINUOUS
66
1
62
250
10
0.0
20
0.0
30
0.000000
0
VERTEX
8
0
10
148.000000
20
237.000000
42
-0.082621
0
VERTEX
8
0
10
153.000000
20
248.000000
0
SEQEND
0
POLYLINE
8
0
6
CONTINUOUS
66
1
62
251
10
0.0
20
0.0
30
0.000000
0
VERTEX
8
0
10
150.000000
20
227.000000
0
VERTEX
8
0
10
162.000000
20
227.000000
0
SEQEND
0
POLYLINE
8
0
6
CONTINUOUS
66
1
62
251
10
0.0
20
0.0
30
0.000000
0
VERTEX
8
0
10
175.000000
20
227.000000
0
VERTEX
8
0
10
187.000000
20
227.000000
0
SEQEND
0
POLYLINE
8
0
6
CONTINUOUS
66
1
62
251
10
0.0
20
0.0
30
0.000000
0
VERTEX
8
0
10
200.000000
20
227.000000
0
VERTEX
8
0
10
212.000000
20
227.000000
0
SEQEND
0
POLYLINE
8
0
6
CONTINUOUS
66
1
62
251
10
0.0
20
0.0
30
0.000000
0
VERTEX
8
0
10
225.000000
20
227.000000
0
VERTEX
8
0
10
237.000000
20
227.000000
0
SEQEND
0
POLYLINE
8
0
6
CONTINUOUS
66
1
62
251
10
0.0
20
0.0
30
0.000000
0
VERTEX
8
0
10
250.000000
20
227.000000
0
VERTEX
8
0
10
262.000000
20
227.000000
0
SEQEND
0
POLYLINE
8
0
6
CONTINUOUS
66
1
62
251
10
0.0
20
0.0
30
0.000000
0
VERTEX
8
0
10
275.000000
20
227.000000
0
VERTEX
8
0
10
287.000000
20
227.000000
0
SEQEND
0
POLYLINE
8
0
6
CONTINUOUS
66
1
62
251
10
0.0
20
0.0
30
0.000000
0
VERTEX
8
0
10
300.000000
20
227.000000
0
VERTEX
8
0
10
312.000000
20
227.000000
0
SEQEND
0
POLYLINE
8
0
6
CONTINUOUS
66
1
62
251
10
0.0
20
0.0
30
0.000000
0
VERTEX
8
0
10
325.000000
20
227.000000
0
VERTEX
8
0
10
337.000000
20
227.000000
0
SEQEND
0
POLYLINE
8
0
6
CONTINUOUS
66
1
62
251
10
0.0
20
0.0
30
0.000000
0
VERTEX
8
0
10
350.000000
20
227.000000
0
VERTEX
8
0
10
362.000000
20
227.000000
0
SEQEND
0
POLYLINE
8
0
6
CONTINUOUS
66
1
62
251
10
0.0
20
0.0
30
0.000000
0
VERTEX
8
0
10
375.000000
20
227.000000
0
VERTEX
8
0
10
387.000000
20
227.000000
0
SEQEND
0
POLYLINE
8
0
6
CONTINUOUS
66
1
62
251
10
0.0
20
0.0
30
0.000000
0
VERTEX
8
0
10
400.000000
20
227.000000
0
VERTEX
8
0
10
412.000000
20
227.000000
0
SEQEND
0
POLYLINE
8
0
6
CONTINUOUS
66
1
62
251
10
0.0
20
0.0
30
0.000000
0
VERTEX
8
0
10
425.000000
20
227.000000
0
VERTEX
8
0
10
437.000000
20
227.000000
0
SEQEND
0
POLYLINE
8
0
6
CONTINUOUS
66
1
62
251
10
0.0
20
0.0
30
0.000000
0
VERTEX
8
0
10
450.000000
20
227.000000
0
VERTEX
8
0
10
462.000000
20
227.000000
0
SEQEND
0
POLYLINE
8
0
6
CONTINUOUS
66
1
62
251
10
0.0
20
0.0
30
0.000000
0
VERTEX
8
0
10
475.000000
20
227.000000
0
VERTEX
8
0
10
487.000000
20
227.000000
0
SEQEND
0
POLYLINE
8
0
6
CONTINUOUS
66
1
62
252
10
0.0
20
0.0
30
0.000000
0
VERTEX
8
0
10
512.000000
20
227.000000
0
VERTEX
8
0
10
501.000000
20
227.000000
0
VERTEX
8
0
10
500.000000
20
228.000000
0
SEQEND
0
POLYLINE
8
0
6
CONTINUOUS
66
1
62
252
10
0.0
20
0.0
30
0.000000
0
VERTEX
8
0
10
537.000000
20
227.000000
0
VERTEX
8
0
10
526.000000
20
227.000000
0
VERTEX
8
0
10
525.000000
20
228.000000
0
SEQEND
0
POLYLINE
8
0
6
CONTINUOUS
66
1
62
252
10
0.0
20
0.0
30
0.000000
0
VERTEX
8
0
10
562.000000
20
227.000000
0
VERTEX
8
0
10
551.000000
20
227.000000
0
VERTEX
8
0
10
550.000000
20
228.000000
0
SEQEND
0
POLYLINE
8
0
6
CONTINUOUS
66
1
62
252
10
0.0
20
0.0
30
0.000000
0
VERTEX
8
0
10
587.000000
20
227.000000
0
VERTEX
8
0
10
576.000000
20
227.000000
0
VERTEX
8
0
10
575.000000
20
228.000000
0
SEQEND
0
POLYLINE
8
0
6
CONTINUOUS
66
1
62
252
10
0.0
20
0.0
30
0.000000
0
VERTEX
8
0
10
612.000000
20
227.000000
0
VERTEX
8
0
10
601.000000
20
227.000000
0
VERTEX
8
0
10
600.000000
20
228.000000
0
SEQEND
0
POLYLINE
8
0
6
CONTINUOUS
66
1
62
252
10
0.0
20
0.0
30
0.000000
0
VERTEX
8
0
10
637.000000
20
227.000000
0
VERTEX
8
0
10
626.000000
20
227.000000
0
VERTEX
8
0
10
625.000000
20
228.000000
0
SEQEND
0
POLYLINE
8
0
6
CONTINUOUS
66
1
62
252
10
0.0
20
0.0
30
0.000000
0
VERTEX
8
0
10
662.000000
20
227.000000
0
VERTEX
8
0
10
651.000000
20
227.000000
0
VERTEX
8
0
10
650.000000
20
228.000000
0
SEQEND
0
POLYLINE
8
0
6
CONTINUOUS
66
1
62
252
10
0.0
20
0.0
30
0.000000
0
VERTEX
8
0
10
687.000000
20
227.000000
0
VERTEX
8
0
10
676.000000
20
227.000000
0
VERTEX
8
0
10
675.000000
20
228.000000
0
SEQEND
0
POLYLINE
8
0
6
CONTINUOUS
66
1
62
252
10
0.0
20
0.0
30
0.000000
0
VERTEX
8
0
10
712.000000
20
227.000000
0
VERTEX
8
0
10
701.000000
20
227.000000
0
VERTEX
8
0
10
700.000000
20
228.000000
0
SEQEND
0
POLYLINE
8
0
6
CONTINUOUS
66
1
62
252
10
0.0
20
0.0
30
0.000000
0
VERTEX
8
0
10
737.000000
20
227.000000
0
VERTEX
8
0
10
726.000000
20
227.000000
0
VERTEX
8
0
10
725.000000
20
228.000000
0
SEQEND
0
POLYLINE
8
0
6
CONTINUOUS
66
1
62
252
10
0.0
20
0.0
30
0.000000
0
VERTEX
8
0
10
762.000000
20
227.000000
0
VERTEX
8
0
10
751.000000
20
227.000000
0
VERTEX
8
0
10
750.000000
20
228.000000
0
SEQEND
0
POLYLINE
8
0
6
CONTINUOUS
66
1
62
252
10
0.0
20
0.0
30
0.000000
0
VERTEX
8
0
10
787.000000
20
227.000000
0
VERTEX
8
0
10
776.000000
20
227.000000
0
VERTEX
8
0
10
775.000000
20
228.000000
0
SEQEND
0
POLYLINE
8
0
6
CONTINUOUS
66
1
62
252
10
0.0
20
0.0
30
0.000000
0
VERTEX
8
0
10
812.000000
20
227.000000
0
VERTEX
8
0
10
801.000000
20
227.000000
0
VERTEX
8
0
10
800.000000
20
228.000000
0
SEQEND
0
POLYLINE
8
0
6
CONTINUOUS
66
1
62
252
10
0.0
20
0.0
30
0.000000
0
VERTEX
8
0
10
837.000000
20
227.000000
0
VERTEX
8
0
10
826.000000
20
227.000000
0
VERTEX
8
0
10
825.000000
20
228.000000
0
SEQEND
0
POLYLINE
8
0
6
CONTINUOUS
66
1
62
252
10
0.0
20
0.0
30
0.000000
0
VERTEX
8
0
10
862.000000
20
227.000000
0
VERTEX
8
0
10
851.000000
20
227.000000
0
VERTEX
8
0
10
850.000000
20
228.000000
0
SEQEND
0
POLYLINE
8
0
6
CONTINUOUS
66
1
62
252
10
0.0
20
0.0
30
0.000000
0
VERTEX
8
0
10
887.000000
20
227.000000
0
VERTEX
8
0
10
876.000000
20
227.000000
0
VERTEX
8
0
10
875.000000
20
228.000000
0
SEQEND
0
POLYLINE
8
0
6
CONTINUOUS
66
1
62
252
10
0.0
20
0.0
30
0.000000
0
VERTEX
8
0
10
912.000000
20
227.000000
0
VERTEX
8
0
10
901.000000
20
227.000000
0
VERTEX
8
0
10
900.000000
20
228.000000
0
SEQEND
0
POLYLINE
8
0
6
CONTINUOUS
66
1
62
252
10
0.0
20
0.0
30
0.000000
0
VERTEX
8
0
10
937.000000
20
227.000000
0
VERTEX
8
0
10
926.000000
20
227.000000
0
VERTEX
8
0
10
925.000000
20
228.000000
0
SEQEND
0
POLYLINE
8
0
6
CONTINUOUS
66
1
62
250
10
0.0
20
0.0
30
0.000000
0
VERTEX
8
0
10
630.000000
20
126.000000
42
0.438696
0
VERTEX
8
0
10
655.615385
20
164.923077
42
0.278841
0
VERTEX
8
0
10
630.000000
20
187.000000
0
VERTEX
8
0
10
458.000000
20
187.000000
42
0.858056
0
VERTEX
8
0
10
458.002873
20
126.497093
0
VERTEX
8
0
10
630.000000
20
126.000000
0
SEQEND
0
POLYLINE
8
0
6
CONTINUOUS
66
1
62
250
10
0.0
20
0.0
30
0.000000
0
VERTEX
8
0
10
950.000000
20
904.000000
0
VERTEX
8
0
10
951.000000
20
907.000000
0
VERTEX
8
0
10
956.200000
20
916.900000
0
VERTEX
8
0
10
976.700000
20
964.100000
0
VERTEX
8
0
10
982.200000
20
977.900000
0
VERTEX
8
0
10
1000.647059
20
1029.088235
0
VERTEX
8
0
10
1003.300000
20
1037.900000
0
VERTEX
8
0
10
1012.384615
20
1071.923077
0
VERTEX
8
0
10
1014.384615
20
1080.923077
0
VERTEX
8
0
10
1018.533074
20
1107.029183
0
VERTEX
8
0
10
1020.000000
20
1123.000000
0
VERTEX
8
0
10
1017.405405
20
1137.067568
0
VERTEX
8
0
10
1016.594595
20
1141.932432
0
VERTEX
8
0
10
1012.458824
20
1178.035294
0
VERTEX
8
0
10
1010.000000
20
1208.000000
0
VERTEX
8
0
10
1010.531034
20
1279.027586
0
VERTEX
8
0
10
1012.458824
20
1307.964706
0
VERTEX
8
0
10
1020.000000
20
1371.000000
0
VERTEX
8
0
10
1011.647059
20
1408.911765
0
VERTEX
8
0
10
997.300000
20
1460.100000
0
VERTEX
8
0
10
988.700000
20
1485.900000
0
VERTEX
8
0
10
969.700000
20
1534.900000
0
VERTEX
8
0
10
966.200000
20
1543.100000
0
VERTEX
8
0
10
942.769231
20
1592.846154
0
VERTEX
8
0
10
937.000000
20
1602.000000
42
0.128171
0
VERTEX
8
0
10
932.800000
20
1610.900000
0
VERTEX
8
0
10
914.230769
20
1643.153846
0
VERTEX
8
0
10
891.760000
20
1677.820000
0
VERTEX
8
0
10
884.240000
20
1688.180000
0
VERTEX
8
0
10
857.754098
20
1722.795082
0
VERTEX
8
0
10
844.000000
20
1739.000000
0
VERTEX
8
0
10
244.000000
20
1739.000000
0
VERTEX
8
0
10
239.000000
20
1733.000000
0
VERTEX
8
0
10
223.000000
20
1714.000000
0
VERTEX
8
0
10
192.200000
20
1671.900000
0
VERTEX
8
0
10
180.000000
20
1654.000000
42
-0.129316
0
VERTEX
8
0
10
177.200000
20
1648.900000
0
VERTEX
8
0
10
152.200000
20
1605.900000
42
0.113888
0
VERTEX
8
0
10
151.000000
20
1602.000000
0
VERTEX
8
0
10
148.000000
20
1597.000000
0
VERTEX
8
0
10
138.800000
20
1580.100000
0
VERTEX
8
0
10
113.700000
20
1523.100000
0
VERTEX
8
0
10
105.700000
20
1502.100000
0
VERTEX
8
0
10
92.352941
20
1463.911765
0
VERTEX
8
0
10
89.300000
20
1453.900000
0
VERTEX
8
0
10
76.384615
20
1406.923077
0
VERTEX
8
0
10
73.647059
20
1395.088235
0
VERTEX
8
0
10
69.000000
20
1374.000000
0
VERTEX
8
0
10
69.000000
20
1362.000000
0
VERTEX
8
0
10
70.405405
20
1356.067568
0
VERTEX
8
0
10
75.549180
20
1313.959016
0
VERTEX
8
0
10
77.464602
20
1289.030973
0
VERTEX
8
0
10
79.000000
20
1266.000000
0
VERTEX
8
0
10
79.000000
20
1220.000000
0
VERTEX
8
0
10
76.538071
20
1184.032995
0
VERTEX
8
0
10
72.580000
20
1147.060000
0
VERTEX
8
0
10
70.580000
20
1133.060000
42
0.097566
0
VERTEX
8
0
10
70.580000
20
1101.940000
0
VERTEX
8
0
10
71.420000
20
1096.060000
0
VERTEX
8
0
10
77.352941
20
1066.088235
0
VERTEX
8
0
10
88.300000
20
1028.100000
0
VERTEX
8
0
10
94.700000
20
1008.900000
0
VERTEX
8
0
10
114.800000
20
955.900000
0
VERTEX
8
0
10
138.000000
20
904.000000
0
VERTEX
8
0
10
137.000000
20
902.000000
42
0.107255
0
VERTEX
8
0
10
51.529231
20
592.026154
0
VERTEX
8
0
10
51.000000
20
591.000000
0
VERTEX
8
0
10
51.531034
20
531.972414
42
0.170725
0
VERTEX
8
0
10
232.751381
20
96.776243
42
0.131746
0
VERTEX
8
0
10
245.000000
20
85.000000
0
VERTEX
8
0
10
843.000000
20
85.000000
42
0.065166
0
VERTEX
8
0
10
852.000000
20
93.000000
42
0.151052
0
VERTEX
8
0
10
1032.569231
20
480.053846
42
0.093766
0
VERTEX
8
0
10
1015.352941
20
735.088235
0
VERTEX
8
0
10
1011.352941
20
750.088235
0
VERTEX
8
0
10
996.700000
20
796.900000
0
VERTEX
8
0
10
992.700000
20
807.900000
0
VERTEX
8
0
10
974.200000
20
854.100000
0
VERTEX
8
0
10
972.700000
20
857.900000
0
VERTEX
8
0
10
952.800000
20
899.900000
0
VERTEX
8
0
10
950.000000
20
904.000000
0
VERTEX
8
0
10
938.000000
20
904.000000
0
SEQEND
0
ENDSEC
0
EOF
