  0
SECTION
  2
HEADER
  9
$ACADVER
  1
AC1009
  0
ENDSEC
  0
SECTION
  2
BLOCKS
  0
ENDSEC
  0
SECTION
  2
ENTITIES
  0
POLYLINE
  8
NAME
 62
    94
 66
     1
 10
0.0
 20
0.0
 70
     0
  0
VERTEX
  8
NAME
 62
    94
 10
3.1603186421247473
 20
3.4648219418335424
 42
0.3492099092756997
  0
VERTEX
  8
NAME
 62
    94
 10
3.0978660547500541
 20
3.5145035999207810
  0
VERTEX
  8
NAME
 62
    94
 10
3.0728626681339586
 20
3.5145035999207810
 42
0.4142135623730950
  0
VERTEX
  8
NAME
 62
    94
 10
2.9978626681339602
 20
3.4395035999207813
  0
VERTEX
  8
NAME
 62
    94
 10
2.9978626681339602
 20
3.4020035999207821
 42
0.4142135623730950
  0
VERTEX
  8
NAME
 62
    94
 10
3.0728626681339586
 20
3.3270035999207810
  0
VERTEX
  8
NAME
 62
    94
 10
3.0980184524742462
 20
3.3270137597690610
 42
0.3497855115661177
  0
VERTEX
  8
NAME
 62
    94
 10
3.1603592815178674
 20
3.3770002133046879
  0
SEQEND
  8
NAME
 62
    94
  0
POLYLINE
  8
NAME
 62
    94
 66
     1
 10
0.0
 20
0.0
 70
     0
  0
VERTEX
  8
NAME
 62
    94
 10
3.1979100807592653
 20
3.3270035999207810
  0
VERTEX
  8
NAME
 62
    94
 10
3.1979100807592653
 20
3.5145035999207810
  0
VERTEX
  8
NAME
 62
    94
 10
3.3479100807592648
 20
3.5145035999207810
  0
SEQEND
  8
NAME
 62
    94
  0
LINE
  8
NAME
 62
    94
 10
3.3104100807592642
 20
3.4270069865368749
 11
3.1979100807592653
 21
3.4270069865368749
  0
POLYLINE
  8
NAME
 62
    94
 66
     1
 10
0.0
 20
0.0
 70
     0
  0
VERTEX
  8
NAME
 62
    94
 10
3.3979574933845678
 20
3.3270035999207810
  0
VERTEX
  8
NAME
 62
    94
 10
3.3979574933845678
 20
3.5145035999207810
  0
VERTEX
  8
NAME
 62
    94
 10
3.5479574933845699
 20
3.5145035999207810
  0
SEQEND
  8
NAME
 62
    94
  0
LINE
  8
NAME
 62
    94
 10
3.5104574933845694
 20
3.4270069865368749
 11
3.3979574933845678
 21
3.4270069865368749
  0
POLYLINE
  8
NAME
 62
    94
 66
     1
 10
0.0
 20
0.0
 70
     0
  0
VERTEX
  8
NAME
 62
    94
 10
3.5980150658581529
 20
3.4770035999207818
 42
-0.2726544751729642
  0
VERTEX
  8
NAME
 62
    94
 10
3.6593399100738129
 20
3.5145137597690610
  0
VERTEX
  8
NAME
 62
    94
 10
3.6605082926259689
 20
3.5145035999207810
 42
-0.4142135623730950
  0
VERTEX
  8
NAME
 62
    94
 10
3.7230116792420596
 20
3.4520002133046890
 42
-0.2357463286950689
  0
VERTEX
  8
NAME
 62
    94
 10
3.6980692517156442
 20
3.4020442393138994
  0
VERTEX
  8
NAME
 62
    94
 10
3.6230082926259657
 20
3.3645035999207815
 42
0.3031173169420362
  0
VERTEX
  8
NAME
 62
    94
 10
3.5980049060098755
 20
3.3270035999207810
  0
VERTEX
  8
NAME
 62
    94
 10
3.7230116792420596
 20
3.3270035999207810
  0
SEQEND
  8
NAME
 62
    94
  0
LINE
  8
NAME
 62
    94
 10
3.9473004898624886
 20
3.5145035999207810
 11
4.0973004898624881
 21
3.5145035999207810
  0
LINE
  8
NAME
 62
    94
 10
4.0223004898624870
 20
3.5145035999207810
 11
4.0223004898624870
 21
3.3270035999207810
  0
POLYLINE
  8
NAME
 62
    94
 66
     1
 10
0.0
 20
0.0
 70
     0
  0
VERTEX
  8
NAME
 62
    94
 10
4.2973479024877932
 20
3.3270035999207810
  0
VERTEX
  8
NAME
 62
    94
 10
4.1473479024877937
 20
3.3270035999207810
  0
VERTEX
  8
NAME
 62
    94
 10
4.1473479024877937
 20
3.5145035999207810
  0
VERTEX
  8
NAME
 62
    94
 10
4.2973479024877932
 20
3.5145035999207810
  0
SEQEND
  8
NAME
 62
    94
  0
LINE
  8
NAME
 62
    94
 10
4.2598479024877927
 20
3.4270069865368749
 11
4.1473479024877937
 21
3.4270069865368749
  0
POLYLINE
  8
NAME
 62
    94
 66
     1
 10
0.0
 20
0.0
 70
     0
  0
VERTEX
  8
NAME
 62
    94
 10
4.3473953151130962
 20
3.3770002133046879
 42
0.4142135623730950
  0
VERTEX
  8
NAME
 62
    94
 10
4.3973919284970044
 20
3.3270035999207810
  0
VERTEX
  8
NAME
 62
    94
 10
4.4348919284970050
 20
3.3270035999207810
 42
0.4142135623730949
  0
VERTEX
  8
NAME
 62
    94
 10
4.4723919284970028
 20
3.3645035999207815
 42
0.3297655718959625
  0
VERTEX
  8
NAME
 62
    94
 10
4.4355218390903390
 20
3.4143274958839349
  0
VERTEX
  8
NAME
 62
    94
 10
4.4348919284970050
 20
3.4145002133046884
  0
VERTEX
  8
NAME
 62
    94
 10
4.3848953151130994
 20
3.4270069865368749
 42
-0.3296835020556843
  0
VERTEX
  8
NAME
 62
    94
 10
4.3474156348096562
 20
3.4763432097826077
  0
VERTEX
  8
NAME
 62
    94
 10
4.3473953151130962
 20
3.4770035999207818
 42
-0.4142135623730950
  0
VERTEX
  8
NAME
 62
    94
 10
4.3848953151130994
 20
3.5145035999207810
  0
VERTEX
  8
NAME
 62
    94
 10
4.4223953151130972
 20
3.5145035999207810
 42
-0.4142730887184284
  0
VERTEX
  8
NAME
 62
    94
 10
4.4723919284970028
 20
3.4644968266885954
  0
SEQEND
  8
NAME
 62
    94
  0
LINE
  8
NAME
 62
    94
 10
4.5474427277384013
 20
3.5145035999207810
 11
4.6974427277384034
 21
3.5145035999207810
  0
LINE
  8
NAME
 62
    94
 10
4.6224427277384024
 20
3.5145035999207810
 11
4.6224427277384024
 21
3.3270035999207810
  0
POLYLINE
  8
NAME
 62
    94
 66
     1
 10
0.0
 20
0.0
 70
     0
  0
VERTEX
  8
NAME
 62
    94
 10
4.9475375529890115
 20
3.3270035999207810
  0
VERTEX
  8
NAME
 62
    94
 10
4.9475375529890115
 20
3.5145035999207810
  0
VERTEX
  8
NAME
 62
    94
 10
5.0975375529890110
 20
3.5145035999207810
  0
SEQEND
  8
NAME
 62
    94
  0
LINE
  8
NAME
 62
    94
 10
5.0600375529890131
 20
3.4270069865368749
 11
4.9475375529890115
 21
3.4270069865368749
  0
LINE
  8
NAME
 62
    94
 10
5.1475849656143167
 20
3.3270035999207810
 11
5.2475883522304105
 21
3.3270035999207810
  0
LINE
  8
NAME
 62
    94
 10
5.1975815789982249
 20
3.3270035999207810
 11
5.1975815789982249
 21
3.5145035999207810
  0
LINE
  8
NAME
 62
    94
 10
5.1475849656143167
 20
3.5145035999207810
 11
5.2475883522304105
 21
3.5145035999207810
  0
POLYLINE
  8
NAME
 62
    94
 66
     1
 10
0.0
 20
0.0
 70
     0
  0
VERTEX
  8
NAME
 62
    94
 10
5.3476323782396218
 20
3.5145035999207810
  0
VERTEX
  8
NAME
 62
    94
 10
5.3476323782396218
 20
3.3270035999207810
  0
VERTEX
  8
NAME
 62
    94
 10
5.4976323782396213
 20
3.3270035999207810
  0
SEQEND
  8
NAME
 62
    94
  0
POLYLINE
  8
NAME
 62
    94
 66
     1
 10
0.0
 20
0.0
 70
     0
  0
VERTEX
  8
NAME
 62
    94
 10
5.6976797908649264
 20
3.3270035999207810
  0
VERTEX
  8
NAME
 62
    94
 10
5.5476797908649269
 20
3.3270035999207810
  0
VERTEX
  8
NAME
 62
    94
 10
5.5476797908649269
 20
3.5145035999207810
  0
VERTEX
  8
NAME
 62
    94
 10
5.6976797908649264
 20
3.5145035999207810
  0
SEQEND
  8
NAME
 62
    94
  0
LINE
  8
NAME
 62
    94
 10
5.6601797908649285
 20
3.4270069865368749
 11
5.5476797908649269
 21
3.4270069865368749
  0
LINE
  8
GA_DIE
 62
     5
 10
1.5139999999999993
 20
1.5847943699366080
 11
2.7071795625000004
 21
1.5847943699366080
  0
LINE
  8
GA_DIE
 62
     5
 10
2.8946795625000008
 20
1.5847943699366080
 11
4.0878591250000014
 21
1.5847943699366080
  0
LINE
  8
GA_DIE
 62
     5
 10
4.0878591250000014
 20
1.5847943699366080
 11
4.0878591250000014
 21
1.8412526199366077
  0
LINE
  8
GA_DIE
 62
     5
 10
4.0878591250000014
 20
1.8412526199366077
 11
2.8946795625000008
 21
1.8412526199366077
  0
LINE
  8
GA_DIE
 62
     5
 10
2.7071795625000004
 20
1.8412526199366077
 11
1.5139999999999993
 21
1.8412526199366077
  0
LINE
  8
GA_DIE
 62
     5
 10
1.5139999999999993
 20
1.8412526199366077
 11
1.5139999999999993
 21
1.5847943699366080
  0
LINE
  8
GA_DIE
 62
     5
 10
1.8132677500000085
 20
2.0316586199366089
 11
1.8132677500000014
 21
2.4205462449366077
  0
LINE
  8
GA_DIE
 62
     5
 10
1.8132677500000014
 20
2.4205462449366077
 11
2.6068954375000057
 21
2.4205462449366077
  0
LINE
  8
GA_DIE
 62
     5
 10
2.7943954375000057
 20
2.4205462449366077
 11
3.5880231250000101
 21
2.4205462449366077
  0
LINE
  8
GA_DIE
 62
     5
 10
3.5880231250000101
 20
2.4205462449366077
 11
3.5880231250000207
 21
2.0316586199366089
  0
LINE
  8
GA_DIE
 62
     5
 10
3.5880231250000207
 20
2.0316586199366089
 11
2.7943954375000146
 21
2.0316586199366089
  0
LINE
  8
GA_DIE
 62
     5
 10
2.6068954375000146
 20
2.0316586199366089
 11
1.8132677500000085
 21
2.0316586199366089
  0
LINE
  8
GA_DIE
 62
     5
 10
4.4924422167324316
 20
2.0294726613486187
 11
4.2013342046650504
 21
2.0294726613486187
  0
LINE
  8
GA_DIE
 62
     5
 10
4.0138342046650504
 20
2.0294726613486187
 11
3.7227261925976691
 21
2.0294726613486187
  0
LINE
  8
GA_DIE
 62
     5
 10
3.7227261925976691
 20
2.0294726613486187
 11
3.7227261925976798
 21
2.4116860893758680
  0
LINE
  8
GA_DIE
 62
     5
 10
3.7227261925976798
 20
2.4116860893758680
 11
4.0138342046650592
 21
2.4116860893758680
  0
LINE
  8
GA_DIE
 62
     5
 10
4.2013342046650592
 20
2.4116860893758680
 11
4.4924422167324387
 21
2.4116860893758680
  0
LINE
  8
GA_DIE
 62
     5
 10
4.4924422167324387
 20
2.4116860893758680
 11
4.4924422167324316
 21
2.0294726613486187
  0
LINE
  8
GA_DIE
 62
     5
 10
4.6293047449366185
 20
1.5139999999999993
 11
4.4632243099683135
 21
1.5139999999999993
  0
LINE
  8
GA_DIE
 62
     5
 10
4.3832243099683135
 20
1.5139999999999993
 11
4.2171438750000085
 21
1.5139999999999993
  0
LINE
  8
GA_DIE
 62
     5
 10
4.2171438750000085
 20
1.5139999999999993
 11
4.2171438750000014
 21
1.9079722398732191
  0
LINE
  8
GA_DIE
 62
     5
 10
4.2171438750000014
 20
1.9079722398732191
 11
4.3832243099683064
 21
1.9079722398732191
  0
LINE
  8
GA_DIE
 62
     5
 10
4.4632243099683064
 20
1.9079722398732191
 11
4.6293047449366114
 21
1.9079722398732191
  0
LINE
  8
GA_DIE
 62
     5
 10
4.6293047449366114
 20
1.9079722398732191
 11
4.6293047449366185
 21
1.5139999999999993
  0
LINE
  8
GRIP
 62
   110
 10
0.1250000000000000
 20
0.0000000000000000
 11
2.0454349149788738
 21
0.0000000000000000
  0
LINE
  8
GRIP
 62
   110
 10
2.0454349149788738
 20
0.0000000000000000
 11
2.0674349149788736
 21
0.0220000000000000
  0
LINE
  8
GRIP
 62
   110
 10
2.1114349149788740
 20
0.0220000000000000
 11
2.1334349149788738
 21
0.0000000000000000
  0
LINE
  8
GRIP
 62
   110
 10
2.1334349149788738
 20
0.0000000000000000
 11
4.0098698299577444
 21
0.0000000000000000
  0
LINE
  8
GRIP
 62
   110
 10
4.0098698299577444
 20
0.0000000000000000
 11
4.0318698299577447
 21
0.0220000000000000
  0
LINE
  8
GRIP
 62
   110
 10
4.0758698299577443
 20
0.0220000000000000
 11
4.0978698299577445
 21
0.0000000000000000
  0
LINE
  8
GRIP
 62
   110
 10
4.0978698299577445
 20
0.0000000000000000
 11
6.0183047449366178
 21
0.0000000000000000
  0
POLYLINE
  8
GRIP
 62
   110
 66
     1
 10
0.0
 20
0.0
 70
     0
  0
VERTEX
  8
GRIP
 62
   110
 10
6.0183047449366178
 20
0.0000000000000000
 42
0.4142135623730950
  0
VERTEX
  8
GRIP
 62
   110
 10
6.1433047449366178
 20
0.1250000000000000
  0
SEQEND
  8
GRIP
 62
   110
  0
LINE
  8
GRIP
 62
   110
 10
6.1433047449366178
 20
0.1250000000000000
 11
6.1433047449366178
 21
1.9232731224683044
  0
LINE
  8
GRIP
 62
   110
 10
6.1433047449366178
 20
1.9232731224683044
 11
6.1213047449366176
 21
1.9452731224683044
  0
LINE
  8
GRIP
 62
   110
 10
6.1213047449366176
 20
1.9892731224683045
 11
6.1433047449366178
 21
2.0112731224683045
  0
LINE
  8
GRIP
 62
   110
 10
6.1433047449366178
 20
2.0112731224683045
 11
6.1433047449366178
 21
3.8095462449366089
  0
POLYLINE
  8
GRIP
 62
   110
 66
     1
 10
0.0
 20
0.0
 70
     0
  0
VERTEX
  8
GRIP
 62
   110
 10
6.1433047449366178
 20
3.8095462449366089
 42
0.4142135623730950
  0
VERTEX
  8
GRIP
 62
   110
 10
6.0183047449366178
 20
3.9345462449366089
  0
SEQEND
  8
GRIP
 62
   110
  0
LINE
  8
GRIP
 62
   110
 10
6.0183047449366178
 20
3.9345462449366089
 11
4.0978698299577481
 21
3.9345462449366089
  0
LINE
  8
GRIP
 62
   110
 10
4.0978698299577481
 20
3.9345462449366089
 11
4.0758698299577478
 21
3.9125462449366086
  0
LINE
  8
GRIP
 62
   110
 10
4.0318698299577482
 20
3.9125462449366086
 11
4.0098698299577480
 21
3.9345462449366089
  0
LINE
  8
GRIP
 62
   110
 10
4.0098698299577480
 20
3.9345462449366089
 11
2.1334349149788738
 21
3.9345462449366089
  0
LINE
  8
GRIP
 62
   110
 10
2.1334349149788738
 20
3.9345462449366089
 11
2.1114349149788736
 21
3.9125462449366086
  0
LINE
  8
GRIP
 62
   110
 10
2.0674349149788736
 20
3.9125462449366086
 11
2.0454349149788733
 21
3.9345462449366089
  0
LINE
  8
GRIP
 62
   110
 10
2.0454349149788733
 20
3.9345462449366089
 11
0.1250000000000000
 21
3.9345462449366089
  0
POLYLINE
  8
GRIP
 62
   110
 66
     1
 10
0.0
 20
0.0
 70
     0
  0
VERTEX
  8
GRIP
 62
   110
 10
0.1250000000000000
 20
3.9345462449366089
 42
0.4142135623730950
  0
VERTEX
  8
GRIP
 62
   110
 10
0.0000000000000000
 20
3.8095462449366089
  0
SEQEND
  8
GRIP
 62
   110
  0
LINE
  8
GRIP
 62
   110
 10
0.0000000000000000
 20
3.8095462449366089
 11
0.0000000000000000
 21
2.0112731224683045
  0
LINE
  8
GRIP
 62
   110
 10
0.0000000000000000
 20
2.0112731224683045
 11
0.0220000000000000
 21
1.9892731224683045
  0
LINE
  8
GRIP
 62
   110
 10
0.0220000000000000
 20
1.9452731224683044
 11
0.0000000000000000
 21
1.9232731224683044
  0
LINE
  8
GRIP
 62
   110
 10
0.0000000000000000
 20
1.9232731224683044
 11
0.0000000000000000
 21
0.1250000000000000
  0
POLYLINE
  8
GRIP
 62
   110
 66
     1
 10
0.0
 20
0.0
 70
     0
  0
VERTEX
  8
GRIP
 62
   110
 10
0.0000000000000000
 20
0.1250000000000000
 42
0.4142135623730950
  0
VERTEX
  8
GRIP
 62
   110
 10
0.1250000000000000
 20
0.0000000000000000
  0
SEQEND
  8
GRIP
 62
   110
  0
POLYLINE
  8
ACXTEMP
 62
    94
 66
     1
 10
0.0
 20
0.0
 70
     0
  0
VERTEX
  8
ACXTEMP
 62
    94
 10
1.2987597301999518
 20
3.3241125890704342
  0
VERTEX
  8
ACXTEMP
 62
    94
 10
1.5812556979418886
 20
3.6871125890704342
  0
VERTEX
  8
ACXTEMP
 62
    94
 10
1.6915903753612431
 20
3.6871125890704346
  0
VERTEX
  8
ACXTEMP
 62
    94
 10
1.6519102134179222
 20
3.3241125890704342
  0
VERTEX
  8
ACXTEMP
 62
    94
 10
1.5625903753612480
 20
3.3241125890704342
  0
VERTEX
  8
ACXTEMP
 62
    94
 10
1.5626029891392204
 20
3.3781125890704344
  0
VERTEX
  8
ACXTEMP
 62
    94
 10
1.4320903753612426
 20
3.3781125890704340
  0
VERTEX
  8
ACXTEMP
 62
    94
 10
1.4027760896469561
 20
3.3241125890704342
  0
VERTEX
  8
ACXTEMP
 62
    94
 10
1.2987597301999518
 20
3.3241125890704342
  0
SEQEND
  8
ACXTEMP
 62
    94
  0
POLYLINE
  8
ACXTEMP
 62
    94
 66
     1
 10
0.0
 20
0.0
 70
     0
  0
VERTEX
  8
ACXTEMP
 62
    94
 10
0.9370615292073967
 20
3.3241125890704342
  0
VERTEX
  8
ACXTEMP
 62
    94
 10
0.8319797196235381
 20
3.3241125890704337
  0
VERTEX
  8
ACXTEMP
 62
    94
 10
0.9686141674614421
 20
3.6191462640478558
  0
VERTEX
  8
ACXTEMP
 62
    94
 10
1.0000903753612427
 20
3.6871125890704346
  0
VERTEX
  8
ACXTEMP
 62
    94
 10
1.1363487646229873
 20
3.6871125890704342
  0
VERTEX
  8
ACXTEMP
 62
    94
 10
1.1005903753612425
 20
3.4651125890704342
  0
VERTEX
  8
ACXTEMP
 62
    94
 10
1.2722703753612414
 20
3.6871125890704346
  0
VERTEX
  8
ACXTEMP
 62
    94
 10
1.4110903753612427
 20
3.6871125890704346
  0
VERTEX
  8
ACXTEMP
 62
    94
 10
1.2355903753612418
 20
3.3241125890704342
  0
VERTEX
  8
ACXTEMP
 62
    94
 10
1.1506540696287593
 20
3.3241125890704342
  0
VERTEX
  8
ACXTEMP
 62
    94
 10
1.2385903753612426
 20
3.5581125890704346
  0
VERTEX
  8
ACXTEMP
 62
    94
 10
1.0705903753612427
 20
3.3241125890704342
  0
VERTEX
  8
ACXTEMP
 62
    94
 10
1.0038540117248789
 20
3.3241125890704342
  0
VERTEX
  8
ACXTEMP
 62
    94
 10
1.0345903753612427
 20
3.5656125890704340
  0
VERTEX
  8
ACXTEMP
 62
    94
 10
0.9370615292073967
 20
3.3241125890704342
  0
SEQEND
  8
ACXTEMP
 62
    94
  0
POLYLINE
  8
ACXTEMP
 62
    94
 66
     1
 10
0.0
 20
0.0
 70
     0
  0
VERTEX
  8
ACXTEMP
 62
    94
 10
0.8572693972497006
 20
3.3284524939640070
 42
-0.0911935211525496
  0
VERTEX
  8
ACXTEMP
 62
    94
 10
0.7130531113965352
 20
3.2040349010695004
 42
-0.1218332005288946
  0
VERTEX
  8
ACXTEMP
 62
    94
 10
0.5554846848947533
 20
3.1551904456416993
 42
-0.1824751728364216
  0
VERTEX
  8
ACXTEMP
 62
    94
 10
0.4267844503781497
 20
3.1950069600672215
 42
-0.1824751728364216
  0
VERTEX
  8
ACXTEMP
 62
    94
 10
0.3614375317511447
 20
3.3128156414603271
 42
-0.1218332005288946
  0
VERTEX
  8
ACXTEMP
 62
    94
 10
0.3769535830877062
 20
3.4770497487803569
 42
-0.0911935211525496
  0
VERTEX
  8
ACXTEMP
 62
    94
 10
0.4691750909624829
 20
3.6437028856012628
 42
-0.0911935211525496
  0
VERTEX
  8
ACXTEMP
 62
    94
 10
0.6133913768156482
 20
3.7681204784957698
 42
-0.1218332005288946
  0
VERTEX
  8
ACXTEMP
 62
    94
 10
0.7709598033174300
 20
3.8169649339235709
 42
-0.1824751728364216
  0
VERTEX
  8
ACXTEMP
 62
    94
 10
0.8996600378340333
 20
3.7771484194980487
 42
-0.1824751728364216
  0
VERTEX
  8
ACXTEMP
 62
    94
 10
0.9650069564610390
 20
3.6593397381049431
 42
-0.1218332005288946
  0
VERTEX
  8
ACXTEMP
 62
    94
 10
0.9494909051244773
 20
3.4951056307849133
 42
-0.0911935211525496
  0
VERTEX
  8
ACXTEMP
 62
    94
 10
0.8572693972497006
 20
3.3284524939640070
  0
SEQEND
  8
ACXTEMP
 62
    94
  0
POLYLINE
  8
ACXTEMP
 62
    94
 66
     1
 10
0.0
 20
0.0
 70
     0
  0
VERTEX
  8
ACXTEMP
 62
    94
 10
0.4005945770419146
 20
3.3241125890704342
  0
VERTEX
  8
ACXTEMP
 62
    94
 10
0.7025861736805708
 20
3.6871125890704342
  0
VERTEX
  8
ACXTEMP
 62
    94
 10
0.8162523186810805
 20
3.6871125890704342
  0
VERTEX
  8
ACXTEMP
 62
    94
 10
0.7824506992478826
 20
3.3241125890704342
  0
VERTEX
  8
ACXTEMP
 62
    94
 10
0.6706528753612379
 20
3.3241125890704342
  0
VERTEX
  8
ACXTEMP
 62
    94
 10
0.6820871877686445
 20
3.3789972886259569
  0
VERTEX
  8
ACXTEMP
 62
    94
 10
0.5616801750649236
 20
3.3789972886259569
  0
VERTEX
  8
ACXTEMP
 62
    94
 10
0.5250903753612415
 20
3.3241125890704342
  0
VERTEX
  8
ACXTEMP
 62
    94
 10
0.4005945770419146
 20
3.3241125890704342
  0
SEQEND
  8
ACXTEMP
 62
    94
  0
LINE
  8
ACXTEMP
 62
    94
 10
0.2688871596501818
 20
3.4859744409840254
 11
1.0133068830496663
 21
3.4859744409840254
  0
POLYLINE
  8
ACXTEMP
 62
    94
 66
     1
 10
0.0
 20
0.0
 70
     0
  0
VERTEX
  8
ACXTEMP
 62
    94
 10
0.6086940595992592
 20
3.4407868808519271
  0
VERTEX
  8
ACXTEMP
 62
    94
 10
0.6997804828420269
 20
3.5716012921393094
  0
VERTEX
  8
ACXTEMP
 62
    94
 10
0.6864729698441840
 20
3.4407868808519275
  0
VERTEX
  8
ACXTEMP
 62
    94
 10
0.6086940595992592
 20
3.4407868808519271
  0
SEQEND
  8
ACXTEMP
 62
    94
  0
LINE
  8
ACXTEMP
 62
    94
 10
0.4900903753612425
 20
3.0811125890704343
 11
0.8395903753612425
 21
3.8986125890704342
  0
POLYLINE
  8
ACXTEMP
 62
    94
 66
     1
 10
0.0
 20
0.0
 70
     0
  0
VERTEX
  8
ACXTEMP
 62
    94
 10
1.4875903753612425
 20
3.4411125890704342
  0
VERTEX
  8
ACXTEMP
 62
    94
 10
1.5805903753612427
 20
3.5716125890704342
  0
VERTEX
  8
ACXTEMP
 62
    94
 10
1.5651809536862071
 20
3.4411125890704342
  0
VERTEX
  8
ACXTEMP
 62
    94
 10
1.4875903753612425
 20
3.4411125890704342
  0
SEQEND
  8
ACXTEMP
 62
    94
  0
POLYLINE
  8
ACXTEMP
 62
    94
 66
     1
 10
0.0
 20
0.0
 70
     0
  0
VERTEX
  8
ACXTEMP
 62
    94
 10
1.7107842529122621
 20
3.3241125890704337
  0
VERTEX
  8
ACXTEMP
 62
    94
 10
1.8737638447489984
 20
3.6871125890704342
  0
VERTEX
  8
ACXTEMP
 62
    94
 10
2.1015599392494559
 20
3.6871125890704342
 42
-0.4341645003930854
  0
VERTEX
  8
ACXTEMP
 62
    94
 10
2.1640903753612424
 20
3.6226125890704344
  0
VERTEX
  8
ACXTEMP
 62
    94
 10
2.1535903753612429
 20
3.5596125890704342
 42
-0.2031230949761077
  0
VERTEX
  8
ACXTEMP
 62
    94
 10
2.0515903753612426
 20
3.4951125890704344
 42
-0.4685979671086156
  0
VERTEX
  8
ACXTEMP
 62
    94
 10
2.0800903753612427
 20
3.4291125890704341
  0
VERTEX
  8
ACXTEMP
 62
    94
 10
2.0355013342653523
 20
3.3241125890704342
  0
VERTEX
  8
ACXTEMP
 62
    94
 10
1.9416903753612453
 20
3.3241125890704342
  0
VERTEX
  8
ACXTEMP
 62
    94
 10
1.9585903753612426
 20
3.4021125890704340
 42
0.3258346133746294
  0
VERTEX
  8
ACXTEMP
 62
    94
 10
1.9390903753612427
 20
3.4396125890704345
  0
VERTEX
  8
ACXTEMP
 62
    94
 10
1.8775903753612424
 20
3.4456125890704343
  0
VERTEX
  8
ACXTEMP
 62
    94
 10
1.8175723030720903
 20
3.3241125890704342
  0
VERTEX
  8
ACXTEMP
 62
    94
 10
1.7107842529122621
 20
3.3241125890704337
  0
SEQEND
  8
ACXTEMP
 62
    94
  0
POLYLINE
  8
ACXTEMP
 62
    94
 66
     1
 10
0.0
 20
0.0
 70
     0
  0
VERTEX
  8
ACXTEMP
 62
    94
 10
1.9435903753612425
 20
3.6046125890704341
  0
VERTEX
  8
ACXTEMP
 62
    94
 10
1.9945675531623492
 20
3.6046125890704341
 42
-0.9092863189428971
  0
VERTEX
  8
ACXTEMP
 62
    94
 10
1.9900903753612427
 20
3.5281125890704343
  0
VERTEX
  8
ACXTEMP
 62
    94
 10
1.9108046610755285
 20
3.5281125890704343
  0
VERTEX
  8
ACXTEMP
 62
    94
 10
1.9435903753612425
 20
3.6046125890704341
  0
SEQEND
  8
ACXTEMP
 62
    94
  0
POLYLINE
  8
ACXTEMP
 62
    94
 66
     1
 10
0.0
 20
0.0
 70
     0
  0
VERTEX
  8
ACXTEMP
 62
    94
 10
2.1165903753612438
 20
3.3241125890704342
  0
VERTEX
  8
ACXTEMP
 62
    94
 10
2.2678403753612431
 20
3.6871125890704342
  0
VERTEX
  8
ACXTEMP
 62
    94
 10
2.3776824806244052
 20
3.6871125890704346
  0
VERTEX
  8
ACXTEMP
 62
    94
 10
2.3320903753612425
 20
3.5716125890704342
  0
VERTEX
  8
ACXTEMP
 62
    94
 10
2.4865380497798490
 20
3.6871125890704342
  0
VERTEX
  8
ACXTEMP
 62
    94
 10
2.6182237086945772
 20
3.6871125890704337
  0
VERTEX
  8
ACXTEMP
 62
    94
 10
2.4280903753612426
 20
3.5491125890704343
  0
VERTEX
  8
ACXTEMP
 62
    94
 10
2.4780903753612433
 20
3.3241125890704337
  0
VERTEX
  8
ACXTEMP
 62
    94
 10
2.3388337381931059
 20
3.3241125890704342
  0
VERTEX
  8
ACXTEMP
 62
    94
 10
2.3155903753612428
 20
3.4786125890704342
  0
VERTEX
  8
ACXTEMP
 62
    94
 10
2.2690903753612428
 20
3.4426125890704347
  0
VERTEX
  8
ACXTEMP
 62
    94
 10
2.2148373633130527
 20
3.3241125890704342
  0
VERTEX
  8
ACXTEMP
 62
    94
 10
2.1165903753612438
 20
3.3241125890704342
  0
SEQEND
  8
ACXTEMP
 62
    94
  0
ENDSEC
  0
EOF
