  0
SECTION
  2
HEADER
  9
$ACADVER
  1
AC1009
  9
$INSUNITS
  1
1
  0
ENDSEC
  0
SECTION
  2
BLOCKS
  0
ENDSEC
  0
SECTION
  2
ENTITIES
  0
CIRCLE
  8
FNL_DIMS-363
 62
     2
 10
3.4624671199366102
 20
1.3443149088541686
 40
0.0859375000000000
  0
CIRCLE
  8
FNL_DIMS-363
 62
    92
 10
3.4624671199366102
 20
1.3443149088541686
 40
0.0782500000000000
  0
LINE
  8
FNL_DIMS-363
 62
     2
 10
3.4624671199366102
 20
1.3872836588541668
 11
3.4624671199366102
 21
1.3013461588541668
  0
LINE
  8
FNL_DIMS-363
 62
     2
 10
3.5054358699366102
 20
1.3443149088541686
 11
3.4194983699366084
 21
1.3443149088541686
  0
LINE
  8
FNL_DIMS-363
 62
     5
 10
3.2876047449366101
 20
2.9450248463541699
 11
3.2876047449366048
 21
3.1880944713541695
  0
LINE
  8
FNL_DIMS-363
 62
     5
 10
3.2876047449366030
 20
3.2680944713541695
 11
3.2876047449365977
 21
3.5111640963541690
  0
LINE
  8
FNL_DIMS-363
 62
     5
 10
3.2876047449365977
 20
3.5111640963541690
 11
3.8705904949366037
 21
3.5111640963541690
  0
LINE
  8
FNL_DIMS-363
 62
     5
 10
4.0580904949366037
 20
3.5111640963541690
 11
4.6410762449366096
 21
3.5111640963541690
  0
LINE
  8
FNL_DIMS-363
 62
     5
 10
4.6410762449366096
 20
3.5111640963541690
 11
4.6410762449366123
 21
3.2680944713541695
  0
LINE
  8
FNL_DIMS-363
 62
     5
 10
4.6410762449366141
 20
3.1880944713541695
 11
4.6410762449366167
 21
2.9450248463541699
  0
LINE
  8
FNL_DIMS-363
 62
     5
 10
4.6410762449366167
 20
2.9450248463541699
 11
4.0580904949366134
 21
2.9450248463541699
  0
LINE
  8
FNL_DIMS-363
 62
     5
 10
3.8705904949366134
 20
2.9450248463541699
 11
3.2876047449366101
 21
2.9450248463541699
  0
LINE
  8
FNL_DIMS-363
 62
     5
 10
4.6293047449366220
 20
3.6787062213541697
 11
3.4361251824366197
 21
3.6787062213541697
  0
LINE
  8
FNL_DIMS-363
 62
     5
 10
3.2486251824366192
 20
3.6787062213541697
 11
2.0554456199366165
 21
3.6787062213541697
  0
LINE
  8
FNL_DIMS-363
 62
     5
 10
2.0554456199366165
 20
3.6787062213541697
 11
2.0554456199366165
 21
3.9351644713541676
  0
LINE
  8
FNL_DIMS-363
 62
     5
 10
2.0554456199366165
 20
3.9351644713541676
 11
3.2486251824366192
 21
3.9351644713541676
  0
LINE
  8
FNL_DIMS-363
 62
     5
 10
3.4361251824366192
 20
3.9351644713541676
 11
4.6293047449366220
 21
3.9351644713541676
  0
LINE
  8
FNL_DIMS-363
 62
     5
 10
4.6293047449366220
 20
3.9351644713541676
 11
4.6293047449366220
 21
3.6787062213541697
  0
CIRCLE
  8
FNL_DIMS-363
 62
     2
 10
4.2105185912907821
 20
1.3443149088541686
 40
0.0859375000000000
  0
CIRCLE
  8
FNL_DIMS-363
 62
    92
 10
4.2105185912907821
 20
1.3443149088541686
 40
0.0782500000000000
  0
LINE
  8
FNL_DIMS-363
 62
     2
 10
4.2105185912907821
 20
1.3872836588541668
 11
4.2105185912907821
 21
1.3013461588541668
  0
LINE
  8
FNL_DIMS-363
 62
     2
 10
4.2534873412907821
 20
1.3443149088541686
 11
4.1675498412907821
 21
1.3443149088541686
  0
LINE
  8
FNL_DIMS-363
 62
     4
 10
4.0580904949366143
 20
2.9450248463541699
 11
3.8705904949366143
 21
2.9450248463541699
  0
LINE
  8
FNL_DIMS-363
 62
     4
 10
3.8705904949366037
 20
3.5111640963541690
 11
4.0580904949366037
 21
3.5111640963541690
  0
LINE
  8
FNL_DIMS-363
 62
     5
 10
4.3300369949366093
 20
4.1255704713541705
 11
4.3300369949366164
 21
4.5144580963541712
  0
LINE
  8
FNL_DIMS-363
 62
     5
 10
4.3300369949366164
 20
4.5144580963541712
 11
3.5364093074366139
 21
4.5144580963541712
  0
LINE
  8
FNL_DIMS-363
 62
     5
 10
3.3489093074366139
 20
4.5144580963541712
 11
2.5552816199366113
 21
4.5144580963541712
  0
LINE
  8
FNL_DIMS-363
 62
     5
 10
2.5552816199366113
 20
4.5144580963541712
 11
2.5552816199365971
 21
4.1255704713541705
  0
LINE
  8
FNL_DIMS-363
 62
     5
 10
2.5552816199365971
 20
4.1255704713541705
 11
3.3489093074366032
 21
4.1255704713541705
  0
LINE
  8
FNL_DIMS-363
 62
     5
 10
3.5364093074366032
 20
4.1255704713541705
 11
4.3300369949366093
 21
4.1255704713541705
  0
LINE
  8
FNL_DIMS-363
 62
     4
 10
3.5364093074366032
 20
4.1255704713541705
 11
3.3489093074366032
 21
4.1255704713541705
  0
LINE
  8
FNL_DIMS-363
 62
     4
 10
3.4361251824366192
 20
3.9351644713541676
 11
3.2486251824366175
 21
3.9351644713541694
  0
LINE
  8
FNL_DIMS-363
 62
     4
 10
3.2486251824366175
 20
3.6787062213541697
 11
3.4361251824366192
 21
3.6787062213541697
  0
LINE
  8
FNL_DIMS-363
 62
     4
 10
3.3489093074366121
 20
4.5144580963541712
 11
3.5364093074366121
 21
4.5144580963541712
  0
LINE
  8
FNL_DIMS-363
 62
     5
 10
1.6508625282041898
 20
4.1233845127661803
 11
1.9957205402715683
 21
4.1233845127661803
  0
LINE
  8
FNL_DIMS-363
 62
     5
 10
2.0757205402715684
 20
4.1233845127661803
 11
2.4205785523389469
 21
4.1233845127661803
  0
LINE
  8
FNL_DIMS-363
 62
     5
 10
2.4205785523389469
 20
4.1233845127661803
 11
2.4205785523389416
 21
4.5055979407934297
  0
LINE
  8
FNL_DIMS-363
 62
     5
 10
2.4205785523389416
 20
4.5055979407934297
 11
2.0757205402715622
 21
4.5055979407934297
  0
LINE
  8
FNL_DIMS-363
 62
     5
 10
1.9957205402715621
 20
4.5055979407934297
 11
1.6508625282041827
 21
4.5055979407934297
  0
LINE
  8
FNL_DIMS-363
 62
     5
 10
1.6508625282041827
 20
4.5055979407934297
 11
1.6508625282041898
 21
4.1233845127661803
  0
LINE
  8
FNL_DIMS-363
 62
     5
 10
1.5139999999999993
 20
3.6079118514175610
 11
1.6800804349683061
 21
3.6079118514175610
  0
LINE
  8
FNL_DIMS-363
 62
     5
 10
1.7600804349683061
 20
3.6079118514175610
 11
1.9261608699366128
 21
3.6079118514175610
  0
LINE
  8
FNL_DIMS-363
 62
     5
 10
1.9261608699366128
 20
3.6079118514175610
 11
1.9261608699366199
 21
4.0018840912907807
  0
LINE
  8
FNL_DIMS-363
 62
     5
 10
1.9261608699366199
 20
4.0018840912907807
 11
1.7600804349683132
 21
4.0018840912907807
  0
LINE
  8
FNL_DIMS-363
 62
     5
 10
1.6800804349683132
 20
4.0018840912907807
 11
1.5140000000000065
 21
4.0018840912907807
  0
LINE
  8
FNL_DIMS-363
 62
     5
 10
1.5140000000000065
 20
4.0018840912907807
 11
1.5139999999999993
 21
3.6079118514175610
  0
CIRCLE
  8
FNL_DIMS-363
 62
     2
 10
1.6119646824366107
 20
3.1750095338541700
 40
0.2109375000000000
  0
CIRCLE
  8
FNL_DIMS-363
 62
    92
 10
1.6119646824366107
 20
3.1750095338541700
 40
0.2032500000000000
  0
LINE
  8
FNL_DIMS-363
 62
     2
 10
1.6119646824366107
 20
3.2804782838541700
 11
1.6119646824366107
 21
3.0695407838541700
  0
LINE
  8
FNL_DIMS-363
 62
     2
 10
1.7174334324366107
 20
3.1750095338541700
 11
1.5064959324366107
 21
3.1750095338541700
  0
CIRCLE
  8
FNL_DIMS-363
 62
     2
 10
1.6119646824366107
 20
2.6237864088541700
 40
0.2109375000000000
  0
CIRCLE
  8
FNL_DIMS-363
 62
    92
 10
1.6119646824366107
 20
2.6237864088541700
 40
0.2032500000000000
  0
LINE
  8
FNL_DIMS-363
 62
     2
 10
1.6119646824366107
 20
2.7292551588541700
 11
1.6119646824366107
 21
2.5183176588541700
  0
LINE
  8
FNL_DIMS-363
 62
     2
 10
1.7174334324366107
 20
2.6237864088541700
 11
1.5064959324366107
 21
2.6237864088541700
  0
CIRCLE
  8
FNL_DIMS-363
 62
     2
 10
1.6119646824366107
 20
2.0734687838541719
 40
0.2109375000000000
  0
CIRCLE
  8
FNL_DIMS-363
 62
    92
 10
1.6119646824366107
 20
2.0734687838541719
 40
0.2032500000000000
  0
LINE
  8
FNL_DIMS-363
 62
     2
 10
1.6119646824366107
 20
2.1789375338541719
 11
1.6119646824366107
 21
1.9680000338541719
  0
LINE
  8
FNL_DIMS-363
 62
     2
 10
1.7174334324366107
 20
2.0734687838541719
 11
1.5064959324366107
 21
2.0734687838541719
  0
CIRCLE
  8
FNL_DIMS-363
 62
     2
 10
2.2025770574366099
 20
2.0734687838541719
 40
0.2109375000000000
  0
CIRCLE
  8
FNL_DIMS-363
 62
    92
 10
2.2025770574366099
 20
2.0734687838541719
 40
0.2032500000000000
  0
LINE
  8
FNL_DIMS-363
 62
     2
 10
2.2025770574366099
 20
2.1789375338541719
 11
2.2025770574366099
 21
1.9680000338541719
  0
LINE
  8
FNL_DIMS-363
 62
     2
 10
2.3080458074366099
 20
2.0734687838541719
 11
2.0971083074366099
 21
2.0734687838541719
  0
CIRCLE
  8
FNL_DIMS-363
 62
     2
 10
2.2025770574366099
 20
2.6237864088541700
 40
0.2109375000000000
  0
CIRCLE
  8
FNL_DIMS-363
 62
    92
 10
2.2025770574366099
 20
2.6237864088541700
 40
0.2032500000000000
  0
LINE
  8
FNL_DIMS-363
 62
     2
 10
2.2025770574366099
 20
2.7292551588541700
 11
2.2025770574366099
 21
2.5183176588541700
  0
LINE
  8
FNL_DIMS-363
 62
     2
 10
2.3080458074366099
 20
2.6237864088541700
 11
2.0971083074366099
 21
2.6237864088541700
  0
CIRCLE
  8
FNL_DIMS-363
 62
     2
 10
2.2025770574366099
 20
3.1750095338541700
 40
0.2109375000000000
  0
CIRCLE
  8
FNL_DIMS-363
 62
    92
 10
2.2025770574366099
 20
3.1750095338541700
 40
0.2032500000000000
  0
LINE
  8
FNL_DIMS-363
 62
     2
 10
2.2025770574366099
 20
3.2804782838541700
 11
2.2025770574366099
 21
3.0695407838541700
  0
LINE
  8
FNL_DIMS-363
 62
     2
 10
2.3080458074366099
 20
3.1750095338541700
 11
2.0971083074366099
 21
3.1750095338541700
  0
CIRCLE
  8
FNL_DIMS-363
 62
     2
 10
2.0844140235824486
 20
1.3443149088541686
 40
0.0859375000000000
  0
CIRCLE
  8
FNL_DIMS-363
 62
    92
 10
2.0844140235824486
 20
1.3443149088541686
 40
0.0782500000000000
  0
LINE
  8
FNL_DIMS-363
 62
     2
 10
2.0844140235824486
 20
1.3872836588541668
 11
2.0844140235824486
 21
1.3013461588541668
  0
LINE
  8
FNL_DIMS-363
 62
     2
 10
2.1273827735824504
 20
1.3443149088541686
 11
2.0414452735824504
 21
1.3443149088541686
  0
LINE
  8
FNL_DIMS-363
 62
     5
 10
3.2876047449366155
 20
2.2443942213541677
 11
3.8705904949366179
 21
2.2443942213541646
  0
LINE
  8
FNL_DIMS-363
 62
     5
 10
4.0580904949366179
 20
2.2443942213541637
 11
4.6410762449366203
 21
2.2443942213541606
  0
LINE
  8
FNL_DIMS-363
 62
     5
 10
4.6410762449366203
 20
2.2443942213541606
 11
4.6410762449366203
 21
2.4874638463541654
  0
LINE
  8
FNL_DIMS-363
 62
     5
 10
4.6410762449366203
 20
2.5674638463541655
 11
4.6410762449366203
 21
2.8105334713541703
  0
LINE
  8
FNL_DIMS-363
 62
     5
 10
4.6410762449366203
 20
2.8105334713541703
 11
4.0580904949366179
 21
2.8105334713541703
  0
LINE
  8
FNL_DIMS-363
 62
     5
 10
3.8705904949366179
 20
2.8105334713541703
 11
3.2876047449366155
 21
2.8105334713541703
  0
LINE
  8
FNL_DIMS-363
 62
     5
 10
3.2876047449366155
 20
2.8105334713541703
 11
3.2876047449366155
 21
2.4275640963541658
  0
LINE
  8
FNL_DIMS-363
 62
     5
 10
3.2876047449366155
 20
2.3475640963541657
 11
3.2876047449366155
 21
1.8764494427083349
  0
LINE
  8
FNL_DIMS-363
 62
     5
 10
3.2876047449366155
 20
1.7964494427083348
 11
3.2876047449366155
 21
1.5140000000000109
  0
LINE
  8
FNL_DIMS-363
 62
     5
 10
3.2876047449366155
 20
1.5140000000000002
 11
3.1868555574366155
 21
1.5140000000000002
  0
POLYLINE
  8
FNL_DIMS-363
 62
     5
 66
     1
 10
0.0
 20
0.0
 70
     0
  0
VERTEX
  8
FNL_DIMS-363
 62
     5
 10
3.1868555574366155
 20
1.5140000000000002
 42
-0.3413158589053707
  0
VERTEX
  8
FNL_DIMS-363
 62
     5
 10
3.1034149096874297
 20
1.5784697318235290
  0
SEQEND
  8
FNL_DIMS-363
 62
     5
  0
POLYLINE
  8
FNL_DIMS-363
 62
     5
 66
     1
 10
0.0
 20
0.0
 70
     0
  0
VERTEX
  8
FNL_DIMS-363
 62
     5
 10
3.1034149096874297
 20
1.6219939608848053
 42
-0.3413158589053707
  0
VERTEX
  8
FNL_DIMS-363
 62
     5
 10
3.1868555574366155
 20
1.6864636927083305
  0
SEQEND
  8
FNL_DIMS-363
 62
     5
  0
LINE
  8
FNL_DIMS-363
 62
     5
 10
3.1868555574366155
 20
1.6864636927083305
 11
3.2876047449366155
 21
1.6864636927083305
  0
POLYLINE
  8
FNL_DIMS-363
 62
     5
 66
     1
 10
0.0
 20
0.0
 70
     0
  0
VERTEX
  8
FNL_DIMS-363
 62
     5
 10
3.2876047449366155
 20
1.7502175963541697
  0
VERTEX
  8
FNL_DIMS-363
 62
     5
 10
3.1868555574366155
 20
1.7502175963541697
 42
-0.9999999999999999
  0
VERTEX
  8
FNL_DIMS-363
 62
     5
 10
3.1868555574366155
 20
1.9226812890625000
  0
VERTEX
  8
FNL_DIMS-363
 62
     5
 10
3.2876047449366013
 20
1.9226812890625000
  0
SEQEND
  8
FNL_DIMS-363
 62
     5
  0
LINE
  8
FNL_DIMS-363
 62
     4
 10
3.2876047449366155
 20
1.8764494427083358
 11
3.2876047449366155
 21
1.7964494427083340
  0
LINE
  8
FNL_DIMS-363
 62
     5
 10
3.2876047449366155
 20
1.9863361536458308
 11
3.1868555574366155
 21
1.9863361536458308
  0
POLYLINE
  8
FNL_DIMS-363
 62
     5
 66
     1
 10
0.0
 20
0.0
 70
     0
  0
VERTEX
  8
FNL_DIMS-363
 62
     5
 10
3.1868555574366155
 20
1.9863361536458308
 42
-0.3413158589053393
  0
VERTEX
  8
FNL_DIMS-363
 62
     5
 10
3.1034149096873795
 20
2.0508058854695106
  0
SEQEND
  8
FNL_DIMS-363
 62
     5
  0
POLYLINE
  8
FNL_DIMS-363
 62
     5
 66
     1
 10
0.0
 20
0.0
 70
     0
  0
VERTEX
  8
FNL_DIMS-363
 62
     5
 10
3.1034149096873995
 20
2.0943301145307882
 42
-0.3413158589053382
  0
VERTEX
  8
FNL_DIMS-363
 62
     5
 10
3.1868555574366937
 20
2.1587998463543885
  0
SEQEND
  8
FNL_DIMS-363
 62
     5
  0
LINE
  8
FNL_DIMS-363
 62
     5
 10
3.1868555574366937
 20
2.1587998463543885
 11
3.2876047449366155
 21
2.1587998463543885
  0
LINE
  8
FNL_DIMS-363
 62
     5
 10
3.2876047449366155
 20
2.1096764713541676
 11
3.8705904949366143
 21
2.1096764713541649
  0
LINE
  8
FNL_DIMS-363
 62
     5
 10
4.0580904949366143
 20
2.1096764713541636
 11
4.6410762449366132
 21
2.1096764713541605
  0
LINE
  8
FNL_DIMS-363
 62
     5
 10
4.6410762449366132
 20
2.1096764713541605
 11
4.6410762449366132
 21
1.8666068463541610
  0
LINE
  8
FNL_DIMS-363
 62
     5
 10
4.6410762449366132
 20
1.7866068463541609
 11
4.6410762449366132
 21
1.5435372213541614
  0
LINE
  8
FNL_DIMS-363
 62
     5
 10
4.6410762449366132
 20
1.5435372213541614
 11
4.0580904949366143
 21
1.5435372213541356
  0
LINE
  8
FNL_DIMS-363
 62
     5
 10
3.8705904949366143
 20
1.5435372213541270
 11
3.2876047449366155
 21
1.5435372213541010
  0
LINE
  8
FNL_DIMS-363
 62
     4
 10
3.8705904949366143
 20
1.5435372213541294
 11
4.0580904949366143
 21
1.5435372213541365
  0
LINE
  8
FNL_DIMS-363
 62
     4
 10
4.6410762449366132
 20
1.7866068463541618
 11
4.6410762449366132
 21
1.8666068463541636
  0
LINE
  8
FNL_DIMS-363
 62
     4
 10
4.6410762449366203
 20
2.4874638463541681
 11
4.6410762449366203
 21
2.5674638463541664
  0
POLYLINE
  8
FNL_DIMS-363
 62
     5
 66
     1
 10
0.0
 20
0.0
 70
     0
  0
VERTEX
  8
FNL_DIMS-363
 62
     5
 10
3.2876047449366155
 20
2.3013322499999989
  0
VERTEX
  8
FNL_DIMS-363
 62
     5
 10
3.1868555574366155
 20
2.3013322499999989
 42
-0.9999999999999999
  0
VERTEX
  8
FNL_DIMS-363
 62
     5
 10
3.1868555574366155
 20
2.4737959427083327
  0
VERTEX
  8
FNL_DIMS-363
 62
     5
 10
3.2876047449366013
 20
2.4737959427083327
  0
SEQEND
  8
FNL_DIMS-363
 62
     5
  0
LINE
  8
FNL_DIMS-363
 62
     4
 10
3.2876047449366155
 20
2.4275640963541685
 11
3.2876047449366155
 21
2.3475640963541666
  0
LINE
  8
FNL_DIMS-363
 62
     5
 10
3.2876047449366155
 20
2.5769438125000024
 11
3.1868555574366155
 21
2.5769438125000024
  0
POLYLINE
  8
FNL_DIMS-363
 62
     5
 66
     1
 10
0.0
 20
0.0
 70
     0
  0
VERTEX
  8
FNL_DIMS-363
 62
     5
 10
3.1868555574366155
 20
2.5769438125000024
 42
-0.3413158589053707
  0
VERTEX
  8
FNL_DIMS-363
 62
     5
 10
3.1034149096874297
 20
2.6414135443235276
  0
SEQEND
  8
FNL_DIMS-363
 62
     5
  0
POLYLINE
  8
FNL_DIMS-363
 62
     5
 66
     1
 10
0.0
 20
0.0
 70
     0
  0
VERTEX
  8
FNL_DIMS-363
 62
     5
 10
3.1034149096874297
 20
2.6849377733848039
 42
-0.3413158589053707
  0
VERTEX
  8
FNL_DIMS-363
 62
     5
 10
3.1868555574366155
 20
2.7494075052083291
  0
SEQEND
  8
FNL_DIMS-363
 62
     5
  0
LINE
  8
FNL_DIMS-363
 62
     5
 10
3.1868555574366155
 20
2.7494075052083291
 11
3.2876047449366155
 21
2.7494075052083291
  0
LINE
  8
FNL_DIMS-363
 62
     4
 10
4.0580904949366143
 20
2.8105334713541703
 11
3.8705904949366143
 21
2.8105334713541703
  0
LINE
  8
FNL_DIMS-363
 62
     4
 10
3.8705904949366143
 20
2.2443942213541641
 11
4.0580904949366143
 21
2.2443942213541641
  0
LINE
  8
FNL_DIMS-363
 62
     4
 10
4.0580904949366143
 20
2.1096764713541640
 11
3.8705904949366143
 21
2.1096764713541640
  0
POLYLINE
  8
FNL_DIMS-363
 62
    94
 66
     1
 10
0.0
 20
0.0
 70
     0
  0
VERTEX
  8
FNL_DIMS-363
 62
    94
 10
1.9672799983834093
 20
5.0944611820318277
  0
VERTEX
  8
FNL_DIMS-363
 62
    94
 10
1.9672799983834093
 20
5.2819611820318277
  0
VERTEX
  8
FNL_DIMS-363
 62
    94
 10
1.8797833849995031
 20
5.1694611820318270
  0
VERTEX
  8
FNL_DIMS-363
 62
    94
 10
2.0047799983834089
 20
5.1694611820318270
  0
SEQEND
  8
FNL_DIMS-363
 62
    94
  0
POLYLINE
  8
FNL_DIMS-363
 62
    94
 66
     1
 10
0.0
 20
0.0
 70
     0
  0
VERTEX
  8
FNL_DIMS-363
 62
    94
 10
1.7051355930731944
 20
5.1569645686479211
 42
0.4142135623730950
  0
VERTEX
  8
FNL_DIMS-363
 62
    94
 10
1.7676389796892886
 20
5.0944611820318277
 42
0.4141659576126406
  0
VERTEX
  8
FNL_DIMS-363
 62
    94
 10
1.8301322064571037
 20
5.1569645686479211
  0
VERTEX
  8
FNL_DIMS-363
 62
    94
 10
1.8301322064571037
 20
5.2194577954157344
 42
0.4141659576126406
  0
VERTEX
  8
FNL_DIMS-363
 62
    94
 10
1.7676389796892886
 20
5.2819611820318277
 42
0.4142135623730950
  0
VERTEX
  8
FNL_DIMS-363
 62
    94
 10
1.7051355930731944
 20
5.2194577954157344
  0
VERTEX
  8
FNL_DIMS-363
 62
    94
 10
1.7051355930731944
 20
5.1569645686479211
  0
SEQEND
  8
FNL_DIMS-363
 62
    94
  0
POLYLINE
  8
FNL_DIMS-363
 62
    94
 66
     1
 10
0.0
 20
0.0
 70
     0
  0
VERTEX
  8
FNL_DIMS-363
 62
    94
 10
1.5304878011468892
 20
5.1569645686479211
 42
0.4142135623730950
  0
VERTEX
  8
FNL_DIMS-363
 62
    94
 10
1.5929911877629817
 20
5.0944611820318277
 42
0.4141659576126406
  0
VERTEX
  8
FNL_DIMS-363
 62
    94
 10
1.6554844145307959
 20
5.1569645686479211
  0
VERTEX
  8
FNL_DIMS-363
 62
    94
 10
1.6554844145307959
 20
5.2194577954157344
 42
0.4141659576126406
  0
VERTEX
  8
FNL_DIMS-363
 62
    94
 10
1.5929911877629817
 20
5.2819611820318277
 42
0.4142135623730950
  0
VERTEX
  8
FNL_DIMS-363
 62
    94
 10
1.5304878011468892
 20
5.2194577954157344
  0
VERTEX
  8
FNL_DIMS-363
 62
    94
 10
1.5304878011468892
 20
5.1569645686479211
  0
SEQEND
  8
FNL_DIMS-363
 62
    94
  0
POLYLINE
  8
FNL_DIMS-363
 62
    94
 66
     1
 10
0.0
 20
0.0
 70
     0
  0
VERTEX
  8
FNL_DIMS-363
 62
    94
 10
1.4433366226044884
 20
5.1944645686479189
 42
0.4141342219961467
  0
VERTEX
  8
FNL_DIMS-363
 62
    94
 10
1.4808366226044871
 20
5.2319544087996404
 42
0.4142730887184284
  0
VERTEX
  8
FNL_DIMS-363
 62
    94
 10
1.4308400092205789
 20
5.2819611820318277
  0
VERTEX
  8
FNL_DIMS-363
 62
    94
 10
1.4058366226044887
 20
5.2819611820318277
 42
0.4142730887184284
  0
VERTEX
  8
FNL_DIMS-363
 62
    94
 10
1.3558400092205805
 20
5.2319544087996404
 42
0.4141342219961467
  0
VERTEX
  8
FNL_DIMS-363
 62
    94
 10
1.3933400092205810
 20
5.1944645686479189
  0
VERTEX
  8
FNL_DIMS-363
 62
    94
 10
1.4433366226044884
 20
5.1944645686479189
 42
-0.4142135623730947
  0
VERTEX
  8
FNL_DIMS-363
 62
    94
 10
1.4808366226044871
 20
5.1569645686479211
 42
-0.4141659576126406
  0
VERTEX
  8
FNL_DIMS-363
 62
    94
 10
1.4183433958366747
 20
5.0944611820318277
 42
-0.4142135623730950
  0
VERTEX
  8
FNL_DIMS-363
 62
    94
 10
1.3558400092205805
 20
5.1569645686479211
 42
-0.4142135623730948
  0
VERTEX
  8
FNL_DIMS-363
 62
    94
 10
1.3933400092205810
 20
5.1944645686479189
  0
SEQEND
  8
FNL_DIMS-363
 62
    94
  0
POLYLINE
  8
FNL_DIMS-363
 62
    94
 66
     1
 10
0.0
 20
0.0
 70
     0
  0
VERTEX
  8
FNL_DIMS-363
 62
    94
 10
1.3061888306781819
 20
5.1694611820318270
  0
VERTEX
  8
FNL_DIMS-363
 62
    94
 10
1.1811922172942726
 20
5.1694611820318270
  0
VERTEX
  8
FNL_DIMS-363
 62
    94
 10
1.2686888306781796
 20
5.2819611820318277
  0
VERTEX
  8
FNL_DIMS-363
 62
    94
 10
1.2686888306781796
 20
5.0944611820318277
  0
SEQEND
  8
FNL_DIMS-363
 62
    94
  0
LINE
  8
FNL_DIMS-363
 62
    94
 10
1.0690478119840598
 20
5.0944611820318277
 11
1.0190410387518725
 21
5.0944611820318277
  0
POLYLINE
  8
FNL_DIMS-363
 62
    94
 66
     1
 10
0.0
 20
0.0
 70
     0
  0
VERTEX
  8
FNL_DIMS-363
 62
    94
 10
1.0440444253679670
 20
5.0944611820318277
  0
VERTEX
  8
FNL_DIMS-363
 62
    94
 10
1.0440444253679670
 20
5.2819611820318277
  0
VERTEX
  8
FNL_DIMS-363
 62
    94
 10
1.0065444253679665
 20
5.2444611820318299
  0
SEQEND
  8
FNL_DIMS-363
 62
    94
  0
POLYLINE
  8
FNL_DIMS-363
 62
    94
 66
     1
 10
0.0
 20
0.0
 70
     0
  0
VERTEX
  8
FNL_DIMS-363
 62
    94
 10
0.9630394566533909
 20
5.3823722272505057
  0
VERTEX
  8
FNL_DIMS-363
 62
    94
 10
0.8579576470695329
 20
5.3823722272505057
  0
VERTEX
  8
FNL_DIMS-363
 62
    94
 10
0.9945920949074383
 20
5.6774059022279308
  0
VERTEX
  8
FNL_DIMS-363
 62
    94
 10
1.0260683028072375
 20
5.7453722272505088
  0
VERTEX
  8
FNL_DIMS-363
 62
    94
 10
1.1623266920689819
 20
5.7453722272505088
  0
VERTEX
  8
FNL_DIMS-363
 62
    94
 10
1.1265683028072386
 20
5.5233722272505075
  0
VERTEX
  8
FNL_DIMS-363
 62
    94
 10
1.2982483028072371
 20
5.7453722272505088
  0
VERTEX
  8
FNL_DIMS-363
 62
    94
 10
1.4370683028072371
 20
5.7453722272505088
  0
VERTEX
  8
FNL_DIMS-363
 62
    94
 10
1.2615683028072358
 20
5.3823722272505057
  0
VERTEX
  8
FNL_DIMS-363
 62
    94
 10
1.1766319970747547
 20
5.3823722272505057
  0
VERTEX
  8
FNL_DIMS-363
 62
    94
 10
1.2645683028072385
 20
5.6163722272505110
  0
VERTEX
  8
FNL_DIMS-363
 62
    94
 10
1.0965683028072366
 20
5.3823722272505057
  0
VERTEX
  8
FNL_DIMS-363
 62
    94
 10
1.0298319391708741
 20
5.3823722272505057
  0
VERTEX
  8
FNL_DIMS-363
 62
    94
 10
1.0605683028072370
 20
5.6238722272505077
  0
VERTEX
  8
FNL_DIMS-363
 62
    94
 10
0.9630394566533909
 20
5.3823722272505057
  0
SEQEND
  8
FNL_DIMS-363
 62
    94
  0
POLYLINE
  8
FNL_DIMS-363
 62
    94
 66
     1
 10
0.0
 20
0.0
 70
     0
  0
VERTEX
  8
FNL_DIMS-363
 62
    94
 10
0.8832473246956951
 20
5.3867121321440790
 42
-0.0911935211525496
  0
VERTEX
  8
FNL_DIMS-363
 62
    94
 10
0.7390310388425299
 20
5.2622945392495728
 42
-0.1218332005288946
  0
VERTEX
  8
FNL_DIMS-363
 62
    94
 10
0.5814626123407471
 20
5.2134500838217717
 42
-0.1824751728364216
  0
VERTEX
  8
FNL_DIMS-363
 62
    94
 10
0.4527623778241452
 20
5.2532665982472961
 42
-0.1824751728364216
  0
VERTEX
  8
FNL_DIMS-363
 62
    94
 10
0.3874154591971397
 20
5.3710752796404000
 42
-0.1218332005288946
  0
VERTEX
  8
FNL_DIMS-363
 62
    94
 10
0.4029315105337030
 20
5.5353093869604306
 42
-0.0911935211525496
  0
VERTEX
  8
FNL_DIMS-363
 62
    94
 10
0.4951530184084785
 20
5.7019625237813356
 42
-0.0911935211525496
  0
VERTEX
  8
FNL_DIMS-363
 62
    94
 10
0.6393693042616437
 20
5.8263801166758453
 42
-0.1218332005288946
  0
VERTEX
  8
FNL_DIMS-363
 62
    94
 10
0.7969377307634264
 20
5.8752245721036429
 42
-0.1824751728364216
  0
VERTEX
  8
FNL_DIMS-363
 62
    94
 10
0.9256379652800284
 20
5.8354080576781184
 42
-0.1824751728364216
  0
VERTEX
  8
FNL_DIMS-363
 62
    94
 10
0.9909848839070339
 20
5.7175993762850146
 42
-0.1218332005288946
  0
VERTEX
  8
FNL_DIMS-363
 62
    94
 10
0.9754688325704723
 20
5.5533652689649875
 42
-0.0911935211525496
  0
VERTEX
  8
FNL_DIMS-363
 62
    94
 10
0.8832473246956951
 20
5.3867121321440790
  0
SEQEND
  8
FNL_DIMS-363
 62
    94
  0
POLYLINE
  8
FNL_DIMS-363
 62
    94
 66
     1
 10
0.0
 20
0.0
 70
     0
  0
VERTEX
  8
FNL_DIMS-363
 62
    94
 10
0.4265725044879094
 20
5.3823722272505057
  0
VERTEX
  8
FNL_DIMS-363
 62
    94
 10
0.7285641011265671
 20
5.7453722272505088
  0
VERTEX
  8
FNL_DIMS-363
 62
    94
 10
0.8422302461270750
 20
5.7453722272505088
  0
VERTEX
  8
FNL_DIMS-363
 62
    94
 10
0.8084286266938765
 20
5.3823722272505057
  0
VERTEX
  8
FNL_DIMS-363
 62
    94
 10
0.6966308028072330
 20
5.3823722272505057
  0
VERTEX
  8
FNL_DIMS-363
 62
    94
 10
0.7080651152146391
 20
5.4372569268060316
  0
VERTEX
  8
FNL_DIMS-363
 62
    94
 10
0.5876581025109182
 20
5.4372569268060316
  0
VERTEX
  8
FNL_DIMS-363
 62
    94
 10
0.5510683028072361
 20
5.3823722272505057
  0
VERTEX
  8
FNL_DIMS-363
 62
    94
 10
0.4265725044879094
 20
5.3823722272505057
  0
SEQEND
  8
FNL_DIMS-363
 62
    94
  0
LINE
  8
FNL_DIMS-363
 62
    94
 10
0.2948650870961789
 20
5.5442340791640978
 11
1.0392848104956620
 21
5.5442340791640978
  0
POLYLINE
  8
FNL_DIMS-363
 62
    94
 66
     1
 10
0.0
 20
0.0
 70
     0
  0
VERTEX
  8
FNL_DIMS-363
 62
    94
 10
0.6346719870452535
 20
5.4990465190320021
  0
VERTEX
  8
FNL_DIMS-363
 62
    94
 10
0.7257584102880212
 20
5.6298609303193841
  0
VERTEX
  8
FNL_DIMS-363
 62
    94
 10
0.7124508972901786
 20
5.4990465190320021
  0
VERTEX
  8
FNL_DIMS-363
 62
    94
 10
0.6346719870452535
 20
5.4990465190320021
  0
SEQEND
  8
FNL_DIMS-363
 62
    94
  0
LINE
  8
FNL_DIMS-363
 62
    94
 10
0.5160683028072377
 20
5.1393722272505071
 11
0.8655683028072367
 21
5.9568722272505061
  0
POLYLINE
  8
FNL_DIMS-363
 62
    94
 66
     1
 10
0.0
 20
0.0
 70
     0
  0
VERTEX
  8
FNL_DIMS-363
 62
    94
 10
1.3247376576459464
 20
5.3823722272505057
  0
VERTEX
  8
FNL_DIMS-363
 62
    94
 10
1.6072336253878836
 20
5.7453722272505088
  0
VERTEX
  8
FNL_DIMS-363
 62
    94
 10
1.7175683028072370
 20
5.7453722272505088
  0
VERTEX
  8
FNL_DIMS-363
 62
    94
 10
1.6778881408639181
 20
5.3823722272505057
  0
VERTEX
  8
FNL_DIMS-363
 62
    94
 10
1.5885683028072428
 20
5.3823722272505057
  0
VERTEX
  8
FNL_DIMS-363
 62
    94
 10
1.5885809165852161
 20
5.4363722272505077
  0
VERTEX
  8
FNL_DIMS-363
 62
    94
 10
1.4580683028072379
 20
5.4363722272505077
  0
VERTEX
  8
FNL_DIMS-363
 62
    94
 10
1.4287540170929516
 20
5.3823722272505057
  0
VERTEX
  8
FNL_DIMS-363
 62
    94
 10
1.3247376576459464
 20
5.3823722272505057
  0
SEQEND
  8
FNL_DIMS-363
 62
    94
  0
POLYLINE
  8
FNL_DIMS-363
 62
    94
 66
     1
 10
0.0
 20
0.0
 70
     0
  0
VERTEX
  8
FNL_DIMS-363
 62
    94
 10
1.5135683028072364
 20
5.4993722272505066
  0
VERTEX
  8
FNL_DIMS-363
 62
    94
 10
1.6065683028072391
 20
5.6298722272505080
  0
VERTEX
  8
FNL_DIMS-363
 62
    94
 10
1.5911588811322019
 20
5.4993722272505066
  0
VERTEX
  8
FNL_DIMS-363
 62
    94
 10
1.5135683028072364
 20
5.4993722272505066
  0
SEQEND
  8
FNL_DIMS-363
 62
    94
  0
POLYLINE
  8
FNL_DIMS-363
 62
    94
 66
     1
 10
0.0
 20
0.0
 70
     0
  0
VERTEX
  8
FNL_DIMS-363
 62
    94
 10
1.7367621803582578
 20
5.3823722272505057
  0
VERTEX
  8
FNL_DIMS-363
 62
    94
 10
1.8997417721949938
 20
5.7453722272505088
  0
VERTEX
  8
FNL_DIMS-363
 62
    94
 10
2.1275378666954508
 20
5.7453722272505088
 42
-0.4341645003930854
  0
VERTEX
  8
FNL_DIMS-363
 62
    94
 10
2.1900683028072381
 20
5.6808722272505099
  0
VERTEX
  8
FNL_DIMS-363
 62
    94
 10
2.1795683028072368
 20
5.6178722272505075
 42
-0.2031230949761077
  0
VERTEX
  8
FNL_DIMS-363
 62
    94
 10
2.0775683028072374
 20
5.5533722272505086
 42
-0.4685979671086156
  0
VERTEX
  8
FNL_DIMS-363
 62
    94
 10
2.1060683028072376
 20
5.4873722272505061
  0
VERTEX
  8
FNL_DIMS-363
 62
    94
 10
2.0614792617113471
 20
5.3823722272505057
  0
VERTEX
  8
FNL_DIMS-363
 62
    94
 10
1.9676683028072413
 20
5.3823722272505057
  0
VERTEX
  8
FNL_DIMS-363
 62
    94
 10
1.9845683028072365
 20
5.4603722272505086
 42
0.3258346133746294
  0
VERTEX
  8
FNL_DIMS-363
 62
    94
 10
1.9650683028072375
 20
5.4978722272505065
  0
VERTEX
  8
FNL_DIMS-363
 62
    94
 10
1.9035683028072370
 20
5.5038722272505067
  0
VERTEX
  8
FNL_DIMS-363
 62
    94
 10
1.8435502305180860
 20
5.3823722272505057
  0
VERTEX
  8
FNL_DIMS-363
 62
    94
 10
1.7367621803582578
 20
5.3823722272505057
  0
SEQEND
  8
FNL_DIMS-363
 62
    94
  0
POLYLINE
  8
FNL_DIMS-363
 62
    94
 66
     1
 10
0.0
 20
0.0
 70
     0
  0
VERTEX
  8
FNL_DIMS-363
 62
    94
 10
1.9695683028072377
 20
5.6628722272505092
  0
VERTEX
  8
FNL_DIMS-363
 62
    94
 10
2.0205454806083436
 20
5.6628722272505092
 42
-0.9092863189428971
  0
VERTEX
  8
FNL_DIMS-363
 62
    94
 10
2.0160683028072386
 20
5.5863722272505063
  0
VERTEX
  8
FNL_DIMS-363
 62
    94
 10
1.9367825885215222
 20
5.5863722272505063
  0
VERTEX
  8
FNL_DIMS-363
 62
    94
 10
1.9695683028072377
 20
5.6628722272505092
  0
SEQEND
  8
FNL_DIMS-363
 62
    94
  0
POLYLINE
  8
FNL_DIMS-363
 62
    94
 66
     1
 10
0.0
 20
0.0
 70
     0
  0
VERTEX
  8
FNL_DIMS-363
 62
    94
 10
2.1425683028072386
 20
5.3823722272505057
  0
VERTEX
  8
FNL_DIMS-363
 62
    94
 10
2.2938183028072379
 20
5.7453722272505088
  0
VERTEX
  8
FNL_DIMS-363
 62
    94
 10
2.4036604080703992
 20
5.7453722272505088
  0
VERTEX
  8
FNL_DIMS-363
 62
    94
 10
2.3580683028072382
 20
5.6298722272505080
  0
VERTEX
  8
FNL_DIMS-363
 62
    94
 10
2.5125159772258430
 20
5.7453722272505088
  0
VERTEX
  8
FNL_DIMS-363
 62
    94
 10
2.6442016361405729
 20
5.7453722272505088
  0
VERTEX
  8
FNL_DIMS-363
 62
    94
 10
2.4540683028072374
 20
5.6073722272505071
  0
VERTEX
  8
FNL_DIMS-363
 62
    94
 10
2.5040683028072381
 20
5.3823722272505057
  0
VERTEX
  8
FNL_DIMS-363
 62
    94
 10
2.3648116656391007
 20
5.3823722272505057
  0
VERTEX
  8
FNL_DIMS-363
 62
    94
 10
2.3415683028072367
 20
5.5368722272505080
  0
VERTEX
  8
FNL_DIMS-363
 62
    94
 10
2.2950683028072376
 20
5.5008722272505102
  0
VERTEX
  8
FNL_DIMS-363
 62
    94
 10
2.2408152907590475
 20
5.3823722272505057
  0
VERTEX
  8
FNL_DIMS-363
 62
    94
 10
2.1425683028072386
 20
5.3823722272505057
  0
SEQEND
  8
FNL_DIMS-363
 62
    94
  0
POLYLINE
  8
FNL_DIMS-363
 62
    94
 66
     1
 10
0.0
 20
0.0
 70
     0
  0
VERTEX
  8
FNL_DIMS-363
 62
    94
 10
1.0711771087398514
 20
0.4932076665682708
  0
VERTEX
  8
FNL_DIMS-363
 62
    94
 10
1.1586737221237637
 20
0.4932076665682708
 42
0.4142135623730948
  0
VERTEX
  8
FNL_DIMS-363
 62
    94
 10
1.2086703355076676
 20
0.5432042799521799
 42
0.4142730887184284
  0
VERTEX
  8
FNL_DIMS-363
 62
    94
 10
1.1586737221237637
 20
0.5932110531843655
  0
VERTEX
  8
FNL_DIMS-363
 62
    94
 10
1.0711771087398514
 20
0.5932110531843655
  0
VERTEX
  8
FNL_DIMS-363
 62
    94
 10
1.0711771087398514
 20
0.4057110531843655
  0
SEQEND
  8
FNL_DIMS-363
 62
    94
  0
POLYLINE
  8
FNL_DIMS-363
 62
    94
 66
     1
 10
0.0
 20
0.0
 70
     0
  0
VERTEX
  8
FNL_DIMS-363
 62
    94
 10
1.0711771087398514
 20
0.1517148461943911
  0
VERTEX
  8
FNL_DIMS-363
 62
    94
 10
1.1461771087398542
 20
0.1517148461943911
 42
0.4142135623730948
  0
VERTEX
  8
FNL_DIMS-363
 62
    94
 10
1.2211771087398589
 20
0.2267148461943886
  0
VERTEX
  8
FNL_DIMS-363
 62
    94
 10
1.2211771087398589
 20
0.2642148461943936
 42
0.4142135623730949
  0
VERTEX
  8
FNL_DIMS-363
 62
    94
 10
1.1461771087398542
 20
0.3392148461943911
  0
VERTEX
  8
FNL_DIMS-363
 62
    94
 10
1.0711771087398514
 20
0.3392148461943911
  0
VERTEX
  8
FNL_DIMS-363
 62
    94
 10
1.0711771087398514
 20
0.1517148461943911
  0
SEQEND
  8
FNL_DIMS-363
 62
    94
  0
LINE
  8
FNL_DIMS-363
 62
    94
 10
1.2712245213651574
 20
0.1517148461943911
 11
1.3712279079812557
 21
0.1517148461943911
  0
LINE
  8
FNL_DIMS-363
 62
    94
 10
1.3212211347490666
 20
0.1517148461943911
 11
1.3212211347490666
 21
0.3392148461943911
  0
LINE
  8
FNL_DIMS-363
 62
    94
 10
1.2712245213651574
 20
0.3392148461943911
 11
1.3712279079812557
 21
0.3392148461943911
  0
POLYLINE
  8
FNL_DIMS-363
 62
    94
 66
     1
 10
0.0
 20
0.0
 70
     0
  0
VERTEX
  8
FNL_DIMS-363
 62
    94
 10
1.4212245213651578
 20
0.4057110531843655
  0
VERTEX
  8
FNL_DIMS-363
 62
    94
 10
1.4212245213651578
 20
0.5182110531843645
 42
0.4142135623730949
  0
VERTEX
  8
FNL_DIMS-363
 62
    94
 10
1.3462245213651549
 20
0.5932110531843655
 42
0.4142135623730949
  0
VERTEX
  8
FNL_DIMS-363
 62
    94
 10
1.2712245213651574
 20
0.5182110531843645
  0
VERTEX
  8
FNL_DIMS-363
 62
    94
 10
1.2712245213651574
 20
0.4057110531843655
  0
SEQEND
  8
FNL_DIMS-363
 62
    94
  0
LINE
  8
FNL_DIMS-363
 62
    94
 10
1.2712245213651574
 20
0.4807110531843648
 11
1.4212245213651578
 21
0.4807110531843648
  0
POLYLINE
  8
FNL_DIMS-363
 62
    94
 66
     1
 10
0.0
 20
0.0
 70
     0
  0
VERTEX
  8
FNL_DIMS-363
 62
    94
 10
1.4712719339904652
 20
0.4932076665682708
  0
VERTEX
  8
FNL_DIMS-363
 62
    94
 10
1.5587685473743669
 20
0.4932076665682708
 42
0.4142135623730948
  0
VERTEX
  8
FNL_DIMS-363
 62
    94
 10
1.6087651607582796
 20
0.5432042799521799
 42
0.4142730887184284
  0
VERTEX
  8
FNL_DIMS-363
 62
    94
 10
1.5587685473743669
 20
0.5932110531843655
  0
VERTEX
  8
FNL_DIMS-363
 62
    94
 10
1.4712719339904652
 20
0.5932110531843655
  0
VERTEX
  8
FNL_DIMS-363
 62
    94
 10
1.4712719339904652
 20
0.4057110531843655
  0
SEQEND
  8
FNL_DIMS-363
 62
    94
  0
POLYLINE
  8
FNL_DIMS-363
 62
    94
 66
     1
 10
0.0
 20
0.0
 70
     0
  0
VERTEX
  8
FNL_DIMS-363
 62
    94
 10
1.6212719339904620
 20
0.3392148461943911
  0
VERTEX
  8
FNL_DIMS-363
 62
    94
 10
1.4712719339904652
 20
0.3392148461943911
  0
VERTEX
  8
FNL_DIMS-363
 62
    94
 10
1.4712719339904652
 20
0.1517148461943911
  0
VERTEX
  8
FNL_DIMS-363
 62
    94
 10
1.6212719339904620
 20
0.1517148461943911
  0
SEQEND
  8
FNL_DIMS-363
 62
    94
  0
LINE
  8
FNL_DIMS-363
 62
    94
 10
1.5837719339904641
 20
0.2517182328104841
 11
1.4712719339904652
 21
0.2517182328104841
  0
LINE
  8
FNL_DIMS-363
 62
    94
 10
1.5962685473743701
 20
0.4057110531843655
 11
1.5212685473743708
 21
0.4932076665682708
  0
POLYLINE
  8
FNL_DIMS-363
 62
    94
 66
     1
 10
0.0
 20
0.0
 70
     0
  0
VERTEX
  8
FNL_DIMS-363
 62
    94
 10
1.6212719339904620
 20
0.6597072601743443
  0
VERTEX
  8
FNL_DIMS-363
 62
    94
 10
1.4712719339904652
 20
0.6597072601743443
  0
VERTEX
  8
FNL_DIMS-363
 62
    94
 10
1.4712719339904652
 20
0.8472072601743408
  0
VERTEX
  8
FNL_DIMS-363
 62
    94
 10
1.6212719339904620
 20
0.8472072601743408
  0
SEQEND
  8
FNL_DIMS-363
 62
    94
  0
POLYLINE
  8
FNL_DIMS-363
 62
    94
 66
     1
 10
0.0
 20
0.0
 70
     0
  0
VERTEX
  8
FNL_DIMS-363
 62
    94
 10
1.6713193466157641
 20
0.8472072601743408
  0
VERTEX
  8
FNL_DIMS-363
 62
    94
 10
1.6713193466157641
 20
0.6597072601743443
  0
VERTEX
  8
FNL_DIMS-363
 62
    94
 10
1.7463193466157687
 20
0.7472038735582460
  0
VERTEX
  8
FNL_DIMS-363
 62
    94
 10
1.8213193466157716
 20
0.6597072601743443
  0
VERTEX
  8
FNL_DIMS-363
 62
    94
 10
1.8213193466157716
 20
0.8472072601743408
  0
SEQEND
  8
FNL_DIMS-363
 62
    94
  0
LINE
  8
FNL_DIMS-363
 62
    94
 10
1.8713667592410754
 20
0.8472072601743408
 11
1.9713701458571649
 21
0.8472072601743408
  0
LINE
  8
FNL_DIMS-363
 62
    94
 10
1.9213633726249775
 20
0.8472072601743408
 11
1.9213633726249775
 21
0.6597072601743443
  0
LINE
  8
FNL_DIMS-363
 62
    94
 10
1.8713667592410754
 20
0.6597072601743443
 11
1.9713701458571649
 21
0.6597072601743443
  0
LINE
  8
FNL_DIMS-363
 62
    94
 10
1.8213193466157716
 20
0.5932110531843655
 11
1.6713193466157641
 21
0.5932110531843655
  0
LINE
  8
FNL_DIMS-363
 62
    94
 10
1.7463193466157687
 20
0.5932110531843655
 11
1.7463193466157687
 21
0.4057110531843655
  0
LINE
  8
FNL_DIMS-363
 62
    94
 10
1.8963701458571656
 20
0.2767114595782960
 11
1.8963701458571656
 21
0.1767182328104813
  0
LINE
  8
FNL_DIMS-363
 62
    94
 10
1.8713667592410754
 20
0.2017114595783003
 11
1.9713701458571649
 21
0.2017114595783003
  0
LINE
  8
FNL_DIMS-363
 62
    94
 10
1.9463667592410783
 20
0.1767182328104813
 11
1.9463667592410783
 21
0.2767114595782960
  0
LINE
  8
FNL_DIMS-363
 62
    94
 10
1.9713701458571649
 20
0.2517182328104841
 11
1.8713667592410754
 21
0.2517182328104841
  0
POLYLINE
  8
FNL_DIMS-363
 62
    94
 66
     1
 10
0.0
 20
0.0
 70
     0
  0
VERTEX
  8
FNL_DIMS-363
 62
    94
 10
2.0835145511673794
 20
0.2517182328104841
 42
0.4142135623730948
  0
VERTEX
  8
FNL_DIMS-363
 62
    94
 10
2.0460145511673833
 20
0.2142182328104827
 42
0.4142135623730950
  0
VERTEX
  8
FNL_DIMS-363
 62
    94
 10
2.1085179377834766
 20
0.1517148461943911
 42
0.4141659576126406
  0
VERTEX
  8
FNL_DIMS-363
 62
    94
 10
2.1710111645512882
 20
0.2142182328104827
 42
0.4142135623730947
  0
VERTEX
  8
FNL_DIMS-363
 62
    94
 10
2.1335111645512868
 20
0.2517182328104841
  0
VERTEX
  8
FNL_DIMS-363
 62
    94
 10
2.0835145511673794
 20
0.2517182328104841
 42
-0.4141342219961467
  0
VERTEX
  8
FNL_DIMS-363
 62
    94
 10
2.0460145511673833
 20
0.2892080729622020
 42
-0.4142730887184284
  0
VERTEX
  8
FNL_DIMS-363
 62
    94
 10
2.0960111645512889
 20
0.3392148461943911
  0
VERTEX
  8
FNL_DIMS-363
 62
    94
 10
2.1210145511673808
 20
0.3392148461943911
 42
-0.4142730887184284
  0
VERTEX
  8
FNL_DIMS-363
 62
    94
 10
2.1710111645512882
 20
0.2892080729622020
 42
-0.4141342219961467
  0
VERTEX
  8
FNL_DIMS-363
 62
    94
 10
2.1335111645512868
 20
0.2517182328104841
  0
SEQEND
  8
FNL_DIMS-363
 62
    94
  0
POLYLINE
  8
FNL_DIMS-363
 62
    94
 66
     1
 10
0.0
 20
0.0
 70
     0
  0
VERTEX
  8
FNL_DIMS-363
 62
    94
 10
2.2206623430936929
 20
0.3017148461943879
  0
VERTEX
  8
FNL_DIMS-363
 62
    94
 10
2.2581623430936872
 20
0.3392148461943911
  0
VERTEX
  8
FNL_DIMS-363
 62
    94
 10
2.2581623430936872
 20
0.1517148461943911
  0
SEQEND
  8
FNL_DIMS-363
 62
    94
  0
LINE
  8
FNL_DIMS-363
 62
    94
 10
2.2831657297097827
 20
0.1517148461943911
 11
2.2331589564775953
 21
0.1517148461943911
  0
POLYLINE
  8
FNL_DIMS-363
 62
    94
 66
     1
 10
0.0
 20
0.0
 70
     0
  0
VERTEX
  8
FNL_DIMS-363
 62
    94
 10
2.3953202948682772
 20
0.3017148461943879
 42
-0.2726544751729642
  0
VERTEX
  8
FNL_DIMS-363
 62
    94
 10
2.4566451390839319
 20
0.3392250060426694
  0
VERTEX
  8
FNL_DIMS-363
 62
    94
 10
2.4578135216360870
 20
0.3392148461943911
 42
-0.4142135623730950
  0
VERTEX
  8
FNL_DIMS-363
 62
    94
 10
2.5203169082521804
 20
0.2767114595782960
 42
-0.2357463286950689
  0
VERTEX
  8
FNL_DIMS-363
 62
    94
 10
2.4953744807257650
 20
0.2267554855875087
  0
VERTEX
  8
FNL_DIMS-363
 62
    94
 10
2.4203135216360891
 20
0.1892148461943908
 42
0.3031173169420362
  0
VERTEX
  8
FNL_DIMS-363
 62
    94
 10
2.3953101350199972
 20
0.1517148461943911
  0
VERTEX
  8
FNL_DIMS-363
 62
    94
 10
2.5203169082521804
 20
0.1517148461943911
  0
SEQEND
  8
FNL_DIMS-363
 62
    94
  0
POLYLINE
  8
FNL_DIMS-363
 62
    94
 66
     1
 10
0.0
 20
0.0
 70
     0
  0
VERTEX
  8
FNL_DIMS-363
 62
    94
 10
2.6574545403302103
 20
0.1517148461943911
  0
VERTEX
  8
FNL_DIMS-363
 62
    94
 10
2.6574545403302103
 20
0.3392148461943911
  0
VERTEX
  8
FNL_DIMS-363
 62
    94
 10
2.5699579269462980
 20
0.2267148461943886
  0
VERTEX
  8
FNL_DIMS-363
 62
    94
 10
2.6949545403302047
 20
0.2267148461943886
  0
SEQEND
  8
FNL_DIMS-363
 62
    94
  0
LINE
  8
FNL_DIMS-363
 62
    94
 10
2.7207605549603890
 20
0.4057110531843655
 11
2.6207571683442943
 21
0.4057110531843655
  0
LINE
  8
FNL_DIMS-363
 62
    94
 10
2.6707537817282088
 20
0.4057110531843655
 11
2.6707537817282088
 21
0.5932110531843655
  0
LINE
  8
FNL_DIMS-363
 62
    94
 10
2.6207571683442943
 20
0.5932110531843655
 11
2.7207605549603890
 21
0.5932110531843655
  0
POLYLINE
  8
FNL_DIMS-363
 62
    94
 66
     1
 10
0.0
 20
0.0
 70
     0
  0
VERTEX
  8
FNL_DIMS-363
 62
    94
 10
2.9708045809696060
 20
0.5932110531843655
  0
VERTEX
  8
FNL_DIMS-363
 62
    94
 10
2.8208045809696038
 20
0.5932110531843655
  0
VERTEX
  8
FNL_DIMS-363
 62
    94
 10
2.8208045809696038
 20
0.4057110531843655
  0
VERTEX
  8
FNL_DIMS-363
 62
    94
 10
2.9708045809696060
 20
0.4057110531843655
  0
SEQEND
  8
FNL_DIMS-363
 62
    94
  0
POLYLINE
  8
FNL_DIMS-363
 62
    94
 66
     1
 10
0.0
 20
0.0
 70
     0
  0
VERTEX
  8
FNL_DIMS-363
 62
    94
 10
3.0208519935949099
 20
0.5932110531843655
  0
VERTEX
  8
FNL_DIMS-363
 62
    94
 10
3.0208519935949099
 20
0.4057110531843655
  0
VERTEX
  8
FNL_DIMS-363
 62
    94
 10
3.0958519935949091
 20
0.4932076665682708
  0
VERTEX
  8
FNL_DIMS-363
 62
    94
 10
3.1708519935949049
 20
0.4057110531843655
  0
VERTEX
  8
FNL_DIMS-363
 62
    94
 10
3.1708519935949049
 20
0.5932110531843655
  0
SEQEND
  8
FNL_DIMS-363
 62
    94
  0
LINE
  8
FNL_DIMS-363
 62
    94
 10
3.2208994062202159
 20
0.5932110531843655
 11
3.3209027928363071
 21
0.5932110531843655
  0
LINE
  8
FNL_DIMS-363
 62
    94
 10
3.2708960196041197
 20
0.5932110531843655
 11
3.2708960196041197
 21
0.4057110531843655
  0
LINE
  8
FNL_DIMS-363
 62
    94
 10
3.2208994062202159
 20
0.4057110531843655
 11
3.3209027928363071
 21
0.4057110531843655
  0
POLYLINE
  8
FNL_DIMS-363
 62
    94
 66
     1
 10
0.0
 20
0.0
 70
     0
  0
VERTEX
  8
FNL_DIMS-363
 62
    94
 10
3.3193483360495293
 20
0.1517148461943911
  0
VERTEX
  8
FNL_DIMS-363
 62
    94
 10
3.3193483360495293
 20
0.2642148461943936
 42
-0.4142135623730949
  0
VERTEX
  8
FNL_DIMS-363
 62
    94
 10
3.3943483360495286
 20
0.3392148461943911
 42
-0.4142135623730949
  0
VERTEX
  8
FNL_DIMS-363
 62
    94
 10
3.4693483360495279
 20
0.2642148461943936
  0
VERTEX
  8
FNL_DIMS-363
 62
    94
 10
3.4693483360495279
 20
0.1517148461943911
  0
SEQEND
  8
FNL_DIMS-363
 62
    94
  0
POLYLINE
  8
FNL_DIMS-363
 62
    94
 66
     1
 10
0.0
 20
0.0
 70
     0
  0
VERTEX
  8
FNL_DIMS-363
 62
    94
 10
3.5193957486748388
 20
0.1517148461943911
  0
VERTEX
  8
FNL_DIMS-363
 62
    94
 10
3.5193957486748388
 20
0.3392148461943911
  0
VERTEX
  8
FNL_DIMS-363
 62
    94
 10
3.6068923620587370
 20
0.3392148461943911
 42
-0.4142730887184284
  0
VERTEX
  8
FNL_DIMS-363
 62
    94
 10
3.6568889754426515
 20
0.2892080729622020
 42
-0.4142135623730948
  0
VERTEX
  8
FNL_DIMS-363
 62
    94
 10
3.6068923620587370
 20
0.2392114595782946
  0
VERTEX
  8
FNL_DIMS-363
 62
    94
 10
3.5193957486748388
 20
0.2392114595782946
  0
SEQEND
  8
FNL_DIMS-363
 62
    94
  0
LINE
  8
FNL_DIMS-363
 62
    94
 10
3.4693483360495279
 20
0.2267148461943886
 11
3.3193483360495293
 21
0.2267148461943886
  0
POLYLINE
  8
FNL_DIMS-363
 62
    94
 66
     1
 10
0.0
 20
0.0
 70
     0
  0
VERTEX
  8
FNL_DIMS-363
 62
    94
 10
3.1193009234242268
 20
0.2392114595782946
  0
VERTEX
  8
FNL_DIMS-363
 62
    94
 10
3.2067975368081321
 20
0.2392114595782946
 42
0.4142135623730948
  0
VERTEX
  8
FNL_DIMS-363
 62
    94
 10
3.2567941501920359
 20
0.2892080729622020
 42
0.4142730887184284
  0
VERTEX
  8
FNL_DIMS-363
 62
    94
 10
3.2067975368081321
 20
0.3392148461943911
  0
VERTEX
  8
FNL_DIMS-363
 62
    94
 10
3.1193009234242268
 20
0.3392148461943911
  0
VERTEX
  8
FNL_DIMS-363
 62
    94
 10
3.1193009234242268
 20
0.1517148461943911
  0
SEQEND
  8
FNL_DIMS-363
 62
    94
  0
POLYLINE
  8
FNL_DIMS-363
 62
    94
 66
     1
 10
0.0
 20
0.0
 70
     0
  0
VERTEX
  8
FNL_DIMS-363
 62
    94
 10
3.0317535107989144
 20
0.2392114595782946
  0
VERTEX
  8
FNL_DIMS-363
 62
    94
 10
3.0692535107989229
 20
0.2392114595782946
  0
VERTEX
  8
FNL_DIMS-363
 62
    94
 10
3.0692535107989229
 20
0.1767182328104813
 42
-0.2357463417807324
  0
VERTEX
  8
FNL_DIMS-363
 62
    94
 10
3.0193280163529721
 20
0.1517148461943911
  0
VERTEX
  8
FNL_DIMS-363
 62
    94
 10
2.9942535107989201
 20
0.1517148461943911
 42
-0.4142135623730950
  0
VERTEX
  8
FNL_DIMS-363
 62
    94
 10
2.9192535107989173
 20
0.2267148461943886
  0
VERTEX
  8
FNL_DIMS-363
 62
    94
 10
2.9192535107989173
 20
0.2642148461943936
 42
-0.4142135623730949
  0
VERTEX
  8
FNL_DIMS-363
 62
    94
 10
2.9942535107989201
 20
0.3392148461943911
  0
VERTEX
  8
FNL_DIMS-363
 62
    94
 10
3.0192568974150120
 20
0.3392148461943911
 42
-0.3492099092756997
  0
VERTEX
  8
FNL_DIMS-363
 62
    94
 10
3.0817094847897053
 20
0.2895331881071517
  0
SEQEND
  8
FNL_DIMS-363
 62
    94
  0
LINE
  8
FNL_DIMS-363
 62
    94
 10
3.1692975368081271
 20
0.2392114595782946
 11
3.2442975368081299
 21
0.1517148461943911
  0
LINE
  8
FNL_DIMS-363
 62
    94
 10
3.4959468188455141
 20
0.4057110531843655
 11
3.4959468188455141
 21
0.5932110531843655
  0
LINE
  8
FNL_DIMS-363
 62
    94
 10
3.4209468188455148
 20
0.5932110531843655
 11
3.5709468188455169
 21
0.5932110531843655
  0
POLYLINE
  8
FNL_DIMS-363
 62
    94
 66
     1
 10
0.0
 20
0.0
 70
     0
  0
VERTEX
  8
FNL_DIMS-363
 62
    94
 10
3.8210416440961303
 20
0.4807110531843648
 42
0.4142135623730950
  0
VERTEX
  8
FNL_DIMS-363
 62
    94
 10
3.8960416440961296
 20
0.4057110531843655
 42
0.4142135623730948
  0
VERTEX
  8
FNL_DIMS-363
 62
    94
 10
3.9710416440961325
 20
0.4807110531843648
  0
VERTEX
  8
FNL_DIMS-363
 62
    94
 10
3.9710416440961325
 20
0.5182110531843645
 42
0.4142135623730949
  0
VERTEX
  8
FNL_DIMS-363
 62
    94
 10
3.8960416440961296
 20
0.5932110531843655
 42
0.4142135623730950
  0
VERTEX
  8
FNL_DIMS-363
 62
    94
 10
3.8210416440961303
 20
0.5182110531843645
  0
VERTEX
  8
FNL_DIMS-363
 62
    94
 10
3.8210416440961303
 20
0.4807110531843648
  0
SEQEND
  8
FNL_DIMS-363
 62
    94
  0
LINE
  8
FNL_DIMS-363
 62
    94
 10
3.8694431613001363
 20
0.3392148461943911
 11
3.8694431613001363
 21
0.1517148461943911
  0
LINE
  8
FNL_DIMS-363
 62
    94
 10
3.9194905739254438
 20
0.1517148461943911
 11
4.0194939605415350
 21
0.1517148461943911
  0
LINE
  8
FNL_DIMS-363
 62
    94
 10
3.9694871873093511
 20
0.1517148461943911
 11
3.9694871873093511
 21
0.3392148461943911
  0
LINE
  8
FNL_DIMS-363
 62
    94
 10
3.9194905739254438
 20
0.3392148461943911
 11
4.0194939605415350
 21
0.3392148461943911
  0
POLYLINE
  8
FNL_DIMS-363
 62
    94
 66
     1
 10
0.0
 20
0.0
 70
     0
  0
VERTEX
  8
FNL_DIMS-363
 62
    94
 10
4.0210890567214328
 20
0.5932110531843655
  0
VERTEX
  8
FNL_DIMS-363
 62
    94
 10
4.0960890567214392
 20
0.4057110531843655
  0
VERTEX
  8
FNL_DIMS-363
 62
    94
 10
4.1710890567214385
 20
0.5932110531843655
  0
SEQEND
  8
FNL_DIMS-363
 62
    94
  0
POLYLINE
  8
FNL_DIMS-363
 62
    94
 66
     1
 10
0.0
 20
0.0
 70
     0
  0
VERTEX
  8
FNL_DIMS-363
 62
    94
 10
4.3711364693467374
 20
0.5932110531843655
  0
VERTEX
  8
FNL_DIMS-363
 62
    94
 10
4.2211364693467353
 20
0.5932110531843655
  0
VERTEX
  8
FNL_DIMS-363
 62
    94
 10
4.2211364693467353
 20
0.4057110531843655
  0
VERTEX
  8
FNL_DIMS-363
 62
    94
 10
4.3711364693467374
 20
0.4057110531843655
  0
SEQEND
  8
FNL_DIMS-363
 62
    94
  0
POLYLINE
  8
FNL_DIMS-363
 62
    94
 66
     1
 10
0.0
 20
0.0
 70
     0
  0
VERTEX
  8
FNL_DIMS-363
 62
    94
 10
4.4211838819720448
 20
0.4057110531843655
  0
VERTEX
  8
FNL_DIMS-363
 62
    94
 10
4.4211838819720448
 20
0.5932110531843655
  0
VERTEX
  8
FNL_DIMS-363
 62
    94
 10
4.5086804953559465
 20
0.5932110531843655
 42
-0.4142730887184284
  0
VERTEX
  8
FNL_DIMS-363
 62
    94
 10
4.5586771087398610
 20
0.5432042799521799
 42
-0.4142135623730948
  0
VERTEX
  8
FNL_DIMS-363
 62
    94
 10
4.5086804953559465
 20
0.4932076665682708
  0
VERTEX
  8
FNL_DIMS-363
 62
    94
 10
4.4211838819720448
 20
0.4932076665682708
  0
SEQEND
  8
FNL_DIMS-363
 62
    94
  0
LINE
  8
FNL_DIMS-363
 62
    94
 10
4.4711804953559522
 20
0.4932076665682708
 11
4.5461804953559550
 21
0.4057110531843655
  0
POLYLINE
  8
FNL_DIMS-363
 62
    94
 66
     1
 10
0.0
 20
0.0
 70
     0
  0
VERTEX
  8
FNL_DIMS-363
 62
    94
 10
4.5196328118013547
 20
0.1517148461943911
  0
VERTEX
  8
FNL_DIMS-363
 62
    94
 10
4.5196328118013547
 20
0.2642148461943936
 42
-0.4142135623730949
  0
VERTEX
  8
FNL_DIMS-363
 62
    94
 10
4.5946328118013575
 20
0.3392148461943911
 42
-0.4142135623730949
  0
VERTEX
  8
FNL_DIMS-363
 62
    94
 10
4.6696328118013604
 20
0.2642148461943936
  0
VERTEX
  8
FNL_DIMS-363
 62
    94
 10
4.6696328118013604
 20
0.1517148461943911
  0
SEQEND
  8
FNL_DIMS-363
 62
    94
  0
POLYLINE
  8
FNL_DIMS-363
 62
    94
 66
     1
 10
0.0
 20
0.0
 70
     0
  0
VERTEX
  8
FNL_DIMS-363
 62
    94
 10
4.7196802244266642
 20
0.1517148461943911
  0
VERTEX
  8
FNL_DIMS-363
 62
    94
 10
4.7946802244266635
 20
0.1517148461943911
 42
0.4142135623730948
  0
VERTEX
  8
FNL_DIMS-363
 62
    94
 10
4.8696802244266664
 20
0.2267148461943886
  0
VERTEX
  8
FNL_DIMS-363
 62
    94
 10
4.8696802244266664
 20
0.2642148461943936
 42
0.4142135623730949
  0
VERTEX
  8
FNL_DIMS-363
 62
    94
 10
4.7946802244266635
 20
0.3392148461943911
  0
VERTEX
  8
FNL_DIMS-363
 62
    94
 10
4.7196802244266642
 20
0.3392148461943911
  0
VERTEX
  8
FNL_DIMS-363
 62
    94
 10
4.7196802244266642
 20
0.1517148461943911
  0
SEQEND
  8
FNL_DIMS-363
 62
    94
  0
LINE
  8
FNL_DIMS-363
 62
    94
 10
4.6696328118013604
 20
0.2267148461943886
 11
4.5196328118013547
 21
0.2267148461943886
  0
POLYLINE
  8
FNL_DIMS-363
 62
    94
 66
     1
 10
0.0
 20
0.0
 70
     0
  0
VERTEX
  8
FNL_DIMS-363
 62
    94
 10
4.7712312945973494
 20
0.4057110531843655
  0
VERTEX
  8
FNL_DIMS-363
 62
    94
 10
4.6212312945973473
 20
0.4057110531843655
  0
VERTEX
  8
FNL_DIMS-363
 62
    94
 10
4.6212312945973473
 20
0.5932110531843655
  0
SEQEND
  8
FNL_DIMS-363
 62
    94
  0
POLYLINE
  8
FNL_DIMS-363
 62
    94
 66
     1
 10
0.0
 20
0.0
 70
     0
  0
VERTEX
  8
FNL_DIMS-363
 62
    94
 10
4.8212787072226533
 20
0.4057110531843655
  0
VERTEX
  8
FNL_DIMS-363
 62
    94
 10
4.8212787072226533
 20
0.5182110531843645
 42
-0.4142135623730949
  0
VERTEX
  8
FNL_DIMS-363
 62
    94
 10
4.8962787072226561
 20
0.5932110531843655
 42
-0.4142135623730949
  0
VERTEX
  8
FNL_DIMS-363
 62
    94
 10
4.9712787072226519
 20
0.5182110531843645
  0
VERTEX
  8
FNL_DIMS-363
 62
    94
 10
4.9712787072226519
 20
0.4057110531843655
  0
SEQEND
  8
FNL_DIMS-363
 62
    94
  0
LINE
  8
FNL_DIMS-363
 62
    94
 10
4.9712787072226519
 20
0.4807110531843648
 11
4.8212787072226533
 21
0.4807110531843648
  0
LINE
  8
FNL_DIMS-363
 62
    94
 10
4.9197276370519702
 20
0.3392148461943911
 11
4.9197276370519702
 21
0.1517148461943911
  0
LINE
  8
FNL_DIMS-363
 62
    94
 10
4.9197276370519702
 20
0.2517182328104841
 11
5.0697276370519653
 21
0.2517182328104841
  0
LINE
  8
FNL_DIMS-363
 62
    94
 10
5.0697276370519653
 20
0.3392148461943911
 11
5.0697276370519653
 21
0.1517148461943911
  0
POLYLINE
  8
FNL_DIMS-363
 62
    94
 66
     1
 10
0.0
 20
0.0
 70
     0
  0
VERTEX
  8
FNL_DIMS-363
 62
    94
 10
5.0963261198479550
 20
0.4057110531843655
  0
VERTEX
  8
FNL_DIMS-363
 62
    94
 10
5.0963261198479550
 20
0.4807110531843648
  0
VERTEX
  8
FNL_DIMS-363
 62
    94
 10
5.0213261198479593
 20
0.5932110531843655
  0
SEQEND
  8
FNL_DIMS-363
 62
    94
  0
LINE
  8
FNL_DIMS-363
 62
    94
 10
5.0963261198479550
 20
0.4807110531843648
 11
5.1713261198479579
 21
0.5932110531843655
  0
LINE
  8
FNL_DIMS-363
 62
    94
 10
4.3336364693467395
 20
0.5057144398004585
 11
4.2211364693467353
 21
0.5057144398004585
  0
POLYLINE
  8
FNL_DIMS-363
 62
    94
 66
     1
 10
0.0
 20
0.0
 70
     0
  0
VERTEX
  8
FNL_DIMS-363
 62
    94
 10
4.2819939605415414
 20
0.2895331881071517
 42
0.3492099092756997
  0
VERTEX
  8
FNL_DIMS-363
 62
    94
 10
4.2195413731668445
 20
0.3392148461943911
  0
VERTEX
  8
FNL_DIMS-363
 62
    94
 10
4.1945379865507491
 20
0.3392148461943911
 42
0.4142135623730950
  0
VERTEX
  8
FNL_DIMS-363
 62
    94
 10
4.1195379865507498
 20
0.2642148461943936
  0
VERTEX
  8
FNL_DIMS-363
 62
    94
 10
4.1195379865507498
 20
0.2267148461943886
 42
0.4142135623730950
  0
VERTEX
  8
FNL_DIMS-363
 62
    94
 10
4.1945379865507491
 20
0.1517148461943911
  0
VERTEX
  8
FNL_DIMS-363
 62
    94
 10
4.2196937708910305
 20
0.1517250060426694
 42
0.3497855115661177
  0
VERTEX
  8
FNL_DIMS-363
 62
    94
 10
4.2820345999346578
 20
0.2017114595783003
  0
SEQEND
  8
FNL_DIMS-363
 62
    94
  0
LINE
  8
FNL_DIMS-363
 62
    94
 10
3.8694431613001363
 20
0.2517182328104841
 11
3.7194431613001377
 21
0.2517182328104841
  0
LINE
  8
FNL_DIMS-363
 62
    94
 10
3.7194431613001377
 20
0.3392148461943911
 11
3.7194431613001377
 21
0.1517148461943911
  0
LINE
  8
FNL_DIMS-363
 62
    94
 10
2.9333045809696010
 20
0.5057144398004585
 11
2.8208045809696038
 21
0.5057144398004585
  0
LINE
  8
FNL_DIMS-363
 62
    94
 10
2.5457063691029020
 20
0.5932110531843655
 11
2.4207097557189918
 21
0.4682144398004589
  0
LINE
  8
FNL_DIMS-363
 62
    94
 10
2.4207097557189918
 20
0.4057110531843655
 11
2.4207097557189918
 21
0.5932110531843655
  0
LINE
  8
FNL_DIMS-363
 62
    94
 10
2.4582097557189933
 20
0.5057144398004585
 11
2.5457063691029020
 21
0.4057110531843655
  0
LINE
  8
FNL_DIMS-363
 62
    94
 10
2.1714175584824709
 20
0.4557076665682711
 11
2.0714141718663779
 21
0.4557076665682711
  0
LINE
  8
FNL_DIMS-363
 62
    94
 10
2.0964175584824716
 20
0.4307144398004557
 11
2.0964175584824716
 21
0.5307076665682704
  0
LINE
  8
FNL_DIMS-363
 62
    94
 10
2.0714141718663779
 20
0.5057144398004585
 11
2.1714175584824709
 21
0.5057144398004585
  0
LINE
  8
FNL_DIMS-363
 62
    94
 10
2.1464141718663825
 20
0.5307076665682704
 11
2.1464141718663825
 21
0.4307144398004557
  0
LINE
  8
FNL_DIMS-363
 62
    94
 10
2.1464141718663825
 20
0.6597072601743443
 11
2.1464141718663825
 21
0.8472072601743408
  0
LINE
  8
FNL_DIMS-363
 62
    94
 10
2.0714141718663779
 20
0.8472072601743408
 11
2.2214141718663818
 21
0.8472072601743408
  0
LINE
  8
FNL_DIMS-363
 62
    94
 10
1.5837719339904641
 20
0.7597106467904355
 11
1.4712719339904652
 21
0.7597106467904355
  0
LINE
  8
FNL_DIMS-363
 62
    94
 10
1.3712279079812557
 20
0.8472072601743408
 11
1.2712245213651574
 21
0.8472072601743408
  0
LINE
  8
FNL_DIMS-363
 62
    94
 10
1.3212211347490666
 20
0.8472072601743408
 11
1.3212211347490666
 21
0.6597072601743443
  0
LINE
  8
FNL_DIMS-363
 62
    94
 10
1.2712245213651574
 20
0.6597072601743443
 11
1.3712279079812557
 21
0.6597072601743443
  0
LINE
  8
FNL_DIMS-363
 62
    94
 10
1.1961737221237616
 20
0.6597072601743443
 11
1.1086771087398510
 21
0.7597106467904355
  0
LINE
  8
FNL_DIMS-363
 62
    94
 10
1.0711771087398514
 20
0.7222106467904341
 11
1.1961737221237616
 21
0.8472072601743408
  0
LINE
  8
FNL_DIMS-363
 62
    94
 10
1.0711771087398514
 20
0.8472072601743408
 11
1.0711771087398514
 21
0.6597072601743443
  0
LINE
  8
FNL_DIMS-363
 62
     1
 10
0.8822913945646187
 20
4.7612501580039757
 11
0.8822913945646187
 21
3.9285495694594119
  0
LINE
  8
FNL_DIMS-363
 62
     1
 10
0.8822913945646187
 20
3.7410495694594115
 11
0.8822913945646187
 21
2.0756483923702835
  0
LINE
  8
FNL_DIMS-363
 62
     1
 10
0.8822913945646187
 20
1.8881483923702840
 11
0.8822913945646187
 21
1.0554478038257198
  0
LINE
  8
FNL_DIMS-363
 62
     1
 10
5.2304328234671056
 20
4.7612501580039757
 11
5.2304328234671056
 21
3.9109028915823725
  0
LINE
  8
FNL_DIMS-363
 62
     1
 10
5.2304328234671056
 20
3.7234028915823725
 11
5.2304328234671056
 21
2.0227083587391661
  0
LINE
  8
FNL_DIMS-363
 62
     1
 10
5.2304328234671056
 20
1.8352083587391661
 11
5.2304328234671056
 21
0.9848610923175629
  0
LINE
  8
FNL_DIMS-363
 62
     5
 10
0.3670084005550707
 20
4.9588929502268160
 11
0.3670084005550707
 21
4.0097242876937926
  0
LINE
  8
FNL_DIMS-363
 62
     5
 10
0.3670084005550707
 20
3.8222242876937926
 11
0.3670084005550707
 21
1.9238869626277459
  0
LINE
  8
FNL_DIMS-363
 62
     5
 10
0.3670084005550707
 20
1.7363869626277459
 11
0.3670084005550707
 21
0.7872183000947226
  0
LINE
  8
FNL_DIMS-363
 62
     5
 10
5.7104224617225752
 20
4.9941863059808949
 11
5.7104224617225752
 21
4.0061949521183848
  0
LINE
  8
FNL_DIMS-363
 62
     5
 10
5.7104224617225743
 20
3.8186949521183848
 11
5.7104224617225752
 21
1.8427122443933655
  0
LINE
  8
FNL_DIMS-363
 62
     5
 10
5.7104224617225752
 20
1.6552122443933652
 11
5.7104224617225752
 21
0.6672208905308557
  0
LINE
  8
GRIP
 62
   110
 10
0.1250000000000000
 20
0.0000000000000000
 11
3.0335381224683098
 21
0.0000000000000000
  0
LINE
  8
GRIP
 62
   110
 10
3.0335381224683098
 20
0.0000000000000000
 11
3.0555381224683096
 21
0.0219999999999999
  0
LINE
  8
GRIP
 62
   110
 10
3.0995381224683096
 20
0.0219999999999999
 11
3.1215381224683094
 21
0.0000000000000000
  0
LINE
  8
GRIP
 62
   110
 10
3.1215381224683094
 20
0.0000000000000000
 11
6.0300762449366196
 21
0.0000000000000000
  0
POLYLINE
  8
GRIP
 62
   110
 66
     1
 10
0.0
 20
0.0
 70
     0
  0
VERTEX
  8
GRIP
 62
   110
 10
6.0300762449366196
 20
0.0000000000000000
 42
0.4142135623730950
  0
VERTEX
  8
GRIP
 62
   110
 10
6.1550762449366196
 20
0.1250000000000000
  0
SEQEND
  8
GRIP
 62
   110
  0
LINE
  8
GRIP
 62
   110
 10
6.1550762449366196
 20
0.1250000000000000
 11
6.1550762449366196
 21
2.9702290481770852
  0
LINE
  8
GRIP
 62
   110
 10
6.1550762449366196
 20
2.9702290481770852
 11
6.1330762449366194
 21
2.9922290481770855
  0
LINE
  8
GRIP
 62
   110
 10
6.1330762449366194
 20
3.0362290481770855
 11
6.1550762449366196
 21
3.0582290481770857
  0
LINE
  8
GRIP
 62
   110
 10
6.1550762449366196
 20
3.0582290481770857
 11
6.1550762449366196
 21
5.9034580963541705
  0
POLYLINE
  8
GRIP
 62
   110
 66
     1
 10
0.0
 20
0.0
 70
     0
  0
VERTEX
  8
GRIP
 62
   110
 10
6.1550762449366196
 20
5.9034580963541705
 42
0.4142135623730950
  0
VERTEX
  8
GRIP
 62
   110
 10
6.0300762449366196
 20
6.0284580963541705
  0
SEQEND
  8
GRIP
 62
   110
  0
LINE
  8
GRIP
 62
   110
 10
6.0300762449366196
 20
6.0284580963541705
 11
3.1215381224683094
 21
6.0284580963541696
  0
LINE
  8
GRIP
 62
   110
 10
3.1215381224683094
 20
6.0284580963541696
 11
3.0995381224683092
 21
6.0064580963541694
  0
LINE
  8
GRIP
 62
   110
 10
3.0555381224683096
 20
6.0064580963541712
 11
3.0335381224683102
 21
6.0284580963541705
  0
LINE
  8
GRIP
 62
   110
 10
3.0335381224683102
 20
6.0284580963541705
 11
0.1250000000000000
 21
6.0284580963541705
  0
POLYLINE
  8
GRIP
 62
   110
 66
     1
 10
0.0
 20
0.0
 70
     0
  0
VERTEX
  8
GRIP
 62
   110
 10
0.1250000000000000
 20
6.0284580963541705
 42
0.4142135623730950
  0
VERTEX
  8
GRIP
 62
   110
 10
0.0000000000000000
 20
5.9034580963541705
  0
SEQEND
  8
GRIP
 62
   110
  0
LINE
  8
GRIP
 62
   110
 10
0.0000000000000000
 20
5.9034580963541705
 11
0.0000000000000000
 21
3.0582290481770857
  0
LINE
  8
GRIP
 62
   110
 10
0.0000000000000000
 20
3.0582290481770857
 11
0.0220000000000002
 21
3.0362290481770855
  0
LINE
  8
GRIP
 62
   110
 10
0.0220000000000002
 20
2.9922290481770850
 11
0.0000000000000000
 21
2.9702290481770848
  0
LINE
  8
GRIP
 62
   110
 10
0.0000000000000000
 20
2.9702290481770848
 11
0.0000000000000000
 21
0.1250000000000000
  0
POLYLINE
  8
GRIP
 62
   110
 66
     1
 10
0.0
 20
0.0
 70
     0
  0
VERTEX
  8
GRIP
 62
   110
 10
0.0000000000000000
 20
0.1250000000000000
 42
0.4142135623730950
  0
VERTEX
  8
GRIP
 62
   110
 10
0.1250000000000000
 20
0.0000000000000000
  0
SEQEND
  8
GRIP
 62
   110
  0
ENDSEC
  0
EOF
