0
SECTION
2
ENTITIES
0
CIRCLE
8
CIMEX_POINTS
10
12.765630
20
13.031250
40
0.1
0
CIRCLE
8
CIMEX_POINTS
10
13.031250
20
12.765630
40
0.1
0
CIRCLE
8
CIMEX_POINTS
10
12.765630
20
13.218750
40
0.1
0
CIRCLE
8
CIMEX_POINTS
10
13.218750
20
0.028000
40
0.1
0
CIRCLE
8
CIMEX_POINTS
10
10.187500
20
11.432600
40
0.1
0
CIRCLE
8
CIMEX_POINTS
10
11.432600
20
10.187500
40
0.1
0
CIRCLE
8
CIMEX_POINTS
10
10.187500
20
11.620100
40
0.1
0
CIRCLE
8
CIMEX_POINTS
10
11.620100
20
0.028000
40
0.1
0
CIRCLE
8
CIMEX_POINTS
10
33.953120
20
4.351515
40
0.1
0
CIRCLE
8
CIMEX_POINTS
10
4.351515
20
33.953120
40
0.1
0
CIRCLE
8
CIMEX_POINTS
10
33.953120
20
4.164015
40
0.1
0
CIRCLE
8
CIMEX_POINTS
10
4.164015
20
0.042000
40
0.1
0
CIRCLE
8
CIMEX_POINTS
10
34.303120
20
3.062500
40
0.1
0
CIRCLE
8
CIMEX_POINTS
10
3.062500
20
34.103120
40
0.1
0
CIRCLE
8
CIMEX_POINTS
10
34.103120
20
3.062500
40
0.1
0
CIRCLE
8
CIMEX_POINTS
10
3.062500
20
0.014000
40
0.1
0
CIRCLE
8
CIMEX_POINTS
10
24.419360
20
1.150000
40
0.1
0
CIRCLE
8
CIMEX_POINTS
10
1.150000
20
24.419360
40
0.1
0
CIRCLE
8
CIMEX_POINTS
10
24.419360
20
1.350000
40
0.1
0
CIRCLE
8
CIMEX_POINTS
10
1.350000
20
0.014000
40
0.1
0
CIRCLE
8
CIMEX_POINTS
10
30.770500
20
5.975000
40
0.1
0
CIRCLE
8
CIMEX_POINTS
10
5.975000
20
30.770500
40
0.1
0
CIRCLE
8
CIMEX_POINTS
10
30.770500
20
5.775000
40
0.1
0
CIRCLE
8
CIMEX_POINTS
10
5.775000
20
0.014000
40
0.1
0
CIRCLE
8
CIMEX_POINTS
10
32.950540
20
10.912500
40
0.1
0
CIRCLE
8
CIMEX_POINTS
10
10.912500
20
32.950540
40
0.1
0
CIRCLE
8
CIMEX_POINTS
10
32.950540
20
10.712500
40
0.1
0
CIRCLE
8
CIMEX_POINTS
10
10.712500
20
0.014000
40
0.1
0
CIRCLE
8
CIMEX_POINTS
10
30.015630
20
15.850000
40
0.1
0
CIRCLE
8
CIMEX_POINTS
10
15.850000
20
30.015630
40
0.1
0
CIRCLE
8
CIMEX_POINTS
10
30.015630
20
15.650000
40
0.1
0
CIRCLE
8
CIMEX_POINTS
10
15.650000
20
0.014000
40
0.1
0
CIRCLE
8
CIMEX_POINTS
10
2.854550
20
10.510170
40
0.1
0
CIRCLE
8
CIMEX_POINTS
10
10.510170
20
2.454540
40
0.1
0
CIRCLE
8
CIMEX_POINTS
10
2.454540
20
10.510170
40
0.1
0
CIRCLE
8
CIMEX_POINTS
10
10.510170
20
0.014000
40
0.1
0
CIRCLE
8
CIMEX_POINTS
10
1.454540
20
10.650970
40
0.1
0
CIRCLE
8
CIMEX_POINTS
10
10.650970
20
1.515340
40
0.1
0
CIRCLE
8
CIMEX_POINTS
10
1.515340
20
10.710170
40
0.1
0
CIRCLE
8
CIMEX_POINTS
10
10.710170
20
0.014000
40
0.1
0
CIRCLE
8
CIMEX_POINTS
10
1.587350
20
10.110170
40
0.1
0
CIRCLE
8
CIMEX_POINTS
10
10.110170
20
1.510550
40
0.1
0
CIRCLE
8
CIMEX_POINTS
10
1.510550
20
10.110170
40
0.1
0
CIRCLE
8
CIMEX_POINTS
10
10.110170
20
0.014000
40
0.1
0
CIRCLE
8
CIMEX_POINTS
10
1.254550
20
9.878170
40
0.1
0
CIRCLE
8
CIMEX_POINTS
10
9.878170
20
1.254550
40
0.1
0
CIRCLE
8
CIMEX_POINTS
10
1.254550
20
9.770970
40
0.1
0
CIRCLE
8
CIMEX_POINTS
10
9.770970
20
0.014000
40
0.1
0
CIRCLE
8
CIMEX_POINTS
10
1.654540
20
9.850970
40
0.1
0
CIRCLE
8
CIMEX_POINTS
10
9.850970
20
1.654540
40
0.1
0
ENDSEC
0
EOF