  0
SECTION
  2
HEADER
  9
$ACADVER
  1
AC1009
  0
ENDSEC
  0
SECTION
  2
BLOCKS
  0
ENDSEC
  0
SECTION
  2
ENTITIES
  0
LINE
  8
PUNCHES
 62
     2
 10
17.1139967136913680
 20
13.5925216540478060
 11
17.1139967136913680
 21
13.6706466540478060
  0
LINE
  8
PUNCHES
 62
     2
 10
17.1530592136913680
 20
13.6315841540478060
 11
17.0749342136913680
 21
13.6315841540478060
  0
CIRCLE
  8
PUNCHES
 62
     2
 10
17.1139967136913680
 20
13.6315841540478060
 40
0.0781250000000000
  0
CIRCLE
  8
PUNCHES
 62
    92
 10
17.1139967136913680
 20
13.6315841540478060
 40
0.0782500000000000
  0
LINE
  8
PUNCHES
 62
     2
 10
15.1569968336937680
 20
13.5925216451565060
 11
15.1569968336937680
 21
13.6706466451565060
  0
LINE
  8
PUNCHES
 62
     2
 10
15.1960593336937680
 20
13.6315841451565060
 11
15.1179343336937680
 21
13.6315841451565060
  0
CIRCLE
  8
PUNCHES
 62
     2
 10
15.1569968336937680
 20
13.6315841451565060
 40
0.0781250000000000
  0
CIRCLE
  8
PUNCHES
 62
    92
 10
15.1569968336937680
 20
13.6315841451565060
 40
0.0782500000000000
  0
LINE
  8
PUNCHES
 62
     2
 10
15.1569967447814770
 20
8.9355215118469484
 11
15.1569967447814770
 21
9.0136465118469484
  0
LINE
  8
PUNCHES
 62
     2
 10
15.1960592447814770
 20
8.9745840118469484
 11
15.1179342447814770
 21
8.9745840118469484
  0
CIRCLE
  8
PUNCHES
 62
     2
 10
15.1569967447814770
 20
8.9745840118469484
 40
0.0781250000000000
  0
CIRCLE
  8
PUNCHES
 62
    92
 10
15.1569967447814770
 20
8.9745840118469484
 40
0.0782500000000000
  0
LINE
  8
PUNCHES
 62
     2
 10
17.1139966247791480
 20
8.9355215207381544
 11
17.1139966247791480
 21
9.0136465207381544
  0
LINE
  8
PUNCHES
 62
     2
 10
17.1530591247791480
 20
8.9745840207381544
 11
17.0749341247791480
 21
8.9745840207381544
  0
CIRCLE
  8
PUNCHES
 62
     2
 10
17.1139966247791480
 20
8.9745840207381544
 40
0.0781250000000000
  0
CIRCLE
  8
PUNCHES
 62
    92
 10
17.1139966247791480
 20
8.9745840207381544
 40
0.0782500000000000
  0
POLYLINE
  8
BLUE
 62
     5
 66
     1
 10
0.0
 20
0.0
 70
     0
  0
VERTEX
  8
BLUE
 62
     5
 10
14.9359966247791360
 20
9.1766056780381522
 42
0.6390875382409835
  0
VERTEX
  8
BLUE
 62
     5
 10
15.0167079455340970
 20
9.1392507300482642
 42
-0.5283088257787810
  0
VERTEX
  8
BLUE
 62
     5
 10
15.3608058377550980
 20
9.0446821339460737
 42
0.3204056076115857
  0
VERTEX
  8
BLUE
 62
     5
 10
15.4071537610791300
 20
9.0115840207381535
  0
SEQEND
  8
BLUE
 62
     5
  0
LINE
  8
BLUE
 62
     5
 10
15.4071537610791300
 20
9.0115840207381535
 11
16.0412466247791340
 21
9.0115840207381535
  0
LINE
  8
BLUE
 62
     5
 10
16.2287466247791340
 20
9.0115840207381535
 11
16.8628394884791390
 21
9.0115840207381535
  0
POLYLINE
  8
BLUE
 62
     5
 66
     1
 10
0.0
 20
0.0
 70
     0
  0
VERTEX
  8
BLUE
 62
     5
 10
16.8628394884791390
 20
9.0115840207381535
 42
0.3204056076115792
  0
VERTEX
  8
BLUE
 62
     5
 10
16.9091874117594580
 20
9.0446821339462424
 42
-0.5283088257787784
  0
VERTEX
  8
BLUE
 62
     5
 10
17.2532853040240890
 20
9.1392507300931722
 42
0.6390875382410223
  0
VERTEX
  8
BLUE
 62
     5
 10
17.3339966247791390
 20
9.1766056780381522
  0
SEQEND
  8
BLUE
 62
     5
  0
LINE
  8
BLUE
 62
     5
 10
17.3339966247791390
 20
9.1766056780381522
 11
17.3339966247791390
 21
10.1460948494131550
  0
LINE
  8
BLUE
 62
     5
 10
17.3339966247791390
 20
10.3335948494131560
 11
17.3339966247791390
 21
12.2725731921631610
  0
LINE
  8
BLUE
 62
     5
 10
17.3339966247791390
 20
12.4600731921631630
 11
17.3339966247791390
 21
13.4295623635381660
  0
POLYLINE
  8
BLUE
 62
     5
 66
     1
 10
0.0
 20
0.0
 70
     0
  0
VERTEX
  8
BLUE
 62
     5
 10
17.3339966247791390
 20
13.4295623635381660
 42
0.6390875382410306
  0
VERTEX
  8
BLUE
 62
     5
 10
17.2532853040240890
 20
13.4669173114281260
 42
-0.4962162644833076
  0
VERTEX
  8
BLUE
 62
     5
 10
16.9173584361782400
 20
13.5411085490401570
 42
0.2925950786741592
  0
VERTEX
  8
BLUE
 62
     5
 10
16.8728641248791580
 20
13.5695840207381660
  0
SEQEND
  8
BLUE
 62
     5
  0
LINE
  8
BLUE
 62
     5
 10
16.8728641248791580
 20
13.5695840207381660
 11
16.2287466247791490
 21
13.5695840207381690
  0
LINE
  8
BLUE
 62
     5
 10
16.0412466247791490
 20
13.5695840207381730
 11
15.3971291246791400
 21
13.5695840207381760
  0
POLYLINE
  8
BLUE
 62
     5
 66
     1
 10
0.0
 20
0.0
 70
     0
  0
VERTEX
  8
BLUE
 62
     5
 10
15.3971291246791400
 20
13.5695840207381760
 42
0.2925950786741756
  0
VERTEX
  8
BLUE
 62
     5
 10
15.3526348133633380
 20
13.5411085490402170
 42
-0.4962162644833053
  0
VERTEX
  8
BLUE
 62
     5
 10
15.0167079455341690
 20
13.4669173114831370
 42
0.6390875382409919
  0
VERTEX
  8
BLUE
 62
     5
 10
14.9359966247791360
 20
13.4295623635381660
  0
SEQEND
  8
BLUE
 62
     5
  0
LINE
  8
BLUE
 62
     5
 10
14.9359966247791360
 20
13.4295623635381660
 11
14.9359966247791340
 21
12.4600731921631610
  0
LINE
  8
BLUE
 62
     5
 10
14.9359966247791360
 20
12.2725731921631630
 11
14.9359966247791360
 21
10.3335948494131560
  0
LINE
  8
BLUE
 62
     5
 10
14.9359966247791360
 20
10.1460948494131550
 11
14.9359966247791360
 21
9.1766056780381522
  0
POLYLINE
  8
BLUE
 62
     5
 66
     1
 10
0.0
 20
0.0
 70
     0
  0
VERTEX
  8
BLUE
 62
     5
 10
17.1638237182459290
 20
14.0175840207381470
  0
VERTEX
  8
BLUE
 62
     5
 10
17.2584966247791380
 20
14.0175840207381470
 42
-0.4142135623730951
  0
VERTEX
  8
BLUE
 62
     5
 10
17.4914966247791450
 20
13.7845840207381460
  0
SEQEND
  8
BLUE
 62
     5
  0
LINE
  8
BLUE
 62
     5
 10
17.4914966247791450
 20
13.7845840207381460
 11
17.4914966247791450
 21
12.6285840207381490
  0
LINE
  8
BLUE
 62
     5
 10
17.4914966247791450
 20
12.4410840207381470
 11
17.4914966247791450
 21
10.1290840207381510
  0
LINE
  8
BLUE
 62
     5
 10
17.4914966247791450
 20
9.9415840207381514
 11
17.4914966247791450
 21
8.7855840207381526
  0
LINE
  8
BLUE
 62
     5
 10
17.4914966247791450
 20
8.7855840207381526
 11
16.2287466247791490
 21
8.7855840207381526
  0
LINE
  8
BLUE
 62
     5
 10
16.0412466247791490
 20
8.7855840207381526
 11
14.7784966247791480
 21
8.7855840207381526
  0
LINE
  8
BLUE
 62
     5
 10
14.7784966247791480
 20
8.7855840207381526
 11
14.7784966247791480
 21
9.9415840207381514
  0
LINE
  8
BLUE
 62
     5
 10
14.7784966247791480
 20
10.1290840207381510
 11
14.7784966247791480
 21
12.4410840207381470
  0
LINE
  8
BLUE
 62
     5
 10
14.7784966247791480
 20
12.6285840207381490
 11
14.7784966247791480
 21
13.7845840207381460
  0
POLYLINE
  8
BLUE
 62
     5
 66
     1
 10
0.0
 20
0.0
 70
     0
  0
VERTEX
  8
BLUE
 62
     5
 10
14.7784966247791480
 20
13.7845840207381460
 42
-0.4142135623730951
  0
VERTEX
  8
BLUE
 62
     5
 10
15.0114966247791490
 20
14.0175840207381470
  0
VERTEX
  8
BLUE
 62
     5
 10
15.1071698506554880
 20
14.0175840207381470
  0
SEQEND
  8
BLUE
 62
     5
  0
LINE
  8
BLUE
 62
     5
 10
15.1071698436145000
 20
14.1175840207381460
 11
15.1071697245485270
 21
13.9340554570830370
  0
POLYLINE
  8
BLUE
 62
     5
 66
     1
 10
0.0
 20
0.0
 70
     0
  0
VERTEX
  8
BLUE
 62
     5
 10
15.2068233988014720
 20
13.9340554689380180
 42
-1.0000145783005576
  0
VERTEX
  8
BLUE
 62
     5
 10
15.1071697245485270
 20
13.9340554570830390
  0
SEQEND
  8
BLUE
 62
     5
  0
LINE
  8
BLUE
 62
     5
 10
15.2068233988014790
 20
13.9340554689380160
 11
15.2068233988015610
 21
14.1175840207381500
  0
LINE
  8
BLUE
 62
     5
 10
17.0641698293569350
 20
14.1175840207381460
 11
17.0641698293570380
 21
13.9340554689380160
  0
POLYLINE
  8
BLUE
 62
     5
 66
     1
 10
0.0
 20
0.0
 70
     0
  0
VERTEX
  8
BLUE
 62
     5
 10
17.1638237182459220
 20
13.9340554689380180
 42
-1.0000081246370005
  0
VERTEX
  8
BLUE
 62
     5
 10
17.0641698293570340
 20
13.9340554689380180
  0
SEQEND
  8
BLUE
 62
     5
  0
LINE
  8
BLUE
 62
     5
 10
17.1638237182459290
 20
13.9340554689380160
 11
17.1638237182458900
 21
14.1175840207381460
  0
LINE
  8
BLUE
 62
     5
 10
15.2068233988014790
 20
14.0175840207381470
 11
16.0417466140792580
 21
14.0175840207381470
  0
LINE
  8
BLUE
 62
     5
 10
16.2292466140792580
 20
14.0175840207381470
 11
17.0641698293570380
 21
14.0175840207381470
  0
POLYLINE
  8
BLUE
 62
     5
 66
     1
 10
0.0
 20
0.0
 70
     0
  0
VERTEX
  8
BLUE
 62
     5
 10
11.9654966247792520
 20
7.3950840207388726
 42
-0.0610117400591274
  0
VERTEX
  8
BLUE
 62
     5
 10
11.9401560890230660
 20
7.3981877143895733
  0
SEQEND
  8
BLUE
 62
     5
  0
POLYLINE
  8
BLUE
 62
     5
 66
     1
 10
0.0
 20
0.0
 70
     0
  0
VERTEX
  8
BLUE
 62
     5
 10
11.9259749275363620
 20
7.3623972789654406
 42
0.8781474994059142
  0
VERTEX
  8
BLUE
 62
     5
 10
11.8278098830062570
 20
7.4605623234955463
  0
SEQEND
  8
BLUE
 62
     5
  0
POLYLINE
  8
BLUE
 62
     5
 66
     1
 10
0.0
 20
0.0
 70
     0
  0
VERTEX
  8
BLUE
 62
     5
 10
11.8636003184303900
 20
7.4747434849822501
 42
-0.0610117400589989
  0
VERTEX
  8
BLUE
 62
     5
 10
11.8604966247796890
 20
7.5000840207384361
  0
SEQEND
  8
BLUE
 62
     5
  0
LINE
  8
BLUE
 62
     5
 10
11.8604966247796890
 20
7.5000840207384361
 11
11.8604966247796890
 21
8.2688340207377085
  0
LINE
  8
BLUE
 62
     5
 10
11.8604966247796890
 20
8.4563340207377085
 11
11.8604966247796890
 21
9.2250840207369809
  0
POLYLINE
  8
BLUE
 62
     5
 66
     1
 10
0.0
 20
0.0
 70
     0
  0
VERTEX
  8
BLUE
 62
     5
 10
11.7404966247788880
 20
9.2250840207351619
  0
VERTEX
  8
BLUE
 62
     5
 10
11.8704966247799070
 20
9.2250840207387999
 42
0.9999999999999999
  0
VERTEX
  8
BLUE
 62
     5
 10
11.8704966247799070
 20
9.3650840207382178
  0
VERTEX
  8
BLUE
 62
     5
 10
11.7404966247788880
 20
9.3650840207382178
  0
SEQEND
  8
BLUE
 62
     5
  0
LINE
  8
BLUE
 62
     5
 10
11.8604966247796890
 20
9.3650840207382178
 11
11.8604966247796890
 21
10.2013340207385090
  0
LINE
  8
BLUE
 62
     5
 10
11.8604966247796890
 20
10.3888340207385090
 11
11.8604966247796890
 21
11.2250840207388000
  0
POLYLINE
  8
BLUE
 62
     5
 66
     1
 10
0.0
 20
0.0
 70
     0
  0
VERTEX
  8
BLUE
 62
     5
 10
11.7404966247788880
 20
11.2250840207351620
  0
VERTEX
  8
BLUE
 62
     5
 10
11.8704966247799070
 20
11.2250840207388000
 42
0.9999999999999999
  0
VERTEX
  8
BLUE
 62
     5
 10
11.8704966247799070
 20
11.3650840207382180
  0
VERTEX
  8
BLUE
 62
     5
 10
11.7404966247788880
 20
11.3650840207382180
  0
SEQEND
  8
BLUE
 62
     5
  0
LINE
  8
BLUE
 62
     5
 10
11.8604966247796890
 20
11.3650840207382180
 11
11.8604966247796890
 21
12.2013340207375990
  0
LINE
  8
BLUE
 62
     5
 10
11.8604966247796890
 20
12.3888340207375990
 11
11.8604966247796890
 21
13.2250840207369810
  0
POLYLINE
  8
BLUE
 62
     5
 66
     1
 10
0.0
 20
0.0
 70
     0
  0
VERTEX
  8
BLUE
 62
     5
 10
11.7404966247788880
 20
13.2250840207351620
  0
VERTEX
  8
BLUE
 62
     5
 10
11.8704966247799070
 20
13.2250840207388000
 42
0.9999999999999999
  0
VERTEX
  8
BLUE
 62
     5
 10
11.8704966247799070
 20
13.3650840207382180
  0
VERTEX
  8
BLUE
 62
     5
 10
11.7404966247788880
 20
13.3650840207382180
  0
SEQEND
  8
BLUE
 62
     5
  0
LINE
  8
BLUE
 62
     5
 10
11.8604966247796890
 20
13.3650840207382180
 11
11.8604966247796890
 21
14.1338340207384000
  0
LINE
  8
BLUE
 62
     5
 10
11.8604966247796890
 20
14.3213340207384010
 11
11.8604966247796890
 21
15.0900840207385820
  0
POLYLINE
  8
BLUE
 62
     5
 66
     1
 10
0.0
 20
0.0
 70
     0
  0
VERTEX
  8
BLUE
 62
     5
 10
11.8604966247796890
 20
15.0900840207385820
 42
-0.0610117400589989
  0
VERTEX
  8
BLUE
 62
     5
 10
11.8636003184303900
 20
15.1154245564947680
  0
SEQEND
  8
BLUE
 62
     5
  0
POLYLINE
  8
BLUE
 62
     5
 66
     1
 10
0.0
 20
0.0
 70
     0
  0
VERTEX
  8
BLUE
 62
     5
 10
11.8278098830062570
 20
15.1296057179814710
 42
0.8781474994059142
  0
VERTEX
  8
BLUE
 62
     5
 10
11.9259749275363620
 20
15.2277707625115770
  0
SEQEND
  8
BLUE
 62
     5
  0
POLYLINE
  8
BLUE
 62
     5
 66
     1
 10
0.0
 20
0.0
 70
     0
  0
VERTEX
  8
BLUE
 62
     5
 10
11.9401560890230660
 20
15.1919803270874440
 42
-0.0610117400589989
  0
VERTEX
  8
BLUE
 62
     5
 10
11.9654966247792520
 20
15.1950840207381450
  0
SEQEND
  8
BLUE
 62
     5
  0
LINE
  8
BLUE
 62
     5
 10
11.9654966247792520
 20
15.1950840207381450
 11
12.8842466247790700
 21
15.1950840207381450
  0
LINE
  8
BLUE
 62
     5
 10
13.0717466247790700
 20
15.1950840207381450
 11
13.9904966247788880
 21
15.1950840207381450
  0
POLYLINE
  8
BLUE
 62
     5
 66
     1
 10
0.0
 20
0.0
 70
     0
  0
VERTEX
  8
BLUE
 62
     5
 10
13.9904966247752500
 20
15.3150840207389450
  0
VERTEX
  8
BLUE
 62
     5
 10
13.9904966247788880
 20
15.1850840207379270
 42
0.9999999999999999
  0
VERTEX
  8
BLUE
 62
     5
 10
14.1304966247783060
 20
15.1850840207379270
  0
VERTEX
  8
BLUE
 62
     5
 10
14.1304966247783060
 20
15.3150840207389450
  0
SEQEND
  8
BLUE
 62
     5
  0
LINE
  8
BLUE
 62
     5
 10
14.1304966247783060
 20
15.1950840207381450
 11
15.0042466247789650
 21
15.1950840207381430
  0
LINE
  8
BLUE
 62
     5
 10
15.1917466247789650
 20
15.1950840207381450
 11
16.0654966247796230
 21
15.1950840207381450
  0
POLYLINE
  8
BLUE
 62
     5
 66
     1
 10
0.0
 20
0.0
 70
     0
  0
VERTEX
  8
BLUE
 62
     5
 10
16.0654966247759850
 20
15.3150840207389450
  0
VERTEX
  8
BLUE
 62
     5
 10
16.0654966247796230
 20
15.1850840207379270
 42
0.9999999999999999
  0
VERTEX
  8
BLUE
 62
     5
 10
16.2054966247790340
 20
15.1850840207379270
  0
VERTEX
  8
BLUE
 62
     5
 10
16.2054966247790340
 20
15.3150840207389450
  0
SEQEND
  8
BLUE
 62
     5
  0
LINE
  8
BLUE
 62
     5
 10
16.2054966247790340
 20
15.1950840207381450
 11
17.0792466247787830
 21
15.1950840207381450
  0
LINE
  8
BLUE
 62
     5
 10
17.2667466247787790
 20
15.1950840207381430
 11
18.1404966247785280
 21
15.1950840207381450
  0
POLYLINE
  8
BLUE
 62
     5
 66
     1
 10
0.0
 20
0.0
 70
     0
  0
VERTEX
  8
BLUE
 62
     5
 10
18.1404966247767090
 20
15.3150840207389450
  0
VERTEX
  8
BLUE
 62
     5
 10
18.1404966247785280
 20
15.1850840207379270
 42
0.9999999999999999
  0
VERTEX
  8
BLUE
 62
     5
 10
18.2804966247797650
 20
15.1850840207379270
  0
VERTEX
  8
BLUE
 62
     5
 10
18.2804966247779460
 20
15.3150840207389450
  0
SEQEND
  8
BLUE
 62
     5
  0
LINE
  8
BLUE
 62
     5
 10
18.2804966247797650
 20
15.1950840207381450
 11
19.1992466247795830
 21
15.1950840207381450
  0
LINE
  8
BLUE
 62
     5
 10
19.3867466247795830
 20
15.1950840207381450
 11
20.3054966247794010
 21
15.1950840207381450
  0
POLYLINE
  8
BLUE
 62
     5
 66
     1
 10
0.0
 20
0.0
 70
     0
  0
VERTEX
  8
BLUE
 62
     5
 10
20.3054966247794010
 20
15.1950840207381450
 42
-0.0610117400589989
  0
VERTEX
  8
BLUE
 62
     5
 10
20.3308371605355870
 20
15.1919803270874440
  0
SEQEND
  8
BLUE
 62
     5
  0
POLYLINE
  8
BLUE
 62
     5
 66
     1
 10
0.0
 20
0.0
 70
     0
  0
VERTEX
  8
BLUE
 62
     5
 10
20.3450183220222910
 20
15.2277707625115770
 42
0.8781474994059142
  0
VERTEX
  8
BLUE
 62
     5
 10
20.4431833665523970
 20
15.1296057179814710
  0
SEQEND
  8
BLUE
 62
     5
  0
POLYLINE
  8
BLUE
 62
     5
 66
     1
 10
0.0
 20
0.0
 70
     0
  0
VERTEX
  8
BLUE
 62
     5
 10
20.4073929311282640
 20
15.1154245564947680
 42
-0.0610117400296951
  0
VERTEX
  8
BLUE
 62
     5
 10
20.4104966246789200
 20
15.0900840207385820
  0
SEQEND
  8
BLUE
 62
     5
  0
POLYLINE
  8
BLUE
 62
     5
 66
     1
 10
0.0
 20
0.0
 70
     0
  0
VERTEX
  8
BLUE
 62
     5
 10
20.4104966247789650
 20
7.5000840207384361
 42
-0.0610117400883027
  0
VERTEX
  8
BLUE
 62
     5
 10
20.4073929310282200
 20
7.4747434849822501
  0
SEQEND
  8
BLUE
 62
     5
  0
POLYLINE
  8
BLUE
 62
     5
 66
     1
 10
0.0
 20
0.0
 70
     0
  0
VERTEX
  8
BLUE
 62
     5
 10
20.4431833665523970
 20
7.4605623234955463
 42
0.8781474994059142
  0
VERTEX
  8
BLUE
 62
     5
 10
20.3450183220222910
 20
7.3623972789654406
  0
SEQEND
  8
BLUE
 62
     5
  0
POLYLINE
  8
BLUE
 62
     5
 66
     1
 10
0.0
 20
0.0
 70
     0
  0
VERTEX
  8
BLUE
 62
     5
 10
20.3308371605355870
 20
7.3981877143895733
 42
-0.0610117402980866
  0
VERTEX
  8
BLUE
 62
     5
 10
20.3054966246793570
 20
7.3950840207388726
  0
SEQEND
  8
BLUE
 62
     5
  0
LINE
  8
BLUE
 62
     5
 10
20.0117131477793680
 20
15.0313005437373110
 11
19.7311048862796380
 21
15.0313005437373090
  0
LINE
  8
BLUE
 62
     5
 10
19.6511048862796400
 20
15.0313005437373110
 11
19.3704966247799110
 21
15.0313005437373110
  0
POLYLINE
  8
BLUE
 62
     5
 66
     1
 10
0.0
 20
0.0
 70
     0
  0
VERTEX
  8
BLUE
 62
     5
 10
19.3704966247835490
 20
14.9113005437383300
  0
VERTEX
  8
BLUE
 62
     5
 10
19.3704966247799110
 20
15.0450840207385090
 42
0.9999999999999999
  0
VERTEX
  8
BLUE
 62
     5
 10
19.2404966247788920
 20
15.0450840207385090
  0
VERTEX
  8
BLUE
 62
     5
 10
19.2404966247788920
 20
14.9113005437383300
  0
SEQEND
  8
BLUE
 62
     5
  0
LINE
  8
BLUE
 62
     5
 10
19.2404966247788920
 20
15.0313005437373110
 11
18.3329966247795470
 21
15.0313005437373130
  0
LINE
  8
BLUE
 62
     5
 10
18.1454966247795470
 20
15.0313005437373130
 11
17.2379966247801980
 21
15.0313005437373110
  0
POLYLINE
  8
BLUE
 62
     5
 66
     1
 10
0.0
 20
0.0
 70
     0
  0
VERTEX
  8
BLUE
 62
     5
 10
17.2379966247838360
 20
14.9113005437383300
  0
VERTEX
  8
BLUE
 62
     5
 10
17.2379966247783790
 20
15.0450840207385090
 42
0.9999999999999999
  0
VERTEX
  8
BLUE
 62
     5
 10
17.1079966247791790
 20
15.0450840207385090
  0
VERTEX
  8
BLUE
 62
     5
 10
17.1079966247791790
 20
14.9113005437383300
  0
SEQEND
  8
BLUE
 62
     5
  0
LINE
  8
BLUE
 62
     5
 10
17.1079966247791790
 20
15.0313005437373110
 11
16.2292466247793210
 21
15.0313005437373110
  0
LINE
  8
BLUE
 62
     5
 10
16.0417466247793250
 20
15.0313005437373130
 11
15.1629966247794710
 21
15.0313005437373110
  0
POLYLINE
  8
BLUE
 62
     5
 66
     1
 10
0.0
 20
0.0
 70
     0
  0
VERTEX
  8
BLUE
 62
     5
 10
15.1629966247849270
 20
14.9113005437383300
  0
VERTEX
  8
BLUE
 62
     5
 10
15.1629966247794710
 20
15.0450840207385090
 42
0.9999999999999999
  0
VERTEX
  8
BLUE
 62
     5
 10
15.0329966247784520
 20
15.0450840207385090
  0
VERTEX
  8
BLUE
 62
     5
 10
15.0329966247784520
 20
14.9113005437383300
  0
SEQEND
  8
BLUE
 62
     5
  0
LINE
  8
BLUE
 62
     5
 10
15.0329966247784520
 20
15.0313005437373110
 11
14.1254966247791070
 21
15.0313005437373130
  0
LINE
  8
BLUE
 62
     5
 10
13.9379966247791070
 20
15.0313005437373130
 11
13.0304966247797620
 21
15.0313005437373110
  0
POLYLINE
  8
BLUE
 62
     5
 66
     1
 10
0.0
 20
0.0
 70
     0
  0
VERTEX
  8
BLUE
 62
     5
 10
13.0304966247834000
 20
14.9113005437383300
  0
VERTEX
  8
BLUE
 62
     5
 10
13.0304966247797620
 20
15.0450840207385090
 42
0.9999999999999999
  0
VERTEX
  8
BLUE
 62
     5
 10
12.9004966247787430
 20
15.0450840207385090
  0
VERTEX
  8
BLUE
 62
     5
 10
12.9004966247787430
 20
14.9113005437383300
  0
SEQEND
  8
BLUE
 62
     5
  0
LINE
  8
BLUE
 62
     5
 10
12.9004966247787430
 20
15.0313005437373110
 11
12.6198883632289910
 21
15.0313005437373130
  0
LINE
  8
BLUE
 62
     5
 10
12.5398883632289930
 20
15.0313005437373130
 11
12.2592801016792410
 21
15.0313005437373110
  0
POLYLINE
  8
BLUE
 62
     5
 66
     1
 10
0.0
 20
0.0
 70
     0
  0
VERTEX
  8
BLUE
 62
     5
 10
12.2592801016792410
 20
15.0313005437373110
 42
0.4142135623730884
  0
VERTEX
  8
BLUE
 62
     5
 10
12.0242801016786590
 20
14.7963005437385480
  0
VERTEX
  8
BLUE
 62
     5
 10
12.0242801016786590
 20
14.3050840207387270
  0
SEQEND
  8
BLUE
 62
     5
  0
POLYLINE
  8
BLUE
 62
     5
 66
     1
 10
0.0
 20
0.0
 70
     0
  0
VERTEX
  8
BLUE
 62
     5
 10
12.1442801016794600
 20
14.3050840207423650
  0
VERTEX
  8
BLUE
 62
     5
 10
12.0104966246792810
 20
14.3050840207387270
 42
0.9999999999999999
  0
VERTEX
  8
BLUE
 62
     5
 10
12.0104966246792810
 20
14.1750840207377080
  0
VERTEX
  8
BLUE
 62
     5
 10
12.1442801016794600
 20
14.1750840207377080
  0
SEQEND
  8
BLUE
 62
     5
  0
LINE
  8
BLUE
 62
     5
 10
12.0242801016786590
 20
14.1750840207377080
 11
12.0242801016786590
 21
13.3613340207383630
  0
LINE
  8
BLUE
 62
     5
 10
12.0242801016786590
 20
13.1738340207383630
 11
12.0242801016786590
 21
12.3600840207390180
  0
POLYLINE
  8
BLUE
 62
     5
 66
     1
 10
0.0
 20
0.0
 70
     0
  0
VERTEX
  8
BLUE
 62
     5
 10
12.1442801016794600
 20
12.3600840207426560
  0
VERTEX
  8
BLUE
 62
     5
 10
12.0104966246792810
 20
12.3600840207390180
 42
0.9999999999999999
  0
VERTEX
  8
BLUE
 62
     5
 10
12.0104966246792810
 20
12.2300840207379990
  0
VERTEX
  8
BLUE
 62
     5
 10
12.1442801016794600
 20
12.2300840207379990
  0
SEQEND
  8
BLUE
 62
     5
  0
LINE
  8
BLUE
 62
     5
 10
12.0242801016786590
 20
12.2300840207379990
 11
12.0242801016786590
 21
11.3888340207385090
  0
LINE
  8
BLUE
 62
     5
 10
12.0242801016786590
 20
11.2013340207385090
 11
12.0242801016786590
 21
10.3600840207390180
  0
POLYLINE
  8
BLUE
 62
     5
 66
     1
 10
0.0
 20
0.0
 70
     0
  0
VERTEX
  8
BLUE
 62
     5
 10
12.1442801016794600
 20
10.3600840207426560
  0
VERTEX
  8
BLUE
 62
     5
 10
12.0104966246792810
 20
10.3600840207390180
 42
0.9999999999999999
  0
VERTEX
  8
BLUE
 62
     5
 10
12.0104966246792810
 20
10.2300840207379990
  0
VERTEX
  8
BLUE
 62
     5
 10
12.1442801016794600
 20
10.2300840207379990
  0
SEQEND
  8
BLUE
 62
     5
  0
LINE
  8
BLUE
 62
     5
 10
12.0242801016786590
 20
10.2300840207379990
 11
12.0242801016786590
 21
9.4163340207386543
  0
LINE
  8
BLUE
 62
     5
 10
12.0242801016786590
 20
9.2288340207386543
 11
12.0242801016786590
 21
8.4150840207393092
  0
POLYLINE
  8
BLUE
 62
     5
 66
     1
 10
0.0
 20
0.0
 70
     0
  0
VERTEX
  8
BLUE
 62
     5
 10
12.1442801016794600
 20
8.4150840207429471
  0
VERTEX
  8
BLUE
 62
     5
 10
12.0104966246792810
 20
8.4150840207374902
 42
0.9999999999999999
  0
VERTEX
  8
BLUE
 62
     5
 10
12.0104966246792810
 20
8.2850840207382905
  0
VERTEX
  8
BLUE
 62
     5
 10
12.1442801016794600
 20
8.2850840207382905
  0
SEQEND
  8
BLUE
 62
     5
  0
POLYLINE
  8
BLUE
 62
     5
 66
     1
 10
0.0
 20
0.0
 70
     0
  0
VERTEX
  8
BLUE
 62
     5
 10
12.0242801016786590
 20
8.2850840207382905
  0
VERTEX
  8
BLUE
 62
     5
 10
12.0242801016786590
 20
7.7938674976384252
 42
0.4142135623730951
  0
VERTEX
  8
BLUE
 62
     5
 10
12.2592801016792410
 20
7.5588674976378432
  0
SEQEND
  8
BLUE
 62
     5
  0
LINE
  8
BLUE
 62
     5
 10
20.4104966246789200
 20
7.5000840207384361
 11
20.4104966246789200
 21
8.2688340207377085
  0
LINE
  8
BLUE
 62
     5
 10
20.4104966246789200
 20
8.4563340207377085
 11
20.4104966246789200
 21
9.2250840207369809
  0
POLYLINE
  8
BLUE
 62
     5
 66
     1
 10
0.0
 20
0.0
 70
     0
  0
VERTEX
  8
BLUE
 62
     5
 10
20.5304966246797210
 20
9.2250840207351619
  0
VERTEX
  8
BLUE
 62
     5
 10
20.4004966246787020
 20
9.2250840207387999
 42
-0.9999999999999999
  0
VERTEX
  8
BLUE
 62
     5
 10
20.4004966246787020
 20
9.3650840207382178
  0
VERTEX
  8
BLUE
 62
     5
 10
20.5304966246797210
 20
9.3650840207382178
  0
SEQEND
  8
BLUE
 62
     5
  0
LINE
  8
BLUE
 62
     5
 10
20.4104966246789200
 20
9.3650840207382178
 11
20.4104966246789200
 21
10.2013340207385090
  0
LINE
  8
BLUE
 62
     5
 10
20.4104966246789200
 20
10.3888340207385090
 11
20.4104966246789200
 21
11.2250840207388000
  0
POLYLINE
  8
BLUE
 62
     5
 66
     1
 10
0.0
 20
0.0
 70
     0
  0
VERTEX
  8
BLUE
 62
     5
 10
20.5304966246797210
 20
11.2250840207351620
  0
VERTEX
  8
BLUE
 62
     5
 10
20.4004966246787020
 20
11.2250840207388000
 42
-0.9999999999999999
  0
VERTEX
  8
BLUE
 62
     5
 10
20.4004966246787020
 20
11.3650840207382180
  0
VERTEX
  8
BLUE
 62
     5
 10
20.5304966246797210
 20
11.3650840207382180
  0
SEQEND
  8
BLUE
 62
     5
  0
LINE
  8
BLUE
 62
     5
 10
20.4104966246789200
 20
11.3650840207382180
 11
20.4104966246789200
 21
12.2013340207375990
  0
LINE
  8
BLUE
 62
     5
 10
20.4104966246789200
 20
12.3888340207375990
 11
20.4104966246789200
 21
13.2250840207369810
  0
POLYLINE
  8
BLUE
 62
     5
 66
     1
 10
0.0
 20
0.0
 70
     0
  0
VERTEX
  8
BLUE
 62
     5
 10
20.5304966246797210
 20
13.2250840207351620
  0
VERTEX
  8
BLUE
 62
     5
 10
20.4004966246787020
 20
13.2250840207388000
 42
-0.9999999999999999
  0
VERTEX
  8
BLUE
 62
     5
 10
20.4004966246787020
 20
13.3650840207382180
  0
VERTEX
  8
BLUE
 62
     5
 10
20.5304966246797210
 20
13.3650840207382180
  0
SEQEND
  8
BLUE
 62
     5
  0
LINE
  8
BLUE
 62
     5
 10
20.4104966246789200
 20
13.3650840207382180
 11
20.4104966246789200
 21
14.1338340207384000
  0
LINE
  8
BLUE
 62
     5
 10
20.4104966246789200
 20
14.3213340207384010
 11
20.4104966246789200
 21
15.0900840207385820
  0
POLYLINE
  8
BLUE
 62
     5
 66
     1
 10
0.0
 20
0.0
 70
     0
  0
VERTEX
  8
BLUE
 62
     5
 10
20.0117131477793680
 20
15.0313005437373110
 42
-0.4142135623730884
  0
VERTEX
  8
BLUE
 62
     5
 10
20.2467131477799500
 20
14.7963005437385480
  0
VERTEX
  8
BLUE
 62
     5
 10
20.2467131477799500
 20
14.3050840207387270
  0
SEQEND
  8
BLUE
 62
     5
  0
POLYLINE
  8
BLUE
 62
     5
 66
     1
 10
0.0
 20
0.0
 70
     0
  0
VERTEX
  8
BLUE
 62
     5
 10
20.1267131477791490
 20
14.3050840207423650
  0
VERTEX
  8
BLUE
 62
     5
 10
20.2604966247793290
 20
14.3050840207387270
 42
-0.9999999999999999
  0
VERTEX
  8
BLUE
 62
     5
 10
20.2604966247793290
 20
14.1750840207377080
  0
VERTEX
  8
BLUE
 62
     5
 10
20.1267131477791490
 20
14.1750840207377080
  0
SEQEND
  8
BLUE
 62
     5
  0
LINE
  8
BLUE
 62
     5
 10
20.2467131477799500
 20
14.1750840207377080
 11
20.2467131477799500
 21
13.3613340207383630
  0
LINE
  8
BLUE
 62
     5
 10
20.2467131477799500
 20
13.1738340207383630
 11
20.2467131477799500
 21
12.3600840207390180
  0
POLYLINE
  8
BLUE
 62
     5
 66
     1
 10
0.0
 20
0.0
 70
     0
  0
VERTEX
  8
BLUE
 62
     5
 10
20.1267131477791490
 20
12.3600840207426560
  0
VERTEX
  8
BLUE
 62
     5
 10
20.2604966247793290
 20
12.3600840207390180
 42
-0.9999999999999999
  0
VERTEX
  8
BLUE
 62
     5
 10
20.2604966247793290
 20
12.2300840207379990
  0
VERTEX
  8
BLUE
 62
     5
 10
20.1267131477791490
 20
12.2300840207379990
  0
SEQEND
  8
BLUE
 62
     5
  0
LINE
  8
BLUE
 62
     5
 10
20.2467131477799500
 20
12.2300840207379990
 11
20.2467131477799500
 21
11.3888340207385090
  0
LINE
  8
BLUE
 62
     5
 10
20.2467131477799500
 20
11.2013340207385090
 11
20.2467131477799500
 21
10.3600840207390180
  0
POLYLINE
  8
BLUE
 62
     5
 66
     1
 10
0.0
 20
0.0
 70
     0
  0
VERTEX
  8
BLUE
 62
     5
 10
20.1267131477791490
 20
10.3600840207426560
  0
VERTEX
  8
BLUE
 62
     5
 10
20.2604966247793290
 20
10.3600840207390180
 42
-0.9999999999999999
  0
VERTEX
  8
BLUE
 62
     5
 10
20.2604966247793290
 20
10.2300840207379990
  0
VERTEX
  8
BLUE
 62
     5
 10
20.1267131477791490
 20
10.2300840207379990
  0
SEQEND
  8
BLUE
 62
     5
  0
LINE
  8
BLUE
 62
     5
 10
20.2467131477799500
 20
10.2300840207379990
 11
20.2467131477799500
 21
9.4163340207386543
  0
LINE
  8
BLUE
 62
     5
 10
20.2467131477799500
 20
9.2288340207386543
 11
20.2467131477799500
 21
8.4150840207393092
  0
POLYLINE
  8
BLUE
 62
     5
 66
     1
 10
0.0
 20
0.0
 70
     0
  0
VERTEX
  8
BLUE
 62
     5
 10
20.1267131477791490
 20
8.4150840207429471
  0
VERTEX
  8
BLUE
 62
     5
 10
20.2604966247793290
 20
8.4150840207374902
 42
-0.9999999999999999
  0
VERTEX
  8
BLUE
 62
     5
 10
20.2604966247793290
 20
8.2850840207382905
  0
VERTEX
  8
BLUE
 62
     5
 10
20.1267131477791490
 20
8.2850840207382905
  0
SEQEND
  8
BLUE
 62
     5
  0
POLYLINE
  8
BLUE
 62
     5
 66
     1
 10
0.0
 20
0.0
 70
     0
  0
VERTEX
  8
BLUE
 62
     5
 10
20.2467131477799500
 20
8.2850840207382905
  0
VERTEX
  8
BLUE
 62
     5
 10
20.2467131477799500
 20
7.7938674976384252
 42
-0.4142135623730951
  0
VERTEX
  8
BLUE
 62
     5
 10
20.0117131477793680
 20
7.5588674976378432
  0
SEQEND
  8
BLUE
 62
     5
  0
LINE
  8
BLUE
 62
     5
 10
11.9654966247792520
 20
7.3950840207388726
 11
12.8842466247790700
 21
7.3950840207388726
  0
LINE
  8
BLUE
 62
     5
 10
13.0717466247790700
 20
7.3950840207388726
 11
13.9904966247788880
 21
7.3950840207388726
  0
POLYLINE
  8
BLUE
 62
     5
 66
     1
 10
0.0
 20
0.0
 70
     0
  0
VERTEX
  8
BLUE
 62
     5
 10
13.9904966247752500
 20
7.2750840207380723
  0
VERTEX
  8
BLUE
 62
     5
 10
13.9904966247788880
 20
7.4050840207372719
 42
-0.9999999999999999
  0
VERTEX
  8
BLUE
 62
     5
 10
14.1304966247783060
 20
7.4050840207372719
  0
VERTEX
  8
BLUE
 62
     5
 10
14.1304966247783060
 20
7.2750840207380723
  0
SEQEND
  8
BLUE
 62
     5
  0
LINE
  8
BLUE
 62
     5
 10
14.1304966247783060
 20
7.3950840207388726
 11
15.0042466247789650
 21
7.3950840207388726
  0
LINE
  8
BLUE
 62
     5
 10
15.1917466247789650
 20
7.3950840207388726
 11
16.0654966247796230
 21
7.3950840207388726
  0
POLYLINE
  8
BLUE
 62
     5
 66
     1
 10
0.0
 20
0.0
 70
     0
  0
VERTEX
  8
BLUE
 62
     5
 10
16.0654966247759850
 20
7.2750840207380723
  0
VERTEX
  8
BLUE
 62
     5
 10
16.0654966247796230
 20
7.4050840207372719
 42
-0.9999999999999999
  0
VERTEX
  8
BLUE
 62
     5
 10
16.2054966247790340
 20
7.4050840207372719
  0
VERTEX
  8
BLUE
 62
     5
 10
16.2054966247790340
 20
7.2750840207380723
  0
SEQEND
  8
BLUE
 62
     5
  0
LINE
  8
BLUE
 62
     5
 10
16.2054966247790340
 20
7.3950840207388726
 11
17.0792466247787830
 21
7.3950840207388726
  0
LINE
  8
BLUE
 62
     5
 10
17.2667466247787790
 20
7.3950840207388726
 11
18.1404966247785280
 21
7.3950840207388726
  0
POLYLINE
  8
BLUE
 62
     5
 66
     1
 10
0.0
 20
0.0
 70
     0
  0
VERTEX
  8
BLUE
 62
     5
 10
18.1404966247767090
 20
7.2750840207380723
  0
VERTEX
  8
BLUE
 62
     5
 10
18.1404966247785280
 20
7.4050840207372719
 42
-0.9999999999999999
  0
VERTEX
  8
BLUE
 62
     5
 10
18.2804966247797650
 20
7.4050840207372719
  0
VERTEX
  8
BLUE
 62
     5
 10
18.2804966247779460
 20
7.2750840207380723
  0
SEQEND
  8
BLUE
 62
     5
  0
LINE
  8
BLUE
 62
     5
 10
18.2804966247797650
 20
7.3950840207388726
 11
19.1992466247795830
 21
7.3950840207388726
  0
LINE
  8
BLUE
 62
     5
 10
19.3867466247795830
 20
7.3950840207388726
 11
20.3054966247794010
 21
7.3950840207388726
  0
LINE
  8
BLUE
 62
     5
 10
20.0117131477793680
 20
7.5588674977378876
 11
19.7311048862796380
 21
7.5588674977378867
  0
LINE
  8
BLUE
 62
     5
 10
19.6511048862796400
 20
7.5588674977378876
 11
19.3704966247799110
 21
7.5588674977378876
  0
POLYLINE
  8
BLUE
 62
     5
 66
     1
 10
0.0
 20
0.0
 70
     0
  0
VERTEX
  8
BLUE
 62
     5
 10
19.3704966247835490
 20
7.6788674977386879
  0
VERTEX
  8
BLUE
 62
     5
 10
19.3704966247799110
 20
7.5450840207385088
 42
-0.9999999999999999
  0
VERTEX
  8
BLUE
 62
     5
 10
19.2404966247788920
 20
7.5450840207385088
  0
VERTEX
  8
BLUE
 62
     5
 10
19.2404966247788920
 20
7.6788674977386879
  0
SEQEND
  8
BLUE
 62
     5
  0
LINE
  8
BLUE
 62
     5
 10
19.2404966247788920
 20
7.5588674977378876
 11
18.3329966247795470
 21
7.5588674977378876
  0
LINE
  8
BLUE
 62
     5
 10
18.1454966247795470
 20
7.5588674977378876
 11
17.2379966247801980
 21
7.5588674977378876
  0
POLYLINE
  8
BLUE
 62
     5
 66
     1
 10
0.0
 20
0.0
 70
     0
  0
VERTEX
  8
BLUE
 62
     5
 10
17.2379966247838360
 20
7.6788674977386879
  0
VERTEX
  8
BLUE
 62
     5
 10
17.2379966247783790
 20
7.5450840207385088
 42
-0.9999999999999999
  0
VERTEX
  8
BLUE
 62
     5
 10
17.1079966247791790
 20
7.5450840207385088
  0
VERTEX
  8
BLUE
 62
     5
 10
17.1079966247791790
 20
7.6788674977386879
  0
SEQEND
  8
BLUE
 62
     5
  0
LINE
  8
BLUE
 62
     5
 10
17.1079966247791790
 20
7.5588674977378876
 11
16.2292466247793210
 21
7.5588674977378876
  0
LINE
  8
BLUE
 62
     5
 10
16.0417466247793250
 20
7.5588674977378876
 11
15.1629966247794710
 21
7.5588674977378876
  0
POLYLINE
  8
BLUE
 62
     5
 66
     1
 10
0.0
 20
0.0
 70
     0
  0
VERTEX
  8
BLUE
 62
     5
 10
15.1629966247849270
 20
7.6788674977386879
  0
VERTEX
  8
BLUE
 62
     5
 10
15.1629966247794710
 20
7.5450840207385088
 42
-0.9999999999999999
  0
VERTEX
  8
BLUE
 62
     5
 10
15.0329966247784520
 20
7.5450840207385088
  0
VERTEX
  8
BLUE
 62
     5
 10
15.0329966247784520
 20
7.6788674977386879
  0
SEQEND
  8
BLUE
 62
     5
  0
LINE
  8
BLUE
 62
     5
 10
15.0329966247784520
 20
7.5588674977378876
 11
14.1254966247791070
 21
7.5588674977378876
  0
LINE
  8
BLUE
 62
     5
 10
13.9379966247791070
 20
7.5588674977378876
 11
13.0304966247797620
 21
7.5588674977378876
  0
POLYLINE
  8
BLUE
 62
     5
 66
     1
 10
0.0
 20
0.0
 70
     0
  0
VERTEX
  8
BLUE
 62
     5
 10
13.0304966247834000
 20
7.6788674977386879
  0
VERTEX
  8
BLUE
 62
     5
 10
13.0304966247797620
 20
7.5450840207385088
 42
-0.9999999999999999
  0
VERTEX
  8
BLUE
 62
     5
 10
12.9004966247787430
 20
7.5450840207385088
  0
VERTEX
  8
BLUE
 62
     5
 10
12.9004966247787430
 20
7.6788674977386879
  0
SEQEND
  8
BLUE
 62
     5
  0
LINE
  8
BLUE
 62
     5
 10
12.9004966247787430
 20
7.5588674977378876
 11
12.6198883632289910
 21
7.5588674977378876
  0
LINE
  8
BLUE
 62
     5
 10
12.5398883632289930
 20
7.5588674977378876
 11
12.2592801016792410
 21
7.5588674977378876
  0
LINE
  8
NAME
 62
    94
 10
12.1151541067583570
 20
16.2579150159694060
 11
12.0651473335261720
 21
16.2579150159694060
  0
POLYLINE
  8
NAME
 62
    94
 66
     1
 10
0.0
 20
0.0
 70
     0
  0
VERTEX
  8
NAME
 62
    94
 10
12.0901507201422670
 20
16.2579150159694060
  0
VERTEX
  8
NAME
 62
    94
 10
12.0901507201422670
 20
16.4454150159694060
  0
VERTEX
  8
NAME
 62
    94
 10
12.0526507201422660
 20
16.4079150159694010
  0
SEQEND
  8
NAME
 62
    94
  0
POLYLINE
  8
NAME
 62
    94
 66
     1
 10
0.0
 20
0.0
 70
     0
  0
VERTEX
  8
NAME
 62
    94
 10
12.3147951254524810
 20
16.2579150159694060
  0
VERTEX
  8
NAME
 62
    94
 10
12.3147951254524810
 20
16.4454150159694060
  0
VERTEX
  8
NAME
 62
    94
 10
12.2272985120685720
 20
16.3329150159694020
  0
VERTEX
  8
NAME
 62
    94
 10
12.3522951254524780
 20
16.3329150159694020
  0
SEQEND
  8
NAME
 62
    94
  0
POLYLINE
  8
NAME
 62
    94
 66
     1
 10
0.0
 20
0.0
 70
     0
  0
VERTEX
  8
NAME
 62
    94
 10
12.4019463039948800
 20
16.4454150159694060
  0
VERTEX
  8
NAME
 62
    94
 10
12.5269429173787860
 20
16.4454150159694060
  0
VERTEX
  8
NAME
 62
    94
 10
12.4019463039948800
 20
16.2579150159694060
  0
SEQEND
  8
NAME
 62
    94
  0
POLYLINE
  8
NAME
 62
    94
 66
     1
 10
0.0
 20
0.0
 70
     0
  0
VERTEX
  8
NAME
 62
    94
 10
12.5765940959211870
 20
16.2954150159694040
  0
VERTEX
  8
NAME
 62
    94
 10
12.5771732072731270
 20
16.2943888712931650
 42
0.2726144184464477
  0
VERTEX
  8
NAME
 62
    94
 10
12.6390974825372810
 20
16.2579150159694060
 42
0.4141659576126406
  0
VERTEX
  8
NAME
 62
    94
 10
12.7015907093050940
 20
16.3204184025854990
  0
VERTEX
  8
NAME
 62
    94
 10
12.7015907093050940
 20
16.3829116293533130
 42
0.4141659576126406
  0
VERTEX
  8
NAME
 62
    94
 10
12.6390974825372810
 20
16.4454150159694060
 42
0.4142135623730950
  0
VERTEX
  8
NAME
 62
    94
 10
12.5765940959211870
 20
16.3829116293533130
 42
0.4141659576126406
  0
VERTEX
  8
NAME
 62
    94
 10
12.6390974825372810
 20
16.3204184025854990
  0
VERTEX
  8
NAME
 62
    94
 10
12.6402658650894340
 20
16.3204082427372190
 42
0.2726544751729640
  0
VERTEX
  8
NAME
 62
    94
 10
12.7015907093050940
 20
16.3579184025854970
  0
SEQEND
  8
NAME
 62
    94
  0
POLYLINE
  8
NAME
 62
    94
 66
     1
 10
0.0
 20
0.0
 70
     0
  0
VERTEX
  8
NAME
 62
    94
 10
12.7512520476957750
 20
16.4079150159694010
 42
-0.2726544751729642
  0
VERTEX
  8
NAME
 62
    94
 10
12.8125768919114350
 20
16.4454251758176860
  0
VERTEX
  8
NAME
 62
    94
 10
12.8137452744635890
 20
16.4454150159694060
 42
-0.4142135623730950
  0
VERTEX
  8
NAME
 62
    94
 10
12.8762486610796820
 20
16.3829116293533130
 42
-0.2357463286950689
  0
VERTEX
  8
NAME
 62
    94
 10
12.8513062335532670
 20
16.3329556553625220
  0
VERTEX
  8
NAME
 62
    94
 10
12.7762452744635910
 20
16.2954150159694040
 42
0.3031173169420362
  0
VERTEX
  8
NAME
 62
    94
 10
12.7512418878474950
 20
16.2579150159694060
  0
VERTEX
  8
NAME
 62
    94
 10
12.8762486610796820
 20
16.2579150159694060
  0
SEQEND
  8
NAME
 62
    94
  0
POLYLINE
  8
NAME
 62
    94
 66
     1
 10
0.0
 20
0.0
 70
     0
  0
VERTEX
  8
NAME
 62
    94
 10
12.9258896797738030
 20
16.3329150159694020
 42
-0.3497855115661178
  0
VERTEX
  8
NAME
 62
    94
 10
12.9882305088174220
 20
16.3829014695050330
 42
-0.4151201337904017
  0
VERTEX
  8
NAME
 62
    94
 10
13.0508862931577100
 20
16.3204184025854990
 42
-0.4141659576126406
  0
VERTEX
  8
NAME
 62
    94
 10
12.9883930663898970
 20
16.2579150159694060
 42
-0.4142135623730950
  0
VERTEX
  8
NAME
 62
    94
 10
12.9258896797738030
 20
16.3204184025854990
  0
VERTEX
  8
NAME
 62
    94
 10
12.9258896797738030
 20
16.3829116293533130
 42
-0.4142135623730950
  0
VERTEX
  8
NAME
 62
    94
 10
12.9883930663898970
 20
16.4454150159694060
 42
-0.2725758813349730
  0
VERTEX
  8
NAME
 62
    94
 10
13.0503071818057710
 20
16.4089411606456470
  0
VERTEX
  8
NAME
 62
    94
 10
13.0508862931577100
 20
16.4079150159694010
  0
SEQEND
  8
NAME
 62
    94
  0
POLYLINE
  8
NAME
 62
    94
 66
     1
 10
0.0
 20
0.0
 70
     0
  0
VERTEX
  8
NAME
 62
    94
 10
14.0322509758614680
 20
16.6754832978899830
  0
VERTEX
  8
NAME
 62
    94
 10
14.1072509758614630
 20
16.6754832978899830
 42
0.4142135623730948
  0
VERTEX
  8
NAME
 62
    94
 10
14.1822509758614630
 20
16.7504832978899860
  0
VERTEX
  8
NAME
 62
    94
 10
14.1822509758614630
 20
16.7879832978899800
 42
0.4142135623730949
  0
VERTEX
  8
NAME
 62
    94
 10
14.1072509758614630
 20
16.8629832978899830
  0
VERTEX
  8
NAME
 62
    94
 10
14.0322509758614680
 20
16.8629832978899830
  0
VERTEX
  8
NAME
 62
    94
 10
14.0322509758614680
 20
16.6754832978899830
  0
SEQEND
  8
NAME
 62
    94
  0
LINE
  8
NAME
 62
    94
 10
14.2322983884867700
 20
16.6754832978899830
 11
14.3323017751028580
 21
16.6754832978899830
  0
LINE
  8
NAME
 62
    94
 10
14.2822950018706740
 20
16.6754832978899830
 11
14.2822950018706740
 21
16.8629832978899830
  0
LINE
  8
NAME
 62
    94
 10
14.2322983884867700
 20
16.8629832978899830
 11
14.3323017751028580
 21
16.8629832978899830
  0
POLYLINE
  8
NAME
 62
    94
 66
     1
 10
0.0
 20
0.0
 70
     0
  0
VERTEX
  8
NAME
 62
    94
 10
14.5823458011120710
 20
16.6754832978899830
  0
VERTEX
  8
NAME
 62
    94
 10
14.4323458011120720
 20
16.6754832978899830
  0
VERTEX
  8
NAME
 62
    94
 10
14.4323458011120720
 20
16.8629832978899830
  0
VERTEX
  8
NAME
 62
    94
 10
14.5823458011120710
 20
16.8629832978899830
  0
SEQEND
  8
NAME
 62
    94
  0
LINE
  8
NAME
 62
    94
 10
14.5448458011120770
 20
16.7754866845060770
 11
14.4323458011120720
 21
16.7754866845060770
  0
LINE
  8
NAME
 62
    94
 10
14.8324406263626840
 20
16.7754866845060770
 11
14.9324440129787790
 21
16.7754866845060770
  0
LINE
  8
NAME
 62
    94
 10
14.9074406263626800
 20
16.8004799112738970
 11
14.9074406263626800
 21
16.7004866845060820
  0
LINE
  8
NAME
 62
    94
 10
14.9324440129787790
 20
16.7254799112738940
 11
14.8324406263626840
 21
16.7254799112738940
  0
LINE
  8
NAME
 62
    94
 10
14.8574440129787760
 20
16.7004866845060820
 11
14.8574440129787760
 21
16.8004799112738970
  0
LINE
  8
NAME
 62
    94
 10
15.0070884182889890
 20
16.8629832978899830
 11
15.1570884182889910
 21
16.8629832978899830
  0
LINE
  8
NAME
 62
    94
 10
15.0820884182889920
 20
16.8629832978899830
 11
15.0820884182889920
 21
16.6754832978899830
  0
POLYLINE
  8
NAME
 62
    94
 66
     1
 10
0.0
 20
0.0
 70
     0
  0
VERTEX
  8
NAME
 62
    94
 10
15.2071358309142980
 20
16.8629832978899830
  0
VERTEX
  8
NAME
 62
    94
 10
15.3321324442982050
 20
16.8629832978899830
  0
VERTEX
  8
NAME
 62
    94
 10
15.2071358309142980
 20
16.6754832978899830
  0
SEQEND
  8
NAME
 62
    94
  0
POLYLINE
  8
NAME
 62
    94
 66
     1
 10
0.0
 20
0.0
 70
     0
  0
VERTEX
  8
NAME
 62
    94
 10
15.3817836228406030
 20
16.7129832978899840
  0
VERTEX
  8
NAME
 62
    94
 10
15.3823627341925420
 20
16.7119571532137460
 42
0.2726144184464477
  0
VERTEX
  8
NAME
 62
    94
 10
15.4442870094566960
 20
16.6754832978899830
 42
0.4141659576126406
  0
VERTEX
  8
NAME
 62
    94
 10
15.5067802362245090
 20
16.7379866845060830
 42
0.4141183544531992
  0
VERTEX
  8
NAME
 62
    94
 10
15.4442870094566960
 20
16.8004799112738970
  0
VERTEX
  8
NAME
 62
    94
 10
15.5067802362245090
 20
16.8629832978899830
  0
VERTEX
  8
NAME
 62
    94
 10
15.3817836228406030
 20
16.8629832978899830
  0
SEQEND
  8
NAME
 62
    94
  0
POLYLINE
  8
NAME
 62
    94
 66
     1
 10
0.0
 20
0.0
 70
     0
  0
VERTEX
  8
NAME
 62
    94
 10
15.5939314147669080
 20
16.7754866845060770
 42
0.4142135623730948
  0
VERTEX
  8
NAME
 62
    94
 10
15.5564314147669140
 20
16.7379866845060830
 42
0.4142135623730950
  0
VERTEX
  8
NAME
 62
    94
 10
15.6189348013830070
 20
16.6754832978899830
 42
0.4141659576126406
  0
VERTEX
  8
NAME
 62
    94
 10
15.6814280281508210
 20
16.7379866845060830
 42
0.4142135623730947
  0
VERTEX
  8
NAME
 62
    94
 10
15.6439280281508160
 20
16.7754866845060770
  0
VERTEX
  8
NAME
 62
    94
 10
15.5939314147669080
 20
16.7754866845060770
 42
-0.4141342219961467
  0
VERTEX
  8
NAME
 62
    94
 10
15.5564314147669140
 20
16.8129765246577990
 42
-0.4142730887184284
  0
VERTEX
  8
NAME
 62
    94
 10
15.6064280281508110
 20
16.8629832978899830
  0
VERTEX
  8
NAME
 62
    94
 10
15.6314314147669100
 20
16.8629832978899830
 42
-0.4142730887184284
  0
VERTEX
  8
NAME
 62
    94
 10
15.6814280281508210
 20
16.8129765246577990
 42
-0.4141342219961467
  0
VERTEX
  8
NAME
 62
    94
 10
15.6439280281508160
 20
16.7754866845060770
  0
SEQEND
  8
NAME
 62
    94
  0
POLYLINE
  8
NAME
 62
    94
 66
     1
 10
0.0
 20
0.0
 70
     0
  0
VERTEX
  8
NAME
 62
    94
 10
15.7685792066932200
 20
16.7754866845060770
 42
0.4142135623730948
  0
VERTEX
  8
NAME
 62
    94
 10
15.7310792066932180
 20
16.7379866845060830
 42
0.4142135623730950
  0
VERTEX
  8
NAME
 62
    94
 10
15.7935825933093120
 20
16.6754832978899830
 42
0.4141659576126406
  0
VERTEX
  8
NAME
 62
    94
 10
15.8560758200771250
 20
16.7379866845060830
 42
0.4142135623730947
  0
VERTEX
  8
NAME
 62
    94
 10
15.8185758200771240
 20
16.7754866845060770
  0
VERTEX
  8
NAME
 62
    94
 10
15.7685792066932200
 20
16.7754866845060770
 42
-0.4141342219961467
  0
VERTEX
  8
NAME
 62
    94
 10
15.7310792066932180
 20
16.8129765246577990
 42
-0.4142730887184284
  0
VERTEX
  8
NAME
 62
    94
 10
15.7810758200771220
 20
16.8629832978899830
  0
VERTEX
  8
NAME
 62
    94
 10
15.8060792066932140
 20
16.8629832978899830
 42
-0.4142730887184284
  0
VERTEX
  8
NAME
 62
    94
 10
15.8560758200771250
 20
16.8129765246577990
 42
-0.4141342219961467
  0
VERTEX
  8
NAME
 62
    94
 10
15.8185758200771240
 20
16.7754866845060770
  0
SEQEND
  8
NAME
 62
    94
  0
LINE
  8
NAME
 62
    94
 10
15.9057269986195300
 20
16.7379866845060830
 11
15.9807269986195260
 21
16.7379866845060830
  0
POLYLINE
  8
NAME
 62
    94
 66
     1
 10
0.0
 20
0.0
 70
     0
  0
VERTEX
  8
NAME
 62
    94
 10
16.0803747905458320
 20
16.7379866845060830
 42
0.4142135623730950
  0
VERTEX
  8
NAME
 62
    94
 10
16.1428781771619260
 20
16.6754832978899830
 42
0.4141659576126406
  0
VERTEX
  8
NAME
 62
    94
 10
16.2053714039297390
 20
16.7379866845060830
  0
VERTEX
  8
NAME
 62
    94
 10
16.2053714039297390
 20
16.8004799112738970
 42
0.4141659576126406
  0
VERTEX
  8
NAME
 62
    94
 10
16.1428781771619260
 20
16.8629832978899830
 42
0.4142135623730950
  0
VERTEX
  8
NAME
 62
    94
 10
16.0803747905458320
 20
16.8004799112738970
  0
VERTEX
  8
NAME
 62
    94
 10
16.0803747905458320
 20
16.7379866845060830
  0
SEQEND
  8
NAME
 62
    94
  0
POLYLINE
  8
NAME
 62
    94
 66
     1
 10
0.0
 20
0.0
 70
     0
  0
VERTEX
  8
NAME
 62
    94
 10
16.2550225824721440
 20
16.7504832978899860
 42
-0.3497855115661178
  0
VERTEX
  8
NAME
 62
    94
 10
16.3173634115157570
 20
16.8004697514256090
 42
-0.4151201337904017
  0
VERTEX
  8
NAME
 62
    94
 10
16.3800191958560500
 20
16.7379866845060830
 42
-0.4141659576126406
  0
VERTEX
  8
NAME
 62
    94
 10
16.3175259690882370
 20
16.6754832978899830
 42
-0.4142135623730950
  0
VERTEX
  8
NAME
 62
    94
 10
16.2550225824721440
 20
16.7379866845060830
  0
VERTEX
  8
NAME
 62
    94
 10
16.2550225824721440
 20
16.8004799112738970
 42
-0.4142135623730950
  0
VERTEX
  8
NAME
 62
    94
 10
16.3175259690882370
 20
16.8629832978899830
 42
-0.2725758813349730
  0
VERTEX
  8
NAME
 62
    94
 10
16.3794400845041110
 20
16.8265094425662270
  0
VERTEX
  8
NAME
 62
    94
 10
16.3800191958560500
 20
16.8254832978899880
  0
SEQEND
  8
NAME
 62
    94
  0
POLYLINE
  8
NAME
 62
    94
 66
     1
 10
0.0
 20
0.0
 70
     0
  0
VERTEX
  8
NAME
 62
    94
 10
14.0322509758614680
 20
16.5089837042839140
  0
VERTEX
  8
NAME
 62
    94
 10
14.1197475892453690
 20
16.5089837042839140
 42
0.4142135623730948
  0
VERTEX
  8
NAME
 62
    94
 10
14.1697442026292770
 20
16.5589803176678170
 42
0.4142730887184284
  0
VERTEX
  8
NAME
 62
    94
 10
14.1197475892453690
 20
16.6089870909000010
  0
VERTEX
  8
NAME
 62
    94
 10
14.0322509758614680
 20
16.6089870909000010
  0
VERTEX
  8
NAME
 62
    94
 10
14.0322509758614680
 20
16.4214870909000010
  0
SEQEND
  8
NAME
 62
    94
  0
POLYLINE
  8
NAME
 62
    94
 66
     1
 10
0.0
 20
0.0
 70
     0
  0
VERTEX
  8
NAME
 62
    94
 10
14.2322983884867700
 20
16.4214870909000010
  0
VERTEX
  8
NAME
 62
    94
 10
14.2322983884867700
 20
16.5339870909000130
 42
-0.4142135623730949
  0
VERTEX
  8
NAME
 62
    94
 10
14.3072983884867690
 20
16.6089870909000010
 42
-0.4142135623730949
  0
VERTEX
  8
NAME
 62
    94
 10
14.3822983884867690
 20
16.5339870909000130
  0
VERTEX
  8
NAME
 62
    94
 10
14.3822983884867690
 20
16.4214870909000010
  0
SEQEND
  8
NAME
 62
    94
  0
LINE
  8
NAME
 62
    94
 10
14.3822983884867690
 20
16.4964870909000040
 11
14.2322983884867700
 21
16.4964870909000040
  0
POLYLINE
  8
NAME
 62
    94
 66
     1
 10
0.0
 20
0.0
 70
     0
  0
VERTEX
  8
NAME
 62
    94
 10
14.4323458011120720
 20
16.4214870909000010
  0
VERTEX
  8
NAME
 62
    94
 10
14.4323458011120720
 20
16.6089870909000010
  0
VERTEX
  8
NAME
 62
    94
 10
14.5198424144959780
 20
16.6089870909000010
 42
-0.4142730887184284
  0
VERTEX
  8
NAME
 62
    94
 10
14.5698390278798890
 20
16.5589803176678170
 42
-0.4142135623730948
  0
VERTEX
  8
NAME
 62
    94
 10
14.5198424144959780
 20
16.5089837042839140
  0
VERTEX
  8
NAME
 62
    94
 10
14.4323458011120720
 20
16.5089837042839140
  0
SEQEND
  8
NAME
 62
    94
  0
LINE
  8
NAME
 62
    94
 10
14.4823424144959830
 20
16.5089837042839140
 11
14.5573424144959790
 21
16.4214870909000010
  0
LINE
  8
NAME
 62
    94
 10
14.6323932137373780
 20
16.6089870909000010
 11
14.7823932137373730
 21
16.6089870909000010
  0
LINE
  8
NAME
 62
    94
 10
14.7073932137373780
 20
16.6089870909000010
 11
14.7073932137373780
 21
16.4214870909000010
  0
LINE
  8
NAME
 62
    94
 10
15.0324880389879870
 20
16.5214904775160960
 11
15.1324914256040820
 21
16.5214904775160960
  0
LINE
  8
NAME
 62
    94
 10
15.1074880389879830
 20
16.5464837042839150
 11
15.1074880389879830
 21
16.4464904775161000
  0
LINE
  8
NAME
 62
    94
 10
15.1324914256040820
 20
16.4714837042839120
 11
15.0324880389879870
 21
16.4714837042839120
  0
LINE
  8
NAME
 62
    94
 10
15.0574914256040860
 20
16.4464904775161000
 11
15.0574914256040860
 21
16.5464837042839150
  0
POLYLINE
  8
NAME
 62
    94
 66
     1
 10
0.0
 20
0.0
 70
     0
  0
VERTEX
  8
NAME
 62
    94
 10
15.2071459907625780
 20
16.5714870909000070
 42
-0.2726544751729642
  0
VERTEX
  8
NAME
 62
    94
 10
15.2684708349782330
 20
16.6089972507482880
  0
VERTEX
  8
NAME
 62
    94
 10
15.2696392175303920
 20
16.6089870909000010
 42
-0.4142135623730950
  0
VERTEX
  8
NAME
 62
    94
 10
15.3321426041464850
 20
16.5464837042839150
 42
-0.2357463286950689
  0
VERTEX
  8
NAME
 62
    94
 10
15.3072001766200660
 20
16.4965277302931240
  0
VERTEX
  8
NAME
 62
    94
 10
15.2321392175303870
 20
16.4589870909000030
 42
0.3031173169420362
  0
VERTEX
  8
NAME
 62
    94
 10
15.2071358309142980
 20
16.4214870909000010
  0
VERTEX
  8
NAME
 62
    94
 10
15.3321426041464850
 20
16.4214870909000010
  0
SEQEND
  8
NAME
 62
    94
  0
POLYLINE
  8
NAME
 62
    94
 66
     1
 10
0.0
 20
0.0
 70
     0
  0
VERTEX
  8
NAME
 62
    94
 10
15.3817836228406030
 20
16.4839904775161020
 42
0.4142135623730950
  0
VERTEX
  8
NAME
 62
    94
 10
15.4442870094566960
 20
16.4214870909000010
 42
0.4141659576126406
  0
VERTEX
  8
NAME
 62
    94
 10
15.5067802362245090
 20
16.4839904775161020
  0
VERTEX
  8
NAME
 62
    94
 10
15.5067802362245090
 20
16.5464837042839150
 42
0.4141659576126406
  0
VERTEX
  8
NAME
 62
    94
 10
15.4442870094566960
 20
16.6089870909000010
 42
0.4142135623730950
  0
VERTEX
  8
NAME
 62
    94
 10
15.3817836228406030
 20
16.5464837042839150
  0
VERTEX
  8
NAME
 62
    94
 10
15.3817836228406030
 20
16.4839904775161020
  0
SEQEND
  8
NAME
 62
    94
  0
POLYLINE
  8
NAME
 62
    94
 66
     1
 10
0.0
 20
0.0
 70
     0
  0
VERTEX
  8
NAME
 62
    94
 10
15.5564314147669140
 20
16.4839904775161020
 42
0.4142135623730950
  0
VERTEX
  8
NAME
 62
    94
 10
15.6189348013830070
 20
16.4214870909000010
 42
0.4141659576126406
  0
VERTEX
  8
NAME
 62
    94
 10
15.6814280281508210
 20
16.4839904775161020
  0
VERTEX
  8
NAME
 62
    94
 10
15.6814280281508210
 20
16.5464837042839150
 42
0.4141659576126406
  0
VERTEX
  8
NAME
 62
    94
 10
15.6189348013830070
 20
16.6089870909000010
 42
0.4142135623730950
  0
VERTEX
  8
NAME
 62
    94
 10
15.5564314147669140
 20
16.5464837042839150
  0
VERTEX
  8
NAME
 62
    94
 10
15.5564314147669140
 20
16.4839904775161020
  0
SEQEND
  8
NAME
 62
    94
  0
POLYLINE
  8
NAME
 62
    94
 66
     1
 10
0.0
 20
0.0
 70
     0
  0
VERTEX
  8
NAME
 62
    94
 10
15.7685792066932200
 20
16.5214904775160960
 42
0.4142135623730948
  0
VERTEX
  8
NAME
 62
    94
 10
15.7310792066932180
 20
16.4839904775161020
 42
0.4142135623730950
  0
VERTEX
  8
NAME
 62
    94
 10
15.7935825933093120
 20
16.4214870909000010
 42
0.4141659576126406
  0
VERTEX
  8
NAME
 62
    94
 10
15.8560758200771250
 20
16.4839904775161020
 42
0.4142135623730947
  0
VERTEX
  8
NAME
 62
    94
 10
15.8185758200771240
 20
16.5214904775160960
  0
VERTEX
  8
NAME
 62
    94
 10
15.7685792066932200
 20
16.5214904775160960
 42
-0.4141342219961467
  0
VERTEX
  8
NAME
 62
    94
 10
15.7310792066932180
 20
16.5589803176678170
 42
-0.4142730887184284
  0
VERTEX
  8
NAME
 62
    94
 10
15.7810758200771220
 20
16.6089870909000010
  0
VERTEX
  8
NAME
 62
    94
 10
15.8060792066932140
 20
16.6089870909000010
 42
-0.4142730887184284
  0
VERTEX
  8
NAME
 62
    94
 10
15.8560758200771250
 20
16.5589803176678170
 42
-0.4141342219961467
  0
VERTEX
  8
NAME
 62
    94
 10
15.8185758200771240
 20
16.5214904775160960
  0
SEQEND
  8
NAME
 62
    94
  0
POLYLINE
  8
NAME
 62
    94
 66
     1
 10
0.0
 20
0.0
 70
     0
  0
VERTEX
  8
NAME
 62
    94
 10
15.9057269986195300
 20
16.4589870909000030
  0
VERTEX
  8
NAME
 62
    94
 10
15.9063061099714620
 20
16.4579609462237640
 42
0.2726144184464477
  0
VERTEX
  8
NAME
 62
    94
 10
15.9682303852356230
 20
16.4214870909000010
 42
0.4141659576126406
  0
VERTEX
  8
NAME
 62
    94
 10
16.0307236120034350
 20
16.4839904775161020
  0
VERTEX
  8
NAME
 62
    94
 10
16.0307236120034350
 20
16.5464837042839150
 42
0.4141659576126406
  0
VERTEX
  8
NAME
 62
    94
 10
15.9682303852356230
 20
16.6089870909000010
 42
0.4142135623730950
  0
VERTEX
  8
NAME
 62
    94
 10
15.9057269986195300
 20
16.5464837042839150
 42
0.4141659576126406
  0
VERTEX
  8
NAME
 62
    94
 10
15.9682303852356230
 20
16.4839904775161020
  0
VERTEX
  8
NAME
 62
    94
 10
15.9693987677877680
 20
16.4839803176678150
 42
0.2726544751729640
  0
VERTEX
  8
NAME
 62
    94
 10
16.0307236120034350
 20
16.5214904775160960
  0
SEQEND
  8
NAME
 62
    94
  0
POLYLINE
  8
NAME
 62
    94
 66
     1
 10
0.0
 20
0.0
 70
     0
  0
VERTEX
  8
NAME
 62
    94
 10
16.1678714039297380
 20
16.4214870909000010
  0
VERTEX
  8
NAME
 62
    94
 10
16.1678714039297380
 20
16.6089870909000010
  0
VERTEX
  8
NAME
 62
    94
 10
16.0803747905458320
 20
16.4964870909000040
  0
VERTEX
  8
NAME
 62
    94
 10
16.2053714039297390
 20
16.4964870909000040
  0
SEQEND
  8
NAME
 62
    94
  0
POLYLINE
  8
NAME
 62
    94
 66
     1
 10
0.0
 20
0.0
 70
     0
  0
VERTEX
  8
NAME
 62
    94
 10
16.2550225824721440
 20
16.4589870909000030
  0
VERTEX
  8
NAME
 62
    94
 10
16.2556016938240760
 20
16.4579609462237640
 42
0.2726144184464477
  0
VERTEX
  8
NAME
 62
    94
 10
16.3175259690882370
 20
16.4214870909000010
 42
0.4141659576126406
  0
VERTEX
  8
NAME
 62
    94
 10
16.3800191958560500
 20
16.4839904775161020
  0
VERTEX
  8
NAME
 62
    94
 10
16.3800191958560500
 20
16.5464837042839150
 42
0.4141659576126406
  0
VERTEX
  8
NAME
 62
    94
 10
16.3175259690882370
 20
16.6089870909000010
 42
0.4142135623730950
  0
VERTEX
  8
NAME
 62
    94
 10
16.2550225824721440
 20
16.5464837042839150
 42
0.4141659576126406
  0
VERTEX
  8
NAME
 62
    94
 10
16.3175259690882370
 20
16.4839904775161020
  0
VERTEX
  8
NAME
 62
    94
 10
16.3186943516403890
 20
16.4839803176678150
 42
0.2726544751729640
  0
VERTEX
  8
NAME
 62
    94
 10
16.3800191958560500
 20
16.5214904775160960
  0
SEQEND
  8
NAME
 62
    94
  0
LINE
  8
NAME
 62
    94
 10
16.4296703743984550
 20
16.4839904775161020
 11
16.5046703743984510
 21
16.4839904775161020
  0
POLYLINE
  8
NAME
 62
    94
 66
     1
 10
0.0
 20
0.0
 70
     0
  0
VERTEX
  8
NAME
 62
    94
 10
16.6043283261730320
 20
16.5714870909000070
 42
-0.2726544751729642
  0
VERTEX
  8
NAME
 62
    94
 10
16.6656531703886940
 20
16.6089972507482880
  0
VERTEX
  8
NAME
 62
    94
 10
16.6668215529408460
 20
16.6089870909000010
 42
-0.4142135623730950
  0
VERTEX
  8
NAME
 62
    94
 10
16.7293249395569390
 20
16.5464837042839150
 42
-0.2357463286950689
  0
VERTEX
  8
NAME
 62
    94
 10
16.7043825120305200
 20
16.4965277302931240
  0
VERTEX
  8
NAME
 62
    94
 10
16.6293215529408440
 20
16.4589870909000030
 42
0.3031173169420362
  0
VERTEX
  8
NAME
 62
    94
 10
16.6043181663247520
 20
16.4214870909000010
  0
VERTEX
  8
NAME
 62
    94
 10
16.7293249395569390
 20
16.4214870909000010
  0
SEQEND
  8
NAME
 62
    94
  0
POLYLINE
  8
NAME
 62
    94
 66
     1
 10
0.0
 20
0.0
 70
     0
  0
VERTEX
  8
NAME
 62
    94
 10
16.7789659582510570
 20
16.4839904775161020
 42
0.4142135623730950
  0
VERTEX
  8
NAME
 62
    94
 10
16.8414693448671500
 20
16.4214870909000010
 42
0.4141659576126406
  0
VERTEX
  8
NAME
 62
    94
 10
16.9039625716349630
 20
16.4839904775161020
  0
VERTEX
  8
NAME
 62
    94
 10
16.9039625716349630
 20
16.5464837042839150
 42
0.4141659576126406
  0
VERTEX
  8
NAME
 62
    94
 10
16.8414693448671500
 20
16.6089870909000010
 42
0.4142135623730950
  0
VERTEX
  8
NAME
 62
    94
 10
16.7789659582510570
 20
16.5464837042839150
  0
VERTEX
  8
NAME
 62
    94
 10
16.7789659582510570
 20
16.4839904775161020
  0
SEQEND
  8
NAME
 62
    94
  0
POLYLINE
  8
NAME
 62
    94
 66
     1
 10
0.0
 20
0.0
 70
     0
  0
VERTEX
  8
NAME
 62
    94
 10
16.9536137501773680
 20
16.4839904775161020
 42
0.4142135623730950
  0
VERTEX
  8
NAME
 62
    94
 10
17.0161171367934610
 20
16.4214870909000010
 42
0.4141659576126406
  0
VERTEX
  8
NAME
 62
    94
 10
17.0786103635612750
 20
16.4839904775161020
  0
VERTEX
  8
NAME
 62
    94
 10
17.0786103635612750
 20
16.5464837042839150
 42
0.4141659576126406
  0
VERTEX
  8
NAME
 62
    94
 10
17.0161171367934610
 20
16.6089870909000010
 42
0.4142135623730950
  0
VERTEX
  8
NAME
 62
    94
 10
16.9536137501773680
 20
16.5464837042839150
  0
VERTEX
  8
NAME
 62
    94
 10
16.9536137501773680
 20
16.4839904775161020
  0
SEQEND
  8
NAME
 62
    94
  0
POLYLINE
  8
NAME
 62
    94
 66
     1
 10
0.0
 20
0.0
 70
     0
  0
VERTEX
  8
NAME
 62
    94
 10
17.1657615421036810
 20
16.5214904775160960
 42
0.4142135623730948
  0
VERTEX
  8
NAME
 62
    94
 10
17.1282615421036720
 20
16.4839904775161020
 42
0.4142135623730950
  0
VERTEX
  8
NAME
 62
    94
 10
17.1907649287197660
 20
16.4214870909000010
 42
0.4141659576126406
  0
VERTEX
  8
NAME
 62
    94
 10
17.2532581554875790
 20
16.4839904775161020
 42
0.4142135623730947
  0
VERTEX
  8
NAME
 62
    94
 10
17.2157581554875850
 20
16.5214904775160960
  0
VERTEX
  8
NAME
 62
    94
 10
17.1657615421036810
 20
16.5214904775160960
 42
-0.4141342219961467
  0
VERTEX
  8
NAME
 62
    94
 10
17.1282615421036720
 20
16.5589803176678170
 42
-0.4142730887184284
  0
VERTEX
  8
NAME
 62
    94
 10
17.1782581554875830
 20
16.6089870909000010
  0
VERTEX
  8
NAME
 62
    94
 10
17.2032615421036820
 20
16.6089870909000010
 42
-0.4142730887184284
  0
VERTEX
  8
NAME
 62
    94
 10
17.2532581554875790
 20
16.5589803176678170
 42
-0.4141342219961467
  0
VERTEX
  8
NAME
 62
    94
 10
17.2157581554875850
 20
16.5214904775160960
  0
SEQEND
  8
NAME
 62
    94
  0
POLYLINE
  8
NAME
 62
    94
 66
     1
 10
0.0
 20
0.0
 70
     0
  0
VERTEX
  8
NAME
 62
    94
 10
17.3029093340299840
 20
16.4589870909000030
  0
VERTEX
  8
NAME
 62
    94
 10
17.3034884453819230
 20
16.4579609462237640
 42
0.2726144184464477
  0
VERTEX
  8
NAME
 62
    94
 10
17.3654127206460770
 20
16.4214870909000010
 42
0.4141659576126406
  0
VERTEX
  8
NAME
 62
    94
 10
17.4279059474138900
 20
16.4839904775161020
  0
VERTEX
  8
NAME
 62
    94
 10
17.4279059474138900
 20
16.5464837042839150
 42
0.4141659576126406
  0
VERTEX
  8
NAME
 62
    94
 10
17.3654127206460770
 20
16.6089870909000010
 42
0.4142135623730950
  0
VERTEX
  8
NAME
 62
    94
 10
17.3029093340299840
 20
16.5464837042839150
 42
0.4141659576126406
  0
VERTEX
  8
NAME
 62
    94
 10
17.3654127206460770
 20
16.4839904775161020
  0
VERTEX
  8
NAME
 62
    94
 10
17.3665811031982360
 20
16.4839803176678150
 42
0.2726544751729640
  0
VERTEX
  8
NAME
 62
    94
 10
17.4279059474138900
 20
16.5214904775160960
  0
SEQEND
  8
NAME
 62
    94
  0
POLYLINE
  8
NAME
 62
    94
 66
     1
 10
0.0
 20
0.0
 70
     0
  0
VERTEX
  8
NAME
 62
    94
 10
17.5650537393402000
 20
16.4214870909000010
  0
VERTEX
  8
NAME
 62
    94
 10
17.5650537393402000
 20
16.6089870909000010
  0
VERTEX
  8
NAME
 62
    94
 10
17.4775571259562880
 20
16.4964870909000040
  0
VERTEX
  8
NAME
 62
    94
 10
17.6025537393401950
 20
16.4964870909000040
  0
SEQEND
  8
NAME
 62
    94
  0
POLYLINE
  8
NAME
 62
    94
 66
     1
 10
0.0
 20
0.0
 70
     0
  0
VERTEX
  8
NAME
 62
    94
 10
17.6522049178825990
 20
16.4589870909000030
  0
VERTEX
  8
NAME
 62
    94
 10
17.6527840292345390
 20
16.4579609462237640
 42
0.2726144184464477
  0
VERTEX
  8
NAME
 62
    94
 10
17.7147083044986930
 20
16.4214870909000010
 42
0.4141659576126406
  0
VERTEX
  8
NAME
 62
    94
 10
17.7772015312665060
 20
16.4839904775161020
  0
VERTEX
  8
NAME
 62
    94
 10
17.7772015312665060
 20
16.5464837042839150
 42
0.4141659576126406
  0
VERTEX
  8
NAME
 62
    94
 10
17.7147083044986930
 20
16.6089870909000010
 42
0.4142135623730950
  0
VERTEX
  8
NAME
 62
    94
 10
17.6522049178825990
 20
16.5464837042839150
 42
0.4141659576126406
  0
VERTEX
  8
NAME
 62
    94
 10
17.7147083044986930
 20
16.4839904775161020
  0
VERTEX
  8
NAME
 62
    94
 10
17.7158766870508520
 20
16.4839803176678150
 42
0.2726544751729640
  0
VERTEX
  8
NAME
 62
    94
 10
17.7772015312665060
 20
16.5214904775160960
  0
SEQEND
  8
NAME
 62
    94
  0
POLYLINE
  8
GRIPLOGO
 62
    94
 66
     1
 10
0.0
 20
0.0
 70
     0
  0
VERTEX
  8
GRIPLOGO
 62
    94
 10
12.3083929668072190
 20
16.4999832978899870
  0
VERTEX
  8
GRIPLOGO
 62
    94
 10
12.5908889345491560
 20
16.8629832978899900
  0
VERTEX
  8
GRIPLOGO
 62
    94
 10
12.7012236119685100
 20
16.8629832978899900
  0
VERTEX
  8
GRIPLOGO
 62
    94
 10
12.6615434500251890
 20
16.4999832978899870
  0
VERTEX
  8
GRIPLOGO
 62
    94
 10
12.5722236119685140
 20
16.4999832978899870
  0
VERTEX
  8
GRIPLOGO
 62
    94
 10
12.5722362257464870
 20
16.5539832978899850
  0
VERTEX
  8
GRIPLOGO
 62
    94
 10
12.4417236119685090
 20
16.5539832978899850
  0
VERTEX
  8
GRIPLOGO
 62
    94
 10
12.4124093262542240
 20
16.4999832978899870
  0
VERTEX
  8
GRIPLOGO
 62
    94
 10
12.3083929668072190
 20
16.4999832978899870
  0
SEQEND
  8
GRIPLOGO
 62
    94
  0
POLYLINE
  8
GRIPLOGO
 62
    94
 66
     1
 10
0.0
 20
0.0
 70
     0
  0
VERTEX
  8
GRIPLOGO
 62
    94
 10
11.9466947658146640
 20
16.4999832978899870
  0
VERTEX
  8
GRIPLOGO
 62
    94
 10
11.8416129562308040
 20
16.4999832978899870
  0
VERTEX
  8
GRIPLOGO
 62
    94
 10
11.9782474040687090
 20
16.7950169728674080
  0
VERTEX
  8
GRIPLOGO
 62
    94
 10
12.0097236119685110
 20
16.8629832978899900
  0
VERTEX
  8
GRIPLOGO
 62
    94
 10
12.1459820012302550
 20
16.8629832978899900
  0
VERTEX
  8
GRIPLOGO
 62
    94
 10
12.1102236119685090
 20
16.6409832978899890
  0
VERTEX
  8
GRIPLOGO
 62
    94
 10
12.2819036119685090
 20
16.8629832978899900
  0
VERTEX
  8
GRIPLOGO
 62
    94
 10
12.4207236119685080
 20
16.8629832978899900
  0
VERTEX
  8
GRIPLOGO
 62
    94
 10
12.2452236119685090
 20
16.4999832978899870
  0
VERTEX
  8
GRIPLOGO
 62
    94
 10
12.1602873062360250
 20
16.4999832978899870
  0
VERTEX
  8
GRIPLOGO
 62
    94
 10
12.2482236119685090
 20
16.7339832978899890
  0
VERTEX
  8
GRIPLOGO
 62
    94
 10
12.0802236119685100
 20
16.4999832978899870
  0
VERTEX
  8
GRIPLOGO
 62
    94
 10
12.0134872483321460
 20
16.4999832978899870
  0
VERTEX
  8
GRIPLOGO
 62
    94
 10
12.0442236119685080
 20
16.7414832978899850
  0
VERTEX
  8
GRIPLOGO
 62
    94
 10
11.9466947658146640
 20
16.4999832978899870
  0
SEQEND
  8
GRIPLOGO
 62
    94
  0
POLYLINE
  8
GRIPLOGO
 62
    94
 66
     1
 10
0.0
 20
0.0
 70
     0
  0
VERTEX
  8
GRIPLOGO
 62
    94
 10
11.8669026338569670
 20
16.5043232027835600
 42
-0.0911935211525496
  0
VERTEX
  8
GRIPLOGO
 62
    94
 10
11.7226863480038010
 20
16.3799056098890540
 42
-0.1218332005288946
  0
VERTEX
  8
GRIPLOGO
 62
    94
 10
11.5651179215020200
 20
16.3310611544612530
 42
-0.1824751728364216
  0
VERTEX
  8
GRIPLOGO
 62
    94
 10
11.4364176869854170
 20
16.3708776688867770
 42
-0.1824751728364216
  0
VERTEX
  8
GRIPLOGO
 62
    94
 10
11.3710707683584110
 20
16.4886863502798810
 42
-0.1218332005288946
  0
VERTEX
  8
GRIPLOGO
 62
    94
 10
11.3865868196949730
 20
16.6529204575999120
 42
-0.0911935211525496
  0
VERTEX
  8
GRIPLOGO
 62
    94
 10
11.4788083275697500
 20
16.8195735944208170
 42
-0.0911935211525496
  0
VERTEX
  8
GRIPLOGO
 62
    94
 10
11.6230246134229150
 20
16.9439911873153230
 42
-0.1218332005288946
  0
VERTEX
  8
GRIPLOGO
 62
    94
 10
11.7805930399246960
 20
16.9928356427431240
 42
-0.1824751728364216
  0
VERTEX
  8
GRIPLOGO
 62
    94
 10
11.9092932744413000
 20
16.9530191283175990
 42
-0.1824751728364216
  0
VERTEX
  8
GRIPLOGO
 62
    94
 10
11.9746401930683050
 20
16.8352104469244960
 42
-0.1218332005288946
  0
VERTEX
  8
GRIPLOGO
 62
    94
 10
11.9591241417317440
 20
16.6709763396044650
 42
-0.0911935211525496
  0
VERTEX
  8
GRIPLOGO
 62
    94
 10
11.8669026338569670
 20
16.5043232027835600
  0
SEQEND
  8
GRIPLOGO
 62
    94
  0
POLYLINE
  8
GRIPLOGO
 62
    94
 66
     1
 10
0.0
 20
0.0
 70
     0
  0
VERTEX
  8
GRIPLOGO
 62
    94
 10
11.4102278136491830
 20
16.4999832978899870
  0
VERTEX
  8
GRIPLOGO
 62
    94
 10
11.7122194102878370
 20
16.8629832978899900
  0
VERTEX
  8
GRIPLOGO
 62
    94
 10
11.8258855552883480
 20
16.8629832978899900
  0
VERTEX
  8
GRIPLOGO
 62
    94
 10
11.7920839358551500
 20
16.4999832978899870
  0
VERTEX
  8
GRIPLOGO
 62
    94
 10
11.6802861119685040
 20
16.4999832978899870
  0
VERTEX
  8
GRIPLOGO
 62
    94
 10
11.6917204243759120
 20
16.5548679974455130
  0
VERTEX
  8
GRIPLOGO
 62
    94
 10
11.5713134116721900
 20
16.5548679974455130
  0
VERTEX
  8
GRIPLOGO
 62
    94
 10
11.5347236119685090
 20
16.4999832978899870
  0
VERTEX
  8
GRIPLOGO
 62
    94
 10
11.4102278136491830
 20
16.4999832978899870
  0
SEQEND
  8
GRIPLOGO
 62
    94
  0
LINE
  8
GRIPLOGO
 62
    94
 10
11.2785203962574490
 20
16.6618451498035790
 11
12.0229401196569330
 21
16.6618451498035790
  0
POLYLINE
  8
GRIPLOGO
 62
    94
 66
     1
 10
0.0
 20
0.0
 70
     0
  0
VERTEX
  8
GRIPLOGO
 62
    94
 10
11.6183272962065270
 20
16.6166575896714830
  0
VERTEX
  8
GRIPLOGO
 62
    94
 10
11.7094137194492940
 20
16.7474720009588650
  0
VERTEX
  8
GRIPLOGO
 62
    94
 10
11.6961062064514500
 20
16.6166575896714830
  0
VERTEX
  8
GRIPLOGO
 62
    94
 10
11.6183272962065270
 20
16.6166575896714830
  0
SEQEND
  8
GRIPLOGO
 62
    94
  0
LINE
  8
GRIPLOGO
 62
    94
 10
11.4997236119685090
 20
16.2569832978899880
 11
11.8492236119685100
 21
17.0744832978899870
  0
POLYLINE
  8
GRIPLOGO
 62
    94
 66
     1
 10
0.0
 20
0.0
 70
     0
  0
VERTEX
  8
GRIPLOGO
 62
    94
 10
12.4972236119685100
 20
16.6169832978899880
  0
VERTEX
  8
GRIPLOGO
 62
    94
 10
12.5902236119685100
 20
16.7474832978899850
  0
VERTEX
  8
GRIPLOGO
 62
    94
 10
12.5748141902934730
 20
16.6169832978899880
  0
VERTEX
  8
GRIPLOGO
 62
    94
 10
12.4972236119685100
 20
16.6169832978899880
  0
SEQEND
  8
GRIPLOGO
 62
    94
  0
POLYLINE
  8
GRIPLOGO
 62
    94
 66
     1
 10
0.0
 20
0.0
 70
     0
  0
VERTEX
  8
GRIPLOGO
 62
    94
 10
12.7204174895195300
 20
16.4999832978899870
  0
VERTEX
  8
GRIPLOGO
 62
    94
 10
12.8833970813562640
 20
16.8629832978899900
  0
VERTEX
  8
GRIPLOGO
 62
    94
 10
13.1111931758567230
 20
16.8629832978899900
 42
-0.4341645003930854
  0
VERTEX
  8
GRIPLOGO
 62
    94
 10
13.1737236119685090
 20
16.7984832978899870
  0
VERTEX
  8
GRIPLOGO
 62
    94
 10
13.1632236119685100
 20
16.7354832978899890
 42
-0.2031230949761077
  0
VERTEX
  8
GRIPLOGO
 62
    94
 10
13.0612236119685100
 20
16.6709832978899900
 42
-0.4685979671086156
  0
VERTEX
  8
GRIPLOGO
 62
    94
 10
13.0897236119685090
 20
16.6049832978899870
  0
VERTEX
  8
GRIPLOGO
 62
    94
 10
13.0451345708726190
 20
16.4999832978899870
  0
VERTEX
  8
GRIPLOGO
 62
    94
 10
12.9513236119685120
 20
16.4999832978899870
  0
VERTEX
  8
GRIPLOGO
 62
    94
 10
12.9682236119685100
 20
16.5779832978899860
 42
0.3258346133746294
  0
VERTEX
  8
GRIPLOGO
 62
    94
 10
12.9487236119685110
 20
16.6154832978899880
  0
VERTEX
  8
GRIPLOGO
 62
    94
 10
12.8872236119685080
 20
16.6214832978899880
  0
VERTEX
  8
GRIPLOGO
 62
    94
 10
12.8272055396793580
 20
16.4999832978899870
  0
VERTEX
  8
GRIPLOGO
 62
    94
 10
12.7204174895195300
 20
16.4999832978899870
  0
SEQEND
  8
GRIPLOGO
 62
    94
  0
POLYLINE
  8
GRIPLOGO
 62
    94
 66
     1
 10
0.0
 20
0.0
 70
     0
  0
VERTEX
  8
GRIPLOGO
 62
    94
 10
12.9532236119685090
 20
16.7804832978899870
  0
VERTEX
  8
GRIPLOGO
 62
    94
 10
13.0042007897696160
 20
16.7804832978899870
 42
-0.9092863189428971
  0
VERTEX
  8
GRIPLOGO
 62
    94
 10
12.9997236119685090
 20
16.7039832978899870
  0
VERTEX
  8
GRIPLOGO
 62
    94
 10
12.9204378976827950
 20
16.7039832978899870
  0
VERTEX
  8
GRIPLOGO
 62
    94
 10
12.9532236119685090
 20
16.7804832978899870
  0
SEQEND
  8
GRIPLOGO
 62
    94
  0
POLYLINE
  8
GRIPLOGO
 62
    94
 66
     1
 10
0.0
 20
0.0
 70
     0
  0
VERTEX
  8
GRIPLOGO
 62
    94
 10
13.1262236119685110
 20
16.4999832978899870
  0
VERTEX
  8
GRIPLOGO
 62
    94
 10
13.2774736119685100
 20
16.8629832978899900
  0
VERTEX
  8
GRIPLOGO
 62
    94
 10
13.3873157172316720
 20
16.8629832978899900
  0
VERTEX
  8
GRIPLOGO
 62
    94
 10
13.3417236119685100
 20
16.7474832978899850
  0
VERTEX
  8
GRIPLOGO
 62
    94
 10
13.4961712863871170
 20
16.8629832978899900
  0
VERTEX
  8
GRIPLOGO
 62
    94
 10
13.6278569453018430
 20
16.8629832978899900
  0
VERTEX
  8
GRIPLOGO
 62
    94
 10
13.4377236119685100
 20
16.7249832978899880
  0
VERTEX
  8
GRIPLOGO
 62
    94
 10
13.4877236119685100
 20
16.4999832978899870
  0
VERTEX
  8
GRIPLOGO
 62
    94
 10
13.3484669748003740
 20
16.4999832978899870
  0
VERTEX
  8
GRIPLOGO
 62
    94
 10
13.3252236119685090
 20
16.6544832978899890
  0
VERTEX
  8
GRIPLOGO
 62
    94
 10
13.2787236119685090
 20
16.6184832978899880
  0
VERTEX
  8
GRIPLOGO
 62
    94
 10
13.2244705999203200
 20
16.4999832978899870
  0
VERTEX
  8
GRIPLOGO
 62
    94
 10
13.1262236119685110
 20
16.4999832978899870
  0
SEQEND
  8
GRIPLOGO
 62
    94
  0
CIRCLE
  8
OFFLINE
 62
   110
 10
10.6354966247791300
 20
5.7950840207381598
 40
0.1228125000000000
  0
CIRCLE
  8
OFFLINE
 62
   110
 10
10.6354966247791300
 20
16.7950840207381590
 40
0.1228125000000000
  0
CIRCLE
  8
OFFLINE
 62
   110
 10
21.6354966247791300
 20
16.7950840207381590
 40
0.1228125000000000
  0
CIRCLE
  8
OFFLINE
 62
   110
 10
21.6354966247791300
 20
5.7950840207381598
 40
0.1228125000000000
  0
LINE
  8
GRIP
 62
   110
 10
22.0869966247791290
 20
5.4685840207381595
 11
22.0869966247791290
 21
8.9547509151740421
  0
LINE
  8
GRIP
 62
   110
 10
22.0869966247791290
 20
8.9547509151740421
 11
22.0649966248983380
 21
8.9767509150548328
  0
LINE
  8
GRIP
 62
   110
 10
22.0649966248983420
 20
9.0207509148164178
 11
22.0869966247791330
 21
9.0427509146972067
  0
LINE
  8
GRIP
 62
   110
 10
22.0869966247791330
 20
9.0427509146972067
 11
22.0869966247791290
 21
13.5474171267791160
  0
LINE
  8
GRIP
 62
   110
 10
22.0869966247791290
 20
13.5474171267791160
 11
22.0649966248983380
 21
13.5694171266599070
  0
LINE
  8
GRIP
 62
   110
 10
22.0649966248983380
 20
13.6134171264214870
 11
22.0869966247791290
 21
13.6354171263022770
  0
LINE
  8
GRIP
 62
   110
 10
22.0869966247791290
 20
13.6354171263022770
 11
22.0869966247791290
 21
17.1215840207381620
  0
LINE
  8
GRIP
 62
   110
 10
10.1839966247791270
 20
17.1215840207381620
 11
10.1839966247791270
 21
13.6354171263022770
  0
LINE
  8
GRIP
 62
   110
 10
10.1839966247791270
 20
13.6354171263022770
 11
10.2059966246599170
 21
13.6134171264214870
  0
LINE
  8
GRIP
 62
   110
 10
10.2059966246599170
 20
13.5694171266599070
 11
10.1839966247791270
 21
13.5474171267791160
  0
LINE
  8
GRIP
 62
   110
 10
10.1839966247791270
 20
13.5474171267791160
 11
10.1839966247791270
 21
9.0427509146972049
  0
LINE
  8
GRIP
 62
   110
 10
10.1839966247791270
 20
9.0427509146972049
 11
10.2059966246599170
 21
9.0207509148164142
  0
LINE
  8
GRIP
 62
   110
 10
10.2059966246599170
 20
8.9767509150548346
 11
10.1839966247791270
 21
8.9547509151740439
  0
LINE
  8
GRIP
 62
   110
 10
10.1839966247791270
 20
8.9547509151740439
 11
10.1839966247791270
 21
5.4685840207381595
  0
POLYLINE
  8
GRIP
 62
   110
 66
     1
 10
0.0
 20
0.0
 70
     0
  0
VERTEX
  8
GRIP
 62
   110
 10
22.0869966247791290
 20
17.1215840207381620
 42
0.4142135623730950
  0
VERTEX
  8
GRIP
 62
   110
 10
21.9619966247791290
 20
17.2465840207381620
  0
SEQEND
  8
GRIP
 62
   110
  0
LINE
  8
GRIP
 62
   110
 10
21.9619966247791290
 20
17.2465840207381620
 11
18.1216631754452210
 21
17.2465840207381620
  0
LINE
  8
GRIP
 62
   110
 10
18.1216631754452210
 20
17.2465840207381620
 11
18.0996631755644300
 21
17.2245840208573710
  0
LINE
  8
GRIP
 62
   110
 10
18.0556631758028520
 20
17.2245840208573710
 11
18.0336631759220620
 21
17.2465840207381620
  0
LINE
  8
GRIP
 62
   110
 10
18.0336631759220620
 20
17.2465840207381620
 11
14.2373297263497330
 21
17.2465840207381620
  0
LINE
  8
GRIP
 62
   110
 10
14.2373297263497330
 20
17.2465840207381620
 11
14.2153297264689420
 21
17.2245840208573710
  0
LINE
  8
GRIP
 62
   110
 10
14.1713297267073630
 20
17.2245840208573710
 11
14.1493297268265720
 21
17.2465840207381620
  0
LINE
  8
GRIP
 62
   110
 10
14.1493297268265720
 20
17.2465840207381620
 11
10.3089966247791270
 21
17.2465840207381620
  0
POLYLINE
  8
GRIP
 62
   110
 66
     1
 10
0.0
 20
0.0
 70
     0
  0
VERTEX
  8
GRIP
 62
   110
 10
10.3089966247791270
 20
17.2465840207381620
 42
0.4142135623730950
  0
VERTEX
  8
GRIP
 62
   110
 10
10.1839966247791270
 20
17.1215840207381620
  0
SEQEND
  8
GRIP
 62
   110
  0
LINE
  8
GRIP
 62
   110
 10
10.3089966247791270
 20
5.3435840207381595
 11
14.1493300741130330
 21
5.3435840207381595
  0
LINE
  8
GRIP
 62
   110
 10
14.1493300741130330
 20
5.3435840207381595
 11
14.1713300739938240
 21
5.3655840206189502
  0
LINE
  8
GRIP
 62
   110
 10
14.2153300737554070
 20
5.3655840206189502
 11
14.2373300736361980
 21
5.3435840207381595
  0
LINE
  8
GRIP
 62
   110
 10
14.2373300736361980
 20
5.3435840207381595
 11
18.0336635232085240
 21
5.3435840207381595
  0
LINE
  8
GRIP
 62
   110
 10
18.0336635232085240
 20
5.3435840207381595
 11
18.0556635230893150
 21
5.3655840206189493
  0
LINE
  8
GRIP
 62
   110
 10
18.0996635228508930
 20
5.3655840206189493
 11
18.1216635227316840
 21
5.3435840207381595
  0
LINE
  8
GRIP
 62
   110
 10
18.1216635227316840
 20
5.3435840207381595
 11
21.9619966247791290
 21
5.3435840207381595
  0
POLYLINE
  8
GRIP
 62
   110
 66
     1
 10
0.0
 20
0.0
 70
     0
  0
VERTEX
  8
GRIP
 62
   110
 10
21.9619966247791290
 20
5.3435840207381595
 42
0.4142135623730950
  0
VERTEX
  8
GRIP
 62
   110
 10
22.0869966247791290
 20
5.4685840207381595
  0
SEQEND
  8
GRIP
 62
   110
  0
POLYLINE
  8
GRIP
 62
   110
 66
     1
 10
0.0
 20
0.0
 70
     0
  0
VERTEX
  8
GRIP
 62
   110
 10
10.1839966247791270
 20
5.4685840207381595
 42
0.4142135623730950
  0
VERTEX
  8
GRIP
 62
   110
 10
10.3089966247791270
 20
5.3435840207381595
  0
SEQEND
  8
GRIP
 62
   110
  0
ENDSEC
  0
EOF
