  0
SECTION
  2
HEADER
  9
$ACADVER
  1
AC1009
  0
ENDSEC
  0
SECTION
  2
BLOCKS
  0
ENDSEC
  0
SECTION
  2
ENTITIES
  0
LINE
  8
BRIDGEMARK
 62
    94
 10
-35.8577039514061870
 20
14.9288507499122720
 11
-35.8577039514061870
 21
15.0851507499110080
  0
LINE
  8
BRIDGEMARK
 62
    94
 10
-36.0452039514061870
 20
14.9288507499122720
 11
-36.0452039514061870
 21
15.0851507499110080
  0
LINE
  8
BRIDGEMARK
 62
    94
 10
-37.6702039514061870
 20
14.9288507499122720
 11
-37.6702039514061870
 21
15.0851507499110080
  0
LINE
  8
BRIDGEMARK
 62
    94
 10
-37.8577039514061870
 20
14.9288507499122720
 11
-37.8577039514061870
 21
15.0851507499110080
  0
LINE
  8
BRIDGEMARK
 62
    94
 10
-39.4827039514061870
 20
14.9288507499122720
 11
-39.4827039514061870
 21
15.0851507499110080
  0
LINE
  8
BRIDGEMARK
 62
    94
 10
-39.6702039514061870
 20
14.9288507499122720
 11
-39.6702039514061870
 21
15.0851507499110080
  0
LINE
  8
BRIDGEMARK
 62
    94
 10
-41.2952039514061870
 20
14.9288507499122720
 11
-41.2952039514061870
 21
15.0851507499110080
  0
LINE
  8
BRIDGEMARK
 62
    94
 10
-41.4827039514061870
 20
14.9288507499122720
 11
-41.4827039514061870
 21
15.0851507499110080
  0
LINE
  8
BRIDGEMARK
 62
    94
 10
-43.1077039514061870
 20
14.9288507499122720
 11
-43.1077039514061870
 21
15.0851507499110080
  0
LINE
  8
BRIDGEMARK
 62
    94
 10
-43.2952039514061870
 20
14.9288507499122720
 11
-43.2952039514061870
 21
15.0851507499110080
  0
LINE
  8
BRIDGEMARK
 62
    94
 10
-44.9202039514061870
 20
14.9288507499122720
 11
-44.9202039514061870
 21
15.0851507499110080
  0
LINE
  8
BRIDGEMARK
 62
    94
 10
-45.1077039514061870
 20
14.9288507499122720
 11
-45.1077039514061870
 21
15.0851507499110080
  0
LINE
  8
BRIDGEMARK
 62
    94
 10
-46.7327039514061870
 20
14.9288507499122720
 11
-46.7327039514061870
 21
15.0851507499110080
  0
LINE
  8
BRIDGEMARK
 62
    94
 10
-46.9202039514061870
 20
14.9288507499122720
 11
-46.9202039514061870
 21
15.0851507499110080
  0
LINE
  8
BRIDGEMARK
 62
    94
 10
-48.5452039514061870
 20
14.9288507499122720
 11
-48.5452039514061870
 21
15.0851507499110080
  0
LINE
  8
BRIDGEMARK
 62
    94
 10
-48.7327039514061870
 20
14.9288507499122720
 11
-48.7327039514061870
 21
15.0851507499110080
  0
LINE
  8
BRIDGEMARK
 62
    94
 10
-50.3577039514061870
 20
14.9288507499122720
 11
-50.3577039514061870
 21
15.0851507499110080
  0
LINE
  8
BRIDGEMARK
 62
    94
 10
-50.5452039514061870
 20
14.9288507499122720
 11
-50.5452039514061870
 21
15.0851507499110080
  0
LINE
  8
BRIDGEMARK
 62
    94
 10
-52.1702039514061870
 20
14.9288507499122720
 11
-52.1702039514061870
 21
15.0851507499110080
  0
LINE
  8
BRIDGEMARK
 62
    94
 10
-52.3577039514061870
 20
14.9288507499122720
 11
-52.3577039514061870
 21
15.0851507499110080
  0
LINE
  8
BRIDGEMARK
 62
    94
 10
-53.9827039514061870
 20
14.9288507499122720
 11
-53.9827039514061870
 21
15.0851507499110080
  0
LINE
  8
BRIDGEMARK
 62
    94
 10
-54.1702039514061870
 20
14.9288507499122720
 11
-54.1702039514061870
 21
15.0851507499110080
  0
LINE
  8
BRIDGEMARK
 62
    94
 10
-55.7952039514061870
 20
14.9288507499122720
 11
-55.7952039514061870
 21
15.0851507499110080
  0
LINE
  8
BRIDGEMARK
 62
    94
 10
-55.9827039514061870
 20
14.9288507499122720
 11
-55.9827039514061870
 21
15.0851507499110080
  0
LINE
  8
BRIDGEMARK
 62
    94
 10
-56.7170539514068180
 20
13.6945007499116400
 11
-56.8733539514073740
 21
13.6945007499116400
  0
LINE
  8
BRIDGEMARK
 62
    94
 10
-56.7170539514068180
 20
13.5070007499116400
 11
-56.8733539514073740
 21
13.5070007499116400
  0
LINE
  8
BRIDGEMARK
 62
    94
 10
-56.7170539514068180
 20
10.8820007499116440
 11
-56.8733539514073740
 21
10.8820007499116440
  0
LINE
  8
BRIDGEMARK
 62
    94
 10
-56.7170539514068180
 20
10.6945007499116440
 11
-56.8733539514073740
 21
10.6945007499116440
  0
LINE
  8
DEPRESS
 62
     4
 10
-35.8377039514075690
 20
15.0070007499116400
 11
-36.0652039514066230
 21
15.0070007499116400
  0
LINE
  8
DEPRESS
 62
     4
 10
-37.6502039514075690
 20
15.0070007499116400
 11
-37.8777039514066230
 21
15.0070007499116400
  0
LINE
  8
DEPRESS
 62
     4
 10
-39.4627039514075690
 20
15.0070007499116400
 11
-39.6902039514066230
 21
15.0070007499116400
  0
LINE
  8
DEPRESS
 62
     4
 10
-41.2752039514075690
 20
15.0070007499116400
 11
-41.5027039514066230
 21
15.0070007499116400
  0
LINE
  8
DEPRESS
 62
     4
 10
-43.0877039514075690
 20
15.0070007499116400
 11
-43.3152039514066230
 21
15.0070007499116400
  0
LINE
  8
DEPRESS
 62
     4
 10
-44.9002039514075690
 20
15.0070007499116400
 11
-45.1277039514066230
 21
15.0070007499116400
  0
LINE
  8
DEPRESS
 62
     4
 10
-46.7127039514075690
 20
15.0070007499116400
 11
-46.9402039514066230
 21
15.0070007499116400
  0
LINE
  8
DEPRESS
 62
     4
 10
-48.5252039514075690
 20
15.0070007499116400
 11
-48.7527039514066230
 21
15.0070007499116400
  0
LINE
  8
DEPRESS
 62
     4
 10
-50.3377039514075690
 20
15.0070007499116400
 11
-50.5652039514066230
 21
15.0070007499116400
  0
LINE
  8
DEPRESS
 62
     4
 10
-52.1502039514075690
 20
15.0070007499116400
 11
-52.3777039514066230
 21
15.0070007499116400
  0
LINE
  8
DEPRESS
 62
     4
 10
-53.9627039514075690
 20
15.0070007499116400
 11
-54.1902039514066230
 21
15.0070007499116400
  0
LINE
  8
DEPRESS
 62
     4
 10
-55.7752039514075690
 20
15.0070007499116400
 11
-56.0027039514066230
 21
15.0070007499116400
  0
LINE
  8
DEPRESS
 62
     4
 10
-56.0027039514066230
 20
9.3820007499116436
 11
-55.7752039514075690
 21
9.3820007499116436
  0
LINE
  8
DEPRESS
 62
     4
 10
-54.1902039514066230
 20
9.3820007499116436
 11
-53.9627039514075690
 21
9.3820007499116436
  0
LINE
  8
DEPRESS
 62
     4
 10
-52.3777039514066230
 20
9.3820007499116436
 11
-52.1502039514075690
 21
9.3820007499116436
  0
LINE
  8
DEPRESS
 62
     4
 10
-50.5652039514066230
 20
9.3820007499116436
 11
-50.3377039514075690
 21
9.3820007499116436
  0
LINE
  8
DEPRESS
 62
     4
 10
-48.7527039514066230
 20
9.3820007499116436
 11
-48.5252039514075690
 21
9.3820007499116436
  0
LINE
  8
DEPRESS
 62
     4
 10
-46.9402039514066230
 20
9.3820007499116436
 11
-46.7127039514075690
 21
9.3820007499116436
  0
LINE
  8
DEPRESS
 62
     4
 10
-45.1277039514066230
 20
9.3820007499116436
 11
-44.9002039514075690
 21
9.3820007499116436
  0
LINE
  8
DEPRESS
 62
     4
 10
-43.3152039514066230
 20
9.3820007499116436
 11
-43.0877039514075690
 21
9.3820007499116436
  0
LINE
  8
DEPRESS
 62
     4
 10
-41.5027039514066230
 20
9.3820007499116436
 11
-41.2752039514075690
 21
9.3820007499116436
  0
LINE
  8
DEPRESS
 62
     4
 10
-39.6902039514066230
 20
9.3820007499116436
 11
-39.4627039514075690
 21
9.3820007499116436
  0
LINE
  8
DEPRESS
 62
     4
 10
-37.8777039514066230
 20
9.3820007499116436
 11
-37.6502039514075690
 21
9.3820007499116436
  0
LINE
  8
DEPRESS
 62
     4
 10
-36.0652039514066230
 20
9.3820007499116436
 11
-35.8377039514075690
 21
9.3820007499116436
  0
LINE
  8
DEPRESS
 62
     4
 10
-35.8377039514075690
 20
12.1945007499116440
 11
-36.0652039514066230
 21
12.1945007499116440
  0
LINE
  8
DEPRESS
 62
     4
 10
-37.6502039514075690
 20
12.1945007499116440
 11
-37.8777039514066230
 21
12.1945007499116440
  0
LINE
  8
DEPRESS
 62
     4
 10
-39.4627039514075690
 20
12.1945007499116440
 11
-39.6902039514066230
 21
12.1945007499116440
  0
LINE
  8
DEPRESS
 62
     4
 10
-41.2752039514075690
 20
12.1945007499116440
 11
-41.5027039514066230
 21
12.1945007499116440
  0
LINE
  8
DEPRESS
 62
     4
 10
-43.0877039514075690
 20
12.1945007499116440
 11
-43.3152039514066230
 21
12.1945007499116440
  0
LINE
  8
DEPRESS
 62
     4
 10
-44.9002039514075690
 20
12.1945007499116440
 11
-45.1277039514066230
 21
12.1945007499116440
  0
LINE
  8
DEPRESS
 62
     4
 10
-46.7127039514075690
 20
12.1945007499116440
 11
-46.9402039514066230
 21
12.1945007499116440
  0
LINE
  8
DEPRESS
 62
     4
 10
-48.5252039514075690
 20
12.1945007499116440
 11
-48.7527039514066230
 21
12.1945007499116440
  0
LINE
  8
DEPRESS
 62
     4
 10
-50.3377039514075690
 20
12.1945007499116440
 11
-50.5652039514066230
 21
12.1945007499116440
  0
LINE
  8
DEPRESS
 62
     4
 10
-52.1502039514075690
 20
12.1945007499116440
 11
-52.3777039514066230
 21
12.1945007499116440
  0
LINE
  8
DEPRESS
 62
     4
 10
-53.9627039514075690
 20
12.1945007499116440
 11
-54.1902039514066230
 21
12.1945007499116440
  0
LINE
  8
DEPRESS
 62
     4
 10
-55.7752039514075690
 20
12.1945007499116440
 11
-56.0027039514066230
 21
12.1945007499116440
  0
LINE
  8
DEPRESS
 62
     4
 10
-56.7952039514061870
 20
13.7145007499120770
 11
-56.7952039514061870
 21
13.4870007499112030
  0
LINE
  8
DEPRESS
 62
     4
 10
-56.7952039514061870
 20
10.9020007499120800
 11
-56.7952039514061870
 21
10.6745007499112070
  0
LINE
  8
DEPRESS
 62
     4
 10
-54.9827039514061870
 20
13.7145007499120770
 11
-54.9827039514061870
 21
13.4870007499112030
  0
LINE
  8
DEPRESS
 62
     4
 10
-54.9827039514061870
 20
10.9020007499120800
 11
-54.9827039514061870
 21
10.6745007499112070
  0
LINE
  8
DEPRESS
 62
     4
 10
-53.1702039514061870
 20
13.7145007499120770
 11
-53.1702039514061870
 21
13.4870007499112030
  0
LINE
  8
DEPRESS
 62
     4
 10
-53.1702039514061870
 20
10.9020007499120800
 11
-53.1702039514061870
 21
10.6745007499112070
  0
LINE
  8
DEPRESS
 62
     4
 10
-51.3577039514061870
 20
13.7145007499120770
 11
-51.3577039514061870
 21
13.4870007499112030
  0
LINE
  8
DEPRESS
 62
     4
 10
-51.3577039514061870
 20
10.9020007499120800
 11
-51.3577039514061870
 21
10.6745007499112070
  0
LINE
  8
DEPRESS
 62
     4
 10
-49.5452039514061870
 20
13.7145007499120770
 11
-49.5452039514061870
 21
13.4870007499112030
  0
LINE
  8
DEPRESS
 62
     4
 10
-49.5452039514061870
 20
10.9020007499120800
 11
-49.5452039514061870
 21
10.6745007499112070
  0
LINE
  8
DEPRESS
 62
     4
 10
-47.7327039514061870
 20
13.7145007499120770
 11
-47.7327039514061870
 21
13.4870007499112030
  0
LINE
  8
DEPRESS
 62
     4
 10
-47.7327039514061870
 20
10.9020007499120800
 11
-47.7327039514061870
 21
10.6745007499112070
  0
LINE
  8
DEPRESS
 62
     4
 10
-45.9202039514061870
 20
13.7145007499120770
 11
-45.9202039514061870
 21
13.4870007499112030
  0
LINE
  8
DEPRESS
 62
     4
 10
-45.9202039514061870
 20
10.9020007499120800
 11
-45.9202039514061870
 21
10.6745007499112070
  0
LINE
  8
DEPRESS
 62
     4
 10
-44.1077039514061870
 20
13.7145007499120770
 11
-44.1077039514061870
 21
13.4870007499112030
  0
LINE
  8
DEPRESS
 62
     4
 10
-44.1077039514061870
 20
10.9020007499120800
 11
-44.1077039514061870
 21
10.6745007499112070
  0
LINE
  8
DEPRESS
 62
     4
 10
-42.2952039514061870
 20
13.7145007499120770
 11
-42.2952039514061870
 21
13.4870007499112030
  0
LINE
  8
DEPRESS
 62
     4
 10
-42.2952039514061870
 20
10.9020007499120800
 11
-42.2952039514061870
 21
10.6745007499112070
  0
LINE
  8
DEPRESS
 62
     4
 10
-40.4827039514061870
 20
13.7145007499120770
 11
-40.4827039514061870
 21
13.4870007499112030
  0
LINE
  8
DEPRESS
 62
     4
 10
-40.4827039514061870
 20
10.9020007499120800
 11
-40.4827039514061870
 21
10.6745007499112070
  0
LINE
  8
DEPRESS
 62
     4
 10
-38.6702039514061870
 20
13.7145007499120770
 11
-38.6702039514061870
 21
13.4870007499112030
  0
LINE
  8
DEPRESS
 62
     4
 10
-38.6702039514061870
 20
10.9020007499120800
 11
-38.6702039514061870
 21
10.6745007499112070
  0
LINE
  8
DEPRESS
 62
     4
 10
-35.0452039514061870
 20
10.6745007499112070
 11
-35.0452039514061870
 21
10.9020007499120800
  0
LINE
  8
DEPRESS
 62
     4
 10
-35.0452039514061870
 20
13.4870007499112030
 11
-35.0452039514061870
 21
13.7145007499120770
  0
LINE
  8
DEPRESS
 62
     4
 10
-36.8577039514061870
 20
13.7145007499120770
 11
-36.8577039514061870
 21
13.4870007499112030
  0
LINE
  8
DEPRESS
 62
     4
 10
-36.8577039514061870
 20
10.9020007499120800
 11
-36.8577039514061870
 21
10.6745007499112070
  0
POLYLINE
  8
NAME
 62
    94
 66
     1
 10
0.0
 20
0.0
 70
     0
  0
VERTEX
  8
NAME
 62
    94
 10
-56.8103071430273520
 20
23.2221515732444460
 42
0.4142135623730950
  0
VERTEX
  8
NAME
 62
    94
 10
-56.7478037564110520
 20
23.1596481866281470
 42
0.4141659576126406
  0
VERTEX
  8
NAME
 62
    94
 10
-56.6853105296436510
 20
23.2221515732444460
  0
VERTEX
  8
NAME
 62
    94
 10
-56.6853105296436510
 20
23.2846448000118470
 42
0.4141659576126406
  0
VERTEX
  8
NAME
 62
    94
 10
-56.7478037564110520
 20
23.3471481866281470
 42
0.4142135623730950
  0
VERTEX
  8
NAME
 62
    94
 10
-56.8103071430273520
 20
23.2846448000118470
  0
VERTEX
  8
NAME
 62
    94
 10
-56.8103071430273520
 20
23.2221515732444460
  0
SEQEND
  8
NAME
 62
    94
  0
LINE
  8
NAME
 62
    94
 10
-56.5603037564110520
 20
23.1596481866281470
 11
-56.6103105296447420
 21
23.1596481866281470
  0
POLYLINE
  8
NAME
 62
    94
 66
     1
 10
0.0
 20
0.0
 70
     0
  0
VERTEX
  8
NAME
 62
    94
 10
-56.5853071430288070
 20
23.1596481866281470
  0
VERTEX
  8
NAME
 62
    94
 10
-56.5853071430288070
 20
23.3471481866281470
  0
VERTEX
  8
NAME
 62
    94
 10
-56.6228071430273520
 20
23.3096481866277830
  0
SEQEND
  8
NAME
 62
    94
  0
LINE
  8
NAME
 62
    94
 10
-56.3728037564110520
 20
23.1596481866281470
 11
-56.4228105296447420
 21
23.1596481866281470
  0
POLYLINE
  8
NAME
 62
    94
 66
     1
 10
0.0
 20
0.0
 70
     0
  0
VERTEX
  8
NAME
 62
    94
 10
-56.3978071430288070
 20
23.1596481866281470
  0
VERTEX
  8
NAME
 62
    94
 10
-56.3978071430288070
 20
23.3471481866281470
  0
VERTEX
  8
NAME
 62
    94
 10
-56.4353071430273520
 20
23.3096481866277830
  0
SEQEND
  8
NAME
 62
    94
  0
POLYLINE
  8
NAME
 62
    94
 66
     1
 10
0.0
 20
0.0
 70
     0
  0
VERTEX
  8
NAME
 62
    94
 10
-56.2478071430273520
 20
23.1971481866285100
  0
VERTEX
  8
NAME
 62
    94
 10
-56.2472280316765350
 20
23.1961220419516390
 42
0.2726144184464477
  0
VERTEX
  8
NAME
 62
    94
 10
-56.1853037564110520
 20
23.1596481866281470
 42
0.4141659576126406
  0
VERTEX
  8
NAME
 62
    94
 10
-56.1228105296436510
 20
23.2221515732444460
  0
VERTEX
  8
NAME
 62
    94
 10
-56.1228105296436510
 20
23.2846448000118470
 42
0.4141659576126406
  0
VERTEX
  8
NAME
 62
    94
 10
-56.1853037564110520
 20
23.3471481866281470
 42
0.4142135623730950
  0
VERTEX
  8
NAME
 62
    94
 10
-56.2478071430273520
 20
23.2846448000118470
 42
0.4141659576126406
  0
VERTEX
  8
NAME
 62
    94
 10
-56.1853037564110520
 20
23.2221515732444460
  0
VERTEX
  8
NAME
 62
    94
 10
-56.1841353738605210
 20
23.2221414133955480
 42
0.2726544751729640
  0
VERTEX
  8
NAME
 62
    94
 10
-56.1228105296436510
 20
23.2596515732429910
  0
SEQEND
  8
NAME
 62
    94
  0
POLYLINE
  8
NAME
 62
    94
 66
     1
 10
0.0
 20
0.0
 70
     0
  0
VERTEX
  8
NAME
 62
    94
 10
-56.0603071430273520
 20
23.2346481866270550
 42
-0.3497855115661178
  0
VERTEX
  8
NAME
 62
    94
 10
-55.9979663139843280
 20
23.2846346401629490
 42
-0.4151201337904017
  0
VERTEX
  8
NAME
 62
    94
 10
-55.9353105296436510
 20
23.2221515732444460
 42
-0.4141659576126406
  0
VERTEX
  8
NAME
 62
    94
 10
-55.9978037564110520
 20
23.1596481866281470
 42
-0.4142135623730950
  0
VERTEX
  8
NAME
 62
    94
 10
-56.0603071430273520
 20
23.2221515732444460
  0
VERTEX
  8
NAME
 62
    94
 10
-56.0603071430273520
 20
23.2846448000118470
 42
-0.4142135623730950
  0
VERTEX
  8
NAME
 62
    94
 10
-55.9978037564110520
 20
23.3471481866281470
 42
-0.2725758813349730
  0
VERTEX
  8
NAME
 62
    94
 10
-55.9358896409962870
 20
23.3106743313046540
  0
VERTEX
  8
NAME
 62
    94
 10
-55.9353105296436510
 20
23.3096481866277830
  0
SEQEND
  8
NAME
 62
    94
  0
POLYLINE
  8
NAME
 62
    94
 66
     1
 10
0.0
 20
0.0
 70
     0
  0
VERTEX
  8
NAME
 62
    94
 10
-55.8728071430273520
 20
23.2346481866270550
 42
-0.3497855115661178
  0
VERTEX
  8
NAME
 62
    94
 10
-55.8104663139843280
 20
23.2846346401629490
 42
-0.4151201337904017
  0
VERTEX
  8
NAME
 62
    94
 10
-55.7478105296436510
 20
23.2221515732444460
 42
-0.4141659576126406
  0
VERTEX
  8
NAME
 62
    94
 10
-55.8103037564110520
 20
23.1596481866281470
 42
-0.4142135623730950
  0
VERTEX
  8
NAME
 62
    94
 10
-55.8728071430273520
 20
23.2221515732444460
  0
VERTEX
  8
NAME
 62
    94
 10
-55.8728071430273520
 20
23.2846448000118470
 42
-0.4142135623730950
  0
VERTEX
  8
NAME
 62
    94
 10
-55.8103037564110520
 20
23.3471481866281470
 42
-0.2725758813349730
  0
VERTEX
  8
NAME
 62
    94
 10
-55.7483896409962870
 20
23.3106743313046540
  0
VERTEX
  8
NAME
 62
    94
 10
-55.7478105296436510
 20
23.3096481866277830
  0
SEQEND
  8
NAME
 62
    94
  0
POLYLINE
  8
NAME
 62
    94
 66
     1
 10
0.0
 20
0.0
 70
     0
  0
VERTEX
  8
NAME
 62
    94
 10
-36.3367543507925110
 20
23.3471481866281470
  0
VERTEX
  8
NAME
 62
    94
 10
-36.2117577374088100
 20
23.3471481866281470
  0
VERTEX
  8
NAME
 62
    94
 10
-36.3367543507925110
 20
23.1596481866281470
  0
SEQEND
  8
NAME
 62
    94
  0
LINE
  8
NAME
 62
    94
 10
-36.1492543507925110
 20
23.2221515732444460
 11
-36.0742543507917830
 21
23.2221515732444460
  0
POLYLINE
  8
NAME
 62
    94
 66
     1
 10
0.0
 20
0.0
 70
     0
  0
VERTEX
  8
NAME
 62
    94
 10
-35.9617543507925110
 20
23.1971481866285100
  0
VERTEX
  8
NAME
 62
    94
 10
-35.9611752394398750
 20
23.1961220419516390
 42
0.2726144184464477
  0
VERTEX
  8
NAME
 62
    94
 10
-35.8992509641762110
 20
23.1596481866281470
 42
0.4141659576126406
  0
VERTEX
  8
NAME
 62
    94
 10
-35.8367577374088100
 20
23.2221515732444460
 42
0.4141183544531992
  0
VERTEX
  8
NAME
 62
    94
 10
-35.8992509641762110
 20
23.2846448000118470
  0
VERTEX
  8
NAME
 62
    94
 10
-35.8367577374088100
 20
23.3471481866281470
  0
VERTEX
  8
NAME
 62
    94
 10
-35.9617543507925110
 20
23.3471481866281470
  0
SEQEND
  8
NAME
 62
    94
  0
POLYLINE
  8
NAME
 62
    94
 66
     1
 10
0.0
 20
0.0
 70
     0
  0
VERTEX
  8
NAME
 62
    94
 10
-35.7742543507925110
 20
23.2221515732444460
 42
0.4142135623730950
  0
VERTEX
  8
NAME
 62
    94
 10
-35.7117509641762110
 20
23.1596481866281470
 42
0.4141659576126406
  0
VERTEX
  8
NAME
 62
    94
 10
-35.6492577374088100
 20
23.2221515732444460
  0
VERTEX
  8
NAME
 62
    94
 10
-35.6492577374088100
 20
23.2846448000118470
 42
0.4141659576126406
  0
VERTEX
  8
NAME
 62
    94
 10
-35.7117509641762110
 20
23.3471481866281470
 42
0.4142135623730950
  0
VERTEX
  8
NAME
 62
    94
 10
-35.7742543507925110
 20
23.2846448000118470
  0
VERTEX
  8
NAME
 62
    94
 10
-35.7742543507925110
 20
23.2221515732444460
  0
SEQEND
  8
NAME
 62
    94
  0
LINE
  8
NAME
 62
    94
 10
-35.5867543507925110
 20
23.2221515732444460
 11
-35.5117543507917830
 21
23.2221515732444460
  0
POLYLINE
  8
NAME
 62
    94
 66
     1
 10
0.0
 20
0.0
 70
     0
  0
VERTEX
  8
NAME
 62
    94
 10
-35.3992441909436120
 20
23.3096481866277830
 42
-0.2726544751729642
  0
VERTEX
  8
NAME
 62
    94
 10
-35.3379193467285620
 20
23.3471583464752260
  0
VERTEX
  8
NAME
 62
    94
 10
-35.3367509641762110
 20
23.3471481866281470
 42
-0.4142135623730950
  0
VERTEX
  8
NAME
 62
    94
 10
-35.2742475775599120
 20
23.2846448000118470
 42
-0.2357463286950689
  0
VERTEX
  8
NAME
 62
    94
 10
-35.2991900050860960
 20
23.2346888260208290
  0
VERTEX
  8
NAME
 62
    94
 10
-35.3742509641765750
 20
23.1971481866285100
 42
0.3021617378853236
  0
VERTEX
  8
NAME
 62
    94
 10
-35.3992543507925110
 20
23.1597904245036260
  0
VERTEX
  8
NAME
 62
    94
 10
-35.2742475775599120
 20
23.1596481866281470
  0
SEQEND
  8
NAME
 62
    94
  0
POLYLINE
  8
NAME
 62
    94
 66
     1
 10
0.0
 20
0.0
 70
     0
  0
VERTEX
  8
NAME
 62
    94
 10
-35.2117543507925110
 20
23.1971583464755890
 42
0.2726544751729642
  0
VERTEX
  8
NAME
 62
    94
 10
-35.1504295065774600
 20
23.1596481866281470
  0
VERTEX
  8
NAME
 62
    94
 10
-35.1492509641762110
 20
23.1596583464752260
 42
0.4141183544531993
  0
VERTEX
  8
NAME
 62
    94
 10
-35.0867577374088100
 20
23.2221515732444460
 42
0.4141659576126406
  0
VERTEX
  8
NAME
 62
    94
 10
-35.1492509641762110
 20
23.2846549598607450
 42
0.1898794627832547
  0
VERTEX
  8
NAME
 62
    94
 10
-35.2110431614132930
 20
23.2603119633813550
  0
VERTEX
  8
NAME
 62
    94
 10
-35.2117543507925110
 20
23.2596515732429910
  0
VERTEX
  8
NAME
 62
    94
 10
-35.2117543507925110
 20
23.3471583464752260
  0
VERTEX
  8
NAME
 62
    94
 10
-35.0867577374088100
 20
23.3471583464752260
  0
SEQEND
  8
NAME
 62
    94
  0
POLYLINE
  8
NAME
 62
    94
 66
     1
 10
0.0
 20
0.0
 70
     0
  0
VERTEX
  8
NAME
 62
    94
 10
-36.1317569937441690
 20
1.1243258896656734
 42
0.4142135623730950
  0
VERTEX
  8
NAME
 62
    94
 10
-36.0692536071278700
 20
1.0618225030511930
 42
0.4141659576126406
  0
VERTEX
  8
NAME
 62
    94
 10
-36.0067603803604680
 20
1.1243258896656734
  0
VERTEX
  8
NAME
 62
    94
 10
-36.0067603803604680
 20
1.1868191164348936
 42
0.4141659576126406
  0
VERTEX
  8
NAME
 62
    94
 10
-36.0692536071278700
 20
1.2493225030511930
 42
0.4142135623730950
  0
VERTEX
  8
NAME
 62
    94
 10
-36.1317569937441690
 20
1.1868191164348936
  0
VERTEX
  8
NAME
 62
    94
 10
-36.1317569937441690
 20
1.1243258896656734
  0
SEQEND
  8
NAME
 62
    94
  0
POLYLINE
  8
NAME
 62
    94
 66
     1
 10
0.0
 20
0.0
 70
     0
  0
VERTEX
  8
NAME
 62
    94
 10
-35.9442468338952710
 20
1.2118225030508292
 42
-0.2726544751729642
  0
VERTEX
  8
NAME
 62
    94
 10
-35.8829219896802200
 20
1.2493326628982722
  0
VERTEX
  8
NAME
 62
    94
 10
-35.8817536071278700
 20
1.2493225030511930
 42
-0.4142135623730950
  0
VERTEX
  8
NAME
 62
    94
 10
-35.8192502205115700
 20
1.1868191164348936
 42
-0.2357463286950689
  0
VERTEX
  8
NAME
 62
    94
 10
-35.8441926480377550
 20
1.1368631424438753
  0
VERTEX
  8
NAME
 62
    94
 10
-35.9192536071282330
 20
1.0993225030497378
 42
0.3021617378853236
  0
VERTEX
  8
NAME
 62
    94
 10
-35.9442569937441690
 20
1.0619647409266726
  0
VERTEX
  8
NAME
 62
    94
 10
-35.8192502205115700
 20
1.0618225030511930
  0
SEQEND
  8
NAME
 62
    94
  0
POLYLINE
  8
NAME
 62
    94
 66
     1
 10
0.0
 20
0.0
 70
     0
  0
VERTEX
  8
NAME
 62
    94
 10
-35.7567569937441690
 20
1.1243258896656734
 42
0.4142135623730950
  0
VERTEX
  8
NAME
 62
    94
 10
-35.6942536071278700
 20
1.0618225030511930
 42
0.4141659576126406
  0
VERTEX
  8
NAME
 62
    94
 10
-35.6317603803604680
 20
1.1243258896656734
  0
VERTEX
  8
NAME
 62
    94
 10
-35.6317603803604680
 20
1.1868191164348936
 42
0.4141659576126406
  0
VERTEX
  8
NAME
 62
    94
 10
-35.6942536071278700
 20
1.2493225030511930
 42
0.4142135623730950
  0
VERTEX
  8
NAME
 62
    94
 10
-35.7567569937441690
 20
1.1868191164348936
  0
VERTEX
  8
NAME
 62
    94
 10
-35.7567569937441690
 20
1.1243258896656734
  0
SEQEND
  8
NAME
 62
    94
  0
POLYLINE
  8
NAME
 62
    94
 66
     1
 10
0.0
 20
0.0
 70
     0
  0
VERTEX
  8
NAME
 62
    94
 10
-35.5692569937441690
 20
1.0993225030497378
  0
VERTEX
  8
NAME
 62
    94
 10
-35.5686778823915330
 20
1.0982963583746859
 42
0.2726144184464477
  0
VERTEX
  8
NAME
 62
    94
 10
-35.5067536071278700
 20
1.0618225030511930
 42
0.4141659576126406
  0
VERTEX
  8
NAME
 62
    94
 10
-35.4442603803604680
 20
1.1243258896656734
  0
VERTEX
  8
NAME
 62
    94
 10
-35.4442603803604680
 20
1.1868191164348936
 42
0.4141659576126406
  0
VERTEX
  8
NAME
 62
    94
 10
-35.5067536071278700
 20
1.2493225030511930
 42
0.4142135623730950
  0
VERTEX
  8
NAME
 62
    94
 10
-35.5692569937441690
 20
1.1868191164348936
 42
0.4141659576126406
  0
VERTEX
  8
NAME
 62
    94
 10
-35.5067536071278700
 20
1.1243258896656734
  0
VERTEX
  8
NAME
 62
    94
 10
-35.5055852245755190
 20
1.1243157298185942
 42
0.2726544751729640
  0
VERTEX
  8
NAME
 62
    94
 10
-35.4442603803604680
 20
1.1618258896660372
  0
SEQEND
  8
NAME
 62
    94
  0
POLYLINE
  8
NAME
 62
    94
 66
     1
 10
0.0
 20
0.0
 70
     0
  0
VERTEX
  8
NAME
 62
    94
 10
-35.2942603803608320
 20
1.0618225030511930
  0
VERTEX
  8
NAME
 62
    94
 10
-35.2942603803608320
 20
1.2493225030511930
  0
VERTEX
  8
NAME
 62
    94
 10
-35.3817569937441690
 20
1.1368225030501016
  0
VERTEX
  8
NAME
 62
    94
 10
-35.2567603803604680
 20
1.1368225030501016
  0
SEQEND
  8
NAME
 62
    94
  0
POLYLINE
  8
NAME
 62
    94
 66
     1
 10
0.0
 20
0.0
 70
     0
  0
VERTEX
  8
NAME
 62
    94
 10
-35.1942468338952710
 20
1.2118225030508292
 42
-0.2726544751729642
  0
VERTEX
  8
NAME
 62
    94
 10
-35.1329219896802200
 20
1.2493326628982722
  0
VERTEX
  8
NAME
 62
    94
 10
-35.1317536071278700
 20
1.2493225030511930
 42
-0.4142135623730950
  0
VERTEX
  8
NAME
 62
    94
 10
-35.0692502205115700
 20
1.1868191164348936
 42
-0.2357463286950689
  0
VERTEX
  8
NAME
 62
    94
 10
-35.0941926480377550
 20
1.1368631424438753
  0
VERTEX
  8
NAME
 62
    94
 10
-35.1692536071282330
 20
1.0993225030497378
 42
0.3021617378853236
  0
VERTEX
  8
NAME
 62
    94
 10
-35.1942569937441690
 20
1.0619647409266726
  0
VERTEX
  8
NAME
 62
    94
 10
-35.0692502205115700
 20
1.0618225030511930
  0
SEQEND
  8
NAME
 62
    94
  0
LINE
  8
NAME
 62
    94
 10
-56.9873460232324970
 20
1.2513996750394689
 11
-56.8873426366158340
 21
1.2513996750394689
  0
LINE
  8
NAME
 62
    94
 10
-56.9373494098477050
 20
1.2513996750394689
 11
-56.9373494098477050
 21
1.4388996750394689
  0
LINE
  8
NAME
 62
    94
 10
-56.9873460232324970
 20
1.4388996750394689
 11
-56.8873426366158340
 21
1.4388996750394689
  0
POLYLINE
  8
NAME
 62
    94
 66
     1
 10
0.0
 20
0.0
 70
     0
  0
VERTEX
  8
NAME
 62
    94
 10
-56.7998460232324970
 20
1.2513996750394689
  0
VERTEX
  8
NAME
 62
    94
 10
-56.7998460232324970
 20
1.4388996750394689
  0
VERTEX
  8
NAME
 62
    94
 10
-56.6498460232310420
 20
1.2513996750394689
  0
VERTEX
  8
NAME
 62
    94
 10
-56.6498460232310420
 20
1.4388996750394689
  0
SEQEND
  8
NAME
 62
    94
  0
LINE
  8
NAME
 62
    94
 10
-56.6123460232324970
 20
1.4388996750394689
 11
-56.4623460232310420
 21
1.4388996750394689
  0
POLYLINE
  8
NAME
 62
    94
 66
     1
 10
0.0
 20
0.0
 70
     0
  0
VERTEX
  8
NAME
 62
    94
 10
-56.2748460232310420
 20
1.4388996750394689
  0
VERTEX
  8
NAME
 62
    94
 10
-56.4248460232324970
 20
1.4388996750394689
  0
VERTEX
  8
NAME
 62
    94
 10
-56.4248460232324970
 20
1.2513996750394689
  0
VERTEX
  8
NAME
 62
    94
 10
-56.2748460232310420
 20
1.2513996750394689
  0
SEQEND
  8
NAME
 62
    94
  0
POLYLINE
  8
NAME
 62
    94
 66
     1
 10
0.0
 20
0.0
 70
     0
  0
VERTEX
  8
NAME
 62
    94
 10
-56.1248460232314060
 20
1.3388962884228057
  0
VERTEX
  8
NAME
 62
    94
 10
-56.0873460232310420
 20
1.3388962884228057
  0
VERTEX
  8
NAME
 62
    94
 10
-56.0873460232310420
 20
1.2764030616554045
 42
-0.2357463417807324
  0
VERTEX
  8
NAME
 62
    94
 10
-56.1372715176771850
 20
1.2513996750394689
  0
VERTEX
  8
NAME
 62
    94
 10
-56.1623460232317700
 20
1.2513996750394689
 42
-0.4142135623730950
  0
VERTEX
  8
NAME
 62
    94
 10
-56.2373460232324970
 20
1.3263996750401965
  0
VERTEX
  8
NAME
 62
    94
 10
-56.2373460232324970
 20
1.3638996750387413
 42
-0.4142135623730949
  0
VERTEX
  8
NAME
 62
    94
 10
-56.1623460232317700
 20
1.4388996750394689
  0
VERTEX
  8
NAME
 62
    94
 10
-56.1373426366158340
 20
1.4388996750394689
 42
-0.3492099092756997
  0
VERTEX
  8
NAME
 62
    94
 10
-56.0748900492403880
 20
1.3892180169523307
  0
SEQEND
  8
NAME
 62
    94
  0
POLYLINE
  8
NAME
 62
    94
 66
     1
 10
0.0
 20
0.0
 70
     0
  0
VERTEX
  8
NAME
 62
    94
 10
-56.0498460232324970
 20
1.3388962884228057
  0
VERTEX
  8
NAME
 62
    94
 10
-55.9623494098473420
 20
1.3388962884228057
 42
0.4142135623730948
  0
VERTEX
  8
NAME
 62
    94
 10
-55.9123527964643690
 20
1.3888929018075977
 42
0.4142730887184284
  0
VERTEX
  8
NAME
 62
    94
 10
-55.9623494098473420
 20
1.4388996750394689
  0
VERTEX
  8
NAME
 62
    94
 10
-56.0498460232324970
 20
1.4388996750394689
  0
VERTEX
  8
NAME
 62
    94
 10
-56.0498460232324970
 20
1.2513996750394689
  0
SEQEND
  8
NAME
 62
    94
  0
LINE
  8
NAME
 62
    94
 10
-55.9998494098477050
 20
1.3388962884228057
 11
-55.9248494098469780
 21
1.2513996750394689
  0
LINE
  8
NAME
 62
    94
 10
-55.8623460232324970
 20
1.2513996750394689
 11
-55.7623426366158340
 21
1.2513996750394689
  0
LINE
  8
NAME
 62
    94
 10
-55.8123494098477050
 20
1.2513996750394689
 11
-55.8123494098477050
 21
1.4388996750394689
  0
LINE
  8
NAME
 62
    94
 10
-55.8623460232324970
 20
1.4388996750394689
 11
-55.7623426366158340
 21
1.4388996750394689
  0
LINE
  8
NAME
 62
    94
 10
-55.6748460232324970
 20
1.4388996750394689
 11
-55.5248460232310420
 21
1.4388996750394689
  0
POLYLINE
  8
NAME
 62
    94
 66
     1
 10
0.0
 20
0.0
 70
     0
  0
VERTEX
  8
NAME
 62
    94
 10
-55.4873460232324970
 20
1.4388996750394689
  0
VERTEX
  8
NAME
 62
    94
 10
-55.4123460232317700
 20
1.3263996750401965
  0
VERTEX
  8
NAME
 62
    94
 10
-55.4123460232317700
 20
1.2513996750394689
  0
SEQEND
  8
NAME
 62
    94
  0
LINE
  8
NAME
 62
    94
 10
-55.4123460232317700
 20
1.3263996750401965
 11
-55.3373460232310420
 21
1.4388996750394689
  0
POLYLINE
  8
NAME
 62
    94
 66
     1
 10
0.0
 20
0.0
 70
     0
  0
VERTEX
  8
NAME
 62
    94
 10
-55.1592210232324970
 20
1.2513996750394689
  0
VERTEX
  8
NAME
 62
    94
 10
-55.0842210232317700
 20
1.2513996750394689
 42
0.4142135623730948
  0
VERTEX
  8
NAME
 62
    94
 10
-55.0092210232310420
 20
1.3263996750401965
  0
VERTEX
  8
NAME
 62
    94
 10
-55.0092210232310420
 20
1.3638996750387413
 42
0.4142135623730949
  0
VERTEX
  8
NAME
 62
    94
 10
-55.0842210232317700
 20
1.4388996750394689
  0
VERTEX
  8
NAME
 62
    94
 10
-55.1592210232324970
 20
1.4388996750394689
  0
VERTEX
  8
NAME
 62
    94
 10
-55.1592210232324970
 20
1.2513996750394689
  0
SEQEND
  8
NAME
 62
    94
  0
LINE
  8
NAME
 62
    94
 10
-54.9717210232324970
 20
1.2513996750394689
 11
-54.8717176366158340
 21
1.2513996750394689
  0
LINE
  8
NAME
 62
    94
 10
-54.9217244098477050
 20
1.2513996750394689
 11
-54.9217244098477050
 21
1.4388996750394689
  0
LINE
  8
NAME
 62
    94
 10
-54.9717210232324970
 20
1.4388996750394689
 11
-54.8717176366158340
 21
1.4388996750394689
  0
POLYLINE
  8
NAME
 62
    94
 66
     1
 10
0.0
 20
0.0
 70
     0
  0
VERTEX
  8
NAME
 62
    94
 10
-54.6342210232310420
 20
1.4388996750394689
  0
VERTEX
  8
NAME
 62
    94
 10
-54.7842210232324970
 20
1.4388996750394689
  0
VERTEX
  8
NAME
 62
    94
 10
-54.7842210232324970
 20
1.2513996750394689
  0
VERTEX
  8
NAME
 62
    94
 10
-54.6342210232310420
 20
1.2513996750394689
  0
SEQEND
  8
NAME
 62
    94
  0
LINE
  8
NAME
 62
    94
 10
-54.6717210232314060
 20
1.3514030616561321
 11
-54.7842210232324970
 21
1.3514030616561321
  0
LINE
  8
NAME
 62
    94
 10
-55.5998460232317700
 20
1.4388996750394689
 11
-55.5998460232317700
 21
1.2513996750394689
  0
LINE
  8
NAME
 62
    94
 10
-56.3123460232314060
 20
1.3514030616561321
 11
-56.4248460232324970
 21
1.3514030616561321
  0
LINE
  8
NAME
 62
    94
 10
-56.5373460232317700
 20
1.4388996750394689
 11
-56.5373460232317700
 21
1.2513996750394689
  0
POLYLINE
  8
NAME
 62
    94
 66
     1
 10
0.0
 20
0.0
 70
     0
  0
VERTEX
  8
NAME
 62
    94
 10
-36.9929941909436120
 20
1.5868225030508292
 42
-0.2726544751729642
  0
VERTEX
  8
NAME
 62
    94
 10
-36.9316693467285620
 20
1.6243326628982722
  0
VERTEX
  8
NAME
 62
    94
 10
-36.9305009641762110
 20
1.6243225030511930
 42
-0.4142135623730950
  0
VERTEX
  8
NAME
 62
    94
 10
-36.8679975775599120
 20
1.5618191164348936
 42
-0.2357463286950689
  0
VERTEX
  8
NAME
 62
    94
 10
-36.8929400050860960
 20
1.5118631424438753
  0
VERTEX
  8
NAME
 62
    94
 10
-36.9680009641765750
 20
1.4743225030497378
 42
0.3021617378853236
  0
VERTEX
  8
NAME
 62
    94
 10
-36.9930043507925110
 20
1.4369647409266726
  0
VERTEX
  8
NAME
 62
    94
 10
-36.8679975775599120
 20
1.4368225030511930
  0
SEQEND
  8
NAME
 62
    94
  0
POLYLINE
  8
NAME
 62
    94
 66
     1
 10
0.0
 20
0.0
 70
     0
  0
VERTEX
  8
NAME
 62
    94
 10
-36.8055043507925110
 20
1.4368225030511930
  0
VERTEX
  8
NAME
 62
    94
 10
-36.8055043507925110
 20
1.6243225030511930
  0
VERTEX
  8
NAME
 62
    94
 10
-36.7180077374091740
 20
1.6243225030511930
 42
-0.4142730887184284
  0
VERTEX
  8
NAME
 62
    94
 10
-36.6680111240243820
 20
1.5743157298175028
 42
-0.4142135623730948
  0
VERTEX
  8
NAME
 62
    94
 10
-36.7180077374091740
 20
1.5243191164345298
  0
VERTEX
  8
NAME
 62
    94
 10
-36.8055043507925110
 20
1.5243191164345298
  0
SEQEND
  8
NAME
 62
    94
  0
LINE
  8
NAME
 62
    94
 10
-36.6180043507925110
 20
1.6243225030511930
 11
-36.4680043507928740
 21
1.6243225030511930
  0
LINE
  8
NAME
 62
    94
 10
-36.5430043507917830
 20
1.6243225030511930
 11
-36.5430043507917830
 21
1.4368225030511930
  0
POLYLINE
  8
NAME
 62
    94
 66
     1
 10
0.0
 20
0.0
 70
     0
  0
VERTEX
  8
NAME
 62
    94
 10
-36.1273827374084460
 20
1.4868191164341660
 42
-0.3497855115661177
  0
VERTEX
  8
NAME
 62
    94
 10
-36.1897235664514700
 20
1.4368326628982722
  0
VERTEX
  8
NAME
 62
    94
 10
-36.2148793507917830
 20
1.4368225030511930
 42
-0.4142135623730950
  0
VERTEX
  8
NAME
 62
    94
 10
-36.2898793507925110
 20
1.5118225030501016
  0
VERTEX
  8
NAME
 62
    94
 10
-36.2898793507925110
 20
1.5493225030504654
 42
-0.4142135623730950
  0
VERTEX
  8
NAME
 62
    94
 10
-36.2148793507917830
 20
1.6243225030511930
  0
VERTEX
  8
NAME
 62
    94
 10
-36.1898759641758470
 20
1.6243225030511930
 42
-0.3492099092756997
  0
VERTEX
  8
NAME
 62
    94
 10
-36.1274233768022200
 20
1.5746408449640548
  0
SEQEND
  8
NAME
 62
    94
  0
POLYLINE
  8
NAME
 62
    94
 66
     1
 10
0.0
 20
0.0
 70
     0
  0
VERTEX
  8
NAME
 62
    94
 10
-36.1023793507925110
 20
1.5368258896660372
  0
VERTEX
  8
NAME
 62
    94
 10
-36.0023759641758470
 20
1.5368258896660372
 42
-0.4142730887184283
  0
VERTEX
  8
NAME
 62
    94
 10
-35.9523793507928740
 20
1.4868191164341660
 42
-0.4142135623730950
  0
VERTEX
  8
NAME
 62
    94
 10
-36.0023759641758470
 20
1.4368225030511930
  0
VERTEX
  8
NAME
 62
    94
 10
-36.1023793507925110
 20
1.4368225030511930
  0
VERTEX
  8
NAME
 62
    94
 10
-36.1023793507925110
 20
1.6243225030511930
  0
VERTEX
  8
NAME
 62
    94
 10
-36.0148827374091740
 20
1.6243225030511930
 42
-0.4142730887184284
  0
VERTEX
  8
NAME
 62
    94
 10
-35.9648861240243820
 20
1.5743157298175028
 42
-0.4140548860636879
  0
VERTEX
  8
NAME
 62
    94
 10
-36.0023759641758470
 20
1.5368258896660372
  0
SEQEND
  8
NAME
 62
    94
  0
POLYLINE
  8
NAME
 62
    94
 66
     1
 10
0.0
 20
0.0
 70
     0
  0
VERTEX
  8
NAME
 62
    94
 10
-35.7617577374080820
 20
1.4368225030511930
 42
0.4144518038350335
  0
VERTEX
  8
NAME
 62
    94
 10
-35.7492509641765750
 20
1.4493191164338022
 42
0.4146900856123691
  0
VERTEX
  8
NAME
 62
    94
 10
-35.7617577374080820
 20
1.4618258896671286
 42
0.4144518038350336
  0
VERTEX
  8
NAME
 62
    94
 10
-35.7742543507925110
 20
1.4493191164338022
 42
0.4142135623730950
  0
VERTEX
  8
NAME
 62
    94
 10
-35.7617577374080820
 20
1.4368225030511930
  0
SEQEND
  8
NAME
 62
    94
  0
POLYLINE
  8
NAME
 62
    94
 66
     1
 10
0.0
 20
0.0
 70
     0
  0
VERTEX
  8
NAME
 62
    94
 10
-35.5867543507925110
 20
1.4743225030497378
  0
VERTEX
  8
NAME
 62
    94
 10
-35.5861752394398750
 20
1.4732963583746859
 42
0.2726144184464477
  0
VERTEX
  8
NAME
 62
    94
 10
-35.5242509641762110
 20
1.4368225030511930
 42
0.4141659576126406
  0
VERTEX
  8
NAME
 62
    94
 10
-35.4617577374088100
 20
1.4993258896656734
  0
VERTEX
  8
NAME
 62
    94
 10
-35.4617577374088100
 20
1.5618191164348936
 42
0.4141659576126406
  0
VERTEX
  8
NAME
 62
    94
 10
-35.5242509641762110
 20
1.6243225030511930
 42
0.4142135623730950
  0
VERTEX
  8
NAME
 62
    94
 10
-35.5867543507925110
 20
1.5618191164348936
 42
0.4141659576126406
  0
VERTEX
  8
NAME
 62
    94
 10
-35.5242509641762110
 20
1.4993258896656734
  0
VERTEX
  8
NAME
 62
    94
 10
-35.5230825816238610
 20
1.4993157298185942
 42
0.2726544751729640
  0
VERTEX
  8
NAME
 62
    94
 10
-35.4617577374088100
 20
1.5368258896660372
  0
SEQEND
  8
NAME
 62
    94
  0
POLYLINE
  8
NAME
 62
    94
 66
     1
 10
0.0
 20
0.0
 70
     0
  0
VERTEX
  8
NAME
 62
    94
 10
-35.3992543507925110
 20
1.4743225030497378
  0
VERTEX
  8
NAME
 62
    94
 10
-35.3986752394398750
 20
1.4732963583746859
 42
0.2726144184464477
  0
VERTEX
  8
NAME
 62
    94
 10
-35.3367509641762110
 20
1.4368225030511930
 42
0.4141659576126406
  0
VERTEX
  8
NAME
 62
    94
 10
-35.2742577374088100
 20
1.4993258896656734
 42
0.4141183544531992
  0
VERTEX
  8
NAME
 62
    94
 10
-35.3367509641762110
 20
1.5618191164348936
  0
VERTEX
  8
NAME
 62
    94
 10
-35.2742577374088100
 20
1.6243225030511930
  0
VERTEX
  8
NAME
 62
    94
 10
-35.3992543507925110
 20
1.6243225030511930
  0
SEQEND
  8
NAME
 62
    94
  0
POLYLINE
  8
NAME
 62
    94
 66
     1
 10
0.0
 20
0.0
 70
     0
  0
VERTEX
  8
NAME
 62
    94
 10
-35.2117543507925110
 20
1.6243225030511930
  0
VERTEX
  8
NAME
 62
    94
 10
-35.0867577374088100
 20
1.6243225030511930
  0
VERTEX
  8
NAME
 62
    94
 10
-35.2117543507925110
 20
1.4368225030511930
  0
SEQEND
  8
NAME
 62
    94
  0
POLYLINE
  8
NAME
 62
    94
 66
     1
 10
0.0
 20
0.0
 70
     0
  0
VERTEX
  8
NAME
 62
    94
 10
-37.0223819937441690
 20
1.0618225030511930
  0
VERTEX
  8
NAME
 62
    94
 10
-36.9473819937434410
 20
1.0618225030511930
 42
0.4142135623730948
  0
VERTEX
  8
NAME
 62
    94
 10
-36.8723819937445330
 20
1.1368225030501016
  0
VERTEX
  8
NAME
 62
    94
 10
-36.8723819937445330
 20
1.1743225030504654
 42
0.4142135623730949
  0
VERTEX
  8
NAME
 62
    94
 10
-36.9473819937434410
 20
1.2493225030511930
  0
VERTEX
  8
NAME
 62
    94
 10
-37.0223819937441690
 20
1.2493225030511930
  0
VERTEX
  8
NAME
 62
    94
 10
-37.0223819937441690
 20
1.0618225030511930
  0
SEQEND
  8
NAME
 62
    94
  0
LINE
  8
NAME
 62
    94
 10
-36.8348819937441690
 20
1.0618225030511930
 11
-36.7348786071275060
 21
1.0618225030511930
  0
LINE
  8
NAME
 62
    94
 10
-36.7848853803593770
 20
1.0618225030511930
 11
-36.7848853803593770
 21
1.2493225030511930
  0
LINE
  8
NAME
 62
    94
 10
-36.8348819937441690
 20
1.2493225030511930
 11
-36.7348786071275060
 21
1.2493225030511930
  0
POLYLINE
  8
NAME
 62
    94
 66
     1
 10
0.0
 20
0.0
 70
     0
  0
VERTEX
  8
NAME
 62
    94
 10
-36.4973819937445330
 20
1.0618225030511930
  0
VERTEX
  8
NAME
 62
    94
 10
-36.6473819937441690
 20
1.0618225030511930
  0
VERTEX
  8
NAME
 62
    94
 10
-36.6473819937441690
 20
1.2493225030511930
  0
VERTEX
  8
NAME
 62
    94
 10
-36.4973819937445330
 20
1.2493225030511930
  0
SEQEND
  8
NAME
 62
    94
  0
LINE
  8
NAME
 62
    94
 10
-36.5348819937448970
 20
1.1618258896660372
 11
-36.6473819937441690
 21
1.1618258896660372
  0
LINE
  8
NAME
 62
    94
 10
-36.4598819937441690
 20
1.1618258896660372
 11
-36.3598786071275060
 21
1.1618258896660372
  0
LINE
  8
NAME
 62
    94
 10
-36.3848819937434410
 20
1.1868191164348936
 11
-36.3848819937434410
 21
1.0868258896671286
  0
LINE
  8
NAME
 62
    94
 10
-36.3598786071275060
 20
1.1118191164341660
 11
-36.4598819937441690
 21
1.1118191164341660
  0
LINE
  8
NAME
 62
    94
 10
-36.4348786071282330
 20
1.0868258896671286
 11
-36.4348786071282330
 21
1.1868191164348936
  0
POLYLINE
  8
NAME
 62
    94
 66
     1
 10
0.0
 20
0.0
 70
     0
  0
VERTEX
  8
NAME
 62
    94
 10
-56.6077039514061870
 20
15.5070007499116400
  0
VERTEX
  8
NAME
 62
    94
 10
-57.1077039514061870
 20
15.5070007499116400
  0
VERTEX
  8
NAME
 62
    94
 10
-57.1077039514061870
 20
15.0070007499116400
  0
SEQEND
  8
NAME
 62
    94
  0
POLYLINE
  8
NAME
 62
    94
 66
     1
 10
0.0
 20
0.0
 70
     0
  0
VERTEX
  8
NAME
 62
    94
 10
-57.1077039514061870
 20
9.3820007499116436
  0
VERTEX
  8
NAME
 62
    94
 10
-57.1077039514061870
 20
8.8820007499116436
  0
VERTEX
  8
NAME
 62
    94
 10
-56.6077039514061870
 20
8.8820007499116436
  0
SEQEND
  8
NAME
 62
    94
  0
POLYLINE
  8
NAME
 62
    94
 66
     1
 10
0.0
 20
0.0
 70
     0
  0
VERTEX
  8
NAME
 62
    94
 10
-35.2327039514061870
 20
8.8820007499116436
  0
VERTEX
  8
NAME
 62
    94
 10
-34.7327039514061870
 20
8.8820007499116436
  0
VERTEX
  8
NAME
 62
    94
 10
-34.7327039514061870
 20
9.3820007499116436
  0
SEQEND
  8
NAME
 62
    94
  0
POLYLINE
  8
NAME
 62
    94
 66
     1
 10
0.0
 20
0.0
 70
     0
  0
VERTEX
  8
NAME
 62
    94
 10
-34.7327039514061870
 20
15.0070007499116400
  0
VERTEX
  8
NAME
 62
    94
 10
-34.7327039514061870
 20
15.5070007499116400
  0
VERTEX
  8
NAME
 62
    94
 10
-35.2327039514061870
 20
15.5070007499116400
  0
SEQEND
  8
NAME
 62
    94
  0
LINE
  8
LAYOUT
 62
     5
 10
-35.0452039514061870
 20
15.0070007499116400
 11
-35.8577039514061870
 21
15.0070007499116400
  0
LINE
  8
LAYOUT
 62
     5
 10
-36.0452039514061870
 20
15.0070007499116400
 11
-37.6702039514061870
 21
15.0070007499116400
  0
LINE
  8
LAYOUT
 62
     5
 10
-37.8577039514061870
 20
15.0070007499116400
 11
-39.4827039514061790
 21
15.0070007499116400
  0
LINE
  8
LAYOUT
 62
     5
 10
-39.6702039514061870
 20
15.0070007499116400
 11
-41.2952039514061940
 21
15.0070007499116400
  0
LINE
  8
LAYOUT
 62
     5
 10
-41.4827039514061940
 20
15.0070007499116400
 11
-43.1077039514061870
 21
15.0070007499116400
  0
LINE
  8
LAYOUT
 62
     5
 10
-43.2952039514061870
 20
15.0070007499116400
 11
-44.9202039514061870
 21
15.0070007499116400
  0
LINE
  8
LAYOUT
 62
     5
 10
-45.1077039514061870
 20
15.0070007499116400
 11
-46.7327039514061870
 21
15.0070007499116400
  0
LINE
  8
LAYOUT
 62
     5
 10
-46.9202039514061870
 20
15.0070007499116400
 11
-48.5452039514061940
 21
15.0070007499116400
  0
LINE
  8
LAYOUT
 62
     5
 10
-48.7327039514061870
 20
15.0070007499116400
 11
-50.3577039514061940
 21
15.0070007499116400
  0
LINE
  8
LAYOUT
 62
     5
 10
-50.5452039514061870
 20
15.0070007499116400
 11
-52.1702039514061870
 21
15.0070007499116400
  0
LINE
  8
LAYOUT
 62
     5
 10
-52.3577039514061870
 20
15.0070007499116400
 11
-53.9827039514061870
 21
15.0070007499116400
  0
LINE
  8
LAYOUT
 62
     5
 10
-54.1702039514061870
 20
15.0070007499116400
 11
-55.7952039514061870
 21
15.0070007499116400
  0
LINE
  8
LAYOUT
 62
     5
 10
-55.9827039514061870
 20
15.0070007499116400
 11
-56.7952039514061870
 21
15.0070007499116400
  0
LINE
  8
LAYOUT
 62
     5
 10
-56.7952039514061870
 20
9.3820007499116436
 11
-55.9827039514061870
 21
9.3820007499116436
  0
LINE
  8
LAYOUT
 62
     5
 10
-55.7952039514061870
 20
9.3820007499116436
 11
-54.1702039514061870
 21
9.3820007499116436
  0
LINE
  8
LAYOUT
 62
     5
 10
-53.9827039514061870
 20
9.3820007499116436
 11
-52.3577039514061870
 21
9.3820007499116436
  0
LINE
  8
LAYOUT
 62
     5
 10
-52.1702039514061870
 20
9.3820007499116436
 11
-50.5452039514061870
 21
9.3820007499116436
  0
LINE
  8
LAYOUT
 62
     5
 10
-50.3577039514061940
 20
9.3820007499116436
 11
-48.7327039514061870
 21
9.3820007499116436
  0
LINE
  8
LAYOUT
 62
     5
 10
-48.5452039514061940
 20
9.3820007499116436
 11
-46.9202039514061790
 21
9.3820007499116436
  0
LINE
  8
LAYOUT
 62
     5
 10
-46.7327039514061870
 20
9.3820007499116436
 11
-45.1077039514061870
 21
9.3820007499116436
  0
LINE
  8
LAYOUT
 62
     5
 10
-44.9202039514061940
 20
9.3820007499116436
 11
-43.2952039514061870
 21
9.3820007499116436
  0
LINE
  8
LAYOUT
 62
     5
 10
-43.1077039514061870
 20
9.3820007499116436
 11
-41.4827039514061870
 21
9.3820007499116436
  0
LINE
  8
LAYOUT
 62
     5
 10
-41.2952039514061870
 20
9.3820007499116436
 11
-39.6702039514061870
 21
9.3820007499116436
  0
LINE
  8
LAYOUT
 62
     5
 10
-39.4827039514061870
 20
9.3820007499116436
 11
-37.8577039514061870
 21
9.3820007499116436
  0
LINE
  8
LAYOUT
 62
     5
 10
-37.6702039514061870
 20
9.3820007499116436
 11
-36.0452039514061870
 21
9.3820007499116436
  0
LINE
  8
LAYOUT
 62
     5
 10
-35.8577039514061870
 20
9.3820007499116436
 11
-35.0452039514061870
 21
9.3820007499116436
  0
LINE
  8
LAYOUT
 62
     5
 10
-35.0452039514061870
 20
12.1945007499116440
 11
-35.8577039514061870
 21
12.1945007499116440
  0
LINE
  8
LAYOUT
 62
     5
 10
-36.0452039514061870
 20
12.1945007499116450
 11
-37.6702039514061870
 21
12.1945007499116440
  0
LINE
  8
LAYOUT
 62
     5
 10
-37.8577039514061870
 20
12.1945007499116440
 11
-39.4827039514061790
 21
12.1945007499116440
  0
LINE
  8
LAYOUT
 62
     5
 10
-39.6702039514061870
 20
12.1945007499116440
 11
-41.2952039514061940
 21
12.1945007499116440
  0
LINE
  8
LAYOUT
 62
     5
 10
-41.4827039514061940
 20
12.1945007499116440
 11
-43.1077039514061870
 21
12.1945007499116440
  0
LINE
  8
LAYOUT
 62
     5
 10
-43.2952039514061870
 20
12.1945007499116440
 11
-44.9202039514061870
 21
12.1945007499116440
  0
LINE
  8
LAYOUT
 62
     5
 10
-45.1077039514061870
 20
12.1945007499116440
 11
-46.7327039514061870
 21
12.1945007499116440
  0
LINE
  8
LAYOUT
 62
     5
 10
-46.9202039514061870
 20
12.1945007499116440
 11
-48.5452039514061940
 21
12.1945007499116440
  0
LINE
  8
LAYOUT
 62
     5
 10
-48.7327039514061870
 20
12.1945007499116440
 11
-50.3577039514061940
 21
12.1945007499116440
  0
LINE
  8
LAYOUT
 62
     5
 10
-50.5452039514061870
 20
12.1945007499116440
 11
-52.1702039514061870
 21
12.1945007499116440
  0
LINE
  8
LAYOUT
 62
     5
 10
-52.3577039514061870
 20
12.1945007499116440
 11
-53.9827039514061870
 21
12.1945007499116440
  0
LINE
  8
LAYOUT
 62
     5
 10
-54.1702039514061870
 20
12.1945007499116440
 11
-55.7952039514061870
 21
12.1945007499116440
  0
LINE
  8
LAYOUT
 62
     5
 10
-55.9827039514061870
 20
12.1945007499116440
 11
-56.7952039514061870
 21
12.1945007499116440
  0
LINE
  8
LAYOUT
 62
     5
 10
-56.7952039514061870
 20
15.0070007499116400
 11
-56.7952039514061940
 21
13.6945007499116420
  0
LINE
  8
LAYOUT
 62
     5
 10
-56.7952039514061940
 20
13.5070007499116420
 11
-56.7952039514061870
 21
10.8820007499116440
  0
LINE
  8
LAYOUT
 62
     5
 10
-56.7952039514061870
 20
10.6945007499116420
 11
-56.7952039514061870
 21
9.3820007499116436
  0
LINE
  8
LAYOUT
 62
     5
 10
-54.9827039514061870
 20
15.0070007499116400
 11
-54.9827039514061870
 21
13.6945007499116420
  0
LINE
  8
LAYOUT
 62
     5
 10
-54.9827039514061870
 20
13.5070007499116420
 11
-54.9827039514061940
 21
10.8820007499116440
  0
LINE
  8
LAYOUT
 62
     5
 10
-54.9827039514061870
 20
10.6945007499116420
 11
-54.9827039514061870
 21
9.3820007499116436
  0
LINE
  8
LAYOUT
 62
     5
 10
-53.1702039514061870
 20
15.0070007499116400
 11
-53.1702039514061870
 21
13.6945007499116420
  0
LINE
  8
LAYOUT
 62
     5
 10
-53.1702039514061870
 20
13.5070007499116420
 11
-53.1702039514061790
 21
10.8820007499116440
  0
LINE
  8
LAYOUT
 62
     5
 10
-53.1702039514061870
 20
10.6945007499116420
 11
-53.1702039514061870
 21
9.3820007499116436
  0
LINE
  8
LAYOUT
 62
     5
 10
-51.3577039514061870
 20
15.0070007499116400
 11
-51.3577039514061870
 21
13.6945007499116420
  0
LINE
  8
LAYOUT
 62
     5
 10
-51.3577039514061870
 20
13.5070007499116420
 11
-51.3577039514061870
 21
10.8820007499116440
  0
LINE
  8
LAYOUT
 62
     5
 10
-51.3577039514061870
 20
10.6945007499116420
 11
-51.3577039514061870
 21
9.3820007499116436
  0
LINE
  8
LAYOUT
 62
     5
 10
-49.5452039514061870
 20
15.0070007499116400
 11
-49.5452039514061870
 21
13.6945007499116420
  0
LINE
  8
LAYOUT
 62
     5
 10
-49.5452039514061870
 20
13.5070007499116420
 11
-49.5452039514061870
 21
10.8820007499116440
  0
LINE
  8
LAYOUT
 62
     5
 10
-49.5452039514061870
 20
10.6945007499116420
 11
-49.5452039514061870
 21
9.3820007499116436
  0
LINE
  8
LAYOUT
 62
     5
 10
-47.7327039514061870
 20
15.0070007499116400
 11
-47.7327039514061870
 21
13.6945007499116420
  0
LINE
  8
LAYOUT
 62
     5
 10
-47.7327039514061940
 20
13.5070007499116420
 11
-47.7327039514061870
 21
10.8820007499116440
  0
LINE
  8
LAYOUT
 62
     5
 10
-47.7327039514061790
 20
10.6945007499116420
 11
-47.7327039514061870
 21
9.3820007499116436
  0
LINE
  8
LAYOUT
 62
     5
 10
-45.9202039514061870
 20
15.0070007499116400
 11
-45.9202039514061940
 21
13.6945007499116420
  0
LINE
  8
LAYOUT
 62
     5
 10
-45.9202039514061940
 20
13.5070007499116420
 11
-45.9202039514061870
 21
10.8820007499116440
  0
LINE
  8
LAYOUT
 62
     5
 10
-45.9202039514061940
 20
10.6945007499116420
 11
-45.9202039514061870
 21
9.3820007499116436
  0
LINE
  8
LAYOUT
 62
     5
 10
-44.1077039514061870
 20
15.0070007499116400
 11
-44.1077039514061940
 21
13.6945007499116420
  0
LINE
  8
LAYOUT
 62
     5
 10
-44.1077039514061940
 20
13.5070007499116420
 11
-44.1077039514061870
 21
10.8820007499116440
  0
LINE
  8
LAYOUT
 62
     5
 10
-44.1077039514061940
 20
10.6945007499116420
 11
-44.1077039514061870
 21
9.3820007499116436
  0
LINE
  8
LAYOUT
 62
     5
 10
-42.2952039514061870
 20
15.0070007499116400
 11
-42.2952039514061940
 21
13.6945007499116420
  0
LINE
  8
LAYOUT
 62
     5
 10
-42.2952039514061940
 20
13.5070007499116420
 11
-42.2952039514061870
 21
10.8820007499116440
  0
LINE
  8
LAYOUT
 62
     5
 10
-42.2952039514061870
 20
10.6945007499116420
 11
-42.2952039514061870
 21
9.3820007499116436
  0
LINE
  8
LAYOUT
 62
     5
 10
-40.4827039514061870
 20
15.0070007499116400
 11
-40.4827039514061870
 21
13.6945007499116420
  0
LINE
  8
LAYOUT
 62
     5
 10
-40.4827039514061940
 20
13.5070007499116420
 11
-40.4827039514061870
 21
10.8820007499116440
  0
LINE
  8
LAYOUT
 62
     5
 10
-40.4827039514061870
 20
10.6945007499116420
 11
-40.4827039514061870
 21
9.3820007499116436
  0
LINE
  8
LAYOUT
 62
     5
 10
-38.6702039514061870
 20
15.0070007499116400
 11
-38.6702039514061870
 21
13.6945007499116420
  0
LINE
  8
LAYOUT
 62
     5
 10
-38.6702039514061870
 20
13.5070007499116420
 11
-38.6702039514061870
 21
10.8820007499116440
  0
LINE
  8
LAYOUT
 62
     5
 10
-38.6702039514061870
 20
10.6945007499116420
 11
-38.6702039514061870
 21
9.3820007499116436
  0
LINE
  8
LAYOUT
 62
     5
 10
-35.0452039514061870
 20
9.3820007499116436
 11
-35.0452039514061870
 21
10.6945007499116440
  0
LINE
  8
LAYOUT
 62
     5
 10
-35.0452039514061940
 20
10.8820007499116440
 11
-35.0452039514061870
 21
13.5070007499116400
  0
LINE
  8
LAYOUT
 62
     5
 10
-35.0452039514061870
 20
13.6945007499116420
 11
-35.0452039514061870
 21
15.0070007499116400
  0
LINE
  8
LAYOUT
 62
     5
 10
-36.8577039514061870
 20
15.0070007499116400
 11
-36.8577039514061870
 21
13.6945007499116420
  0
LINE
  8
LAYOUT
 62
     5
 10
-36.8577039514061870
 20
13.5070007499116420
 11
-36.8577039514061870
 21
10.8820007499116440
  0
LINE
  8
LAYOUT
 62
     5
 10
-36.8577039514061870
 20
10.6945007499116420
 11
-36.8577039514061870
 21
9.3820007499116436
  0
LINE
  8
GRIP
 62
   110
 10
-57.8096372847399140
 20
13.1811535276892760
 11
-59.1842039514072200
 21
13.1811535276892760
  0
LINE
  8
GRIP
 62
   110
 10
-57.8096372847399140
 20
12.6808201943558740
 11
-57.8096372847399140
 21
13.1811535276892760
  0
LINE
  8
GRIP
 62
   110
 10
-57.0592039514072200
 20
12.6808201943558740
 11
-57.8096372847399140
 21
12.6808201943558740
  0
LINE
  8
GRIP
 62
   110
 10
-57.0592039514072200
 20
11.7081813054674090
 11
-57.0592039514072200
 21
12.6808201943558740
  0
LINE
  8
GRIP
 62
   110
 10
-57.8096372847399140
 20
11.7081813054674090
 11
-57.0592039514072200
 21
11.7081813054674090
  0
LINE
  8
GRIP
 62
   110
 10
-57.8096372847399140
 20
11.2078479721340080
 11
-57.8096372847399140
 21
11.7081813054674090
  0
LINE
  8
GRIP
 62
   110
 10
-59.1842039514072200
 20
11.2078479721340080
 11
-57.8096372847399140
 21
11.2078479721340080
  0
LINE
  8
GRIP
 62
   110
 10
-34.0307872847411300
 20
13.1811535276892760
 11
-32.6562039514069720
 21
13.1811535276892760
  0
LINE
  8
GRIP
 62
   110
 10
-34.0307872847411300
 20
12.6808201943558740
 11
-34.0307872847411300
 21
13.1811535276892760
  0
LINE
  8
GRIP
 62
   110
 10
-34.7812039514069720
 20
12.6808201943558740
 11
-34.0307872847411300
 21
12.6808201943558740
  0
LINE
  8
GRIP
 62
   110
 10
-34.7812039514069720
 20
11.7081813054674090
 11
-34.7812039514069720
 21
12.6808201943558740
  0
LINE
  8
GRIP
 62
   110
 10
-34.0307872847411300
 20
11.7081813054674090
 11
-34.7812039514069720
 21
11.7081813054674090
  0
LINE
  8
GRIP
 62
   110
 10
-34.0307872847411300
 20
11.2078479721340080
 11
-34.0307872847411300
 21
11.7081813054674090
  0
LINE
  8
GRIP
 62
   110
 10
-32.6562039514069720
 20
11.2078479721340080
 11
-34.0307872847411300
 21
11.2078479721340080
  0
POLYLINE
  8
GRIP
 62
   110
 66
     1
 10
0.0
 20
0.0
 70
     0
  0
VERTEX
  8
GRIP
 62
   110
 10
-55.1539261736293370
 20
0.1805007529956164
  0
VERTEX
  8
GRIP
 62
   110
 10
-56.6179729093369350
 20
0.1805004305342699
 42
-0.2120165065946514
  0
VERTEX
  8
GRIP
 62
   110
 10
-57.3720539428582230
 20
0.5153053071744616
  0
VERTEX
  8
GRIP
 62
   110
 10
-59.1842039514072200
 20
2.5256082098721926
  0
SEQEND
  8
GRIP
 62
   110
  0
LINE
  8
GRIP
 62
   110
 10
-59.1842039514072200
 20
2.5256082098721926
 11
-59.1842039514072200
 21
5.3786811861816899
  0
LINE
  8
GRIP
 62
   110
 10
-59.1842039514072200
 20
5.3786811861816899
 11
-59.2047039514072180
 21
5.3991811861816901
  0
LINE
  8
GRIP
 62
   110
 10
-59.2047039514072180
 20
5.3991811861816901
 11
-59.1637039514072210
 21
5.3991811861816901
  0
LINE
  8
GRIP
 62
   110
 10
-59.1637039514072210
 20
5.3991811861816901
 11
-59.1842039514072200
 21
5.3786811861816899
  0
LINE
  8
GRIP
 62
   110
 10
-59.1842039514072200
 20
5.4606811861816897
 11
-59.1637039514072210
 21
5.4401811861816896
  0
LINE
  8
GRIP
 62
   110
 10
-59.1637039514072210
 20
5.4401811861816896
 11
-59.2047039514072180
 21
5.4401811861816896
  0
LINE
  8
GRIP
 62
   110
 10
-59.2047039514072180
 20
5.4401811861816896
 11
-59.1842039514072200
 21
5.4606811861816897
  0
LINE
  8
GRIP
 62
   110
 10
-59.1842039514072200
 20
5.4606811861816897
 11
-59.1842039514072130
 21
8.2727541624911858
  0
LINE
  8
GRIP
 62
   110
 10
-59.1842039514072130
 20
8.2727541624911858
 11
-59.2047039514072110
 21
8.2932541624911842
  0
LINE
  8
GRIP
 62
   110
 10
-59.2047039514072110
 20
8.2932541624911842
 11
-59.1637039514072140
 21
8.2932541624911877
  0
LINE
  8
GRIP
 62
   110
 10
-59.1637039514072140
 20
8.2932541624911877
 11
-59.1842039514072130
 21
8.2727541624911858
  0
LINE
  8
GRIP
 62
   110
 10
-59.1842039514072200
 20
8.3547541624911847
 11
-59.1637039514072210
 21
8.3342541624911863
  0
LINE
  8
GRIP
 62
   110
 10
-59.1637039514072210
 20
8.3342541624911863
 11
-59.2047039514072180
 21
8.3342541624911828
  0
LINE
  8
GRIP
 62
   110
 10
-59.2047039514072180
 20
8.3342541624911828
 11
-59.1842039514072200
 21
8.3547541624911847
  0
LINE
  8
GRIP
 62
   110
 10
-59.1842039514072200
 20
8.3547541624911847
 11
-59.1842039514072200
 21
11.2078479721340080
  0
LINE
  8
GRIP
 62
   110
 10
-59.1842039514072200
 20
13.1811535276892760
 11
-59.1842039514072130
 21
16.0342056116666680
  0
LINE
  8
GRIP
 62
   110
 10
-59.1842039514072130
 20
16.0342056116666680
 11
-59.2047039514072110
 21
16.0547056116666700
  0
LINE
  8
GRIP
 62
   110
 10
-59.2047039514072110
 20
16.0547056116666700
 11
-59.1637039514072140
 21
16.0547056116666700
  0
LINE
  8
GRIP
 62
   110
 10
-59.1637039514072140
 20
16.0547056116666700
 11
-59.1842039514072130
 21
16.0342056116666680
  0
LINE
  8
GRIP
 62
   110
 10
-59.1842039514072200
 20
16.1162056116666680
 11
-59.1637039514072210
 21
16.0957056116666660
  0
LINE
  8
GRIP
 62
   110
 10
-59.1637039514072210
 20
16.0957056116666660
 11
-59.2047039514072180
 21
16.0957056116666660
  0
LINE
  8
GRIP
 62
   110
 10
-59.2047039514072180
 20
16.0957056116666660
 11
-59.1842039514072200
 21
16.1162056116666680
  0
LINE
  8
GRIP
 62
   110
 10
-59.1842039514072200
 20
16.1162056116666680
 11
-59.1842039514072200
 21
18.9282785289773940
  0
LINE
  8
GRIP
 62
   110
 10
-59.1842039514072200
 20
18.9282785289773940
 11
-59.2047039514072180
 21
18.9487785289773920
  0
LINE
  8
GRIP
 62
   110
 10
-59.2047039514072180
 20
18.9487785289773920
 11
-59.1637039514072210
 21
18.9487785289773920
  0
LINE
  8
GRIP
 62
   110
 10
-59.1637039514072210
 20
18.9487785289773920
 11
-59.1842039514072200
 21
18.9282785289773940
  0
LINE
  8
GRIP
 62
   110
 10
-59.1842039514072130
 20
19.0102785289773910
 11
-59.1637039514072140
 21
18.9897785289773890
  0
LINE
  8
GRIP
 62
   110
 10
-59.1637039514072140
 20
18.9897785289773890
 11
-59.2047039514072110
 21
18.9897785289773960
  0
LINE
  8
GRIP
 62
   110
 10
-59.2047039514072110
 20
18.9897785289773960
 11
-59.1842039514072130
 21
19.0102785289773910
  0
LINE
  8
GRIP
 62
   110
 10
-59.1842039514072130
 20
19.0102785289773910
 11
-59.1842039514072200
 21
21.8633514462881070
  0
POLYLINE
  8
GRIP
 62
   110
 66
     1
 10
0.0
 20
0.0
 70
     0
  0
VERTEX
  8
GRIP
 62
   110
 10
-59.1842039514072200
 20
21.8633514462881070
  0
VERTEX
  8
GRIP
 62
   110
 10
-57.3720539553910600
 20
23.8737434013191890
 42
-0.2120114720575214
  0
VERTEX
  8
GRIP
 62
   110
 10
-56.6180598527176000
 20
24.2085010037017130
  0
VERTEX
  8
GRIP
 62
   110
 10
-55.3321852174563200
 20
24.2085007487557960
  0
VERTEX
  8
GRIP
 62
   110
 10
-54.9202848240916170
 20
23.7940528567824000
  0
VERTEX
  8
GRIP
 62
   110
 10
-54.5058643234210860
 20
24.2085007499108540
  0
SEQEND
  8
GRIP
 62
   110
  0
LINE
  8
GRIP
 62
   110
 10
-54.5058643234210860
 20
24.2085007499108540
 11
-51.0769321984447370
 21
24.2085007499108540
  0
LINE
  8
GRIP
 62
   110
 10
-51.0769321984447370
 20
24.2085007499108540
 11
-51.0564321978784930
 21
24.2290007504770980
  0
LINE
  8
GRIP
 62
   110
 10
-51.0564321978784930
 20
24.2290007504770980
 11
-51.0564321978784930
 21
24.1880007493446100
  0
LINE
  8
GRIP
 62
   110
 10
-51.0564321978784930
 20
24.1880007493446100
 11
-51.0769321984447370
 21
24.2085007499108540
  0
LINE
  8
GRIP
 62
   110
 10
-50.9949321961797610
 20
24.2085007499108540
 11
-51.0154321967460050
 21
24.1880007493446100
  0
LINE
  8
GRIP
 62
   110
 10
-51.0154321967460050
 20
24.1880007493446100
 11
-51.0154321967460050
 21
24.2290007504770980
  0
LINE
  8
GRIP
 62
   110
 10
-51.0154321967460050
 20
24.2290007504770980
 11
-50.9949321961797610
 21
24.2085007499108540
  0
LINE
  8
GRIP
 62
   110
 10
-50.9949321961797610
 20
24.2085007499108540
 11
-47.6070000723358930
 21
24.2085007499108540
  0
LINE
  8
GRIP
 62
   110
 10
-47.6070000723358930
 20
24.2085007499108540
 11
-47.5865000717696490
 21
24.2290007504770980
  0
LINE
  8
GRIP
 62
   110
 10
-47.5865000717696490
 20
24.2290007504770980
 11
-47.5865000717696490
 21
24.1880007493446100
  0
LINE
  8
GRIP
 62
   110
 10
-47.5865000717696490
 20
24.1880007493446100
 11
-47.6070000723358930
 21
24.2085007499108540
  0
LINE
  8
GRIP
 62
   110
 10
-47.5250000700709170
 20
24.2085007499108540
 11
-47.5455000706371610
 21
24.1880007493446100
  0
LINE
  8
GRIP
 62
   110
 10
-47.5455000706371610
 20
24.1880007493446100
 11
-47.5455000706371610
 21
24.2290007504770980
  0
LINE
  8
GRIP
 62
   110
 10
-47.5455000706371610
 20
24.2290007504770980
 11
-47.5250000700709170
 21
24.2085007499108540
  0
LINE
  8
GRIP
 62
   110
 10
-47.5250000700709170
 20
24.2085007499108540
 11
-44.1370676876969700
 21
24.2085007499108540
  0
LINE
  8
GRIP
 62
   110
 10
-44.1370676876969700
 20
24.2085007499108540
 11
-44.1165676871307260
 21
24.2290007504770980
  0
LINE
  8
GRIP
 62
   110
 10
-44.1165676871307260
 20
24.2290007504770980
 11
-44.1165676871307260
 21
24.1880007493446100
  0
LINE
  8
GRIP
 62
   110
 10
-44.1165676871307260
 20
24.1880007493446100
 11
-44.1370676876969700
 21
24.2085007499108540
  0
LINE
  8
GRIP
 62
   110
 10
-44.0550676854319930
 20
24.2085007499108540
 11
-44.0755676859982370
 21
24.1880007493446100
  0
LINE
  8
GRIP
 62
   110
 10
-44.0755676859982370
 20
24.1880007493446100
 11
-44.0755676859982370
 21
24.2290007504770980
  0
LINE
  8
GRIP
 62
   110
 10
-44.0755676859982370
 20
24.2290007504770980
 11
-44.0550676854319930
 21
24.2085007499108540
  0
LINE
  8
GRIP
 62
   110
 10
-44.0550676854319930
 20
24.2085007499108540
 11
-40.6671358201182190
 21
24.2085007499108540
  0
LINE
  8
GRIP
 62
   110
 10
-40.6671358201182190
 20
24.2085007499108540
 11
-40.6466358195519750
 21
24.2290007504770980
  0
LINE
  8
GRIP
 62
   110
 10
-40.6466358195519750
 20
24.2290007504770980
 11
-40.6466358195519750
 21
24.1880007493446100
  0
LINE
  8
GRIP
 62
   110
 10
-40.6466358195519750
 20
24.1880007493446100
 11
-40.6671358201182190
 21
24.2085007499108540
  0
LINE
  8
GRIP
 62
   110
 10
-40.5851358178532350
 20
24.2085007499108540
 11
-40.6056358184194790
 21
24.1880007493446100
  0
LINE
  8
GRIP
 62
   110
 10
-40.6056358184194790
 20
24.1880007493446100
 11
-40.6056358184194790
 21
24.2290007504770980
  0
LINE
  8
GRIP
 62
   110
 10
-40.6056358184194790
 20
24.2290007504770980
 11
-40.5851358178532350
 21
24.2085007499108540
  0
LINE
  8
GRIP
 62
   110
 10
-40.5851358178532350
 20
24.2085007499108540
 11
-37.1562039514069720
 21
24.2085007499108540
  0
POLYLINE
  8
GRIP
 62
   110
 66
     1
 10
0.0
 20
0.0
 70
     0
  0
VERTEX
  8
GRIP
 62
   110
 10
-37.1562039514069720
 20
24.2085007499108540
  0
VERTEX
  8
GRIP
 62
   110
 10
-37.1562039514069720
 20
23.8382229721328260
  0
VERTEX
  8
GRIP
 62
   110
 10
-36.6839261736299920
 20
23.8382229721328260
  0
VERTEX
  8
GRIP
 62
   110
 10
-36.6839261736281730
 20
24.2085007480154670
  0
VERTEX
  8
GRIP
 62
   110
 10
-35.2197204944227660
 20
24.2085009463944520
 42
-0.2120636065362995
  0
VERTEX
  8
GRIP
 62
   110
 10
-34.4659193248685580
 20
23.8737388988383830
  0
VERTEX
  8
GRIP
 62
   110
 10
-32.6562039514069720
 20
21.8633460747050780
  0
SEQEND
  8
GRIP
 62
   110
  0
LINE
  8
GRIP
 62
   110
 10
-32.6562039514069720
 20
21.8633460747050780
 11
-32.6562039514069650
 21
19.0102749479219920
  0
LINE
  8
GRIP
 62
   110
 10
-32.6562039514069650
 20
19.0102749479219920
 11
-32.6357039514069670
 21
18.9897749479219940
  0
LINE
  8
GRIP
 62
   110
 10
-32.6357039514069670
 20
18.9897749479219940
 11
-32.6767039514069640
 21
18.9897749479219940
  0
LINE
  8
GRIP
 62
   110
 10
-32.6767039514069640
 20
18.9897749479219940
 11
-32.6562039514069650
 21
19.0102749479219920
  0
LINE
  8
GRIP
 62
   110
 10
-32.6562039514069720
 20
18.9282749479219920
 11
-32.6767039514069710
 21
18.9487749479219900
  0
LINE
  8
GRIP
 62
   110
 10
-32.6767039514069710
 20
18.9487749479219900
 11
-32.6357039514069740
 21
18.9487749479219900
  0
LINE
  8
GRIP
 62
   110
 10
-32.6357039514069740
 20
18.9487749479219900
 11
-32.6562039514069720
 21
18.9282749479219920
  0
LINE
  8
GRIP
 62
   110
 10
-32.6562039514069720
 20
18.9282749479219920
 11
-32.6562039514069720
 21
16.1162038211389140
  0
LINE
  8
GRIP
 62
   110
 10
-32.6562039514069720
 20
16.1162038211389140
 11
-32.6357039514069740
 21
16.0957038211389120
  0
LINE
  8
GRIP
 62
   110
 10
-32.6357039514069740
 20
16.0957038211389120
 11
-32.6767039514069710
 21
16.0957038211389120
  0
LINE
  8
GRIP
 62
   110
 10
-32.6767039514069710
 20
16.0957038211389120
 11
-32.6562039514069720
 21
16.1162038211389140
  0
LINE
  8
GRIP
 62
   110
 10
-32.6562039514069720
 20
16.0342038211389130
 11
-32.6767039514069710
 21
16.0547038211389150
  0
LINE
  8
GRIP
 62
   110
 10
-32.6767039514069710
 20
16.0547038211389150
 11
-32.6357039514069740
 21
16.0547038211389150
  0
LINE
  8
GRIP
 62
   110
 10
-32.6357039514069740
 20
16.0547038211389150
 11
-32.6562039514069720
 21
16.0342038211389130
  0
LINE
  8
GRIP
 62
   110
 10
-32.6562039514069720
 20
16.0342038211389130
 11
-32.6562039514069720
 21
13.1811535276892760
  0
LINE
  8
GRIP
 62
   110
 10
-32.6562039514069720
 20
11.2078479721340080
 11
-32.6562039514069720
 21
8.3547560554103875
  0
LINE
  8
GRIP
 62
   110
 10
-32.6562039514069720
 20
8.3547560554103875
 11
-32.6357039514069740
 21
8.3342560554103873
  0
LINE
  8
GRIP
 62
   110
 10
-32.6357039514069740
 20
8.3342560554103873
 11
-32.6767039514069710
 21
8.3342560554103873
  0
LINE
  8
GRIP
 62
   110
 10
-32.6767039514069710
 20
8.3342560554103873
 11
-32.6562039514069720
 21
8.3547560554103875
  0
LINE
  8
GRIP
 62
   110
 10
-32.6562039514069720
 20
8.2727560554103867
 11
-32.6767039514069710
 21
8.2932560554103869
  0
LINE
  8
GRIP
 62
   110
 10
-32.6767039514069710
 20
8.2932560554103869
 11
-32.6357039514069740
 21
8.2932560554103869
  0
LINE
  8
GRIP
 62
   110
 10
-32.6357039514069740
 20
8.2932560554103869
 11
-32.6562039514069720
 21
8.2727560554103867
  0
LINE
  8
GRIP
 62
   110
 10
-32.6562039514069720
 20
8.2727560554103867
 11
-32.6562039514069720
 21
5.4606849720200845
  0
LINE
  8
GRIP
 62
   110
 10
-32.6562039514069720
 20
5.4606849720200845
 11
-32.6357039514069740
 21
5.4401849720200843
  0
LINE
  8
GRIP
 62
   110
 10
-32.6357039514069740
 20
5.4401849720200843
 11
-32.6767039514069710
 21
5.4401849720200843
  0
LINE
  8
GRIP
 62
   110
 10
-32.6767039514069710
 20
5.4401849720200843
 11
-32.6562039514069720
 21
5.4606849720200845
  0
LINE
  8
GRIP
 62
   110
 10
-32.6562039514069720
 20
5.3786849720200847
 11
-32.6767039514069710
 21
5.3991849720200848
  0
LINE
  8
GRIP
 62
   110
 10
-32.6767039514069710
 20
5.3991849720200848
 11
-32.6357039514069740
 21
5.3991849720200848
  0
LINE
  8
GRIP
 62
   110
 10
-32.6357039514069740
 20
5.3991849720200848
 11
-32.6562039514069720
 21
5.3786849720200847
  0
LINE
  8
GRIP
 62
   110
 10
-32.6562039514069720
 20
5.3786849720200847
 11
-32.6562039514069720
 21
2.5256138886297812
  0
POLYLINE
  8
GRIP
 62
   110
 66
     1
 10
0.0
 20
0.0
 70
     0
  0
VERTEX
  8
GRIP
 62
   110
 10
-32.6562039514069720
 20
2.5256138886297812
  0
VERTEX
  8
GRIP
 62
   110
 10
-34.4657813581511830
 20
0.5153087983990226
 42
-0.2120081575195612
  0
VERTEX
  8
GRIP
 62
   110
 10
-35.2199028357304300
 20
0.1805004229563600
  0
VERTEX
  8
GRIP
 62
   110
 10
-36.5055859779663690
 20
0.1805007513930867
  0
VERTEX
  8
GRIP
 62
   110
 10
-36.9200650625175730
 20
0.5949497019728405
  0
VERTEX
  8
GRIP
 62
   110
 10
-37.3345441485512520
 20
0.1805007499106104
  0
SEQEND
  8
GRIP
 62
   110
  0
LINE
  8
GRIP
 62
   110
 10
-37.3345441485512520
 20
0.1805007499106104
 11
-40.7634650485845710
 21
0.1805007499106104
  0
LINE
  8
GRIP
 62
   110
 10
-40.7634650485845710
 20
0.1805007499106104
 11
-40.7839650491508150
 21
0.1600007493443663
  0
LINE
  8
GRIP
 62
   110
 10
-40.7839650491508150
 20
0.1600007493443663
 11
-40.7839650491508150
 21
0.2010007504768545
  0
LINE
  8
GRIP
 62
   110
 10
-40.7839650491508150
 20
0.2010007504768545
 11
-40.7634650485845710
 21
0.1805007499106104
  0
LINE
  8
GRIP
 62
   110
 10
-40.8454650508495480
 20
0.1805007499106104
 11
-40.8249650502833030
 21
0.2010007504768545
  0
LINE
  8
GRIP
 62
   110
 10
-40.8249650502833030
 20
0.2010007504768545
 11
-40.8249650502833030
 21
0.1600007493443663
  0
LINE
  8
GRIP
 62
   110
 10
-40.8249650502833030
 20
0.1600007493443663
 11
-40.8454650508495480
 21
0.1805007499106104
  0
LINE
  8
GRIP
 62
   110
 10
-40.8454650508495480
 20
0.1805007499106104
 11
-44.2333859497503850
 21
0.1805007499106104
  0
LINE
  8
GRIP
 62
   110
 10
-44.2333859497503850
 20
0.1805007499106104
 11
-44.2538859503166290
 21
0.1600007493443663
  0
LINE
  8
GRIP
 62
   110
 10
-44.2538859503166290
 20
0.1600007493443663
 11
-44.2538859503166290
 21
0.2010007504768545
  0
LINE
  8
GRIP
 62
   110
 10
-44.2538859503166290
 20
0.2010007504768545
 11
-44.2333859497503850
 21
0.1805007499106104
  0
LINE
  8
GRIP
 62
   110
 10
-44.3153859520153620
 20
0.1805007499106104
 11
-44.2948859514491180
 21
0.2010007504768545
  0
LINE
  8
GRIP
 62
   110
 10
-44.2948859514491180
 20
0.2010007504768545
 11
-44.2948859514491180
 21
0.1600007493443663
  0
LINE
  8
GRIP
 62
   110
 10
-44.2948859514491180
 20
0.1600007493443663
 11
-44.3153859520153620
 21
0.1805007499106104
  0
LINE
  8
GRIP
 62
   110
 10
-44.3153859520153620
 20
0.1805007499106104
 11
-47.7033071094454400
 21
0.1805007499106104
  0
LINE
  8
GRIP
 62
   110
 10
-47.7033071094454400
 20
0.1805007499106104
 11
-47.7238071100116840
 21
0.1600007493443680
  0
LINE
  8
GRIP
 62
   110
 10
-47.7238071100116840
 20
0.1600007493443680
 11
-47.7238071100116840
 21
0.2010007504768527
  0
LINE
  8
GRIP
 62
   110
 10
-47.7238071100116840
 20
0.2010007504768527
 11
-47.7033071094454400
 21
0.1805007499106104
  0
LINE
  8
GRIP
 62
   110
 10
-47.7853071117104090
 20
0.1805007499106104
 11
-47.7648071111441650
 21
0.2010007504768527
  0
LINE
  8
GRIP
 62
   110
 10
-47.7648071111441650
 20
0.2010007504768527
 11
-47.7648071111441650
 21
0.1600007493443680
  0
LINE
  8
GRIP
 62
   110
 10
-47.7648071111441650
 20
0.1600007493443680
 11
-47.7853071117104090
 21
0.1805007499106104
  0
LINE
  8
GRIP
 62
   110
 10
-47.7853071117104090
 20
0.1805007499106104
 11
-51.1732277520819990
 21
0.1805007499106104
  0
LINE
  8
GRIP
 62
   110
 10
-51.1732277520819990
 20
0.1805007499106104
 11
-51.1937277526482430
 21
0.1600007493443663
  0
LINE
  8
GRIP
 62
   110
 10
-51.1937277526482430
 20
0.1600007493443663
 11
-51.1937277526482430
 21
0.2010007504768545
  0
LINE
  8
GRIP
 62
   110
 10
-51.1937277526482430
 20
0.2010007504768545
 11
-51.1732277520819990
 21
0.1805007499106104
  0
LINE
  8
GRIP
 62
   110
 10
-51.2552277543469760
 20
0.1805007499106104
 11
-51.2347277537807320
 21
0.2010007504768545
  0
LINE
  8
GRIP
 62
   110
 10
-51.2347277537807320
 20
0.2010007504768545
 11
-51.2347277537807320
 21
0.1600007493443663
  0
LINE
  8
GRIP
 62
   110
 10
-51.2347277537807320
 20
0.1600007493443663
 11
-51.2552277543469760
 21
0.1805007499106104
  0
LINE
  8
GRIP
 62
   110
 10
-51.2552277543469760
 20
0.1805007499106104
 11
-54.6841483958510470
 21
0.1805007499106104
  0
POLYLINE
  8
GRIP
 62
   110
 66
     1
 10
0.0
 20
0.0
 70
     0
  0
VERTEX
  8
GRIP
 62
   110
 10
-54.6841483958510470
 20
0.1805007499106104
  0
VERTEX
  8
GRIP
 62
   110
 10
-54.6841483958510470
 20
0.5507271388005428
  0
VERTEX
  8
GRIP
 62
   110
 10
-55.1539261736293370
 20
0.5507271388005428
  0
VERTEX
  8
GRIP
 62
   110
 10
-55.1539261736293370
 20
0.1805007529956164
  0
SEQEND
  8
GRIP
 62
   110
  0
ENDSEC
  0
EOF
