  0
SECTION
  2
HEADER
  9
$ACADVER
  1
AC1009
  9
$DWGCODEPAGE
  3
ansi_949
  9
$INSBASE
 10
0.0
 20
0.0
 30
0.0
  9
$EXTMIN
 10
452.8866040483148
 20
239.5768073598462
 30
0.0
  9
$EXTMAX
 10
571.8866040483161
 20
480.05
 30
0.0
  9
$LIMMIN
 10
0.0
 20
0.0
  9
$LIMMAX
 10
12.0
 20
9.0
  9
$ORTHOMODE
 70
     0
  9
$REGENMODE
 70
     1
  9
$FILLMODE
 70
     1
  9
$QTEXTMODE
 70
     0
  9
$MIRRTEXT
 70
     1
  9
$DRAGMODE
 70
     2
  9
$LTSCALE
 40
1.0
  9
$OSMODE
 70
    37
  9
$ATTMODE
 70
     1
  9
$TEXTSIZE
 40
0.2
  9
$TRACEWID
 40
0.05
  9
$TEXTSTYLE
  7
STANDARD
  9
$CLAYER
  8
DEFAULT
  9
$CELTYPE
  6
BYLAYER
  9
$CECOLOR
 62
   256
  9
$DIMSCALE
 40
1.0
  9
$DIMASZ
 40
0.18
  9
$DIMEXO
 40
0.0625
  9
$DIMDLI
 40
0.38
  9
$DIMRND
 40
0.0
  9
$DIMDLE
 40
0.0
  9
$DIMEXE
 40
0.18
  9
$DIMTP
 40
0.0
  9
$DIMTM
 40
0.0
  9
$DIMTXT
 40
0.18
  9
$DIMCEN
 40
0.09
  9
$DIMTSZ
 40
0.0
  9
$DIMTOL
 70
     0
  9
$DIMLIM
 70
     0
  9
$DIMTIH
 70
     1
  9
$DIMTOH
 70
     1
  9
$DIMSE1
 70
     0
  9
$DIMSE2
 70
     0
  9
$DIMTAD
 70
     0
  9
$DIMZIN
 70
     0
  9
$DIMBLK
  1

  9
$DIMASO
 70
     1
  9
$DIMSHO
 70
     1
  9
$DIMPOST
  1

  9
$DIMAPOST
  1

  9
$DIMALT
 70
     0
  9
$DIMALTD
 70
     2
  9
$DIMALTF
 40
25.4
  9
$DIMLFAC
 40
1.0
  9
$DIMTOFL
 70
     0
  9
$DIMTVP
 40
0.0
  9
$DIMTIX
 70
     0
  9
$DIMSOXD
 70
     0
  9
$DIMSAH
 70
     0
  9
$DIMBLK1
  1

  9
$DIMBLK2
  1

  9
$DIMSTYLE
  2
STANDARD
  9
$DIMCLRD
 70
     0
  9
$DIMCLRE
 70
     0
  9
$DIMCLRT
 70
     0
  9
$DIMTFAC
 40
1.0
  9
$DIMGAP
 40
0.09
  9
$LUNITS
 70
     2
  9
$LUPREC
 70
     2
  9
$SKETCHINC
 40
0.1
  9
$FILLETRAD
 40
0.5
  9
$AUNITS
 70
     0
  9
$AUPREC
 70
     0
  9
$MENU
  1
.
  9
$ELEVATION
 40
0.0
  9
$PELEVATION
 40
0.0
  9
$THICKNESS
 40
0.0
  9
$LIMCHECK
 70
     0
  9
$CHAMFERA
 40
0.5
  9
$CHAMFERB
 40
0.5
  9
$SKPOLY
 70
     0
  9
$TDCREATE
 40
2456407.538306921
  9
$TDUPDATE
 40
2456407.538306933
  9
$TDINDWG
 40
0.0000000116
  9
$TDUSRTIMER
 40
0.0000000116
  9
$USRTIMER
 70
     1
  9
$ANGBASE
 50
0.0
  9
$ANGDIR
 70
     0
  9
$PDMODE
 70
     0
  9
$PDSIZE
 40
0.0
  9
$PLINEWID
 40
0.0
  9
$COORDS
 70
     1
  9
$SPLFRAME
 70
     0
  9
$SPLINETYPE
 70
     6
  9
$SPLINESEGS
 70
     8
  9
$ATTDIA
 70
     0
  9
$ATTREQ
 70
     1
  9
$HANDLING
 70
     1
  9
$HANDSEED
  5
9B
  9
$SURFTAB1
 70
     6
  9
$SURFTAB2
 70
     6
  9
$SURFTYPE
 70
     6
  9
$SURFU
 70
     6
  9
$SURFV
 70
     6
  9
$UCSNAME
  2

  9
$UCSORG
 10
0.0
 20
0.0
 30
0.0
  9
$UCSXDIR
 10
1.0
 20
0.0
 30
0.0
  9
$UCSYDIR
 10
0.0
 20
1.0
 30
0.0
  9
$PUCSNAME
  2

  9
$PUCSORG
 10
0.0
 20
0.0
 30
0.0
  9
$PUCSXDIR
 10
1.0
 20
0.0
 30
0.0
  9
$PUCSYDIR
 10
0.0
 20
1.0
 30
0.0
  9
$USERI1
 70
     0
  9
$USERI2
 70
     0
  9
$USERI3
 70
     0
  9
$USERI4
 70
     0
  9
$USERI5
 70
     0
  9
$USERR1
 40
0.0
  9
$USERR2
 40
0.0
  9
$USERR3
 40
0.0
  9
$USERR4
 40
0.0
  9
$USERR5
 40
0.0
  9
$WORLDVIEW
 70
     1
  9
$SHADEDGE
 70
     3
  9
$SHADEDIF
 70
    70
  9
$TILEMODE
 70
     1
  9
$MAXACTVP
 70
    64
  9
$PLIMCHECK
 70
     0
  9
$PEXTMIN
 10
1.000000000000000E+20
 20
1.000000000000000E+20
 30
1.000000000000000E+20
  9
$PEXTMAX
 10
-1.000000000000000E+20
 20
-1.000000000000000E+20
 30
-1.000000000000000E+20
  9
$PLIMMIN
 10
0.0
 20
0.0
  9
$PLIMMAX
 10
12.0
 20
9.0
  9
$UNITMODE
 70
     0
  9
$VISRETAIN
 70
     1
  9
$PLINEGEN
 70
     0
  9
$PSLTSCALE
 70
     1
  0
ENDSEC
  0
SECTION
  2
TABLES
  0
TABLE
  2
VPORT
 70
     1
  0
VPORT
  2
*ACTIVE
 70
     0
 10
0.0
 20
0.0
 11
1.0
 21
1.0
 12
512.3866040483155
 22
359.8134036799231
 13
0.0
 23
0.0
 14
0.5
 24
0.5
 15
0.5
 25
0.5
 16
0.0
 26
0.0
 36
1.0
 17
0.0
 27
0.0
 37
0.0
 40
245.282656492957
 41
0.4948576541671901
 42
50.0
 43
0.0
 44
0.0
 50
0.0
 51
0.0
 71
     0
 72
   100
 73
     1
 74
     3
 75
     0
 76
     0
 77
     0
 78
     0
  0
ENDTAB
  0
TABLE
  2
LTYPE
 70
     1
  0
LTYPE
  2
CONTINUOUS
 70
     0
  3
Solid line
 72
    65
 73
     0
 40
0.0
  0
ENDTAB
  0
TABLE
  2
LAYER
 70
     3
  0
LAYER
  2
0
 70
     0
 62
     7
  6
CONTINUOUS
  0
LAYER
  2
LAYER_01
 70
     0
 62
     1
  6
CONTINUOUS
  0
LAYER
  2
DEFAULT
 70
     0
 62
     7
  6
CONTINUOUS
  0
ENDTAB
  0
TABLE
  2
STYLE
 70
     1
  0
STYLE
  2
STANDARD
 70
     0
 40
0.0
 41
1.0
 50
0.0
 71
     0
 42
0.2
  3
txt
  4

  0
ENDTAB
  0
TABLE
  2
VIEW
 70
     0
  0
ENDTAB
  0
TABLE
  2
UCS
 70
     0
  0
ENDTAB
  0
TABLE
  2
APPID
 70
     1
  0
APPID
  2
ACAD
 70
     0
  0
ENDTAB
  0
TABLE
  2
DIMSTYLE
 70
     1
  0
DIMSTYLE
  2
STANDARD
 70
     0
  3

  4

  5

  6

  7

 40
1.0
 41
0.18
 42
0.0625
 43
0.38
 44
0.18
 45
0.0
 46
0.0
 47
0.0
 48
0.0
140
0.18
141
0.09
142
0.0
143
25.4
144
1.0
145
0.0
146
1.0
147
0.09
 71
     0
 72
     0
 73
     1
 74
     1
 75
     0
 76
     0
 77
     0
 78
     0
170
     0
171
     2
172
     0
173
     0
174
     0
175
     0
176
     0
177
     0
178
     0
  0
ENDTAB
  0
ENDSEC
  0
SECTION
  2
BLOCKS
  0
BLOCK
  8
0
  2
$MODEL_SPACE
 70
     0
 10
0.0
 20
0.0
 30
0.0
  3
$MODEL_SPACE
  1

  0
ENDBLK
  5
21
  8
0
  0
BLOCK
 67
     1
  8
0
  2
$PAPER_SPACE
 70
     0
 10
0.0
 20
0.0
 30
0.0
  3
$PAPER_SPACE
  1

  0
ENDBLK
  5
1D
 67
     1
  8
0
  0
ENDSEC
  0
SECTION
  2
ENTITIES
  0
LINE
  5
3C
  8
LAYER_01
 10
557.8866040483148
 20
464.3
 30
0.0
 11
466.8866040483148
 21
464.3
 31
0.0
  0
LINE
  5
3D
  8
LAYER_01
 10
466.8847884129304
 20
449.95
 30
0.0
 11
452.8866040483148
 21
449.95
 31
0.0
  0
LINE
  5
3E
  8
LAYER_01
 10
571.8866040483148
 20
358.25
 30
0.0
 11
452.8866040483148
 21
358.25
 31
0.0
  0
LINE
  5
3F
  8
LAYER_01
 10
557.8732303437766
 20
358.6
 30
0.0
 11
557.8847884129304
 21
449.95
 31
0.0
  0
LINE
  5
40
  8
LAYER_01
 10
557.3640831343903
 20
466.05
 30
0.0
 11
467.4091249622393
 21
466.05
 31
0.0
  0
LINE
  5
41
  8
LAYER_01
 10
571.8866040483148
 20
450.3
 30
0.0
 11
452.8866040483148
 21
450.3
 31
0.0
  0
POLYLINE
  5
42
  8
LAYER_01
 66
     1
 10
0.0
 20
0.0
 30
0.0
  0
VERTEX
  5
43
  8
LAYER_01
 10
517.654039388724
 20
253.5501422100871
 30
0.0
  0
VERTEX
  5
44
  8
LAYER_01
 10
557.8599388985557
 20
253.5501422100871
 30
0.0
  0
VERTEX
  5
45
  8
LAYER_01
 10
557.8866040483148
 20
344.25
 30
0.0
  0
VERTEX
  5
46
  8
LAYER_01
 10
466.8714136674305
 20
344.2417726861768
 30
0.0
  0
SEQEND
  5
47
  8
LAYER_01
  0
LINE
  5
48
  8
LAYER_01
 10
557.5232080966296
 20
358.6
 30
0.0
 11
557.5347853926224
 21
449.95
 31
0.0
  0
POLYLINE
  5
49
  8
LAYER_01
 66
     1
 10
0.0
 20
0.0
 30
0.0
  0
VERTEX
  5
4A
  8
LAYER_01
 10
466.8714136674305
 20
344.2417726861768
 30
0.0
  0
VERTEX
  5
4B
  8
LAYER_01
 10
466.8599388985557
 20
253.5501422100871
 30
0.0
  0
VERTEX
  5
4C
  8
LAYER_01
 10
507.0658384083874
 20
253.5501422100871
 30
0.0
  0
SEQEND
  5
4D
  8
LAYER_01
  0
POLYLINE
  5
4F
  8
DEFAULT
 66
     1
 10
0.0
 20
0.0
 30
0.0
  0
VERTEX
  5
50
  8
DEFAULT
 10
567.2895530093845
 20
257.5085034374883
 30
0.0
 42
0.3020526450061046
  0
VERTEX
  5
51
  8
DEFAULT
 10
571.886604048316
 20
264.4239128490439
 30
0.0
  0
VERTEX
  5
52
  8
DEFAULT
 10
571.8866040483148
 20
480.05
 30
0.0
  0
VERTEX
  5
53
  8
DEFAULT
 10
565.2846015527961
 20
480.05
 30
0.0
  0
VERTEX
  5
54
  8
DEFAULT
 10
557.8866040483148
 20
464.3
 30
0.0
  0
VERTEX
  5
55
  8
DEFAULT
 10
557.3640831343903
 20
466.05
 30
0.0
  0
VERTEX
  5
56
  8
DEFAULT
 10
557.3640831343903
 20
478.3
 30
0.0
  0
VERTEX
  5
57
  8
DEFAULT
 10
544.3872115774863
 20
478.3
 30
0.0
  0
VERTEX
  5
58
  8
DEFAULT
 10
543.1999013968862
 20
480.05
 30
0.0
  0
VERTEX
  5
59
  8
DEFAULT
 10
534.3257842021513
 20
480.05
 30
0.0
  0
VERTEX
  5
5A
  8
DEFAULT
 10
533.0350035192807
 20
478.3
 30
0.0
  0
VERTEX
  5
5B
  8
DEFAULT
 10
491.7382045773488
 20
478.3
 30
0.0
  0
VERTEX
  5
5C
  8
DEFAULT
 10
490.4474238944782
 20
480.05
 30
0.0
  0
VERTEX
  5
5D
  8
DEFAULT
 10
481.5733066997433
 20
480.05
 30
0.0
  0
VERTEX
  5
5E
  8
DEFAULT
 10
480.3859965191433
 20
478.3
 30
0.0
  0
VERTEX
  5
5F
  8
DEFAULT
 10
467.4091249622393
 20
478.3
 30
0.0
  0
VERTEX
  5
60
  8
DEFAULT
 10
467.4091249622393
 20
466.05
 30
0.0
  0
VERTEX
  5
61
  8
DEFAULT
 10
466.8866040483148
 20
464.3
 30
0.0
  0
VERTEX
  5
62
  8
DEFAULT
 10
459.4886065438335
 20
480.05
 30
0.0
  0
VERTEX
  5
63
  8
DEFAULT
 10
452.8866040483148
 20
480.05
 30
0.0
  0
VERTEX
  5
64
  8
DEFAULT
 10
452.8866040483158
 20
264.4165553557971
 30
0.0
 42
0.3016813028998264
  0
VERTEX
  5
65
  8
DEFAULT
 10
457.474243695254
 20
257.5051041931326
 30
0.0
  0
VERTEX
  5
66
  8
DEFAULT
 10
466.8599388985557
 20
253.5501422100871
 30
0.0
  0
VERTEX
  5
67
  8
DEFAULT
 10
472.0802447840564
 20
243.5940324837974
 30
0.0
 42
0.2788783599539428
  0
VERTEX
  5
68
  8
DEFAULT
 10
478.7225545602341
 20
239.576807359847
 30
0.0
  0
VERTEX
  5
69
  8
DEFAULT
 10
546.106257190297
 20
239.5768073598462
 30
0.0
 42
0.2812092782933592
  0
VERTEX
  5
6A
  8
DEFAULT
 10
552.778429164772
 20
243.651588951769
 30
0.0
  0
VERTEX
  5
6B
  8
DEFAULT
 10
557.8599388985557
 20
253.5501422100871
 30
0.0
  0
SEQEND
  5
6C
  8
DEFAULT
  0
POLYLINE
  5
6D
  8
DEFAULT
 66
     1
 10
0.0
 20
0.0
 30
0.0
  0
VERTEX
  5
6E
  8
DEFAULT
 10
557.8466474533348
 20
358.6
 30
0.0
  0
VERTEX
  5
6F
  8
DEFAULT
 10
557.8484641296809
 20
344.2417726861768
 30
0.0
  0
VERTEX
  5
70
  8
DEFAULT
 10
571.8332737487966
 20
336.6674124136093
 30
0.0
  0
SEQEND
  5
71
  8
DEFAULT
  0
LINE
  5
72
  8
LAYER_01
 10
481.5733066997433
 20
449.95
 30
0.0
 11
467.2347853926225
 21
449.95
 31
0.0
  0
LINE
  5
73
  8
LAYER_01
 10
466.8847884129304
 20
449.95
 30
0.0
 11
466.8732303437766
 21
358.6
 31
0.0
  0
ARC
  5
74
  8
DEFAULT
 10
512.3599388985556
 20
253.800142210087
 30
0.0
 40
5.299999999999931
 50
178.9188834038893
 51
1.081116596110688
  0
POLYLINE
  5
75
  8
DEFAULT
 66
     1
 10
0.0
 20
0.0
 30
0.0
  0
VERTEX
  5
76
  8
DEFAULT
 10
481.3358446636233
 20
450.3
 30
0.0
  0
VERTEX
  5
77
  8
DEFAULT
 10
481.5733066997433
 20
449.95
 30
0.0
  0
VERTEX
  5
78
  8
DEFAULT
 10
490.4474238944782
 20
449.95
 30
0.0
  0
VERTEX
  5
79
  8
DEFAULT
 10
490.7055800310524
 20
450.3
 30
0.0
  0
SEQEND
  5
7A
  8
DEFAULT
  0
LINE
  5
7B
  8
LAYER_01
 10
466.8732303437766
 20
358.6
 30
0.0
 11
452.8866040483148
 21
358.6
 31
0.0
  0
LINE
  5
7C
  8
LAYER_01
 10
534.3257842021513
 20
449.95
 30
0.0
 11
490.4474238944782
 21
449.95
 31
0.0
  0
LINE
  5
7D
  8
LAYER_01
 10
557.5347853926223
 20
449.95
 30
0.0
 11
543.1999013968862
 21
449.95
 31
0.0
  0
POLYLINE
  5
7E
  8
DEFAULT
 66
     1
 10
0.0
 20
0.0
 30
0.0
  0
VERTEX
  5
7F
  8
DEFAULT
 10
543.4373634330062
 20
450.3
 30
0.0
  0
VERTEX
  5
80
  8
DEFAULT
 10
543.1999013968862
 20
449.95
 30
0.0
  0
VERTEX
  5
81
  8
DEFAULT
 10
534.3257842021513
 20
449.95
 30
0.0
  0
VERTEX
  5
82
  8
DEFAULT
 10
534.0676280655772
 20
450.3
 30
0.0
  0
SEQEND
  5
83
  8
DEFAULT
  0
LINE
  5
84
  8
LAYER_01
 10
557.5232080966296
 20
358.6
 30
0.0
 11
467.2232080966295
 21
358.6
 31
0.0
  0
LINE
  5
85
  8
LAYER_01
 10
571.8866040483148
 20
449.95
 30
0.0
 11
557.8847884129304
 21
449.95
 31
0.0
  0
LINE
  5
86
  8
DEFAULT
 10
466.8866040483148
 20
464.3
 30
0.0
 11
466.8866040483148
 21
450.3
 31
0.0
  0
POLYLINE
  5
87
  8
DEFAULT
 66
     1
 10
0.0
 20
0.0
 30
0.0
  0
VERTEX
  5
88
  8
DEFAULT
 10
466.8732303437766
 20
358.6
 30
0.0
  0
VERTEX
  5
89
  8
DEFAULT
 10
466.8714136674305
 20
344.2417726861768
 30
0.0
  0
VERTEX
  5
8A
  8
DEFAULT
 10
452.8866040483148
 20
336.6674124136093
 30
0.0
  0
SEQEND
  5
8B
  8
DEFAULT
  0
POLYLINE
  5
8C
  8
LAYER_01
 66
     1
 10
0.0
 20
0.0
 30
0.0
  0
VERTEX
  5
8D
  8
LAYER_01
 10
517.6589954183523
 20
253.9001422100871
 30
0.0
  0
VERTEX
  5
8E
  8
LAYER_01
 10
557.5099388985557
 20
253.9001422100871
 30
0.0
  0
VERTEX
  5
8F
  8
LAYER_01
 10
557.5213450834813
 20
343.9
 30
0.0
  0
VERTEX
  5
90
  8
LAYER_01
 10
467.2213450834813
 20
343.9
 30
0.0
  0
VERTEX
  5
91
  8
LAYER_01
 10
467.2099388985557
 20
253.9001422100871
 30
0.0
  0
VERTEX
  5
92
  8
LAYER_01
 10
507.0608823787589
 20
253.9001422100871
 30
0.0
  0
SEQEND
  5
93
  8
LAYER_01
  0
LINE
  5
94
  8
LAYER_01
 10
467.2347853926224
 20
449.95
 30
0.0
 11
467.2232080966295
 21
358.6
 31
0.0
  0
LINE
  5
95
  8
DEFAULT
 10
557.8866040483148
 20
464.3
 30
0.0
 11
557.8866040483148
 21
450.3
 31
0.0
  0
LINE
  5
96
  8
DEFAULT
 10
557.8599388985557
 20
253.5501422100871
 30
0.0
 11
567.2895530093845
 21
257.5085034374883
 31
0.0
  0
LINE
  5
97
  8
LAYER_01
 10
571.8866040483148
 20
358.6
 30
0.0
 11
557.8732303437766
 21
358.6
 31
0.0
  0
ENDSEC
  0
EOF
