  0
SECTION
  2
HEADER
  9
$ACADVER
  1
AC1009
  0
ENDSEC
  0
SECTION
  2
BLOCKS
  0
ENDSEC
  0
SECTION
  2
ENTITIES
  0
LINE
  8
BEFGRIP
 62
   110
 10
0.4860000000000009
 20
-0.0140000000000003
 11
2.7560000000000064
 21
-0.0140000000000003
  0
LINE
  8
BEFGRIP
 62
   110
 10
2.7560000000000064
 20
-0.0140000000000003
 11
2.7780000000000067
 21
0.0079999999999997
  0
LINE
  8
BEFGRIP
 62
   110
 10
2.8220000000000063
 20
0.0079999999999997
 11
2.8440000000000065
 21
-0.0140000000000003
  0
LINE
  8
BEFGRIP
 62
   110
 10
2.8440000000000065
 20
-0.0140000000000003
 11
5.1140000000000132
 21
-0.0140000000000003
  0
POLYLINE
  8
BEFGRIP
 62
   110
 66
     1
 10
0.0
 20
0.0
 70
     0
  0
VERTEX
  8
BEFGRIP
 62
   110
 10
5.1140000000000132
 20
-0.0140000000000003
 42
0.4142135623730950
  0
VERTEX
  8
BEFGRIP
 62
   110
 10
5.6140000000000141
 20
0.4859999999999998
  0
SEQEND
  8
BEFGRIP
 62
   110
  0
LINE
  8
BEFGRIP
 62
   110
 10
5.6140000000000141
 20
0.4859999999999998
 11
5.6140000000000141
 21
2.5834999999999972
  0
LINE
  8
BEFGRIP
 62
   110
 10
5.6140000000000141
 20
2.5834999999999972
 11
5.5920000000000138
 21
2.6054999999999975
  0
LINE
  8
BEFGRIP
 62
   110
 10
5.5920000000000138
 20
2.6494999999999971
 11
5.6140000000000141
 21
2.6714999999999973
  0
LINE
  8
BEFGRIP
 62
   110
 10
5.6140000000000141
 20
2.6714999999999973
 11
5.6140000000000141
 21
4.7689999999999948
  0
POLYLINE
  8
BEFGRIP
 62
   110
 66
     1
 10
0.0
 20
0.0
 70
     0
  0
VERTEX
  8
BEFGRIP
 62
   110
 10
5.6140000000000141
 20
4.7689999999999948
 42
0.4142135623730950
  0
VERTEX
  8
BEFGRIP
 62
   110
 10
5.1140000000000141
 20
5.2689999999999948
  0
SEQEND
  8
BEFGRIP
 62
   110
  0
LINE
  8
BEFGRIP
 62
   110
 10
5.1140000000000141
 20
5.2689999999999948
 11
2.8440000000000074
 21
5.2689999999999957
  0
LINE
  8
BEFGRIP
 62
   110
 10
2.8440000000000074
 20
5.2689999999999957
 11
2.8220000000000072
 21
5.2469999999999954
  0
LINE
  8
BEFGRIP
 62
   110
 10
2.7780000000000076
 20
5.2469999999999946
 11
2.7560000000000073
 21
5.2689999999999948
  0
LINE
  8
BEFGRIP
 62
   110
 10
2.7560000000000073
 20
5.2689999999999948
 11
0.4860000000000009
 21
5.2689999999999957
  0
POLYLINE
  8
BEFGRIP
 62
   110
 66
     1
 10
0.0
 20
0.0
 70
     0
  0
VERTEX
  8
BEFGRIP
 62
   110
 10
0.4860000000000009
 20
5.2689999999999957
 42
0.4142135623730950
  0
VERTEX
  8
BEFGRIP
 62
   110
 10
-0.0139999999999998
 20
4.7689999999999957
  0
SEQEND
  8
BEFGRIP
 62
   110
  0
LINE
  8
BEFGRIP
 62
   110
 10
-0.0139999999999998
 20
4.7689999999999957
 11
-0.0139999999999998
 21
2.6714999999999987
  0
LINE
  8
BEFGRIP
 62
   110
 10
-0.0139999999999998
 20
2.6714999999999987
 11
0.0080000000000003
 21
2.6494999999999984
  0
LINE
  8
BEFGRIP
 62
   110
 10
0.0080000000000003
 20
2.6054999999999984
 11
-0.0139999999999998
 21
2.5834999999999981
  0
LINE
  8
BEFGRIP
 62
   110
 10
-0.0139999999999998
 20
2.5834999999999981
 11
-0.0139999999999998
 21
0.4859999999999998
  0
POLYLINE
  8
BEFGRIP
 62
   110
 66
     1
 10
0.0
 20
0.0
 70
     0
  0
VERTEX
  8
BEFGRIP
 62
   110
 10
-0.0139999999999998
 20
0.4859999999999998
 42
0.4142135623730950
  0
VERTEX
  8
BEFGRIP
 62
   110
 10
0.4860000000000009
 20
-0.0140000000000003
  0
SEQEND
  8
BEFGRIP
 62
   110
  0
POLYLINE
  8
BEFGRIP
 62
    94
 66
     1
 10
0.0
 20
0.0
 70
     0
  0
VERTEX
  8
BEFGRIP
 62
    94
 10
1.9815325117456348
 20
0.1787124363324405
 42
0.4142730887184550
  0
VERTEX
  8
BEFGRIP
 62
    94
 10
1.9482032421314184
 20
0.2120484788118509
  0
VERTEX
  8
BEFGRIP
 62
    94
 10
1.9232045967044584
 20
0.2120484788118509
 42
0.4142135623730352
  0
VERTEX
  8
BEFGRIP
 62
    94
 10
1.8982059512774949
 20
0.1870498333848898
  0
VERTEX
  8
BEFGRIP
 62
    94
 10
1.8982194970078812
 20
0.1866095971473519
 42
0.3296835020556616
  0
VERTEX
  8
BEFGRIP
 62
    94
 10
1.9232045967044584
 20
0.1537205637706721
  0
VERTEX
  8
BEFGRIP
 62
    94
 10
1.9565338663186758
 20
0.1453831667182233
  0
VERTEX
  8
BEFGRIP
 62
    94
 10
1.9569537839606337
 20
0.1452680280099442
 42
-0.3297655718959813
  0
VERTEX
  8
BEFGRIP
 62
    94
 10
1.9815325117456348
 20
0.1120538971040057
 42
-0.4142135623731367
  0
VERTEX
  8
BEFGRIP
 62
    94
 10
1.9565338663186758
 20
0.0870552516770441
  0
VERTEX
  8
BEFGRIP
 62
    94
 10
1.9315352208917123
 20
0.0870552516770441
 42
-0.4142135623731122
  0
VERTEX
  8
BEFGRIP
 62
    94
 10
1.8982059512774949
 20
0.1203845212912616
  0
SEQEND
  8
BEFGRIP
 62
    94
  0
LINE
  8
BEFGRIP
 62
    94
 10
1.8317776894656195
 20
0.1287219183437109
 11
1.7817803986116960
 21
0.1287219183437109
  0
POLYLINE
  8
BEFGRIP
 62
    94
 66
     1
 10
0.0
 20
0.0
 70
     0
  0
VERTEX
  8
BEFGRIP
 62
    94
 10
1.6484226829636697
 20
0.1453831667182233
  0
VERTEX
  8
BEFGRIP
 62
    94
 10
1.7067505980048461
 20
0.1453831667182233
 42
0.4142135623730269
  0
VERTEX
  8
BEFGRIP
 62
    94
 10
1.7400798676190670
 20
0.1787124363324405
 42
0.4142730887184702
  0
VERTEX
  8
BEFGRIP
 62
    94
 10
1.7067505980048461
 20
0.2120484788118509
  0
VERTEX
  8
BEFGRIP
 62
    94
 10
1.6484226829636697
 20
0.2120484788118509
  0
VERTEX
  8
BEFGRIP
 62
    94
 10
1.6484226829636697
 20
0.0870552516770441
  0
SEQEND
  8
BEFGRIP
 62
    94
  0
POLYLINE
  8
BEFGRIP
 62
    94
 66
     1
 10
0.0
 20
0.0
 70
     0
  0
VERTEX
  8
BEFGRIP
 62
    94
 10
1.6150595490234867
 20
0.2120484788118509
  0
VERTEX
  8
BEFGRIP
 62
    94
 10
1.6150595490234867
 20
0.1370525425309670
 42
-0.4142135623730828
  0
VERTEX
  8
BEFGRIP
 62
    94
 10
1.5650622581695641
 20
0.0870552516770441
 42
-0.4142135623730796
  0
VERTEX
  8
BEFGRIP
 62
    94
 10
1.5150649673156407
 20
0.1370525425309670
  0
VERTEX
  8
BEFGRIP
 62
    94
 10
1.5150649673156407
 20
0.2120484788118509
  0
SEQEND
  8
BEFGRIP
 62
    94
  0
LINE
  8
BEFGRIP
 62
    94
 10
1.4817018333754621
 20
0.2120484788118509
 11
1.3817072516676152
 21
0.2120484788118509
  0
POLYLINE
  8
BEFGRIP
 62
    94
 66
     1
 10
0.0
 20
0.0
 70
     0
  0
VERTEX
  8
BEFGRIP
 62
    94
 10
1.3483441177274322
 20
0.2120484788118509
  0
VERTEX
  8
BEFGRIP
 62
    94
 10
1.2483495360195889
 20
0.2120484788118509
  0
VERTEX
  8
BEFGRIP
 62
    94
 10
1.2483495360195889
 20
0.0870552516770441
  0
VERTEX
  8
BEFGRIP
 62
    94
 10
1.3483441177274322
 20
0.0870552516770441
  0
SEQEND
  8
BEFGRIP
 62
    94
  0
LINE
  8
BEFGRIP
 62
    94
 10
1.3233454723004723
 20
0.1537205637706721
 11
1.2483495360195889
 21
0.1537205637706721
  0
POLYLINE
  8
BEFGRIP
 62
    94
 66
     1
 10
0.0
 20
0.0
 70
     0
  0
VERTEX
  8
BEFGRIP
 62
    94
 10
1.1983183808396998
 20
0.1787124363324405
 42
0.4142730887184483
  0
VERTEX
  8
BEFGRIP
 62
    94
 10
1.1649891112254833
 20
0.2120484788118509
  0
VERTEX
  8
BEFGRIP
 62
    94
 10
1.1399904657985234
 20
0.2120484788118509
 42
0.4142135623730351
  0
VERTEX
  8
BEFGRIP
 62
    94
 10
1.1149918203715599
 20
0.1870498333848898
  0
VERTEX
  8
BEFGRIP
 62
    94
 10
1.1150053661019461
 20
0.1866095971473519
 42
0.3296835020556679
  0
VERTEX
  8
BEFGRIP
 62
    94
 10
1.1399904657985234
 20
0.1537205637706721
  0
VERTEX
  8
BEFGRIP
 62
    94
 10
1.1733197354127398
 20
0.1453831667182233
  0
VERTEX
  8
BEFGRIP
 62
    94
 10
1.1737396530546986
 20
0.1452680280099442
 42
-0.3297655718960019
  0
VERTEX
  8
BEFGRIP
 62
    94
 10
1.1983183808396998
 20
0.1120538971040057
 42
-0.4142135623731355
  0
VERTEX
  8
BEFGRIP
 62
    94
 10
1.1733197354127398
 20
0.0870552516770441
  0
VERTEX
  8
BEFGRIP
 62
    94
 10
1.1483210899857763
 20
0.0870552516770441
 42
-0.4142135623731036
  0
VERTEX
  8
BEFGRIP
 62
    94
 10
1.1149918203715599
 20
0.1203845212912616
  0
SEQEND
  8
BEFGRIP
 62
    94
  0
LINE
  8
BEFGRIP
 62
    94
 10
1.4317045425215378
 20
0.0870552516770441
 11
1.4317045425215378
 21
0.2120484788118509
  0
POLYLINE
  8
BEFGRIP
 62
    94
 66
     1
 10
0.0
 20
0.0
 70
     0
  0
VERTEX
  8
BEFGRIP
 62
    94
 10
2.0315636669255239
 20
0.1453831667182233
  0
VERTEX
  8
BEFGRIP
 62
    94
 10
2.0898915819667003
 20
0.1453831667182233
 42
0.4142135623730863
  0
VERTEX
  8
BEFGRIP
 62
    94
 10
2.1232208515809177
 20
0.1787124363324405
 42
0.4142730887184360
  0
VERTEX
  8
BEFGRIP
 62
    94
 10
2.0898915819667003
 20
0.2120484788118509
  0
VERTEX
  8
BEFGRIP
 62
    94
 10
2.0315636669255239
 20
0.2120484788118509
  0
VERTEX
  8
BEFGRIP
 62
    94
 10
2.0315636669255239
 20
0.0870552516770441
  0
SEQEND
  8
BEFGRIP
 62
    94
  0
LINE
  8
BEFGRIP
 62
    94
 10
2.0648929365397413
 20
0.1453831667182233
 11
2.1148902273936647
 21
0.0870552516770441
  0
LINE
  8
BEFGRIP
 62
    94
 10
2.1649213825735503
 20
0.1287219183437109
 11
2.2149186734274737
 21
0.1287219183437109
  0
POLYLINE
  8
BEFGRIP
 62
    94
 66
     1
 10
0.0
 20
0.0
 70
     0
  0
VERTEX
  8
BEFGRIP
 62
    94
 10
2.2813537081045432
 20
0.1870498333848898
 42
-0.2726544751729698
  0
VERTEX
  8
BEFGRIP
 62
    94
 10
2.3222347224088349
 20
0.2120552516770441
  0
VERTEX
  8
BEFGRIP
 62
    94
 10
2.3230136019060161
 20
0.2120484788118509
 42
-0.4142135623730963
  0
VERTEX
  8
BEFGRIP
 62
    94
 10
2.3646802685726822
 20
0.1703818121451844
 42
-0.2357463286950856
  0
VERTEX
  8
BEFGRIP
 62
    94
 10
2.3480528845241349
 20
0.1370796339917386
  0
VERTEX
  8
BEFGRIP
 62
    94
 10
2.2980149564790526
 20
0.1120538971040057
 42
0.3031173169419880
  0
VERTEX
  8
BEFGRIP
 62
    94
 10
2.2813469352393501
 20
0.0870552516770441
  0
VERTEX
  8
BEFGRIP
 62
    94
 10
2.3646802685726822
 20
0.0870552516770441
  0
SEQEND
  8
BEFGRIP
 62
    94
  0
POLYLINE
  8
BEFGRIP
 62
    94
 66
     1
 10
0.0
 20
0.0
 70
     0
  0
VERTEX
  8
BEFGRIP
 62
    94
 10
2.3977724879051499
 20
0.1120606699691986
 42
0.2726544751729604
  0
VERTEX
  8
BEFGRIP
 62
    94
 10
2.4386535022094415
 20
0.0870552516770441
  0
VERTEX
  8
BEFGRIP
 62
    94
 10
2.4394391545718168
 20
0.0870620245422372
 42
0.4141183544531997
  0
VERTEX
  8
BEFGRIP
 62
    94
 10
2.4810990483732898
 20
0.1287219183437109
 42
0.4141659576126358
  0
VERTEX
  8
BEFGRIP
 62
    94
 10
2.4394391545718168
 20
0.1703885850103775
 42
0.1898794627832339
  0
VERTEX
  8
BEFGRIP
 62
    94
 10
2.3982465884686492
 20
0.1541608000082101
  0
VERTEX
  8
BEFGRIP
 62
    94
 10
2.3977724879051499
 20
0.1537205637706721
  0
VERTEX
  8
BEFGRIP
 62
    94
 10
2.3977724879051499
 20
0.2120552516770441
  0
VERTEX
  8
BEFGRIP
 62
    94
 10
2.4810990483732898
 20
0.2120552516770441
  0
SEQEND
  8
BEFGRIP
 62
    94
  0
POLYLINE
  8
BEFGRIP
 62
    94
 66
     1
 10
0.0
 20
0.0
 70
     0
  0
VERTEX
  8
BEFGRIP
 62
    94
 10
2.5141980405709496
 20
0.1287219183437109
 42
0.4142135623730976
  0
VERTEX
  8
BEFGRIP
 62
    94
 10
2.5558647072376157
 20
0.0870552516770441
 42
0.4141659576126431
  0
VERTEX
  8
BEFGRIP
 62
    94
 10
2.5975246010390896
 20
0.1287219183437109
  0
VERTEX
  8
BEFGRIP
 62
    94
 10
2.5975246010390896
 20
0.1703818121451844
 42
0.4141659576126507
  0
VERTEX
  8
BEFGRIP
 62
    94
 10
2.5558647072376157
 20
0.2120484788118509
 42
0.4142135623731039
  0
VERTEX
  8
BEFGRIP
 62
    94
 10
2.5141980405709496
 20
0.1703818121451844
  0
VERTEX
  8
BEFGRIP
 62
    94
 10
2.5141980405709496
 20
0.1287219183437109
  0
SEQEND
  8
BEFGRIP
 62
    94
  0
POLYLINE
  8
BEFGRIP
 62
    94
 66
     1
 10
0.0
 20
0.0
 70
     0
  0
VERTEX
  8
BEFGRIP
 62
    94
 10
2.6306235932367485
 20
0.0870552516770441
  0
VERTEX
  8
BEFGRIP
 62
    94
 10
2.7139501537048893
 20
0.2120484788118509
  0
VERTEX
  8
BEFGRIP
 62
    94
 10
2.6306235932367485
 20
0.2120484788118509
  0
SEQEND
  8
BEFGRIP
 62
    94
  0
POLYLINE
  8
BEFGRIP
 62
    94
 66
     1
 10
0.0
 20
0.0
 70
     0
  0
VERTEX
  8
BEFGRIP
 62
    94
 10
2.7470491459025492
 20
0.2120484788118509
  0
VERTEX
  8
BEFGRIP
 62
    94
 10
2.8303757063706882
 20
0.2120484788118509
  0
VERTEX
  8
BEFGRIP
 62
    94
 10
2.7887158125692153
 20
0.1703818121451844
 42
-0.4141183544531972
  0
VERTEX
  8
BEFGRIP
 62
    94
 10
2.8303757063706882
 20
0.1287219183437109
 42
-0.4141659576126400
  0
VERTEX
  8
BEFGRIP
 62
    94
 10
2.7887158125692153
 20
0.0870552516770441
 42
-0.2726144184464467
  0
VERTEX
  8
BEFGRIP
 62
    94
 10
2.7474351992185415
 20
0.1113698377195237
  0
VERTEX
  8
BEFGRIP
 62
    94
 10
2.7470491459025492
 20
0.1120538971040057
  0
SEQEND
  8
BEFGRIP
 62
    94
  0
LINE
  8
BEFGRIP
 62
    94
 10
2.8718053227556020
 20
0.0870552516770441
 11
2.9051413652350115
 21
0.0870552516770441
  0
POLYLINE
  8
BEFGRIP
 62
    94
 66
     1
 10
0.0
 20
0.0
 70
     0
  0
VERTEX
  8
BEFGRIP
 62
    94
 10
2.8884733439953081
 20
0.0870552516770441
  0
VERTEX
  8
BEFGRIP
 62
    94
 10
2.8884733439953081
 20
0.2120484788118509
  0
VERTEX
  8
BEFGRIP
 62
    94
 10
2.8634746985683455
 20
0.1870498333848898
  0
SEQEND
  8
BEFGRIP
 62
    94
  0
LINE
  8
BEFGRIP
 62
    94
 10
2.9799002512341444
 20
0.1287219183437109
 11
3.0298975420880678
 21
0.1287219183437109
  0
POLYLINE
  8
BEFGRIP
 62
    94
 66
     1
 10
0.0
 20
0.0
 70
     0
  0
VERTEX
  8
BEFGRIP
 62
    94
 10
3.2046510097950485
 20
0.1203845212912616
 42
-0.3497855115660487
  0
VERTEX
  8
BEFGRIP
 62
    94
 10
3.1630927089714680
 20
0.0870620245422372
  0
VERTEX
  8
BEFGRIP
 62
    94
 10
3.1463230947538676
 20
0.0870552516770441
 42
-0.4142135623730814
  0
VERTEX
  8
BEFGRIP
 62
    94
 10
3.0963258038999451
 20
0.1370525425309670
  0
VERTEX
  8
BEFGRIP
 62
    94
 10
3.0963258038999451
 20
0.1620511879579285
 42
-0.4142135623730889
  0
VERTEX
  8
BEFGRIP
 62
    94
 10
3.1463230947538676
 20
0.2120484788118509
  0
VERTEX
  8
BEFGRIP
 62
    94
 10
3.1629911159935755
 20
0.2120484788118509
 42
-0.3492099092757350
  0
VERTEX
  8
BEFGRIP
 62
    94
 10
3.2046239183342760
 20
0.1789291680186129
  0
SEQEND
  8
BEFGRIP
 62
    94
  0
POLYLINE
  8
BEFGRIP
 62
    94
 66
     1
 10
0.0
 20
0.0
 70
     0
  0
VERTEX
  8
BEFGRIP
 62
    94
 10
3.2296835195479741
 20
0.0870552516770441
  0
VERTEX
  8
BEFGRIP
 62
    94
 10
3.2296835195479741
 20
0.1620511879579285
 42
-0.4142135623731268
  0
VERTEX
  8
BEFGRIP
 62
    94
 10
3.2796808104018940
 20
0.2120484788118509
 42
-0.4142135623730828
  0
VERTEX
  8
BEFGRIP
 62
    94
 10
3.3296781012558174
 20
0.1620511879579285
  0
VERTEX
  8
BEFGRIP
 62
    94
 10
3.3296781012558174
 20
0.0870552516770441
  0
SEQEND
  8
BEFGRIP
 62
    94
  0
LINE
  8
BEFGRIP
 62
    94
 10
3.3713718593832569
 20
0.0870552516770441
 11
3.4047079018626665
 21
0.0870552516770441
  0
POLYLINE
  8
BEFGRIP
 62
    94
 66
     1
 10
0.0
 20
0.0
 70
     0
  0
VERTEX
  8
BEFGRIP
 62
    94
 10
3.3880398806229621
 20
0.0870552516770441
  0
VERTEX
  8
BEFGRIP
 62
    94
 10
3.3880398806229621
 20
0.2120484788118509
  0
VERTEX
  8
BEFGRIP
 62
    94
 10
3.3630412351959995
 20
0.1870498333848898
  0
SEQEND
  8
BEFGRIP
 62
    94
  0
LINE
  8
BEFGRIP
 62
    94
 10
3.3296781012558174
 20
0.1370525425309670
 11
3.2296835195479741
 21
0.1370525425309670
  0
POLYLINE
  8
BEFGRIP
 62
    94
 66
     1
 10
0.0
 20
0.0
 70
     0
  0
VERTEX
  8
BEFGRIP
 62
    94
 10
3.7373165386203588
 20
0.1537205637706721
 42
0.4142135623731315
  0
VERTEX
  8
BEFGRIP
 62
    94
 10
3.7123178931933989
 20
0.1287219183437109
 42
0.4142135623731008
  0
VERTEX
  8
BEFGRIP
 62
    94
 10
3.7539845598600650
 20
0.0870552516770441
 42
0.4141659576126369
  0
VERTEX
  8
BEFGRIP
 62
    94
 10
3.7956444536615379
 20
0.1287219183437109
 42
0.4142135623730814
  0
VERTEX
  8
BEFGRIP
 62
    94
 10
3.7706458082345762
 20
0.1537205637706721
  0
VERTEX
  8
BEFGRIP
 62
    94
 10
3.7373165386203588
 20
0.1537205637706721
 42
-0.4141342219960787
  0
VERTEX
  8
BEFGRIP
 62
    94
 10
3.7123178931933989
 20
0.1787124363324405
 42
-0.4142730887184630
  0
VERTEX
  8
BEFGRIP
 62
    94
 10
3.7456471628076144
 20
0.2120484788118509
  0
VERTEX
  8
BEFGRIP
 62
    94
 10
3.7623151840473223
 20
0.2120484788118509
 42
-0.4142730887184513
  0
VERTEX
  8
BEFGRIP
 62
    94
 10
3.7956444536615379
 20
0.1787124363324405
 42
-0.4141342219960994
  0
VERTEX
  8
BEFGRIP
 62
    94
 10
3.7706458082345762
 20
0.1537205637706721
  0
SEQEND
  8
BEFGRIP
 62
    94
  0
LINE
  8
BEFGRIP
 62
    94
 10
3.8287434458591987
 20
0.0870552516770441
 11
3.9287380275670420
 21
0.2120484788118509
  0
POLYLINE
  8
BEFGRIP
 62
    94
 66
     1
 10
0.0
 20
0.0
 70
     0
  0
VERTEX
  8
BEFGRIP
 62
    94
 10
4.0284955589931384
 20
0.2120552516770441
  0
VERTEX
  8
BEFGRIP
 62
    94
 10
3.9451689985249985
 20
0.2120552516770441
  0
VERTEX
  8
BEFGRIP
 62
    94
 10
3.9451689985249985
 20
0.1537205637706721
  0
VERTEX
  8
BEFGRIP
 62
    94
 10
3.9456430990884979
 20
0.1541608000082101
 42
-0.1898794627832652
  0
VERTEX
  8
BEFGRIP
 62
    94
 10
3.9868356651916654
 20
0.1703885850103775
 42
-0.4141659576126434
  0
VERTEX
  8
BEFGRIP
 62
    94
 10
4.0284955589931384
 20
0.1287219183437109
 42
-0.4141183544531646
  0
VERTEX
  8
BEFGRIP
 62
    94
 10
3.9868356651916654
 20
0.0870620245422372
  0
VERTEX
  8
BEFGRIP
 62
    94
 10
3.9860500128292902
 20
0.0870552516770441
 42
-0.2726544751729894
  0
VERTEX
  8
BEFGRIP
 62
    94
 10
3.9451689985249985
 20
0.1120606699691986
  0
SEQEND
  8
BEFGRIP
 62
    94
  0
LINE
  8
BEFGRIP
 62
    94
 10
4.0615945511907983
 20
0.0870552516770441
 11
4.1615891328986399
 21
0.2120484788118509
  0
POLYLINE
  8
BEFGRIP
 62
    94
 66
     1
 10
0.0
 20
0.0
 70
     0
  0
VERTEX
  8
BEFGRIP
 62
    94
 10
4.1780268767217867
 20
0.1870498333848898
 42
-0.2726544751729672
  0
VERTEX
  8
BEFGRIP
 62
    94
 10
4.2189078910260776
 20
0.2120552516770441
  0
VERTEX
  8
BEFGRIP
 62
    94
 10
4.2196867705232597
 20
0.2120484788118509
 42
-0.4142135623730813
  0
VERTEX
  8
BEFGRIP
 62
    94
 10
4.2613534371899267
 20
0.1703818121451844
 42
-0.2357463286950881
  0
VERTEX
  8
BEFGRIP
 62
    94
 10
4.2447260531413802
 20
0.1370796339917386
  0
VERTEX
  8
BEFGRIP
 62
    94
 10
4.1946881250963006
 20
0.1120538971040057
 42
0.3031173169420517
  0
VERTEX
  8
BEFGRIP
 62
    94
 10
4.1780201038565936
 20
0.0870552516770441
  0
VERTEX
  8
BEFGRIP
 62
    94
 10
4.2613534371899267
 20
0.0870552516770441
  0
SEQEND
  8
BEFGRIP
 62
    94
  0
POLYLINE
  8
BEFGRIP
 62
    94
 66
     1
 10
0.0
 20
0.0
 70
     0
  0
VERTEX
  8
BEFGRIP
 62
    94
 10
4.2944456565223934
 20
0.1120606699691986
 42
0.2726544751728788
  0
VERTEX
  8
BEFGRIP
 62
    94
 10
4.3353266708266860
 20
0.0870552516770441
  0
VERTEX
  8
BEFGRIP
 62
    94
 10
4.3361123231890595
 20
0.0870620245422372
 42
0.4141183544532774
  0
VERTEX
  8
BEFGRIP
 62
    94
 10
4.3777722169905333
 20
0.1287219183437109
 42
0.4141659576126708
  0
VERTEX
  8
BEFGRIP
 62
    94
 10
4.3361123231890595
 20
0.1703885850103775
 42
0.1898794627832385
  0
VERTEX
  8
BEFGRIP
 62
    94
 10
4.2949197570858981
 20
0.1541608000082101
  0
VERTEX
  8
BEFGRIP
 62
    94
 10
4.2944456565223934
 20
0.1537205637706721
  0
VERTEX
  8
BEFGRIP
 62
    94
 10
4.2944456565223934
 20
0.2120552516770441
  0
VERTEX
  8
BEFGRIP
 62
    94
 10
4.3777722169905333
 20
0.2120552516770441
  0
SEQEND
  8
BEFGRIP
 62
    94
  0
LINE
  8
BEFGRIP
 62
     5
 10
3.1400000000000023
 20
1.7199999999999986
 11
3.7762500000000019
 21
1.7199999999999986
  0
LINE
  8
BEFGRIP
 62
     5
 10
3.9637500000000028
 20
1.7199999999999986
 11
4.6000000000000023
 21
1.7199999999999986
  0
LINE
  8
BEFGRIP
 62
     5
 10
4.6000000000000023
 20
1.7199999999999986
 11
4.6000000000000041
 21
1.5199999999999965
  0
LINE
  8
BEFGRIP
 62
     5
 10
4.6000000000000050
 20
1.4399999999999964
 11
4.6000000000000068
 21
1.2399999999999944
  0
POLYLINE
  8
BEFGRIP
 62
     5
 66
     1
 10
0.0
 20
0.0
 70
     0
  0
VERTEX
  8
BEFGRIP
 62
     5
 10
4.6000000000000068
 20
1.2399999999999944
  0
VERTEX
  8
BEFGRIP
 62
     5
 10
4.2400000000000029
 20
1.2399999999999944
  0
VERTEX
  8
BEFGRIP
 62
     5
 10
4.2400000000000029
 20
0.9999999999999999
  0
SEQEND
  8
BEFGRIP
 62
     5
  0
LINE
  8
BEFGRIP
 62
     5
 10
4.2399999999999984
 20
0.9999999999999999
 11
2.9037499999999974
 21
0.9999999999999998
  0
LINE
  8
BEFGRIP
 62
     5
 10
2.7162499999999974
 20
0.9999999999999998
 11
1.3799999999999966
 21
0.9999999999999999
  0
POLYLINE
  8
BEFGRIP
 62
     5
 66
     1
 10
0.0
 20
0.0
 70
     0
  0
VERTEX
  8
BEFGRIP
 62
     5
 10
1.3800000000000001
 20
0.9999999999999999
  0
VERTEX
  8
BEFGRIP
 62
     5
 10
1.3800000000000001
 20
1.2399999999999980
  0
VERTEX
  8
BEFGRIP
 62
     5
 10
1.0000000000000011
 20
1.2399999999999944
  0
SEQEND
  8
BEFGRIP
 62
     5
  0
LINE
  8
BEFGRIP
 62
     5
 10
1.0000000000000011
 20
1.2399999999999944
 11
1.0000000000000011
 21
1.4399999999999964
  0
LINE
  8
BEFGRIP
 62
     5
 10
1.0000000000000011
 20
1.5199999999999965
 11
1.0000000000000011
 21
1.7199999999999986
  0
LINE
  8
BEFGRIP
 62
     5
 10
1.0000000000000011
 20
1.7199999999999986
 11
1.3800000000000032
 21
1.7199999999999986
  0
LINE
  8
BEFGRIP
 62
     5
 10
1.3800000000000001
 20
1.7799999999999989
 11
1.3800000000000001
 21
1.6300000000000021
  0
LINE
  8
BEFGRIP
 62
     5
 10
1.3800000000000001
 20
1.6600000000000033
 11
2.1662500000000011
 21
1.6600000000000015
  0
LINE
  8
BEFGRIP
 62
     5
 10
2.3537500000000011
 20
1.6600000000000015
 11
3.1400000000000023
 21
1.6599999999999997
  0
LINE
  8
BEFGRIP
 62
     5
 10
3.1400000000000023
 20
1.6300000000000001
 11
3.1400000000000023
 21
1.7799999999999989
  0
LINE
  8
BEFGRIP
 62
     5
 10
3.1400000000000059
 20
2.5649999999999986
 11
3.7762500000000063
 21
2.5649999999999986
  0
LINE
  8
BEFGRIP
 62
     5
 10
3.9637500000000063
 20
2.5649999999999986
 11
4.6000000000000068
 21
2.5649999999999986
  0
LINE
  8
BEFGRIP
 62
     5
 10
4.6000000000000068
 20
2.5649999999999986
 11
4.6000000000000076
 21
2.3649999999999967
  0
LINE
  8
BEFGRIP
 62
     5
 10
4.6000000000000076
 20
2.2849999999999966
 11
4.6000000000000085
 21
2.0849999999999946
  0
POLYLINE
  8
BEFGRIP
 62
     5
 66
     1
 10
0.0
 20
0.0
 70
     0
  0
VERTEX
  8
BEFGRIP
 62
     5
 10
4.6000000000000085
 20
2.0849999999999946
  0
VERTEX
  8
BEFGRIP
 62
     5
 10
4.2400000000000073
 20
2.0849999999999946
  0
VERTEX
  8
BEFGRIP
 62
     5
 10
4.2400000000000073
 20
1.8449999999999995
  0
SEQEND
  8
BEFGRIP
 62
     5
  0
LINE
  8
BEFGRIP
 62
     5
 10
4.2400000000000029
 20
1.8449999999999995
 11
2.9037500000000014
 21
1.8449999999999993
  0
LINE
  8
BEFGRIP
 62
     5
 10
2.7162500000000014
 20
1.8449999999999995
 11
1.3800000000000001
 21
1.8449999999999995
  0
POLYLINE
  8
BEFGRIP
 62
     5
 66
     1
 10
0.0
 20
0.0
 70
     0
  0
VERTEX
  8
BEFGRIP
 62
     5
 10
1.3800000000000032
 20
1.8449999999999995
  0
VERTEX
  8
BEFGRIP
 62
     5
 10
1.3800000000000032
 20
2.0849999999999982
  0
VERTEX
  8
BEFGRIP
 62
     5
 10
1.0000000000000047
 20
2.0849999999999946
  0
SEQEND
  8
BEFGRIP
 62
     5
  0
LINE
  8
BEFGRIP
 62
     5
 10
1.0000000000000047
 20
2.0849999999999946
 11
1.0000000000000047
 21
2.2849999999999966
  0
LINE
  8
BEFGRIP
 62
     5
 10
1.0000000000000047
 20
2.3649999999999967
 11
1.0000000000000047
 21
2.5649999999999986
  0
LINE
  8
BEFGRIP
 62
     5
 10
1.0000000000000047
 20
2.5649999999999986
 11
1.3800000000000068
 21
2.5649999999999986
  0
LINE
  8
BEFGRIP
 62
     5
 10
1.3800000000000032
 20
2.6249999999999991
 11
1.3800000000000032
 21
2.4750000000000023
  0
LINE
  8
BEFGRIP
 62
     5
 10
1.3800000000000032
 20
2.5050000000000034
 11
2.1662500000000042
 21
2.5050000000000017
  0
LINE
  8
BEFGRIP
 62
     5
 10
2.3537500000000047
 20
2.5050000000000008
 11
3.1400000000000059
 21
2.5049999999999990
  0
LINE
  8
BEFGRIP
 62
     5
 10
3.1400000000000059
 20
2.4750000000000005
 11
3.1400000000000059
 21
2.6249999999999991
  0
LINE
  8
BEFGRIP
 62
     5
 10
3.1400000000000086
 20
3.4099999999999975
 11
3.7762500000000081
 21
3.4099999999999975
  0
LINE
  8
BEFGRIP
 62
     5
 10
3.9637500000000081
 20
3.4099999999999975
 11
4.6000000000000068
 21
3.4099999999999975
  0
LINE
  8
BEFGRIP
 62
     5
 10
4.6000000000000068
 20
3.4099999999999975
 11
4.6000000000000085
 21
3.2099999999999955
  0
LINE
  8
BEFGRIP
 62
     5
 10
4.6000000000000094
 20
3.1299999999999955
 11
4.6000000000000112
 21
2.9299999999999935
  0
POLYLINE
  8
BEFGRIP
 62
     5
 66
     1
 10
0.0
 20
0.0
 70
     0
  0
VERTEX
  8
BEFGRIP
 62
     5
 10
4.6000000000000112
 20
2.9299999999999935
  0
VERTEX
  8
BEFGRIP
 62
     5
 10
4.2400000000000073
 20
2.9299999999999935
  0
VERTEX
  8
BEFGRIP
 62
     5
 10
4.2400000000000073
 20
2.6899999999999982
  0
SEQEND
  8
BEFGRIP
 62
     5
  0
LINE
  8
BEFGRIP
 62
     5
 10
4.2400000000000038
 20
2.6899999999999982
 11
2.9037500000000023
 21
2.6899999999999977
  0
LINE
  8
BEFGRIP
 62
     5
 10
2.7162500000000027
 20
2.6899999999999982
 11
1.3800000000000010
 21
2.6899999999999982
  0
POLYLINE
  8
BEFGRIP
 62
     5
 66
     1
 10
0.0
 20
0.0
 70
     0
  0
VERTEX
  8
BEFGRIP
 62
     5
 10
1.3800000000000054
 20
2.6899999999999982
  0
VERTEX
  8
BEFGRIP
 62
     5
 10
1.3800000000000054
 20
2.9299999999999962
  0
VERTEX
  8
BEFGRIP
 62
     5
 10
1.0000000000000056
 20
2.9299999999999935
  0
SEQEND
  8
BEFGRIP
 62
     5
  0
LINE
  8
BEFGRIP
 62
     5
 10
1.0000000000000056
 20
2.9299999999999935
 11
1.0000000000000056
 21
3.1299999999999955
  0
LINE
  8
BEFGRIP
 62
     5
 10
1.0000000000000056
 20
3.2099999999999955
 11
1.0000000000000056
 21
3.4099999999999975
  0
LINE
  8
BEFGRIP
 62
     5
 10
1.0000000000000056
 20
3.4099999999999975
 11
1.3800000000000090
 21
3.4099999999999975
  0
LINE
  8
BEFGRIP
 62
     5
 10
1.3800000000000054
 20
3.4699999999999971
 11
1.3800000000000054
 21
3.3200000000000012
  0
LINE
  8
BEFGRIP
 62
     5
 10
1.3800000000000054
 20
3.3500000000000014
 11
2.1662500000000069
 21
3.3500000000000005
  0
LINE
  8
BEFGRIP
 62
     5
 10
2.3537500000000073
 20
3.3499999999999996
 11
3.1400000000000086
 21
3.3499999999999988
  0
LINE
  8
BEFGRIP
 62
     5
 10
3.1400000000000086
 20
3.3199999999999990
 11
3.1400000000000086
 21
3.4699999999999971
  0
LINE
  8
BEFGRIP
 62
     5
 10
3.1400000000000130
 20
4.2549999999999963
 11
3.7762500000000125
 21
4.2549999999999963
  0
LINE
  8
BEFGRIP
 62
     5
 10
3.9637500000000125
 20
4.2549999999999963
 11
4.6000000000000121
 21
4.2549999999999963
  0
LINE
  8
BEFGRIP
 62
     5
 10
4.6000000000000121
 20
4.2549999999999963
 11
4.6000000000000139
 21
4.0549999999999944
  0
LINE
  8
BEFGRIP
 62
     5
 10
4.6000000000000139
 20
3.9749999999999943
 11
4.6000000000000156
 21
3.7749999999999924
  0
POLYLINE
  8
BEFGRIP
 62
     5
 66
     1
 10
0.0
 20
0.0
 70
     0
  0
VERTEX
  8
BEFGRIP
 62
     5
 10
4.6000000000000156
 20
3.7749999999999924
  0
VERTEX
  8
BEFGRIP
 62
     5
 10
4.2400000000000126
 20
3.7749999999999924
  0
VERTEX
  8
BEFGRIP
 62
     5
 10
4.2400000000000126
 20
3.5349999999999970
  0
SEQEND
  8
BEFGRIP
 62
     5
  0
LINE
  8
BEFGRIP
 62
     5
 10
4.2400000000000109
 20
3.5349999999999970
 11
2.9037500000000094
 21
3.5349999999999966
  0
LINE
  8
BEFGRIP
 62
     5
 10
2.7162500000000094
 20
3.5349999999999970
 11
1.3800000000000077
 21
3.5349999999999970
  0
POLYLINE
  8
BEFGRIP
 62
     5
 66
     1
 10
0.0
 20
0.0
 70
     0
  0
VERTEX
  8
BEFGRIP
 62
     5
 10
1.3800000000000099
 20
3.5349999999999970
  0
VERTEX
  8
BEFGRIP
 62
     5
 10
1.3800000000000099
 20
3.7749999999999955
  0
VERTEX
  8
BEFGRIP
 62
     5
 10
1.0000000000000113
 20
3.7749999999999924
  0
SEQEND
  8
BEFGRIP
 62
     5
  0
LINE
  8
BEFGRIP
 62
     5
 10
1.0000000000000113
 20
3.7749999999999924
 11
1.0000000000000113
 21
3.9749999999999943
  0
LINE
  8
BEFGRIP
 62
     5
 10
1.0000000000000113
 20
4.0549999999999944
 11
1.0000000000000113
 21
4.2549999999999963
  0
LINE
  8
BEFGRIP
 62
     5
 10
1.0000000000000113
 20
4.2549999999999963
 11
1.3800000000000143
 21
4.2549999999999963
  0
LINE
  8
BEFGRIP
 62
     5
 10
1.3800000000000099
 20
4.3149999999999959
 11
1.3800000000000099
 21
4.1650000000000000
  0
LINE
  8
BEFGRIP
 62
     5
 10
1.3800000000000099
 20
4.1950000000000003
 11
2.1662500000000113
 21
4.1949999999999985
  0
LINE
  8
BEFGRIP
 62
     5
 10
2.3537500000000118
 20
4.1949999999999985
 11
3.1400000000000130
 21
4.1949999999999976
  0
LINE
  8
BEFGRIP
 62
     5
 10
3.1400000000000130
 20
4.1649999999999974
 11
3.1400000000000130
 21
4.3149999999999959
  0
CIRCLE
  8
BEFGRIP
 62
    92
 10
2.8000000000000131
 20
3.9949999999999983
 40
0.0782500000000000
  0
CIRCLE
  8
BEFGRIP
 62
     2
 10
2.8000000000000131
 20
3.9949999999999983
 40
0.0625000000000000
  0
LINE
  8
BEFGRIP
 62
     2
 10
2.8000000000000131
 20
4.0262499999999983
 11
2.8000000000000131
 21
3.9637499999999983
  0
LINE
  8
BEFGRIP
 62
     2
 10
2.8312500000000140
 20
3.9949999999999983
 11
2.7687500000000131
 21
3.9949999999999983
  0
CIRCLE
  8
BEFGRIP
 62
    92
 10
2.8000000000000087
 20
3.1499999999999995
 40
0.0782500000000000
  0
CIRCLE
  8
BEFGRIP
 62
     2
 10
2.8000000000000087
 20
3.1499999999999995
 40
0.0625000000000000
  0
LINE
  8
BEFGRIP
 62
     2
 10
2.8000000000000087
 20
3.1812499999999995
 11
2.8000000000000087
 21
3.1187499999999995
  0
LINE
  8
BEFGRIP
 62
     2
 10
2.8312500000000078
 20
3.1499999999999995
 11
2.7687500000000087
 21
3.1499999999999995
  0
CIRCLE
  8
BEFGRIP
 62
    92
 10
2.8000000000000060
 20
2.3050000000000006
 40
0.0782500000000000
  0
CIRCLE
  8
BEFGRIP
 62
     2
 10
2.8000000000000060
 20
2.3050000000000006
 40
0.0625000000000000
  0
LINE
  8
BEFGRIP
 62
     2
 10
2.8000000000000060
 20
2.3362500000000006
 11
2.8000000000000060
 21
2.2737500000000006
  0
LINE
  8
BEFGRIP
 62
     2
 10
2.8312500000000060
 20
2.3050000000000006
 11
2.7687500000000060
 21
2.3050000000000006
  0
CIRCLE
  8
BEFGRIP
 62
    92
 10
2.8000000000000016
 20
1.4600000000000006
 40
0.0782500000000000
  0
CIRCLE
  8
BEFGRIP
 62
     2
 10
2.8000000000000016
 20
1.4600000000000006
 40
0.0625000000000000
  0
LINE
  8
BEFGRIP
 62
     2
 10
2.8000000000000016
 20
1.4912500000000006
 11
2.8000000000000016
 21
1.4287500000000004
  0
LINE
  8
BEFGRIP
 62
     2
 10
2.8312500000000016
 20
1.4600000000000006
 11
2.7687500000000025
 21
1.4600000000000006
  0
CIRCLE
  8
BEFGRIP
 62
    92
 10
1.6710000000000000
 20
1.4600000000000006
 40
0.0782500000000000
  0
CIRCLE
  8
BEFGRIP
 62
     2
 10
1.6710000000000000
 20
1.4600000000000006
 40
0.0625000000000000
  0
LINE
  8
BEFGRIP
 62
     2
 10
1.6710000000000000
 20
1.4912500000000006
 11
1.6710000000000000
 21
1.4287500000000004
  0
LINE
  8
BEFGRIP
 62
     2
 10
1.7022500000000000
 20
1.4600000000000006
 11
1.6397500000000000
 21
1.4600000000000006
  0
CIRCLE
  8
BEFGRIP
 62
    92
 10
1.6710000000000036
 20
2.3050000000000006
 40
0.0782500000000000
  0
CIRCLE
  8
BEFGRIP
 62
     2
 10
1.6710000000000036
 20
2.3050000000000006
 40
0.0625000000000000
  0
LINE
  8
BEFGRIP
 62
     2
 10
1.6710000000000036
 20
2.3362500000000006
 11
1.6710000000000036
 21
2.2737500000000006
  0
LINE
  8
BEFGRIP
 62
     2
 10
1.7022500000000040
 20
2.3050000000000006
 11
1.6397500000000040
 21
2.3050000000000006
  0
CIRCLE
  8
BEFGRIP
 62
    92
 10
1.6710000000000058
 20
3.1499999999999995
 40
0.0782500000000000
  0
CIRCLE
  8
BEFGRIP
 62
     2
 10
1.6710000000000058
 20
3.1499999999999995
 40
0.0625000000000000
  0
LINE
  8
BEFGRIP
 62
     2
 10
1.6710000000000058
 20
3.1812499999999995
 11
1.6710000000000058
 21
3.1187499999999995
  0
LINE
  8
BEFGRIP
 62
     2
 10
1.7022500000000054
 20
3.1499999999999995
 11
1.6397500000000049
 21
3.1499999999999995
  0
CIRCLE
  8
BEFGRIP
 62
    92
 10
1.6710000000000103
 20
3.9949999999999983
 40
0.0782500000000000
  0
CIRCLE
  8
BEFGRIP
 62
     2
 10
1.6710000000000103
 20
3.9949999999999983
 40
0.0625000000000000
  0
LINE
  8
BEFGRIP
 62
     2
 10
1.6710000000000103
 20
4.0262499999999983
 11
1.6710000000000103
 21
3.9637499999999983
  0
LINE
  8
BEFGRIP
 62
     2
 10
1.7022500000000103
 20
3.9949999999999983
 11
1.6397500000000107
 21
3.9949999999999983
  0
POLYLINE
  8
BEFGRIP
 62
    94
 66
     1
 10
0.0
 20
0.0
 70
     0
  0
VERTEX
  8
BEFGRIP
 62
    94
 10
1.8820305444584369
 20
5.0221746464578443
  0
VERTEX
  8
BEFGRIP
 62
    94
 10
1.8824938335399883
 20
5.0213537307168528
 42
0.2726144184464477
  0
VERTEX
  8
BEFGRIP
 62
    94
 10
1.9320332537513121
 20
4.9921746464578431
 42
0.4141659576126406
  0
VERTEX
  8
BEFGRIP
 62
    94
 10
1.9820278351655629
 20
5.0421773557507192
 42
0.4141183544531992
  0
VERTEX
  8
BEFGRIP
 62
    94
 10
1.9320332537513121
 20
5.0921719371649692
  0
VERTEX
  8
BEFGRIP
 62
    94
 10
1.9820278351655629
 20
5.1421746464578453
  0
VERTEX
  8
BEFGRIP
 62
    94
 10
1.8820305444584369
 20
5.1421746464578453
  0
SEQEND
  8
BEFGRIP
 62
    94
  0
POLYLINE
  8
BEFGRIP
 62
    94
 66
     1
 10
0.0
 20
0.0
 70
     0
  0
VERTEX
  8
BEFGRIP
 62
    94
 10
1.7423123109173932
 20
5.0421773557507192
 42
0.4142135623730950
  0
VERTEX
  8
BEFGRIP
 62
    94
 10
1.7923150202102685
 20
4.9921746464578431
 42
0.4141659576126406
  0
VERTEX
  8
BEFGRIP
 62
    94
 10
1.8423096016245184
 20
5.0421773557507192
  0
VERTEX
  8
BEFGRIP
 62
    94
 10
1.8423096016245184
 20
5.0921719371649692
 42
0.4141659576126406
  0
VERTEX
  8
BEFGRIP
 62
    94
 10
1.7923150202102685
 20
5.1421746464578453
 42
0.4142135623730950
  0
VERTEX
  8
BEFGRIP
 62
    94
 10
1.7423123109173932
 20
5.0921719371649692
  0
VERTEX
  8
BEFGRIP
 62
    94
 10
1.7423123109173932
 20
5.0421773557507192
  0
SEQEND
  8
BEFGRIP
 62
    94
  0
POLYLINE
  8
BEFGRIP
 62
    94
 66
     1
 10
0.0
 20
0.0
 70
     0
  0
VERTEX
  8
BEFGRIP
 62
    94
 10
1.6725913680834719
 20
5.0721773557507168
 42
0.4141342219961467
  0
VERTEX
  8
BEFGRIP
 62
    94
 10
1.7025913680834721
 20
5.1021692278720954
 42
0.4142730887184284
  0
VERTEX
  8
BEFGRIP
 62
    94
 10
1.6625940773763483
 20
5.1421746464578453
  0
VERTEX
  8
BEFGRIP
 62
    94
 10
1.6425913680834716
 20
5.1421746464578453
 42
0.4142730887184284
  0
VERTEX
  8
BEFGRIP
 62
    94
 10
1.6025940773763470
 20
5.1021692278720954
 42
0.4141342219961467
  0
VERTEX
  8
BEFGRIP
 62
    94
 10
1.6325940773763472
 20
5.0721773557507168
  0
VERTEX
  8
BEFGRIP
 62
    94
 10
1.6725913680834719
 20
5.0721773557507168
 42
-0.4142135623730947
  0
VERTEX
  8
BEFGRIP
 62
    94
 10
1.7025913680834721
 20
5.0421773557507192
 42
-0.4141659576126406
  0
VERTEX
  8
BEFGRIP
 62
    94
 10
1.6525967866692222
 20
4.9921746464578431
 42
-0.4142135623730950
  0
VERTEX
  8
BEFGRIP
 62
    94
 10
1.6025940773763470
 20
5.0421773557507192
 42
-0.4142135623730948
  0
VERTEX
  8
BEFGRIP
 62
    94
 10
1.6325940773763472
 20
5.0721773557507168
  0
SEQEND
  8
BEFGRIP
 62
    94
  0
POLYLINE
  8
BEFGRIP
 62
    94
 66
     1
 10
0.0
 20
0.0
 70
     0
  0
VERTEX
  8
BEFGRIP
 62
    94
 10
1.5628731345424258
 20
5.0521746464578436
  0
VERTEX
  8
BEFGRIP
 62
    94
 10
1.4628758438353007
 20
5.0521746464578436
  0
VERTEX
  8
BEFGRIP
 62
    94
 10
1.5328731345424256
 20
5.1421746464578453
  0
VERTEX
  8
BEFGRIP
 62
    94
 10
1.5328731345424256
 20
4.9921746464578431
  0
SEQEND
  8
BEFGRIP
 62
    94
  0
LINE
  8
BEFGRIP
 62
    94
 10
1.3731603195871287
 20
4.9921746464578431
 11
1.3331549010013806
 21
4.9921746464578431
  0
POLYLINE
  8
BEFGRIP
 62
    94
 66
     1
 10
0.0
 20
0.0
 70
     0
  0
VERTEX
  8
BEFGRIP
 62
    94
 10
1.3531576102942546
 20
4.9921746464578431
  0
VERTEX
  8
BEFGRIP
 62
    94
 10
1.3531576102942546
 20
5.1421746464578453
  0
VERTEX
  8
BEFGRIP
 62
    94
 10
1.3231576102942562
 20
5.1121746464578441
  0
SEQEND
  8
BEFGRIP
 62
    94
  0
LINE
  8
BEFGRIP
 62
    94
 10
1.1030790408008935
 20
5.1421746464578453
 11
1.0030817500937683
 21
5.0421773557507192
  0
LINE
  8
BEFGRIP
 62
    94
 10
1.0030817500937683
 20
4.9921746464578431
 11
1.0030817500937683
 21
5.1421746464578453
  0
POLYLINE
  8
BEFGRIP
 62
    94
 66
     1
 10
0.0
 20
0.0
 70
     0
  0
VERTEX
  8
BEFGRIP
 62
    94
 10
0.8430438199935244
 20
5.0621719371649680
  0
VERTEX
  8
BEFGRIP
 62
    94
 10
0.9130411107006493
 20
5.0621719371649680
 42
0.4142135623730948
  0
VERTEX
  8
BEFGRIP
 62
    94
 10
0.9530384014077731
 20
5.1021692278720954
 42
0.4142730887184284
  0
VERTEX
  8
BEFGRIP
 62
    94
 10
0.9130411107006493
 20
5.1421746464578453
  0
VERTEX
  8
BEFGRIP
 62
    94
 10
0.8430438199935244
 20
5.1421746464578453
  0
VERTEX
  8
BEFGRIP
 62
    94
 10
0.8430438199935244
 20
4.9921746464578431
  0
SEQEND
  8
BEFGRIP
 62
    94
  0
POLYLINE
  8
BEFGRIP
 62
    94
 66
     1
 10
0.0
 20
0.0
 70
     0
  0
VERTEX
  8
BEFGRIP
 62
    94
 10
0.8030058898932797
 20
4.9921746464578431
  0
VERTEX
  8
BEFGRIP
 62
    94
 10
0.8030058898932797
 20
5.0821746464578430
 42
0.4142135623730949
  0
VERTEX
  8
BEFGRIP
 62
    94
 10
0.7430058898932810
 20
5.1421746464578453
 42
0.4142135623730949
  0
VERTEX
  8
BEFGRIP
 62
    94
 10
0.6830058898932796
 20
5.0821746464578430
  0
VERTEX
  8
BEFGRIP
 62
    94
 10
0.6830058898932796
 20
4.9921746464578431
  0
SEQEND
  8
BEFGRIP
 62
    94
  0
POLYLINE
  8
BEFGRIP
 62
    94
 66
     1
 10
0.0
 20
0.0
 70
     0
  0
VERTEX
  8
BEFGRIP
 62
    94
 10
0.6429679597930358
 20
4.9921746464578431
  0
VERTEX
  8
BEFGRIP
 62
    94
 10
0.6429679597930358
 20
5.1421746464578453
  0
VERTEX
  8
BEFGRIP
 62
    94
 10
0.5829679597930371
 20
5.0621719371649680
  0
VERTEX
  8
BEFGRIP
 62
    94
 10
0.5229679597930357
 20
5.1421746464578453
  0
VERTEX
  8
BEFGRIP
 62
    94
 10
0.5229679597930357
 20
4.9921746464578431
  0
SEQEND
  8
BEFGRIP
 62
    94
  0
POLYLINE
  8
BEFGRIP
 62
    94
 66
     1
 10
0.0
 20
0.0
 70
     0
  0
VERTEX
  8
BEFGRIP
 62
    94
 10
0.4829300296927910
 20
4.9921746464578431
  0
VERTEX
  8
BEFGRIP
 62
    94
 10
0.4829300296927910
 20
5.0821746464578430
 42
0.4142135623730949
  0
VERTEX
  8
BEFGRIP
 62
    94
 10
0.4229300296927923
 20
5.1421746464578453
 42
0.4142135623730949
  0
VERTEX
  8
BEFGRIP
 62
    94
 10
0.3629300296927918
 20
5.0821746464578430
  0
VERTEX
  8
BEFGRIP
 62
    94
 10
0.3629300296927918
 20
4.9921746464578431
  0
SEQEND
  8
BEFGRIP
 62
    94
  0
LINE
  8
BEFGRIP
 62
    94
 10
0.3629300296927918
 20
5.0521746464578436
 11
0.4829300296927910
 21
5.0521746464578436
  0
LINE
  8
BEFGRIP
 62
    94
 10
0.6830058898932796
 20
5.0521746464578436
 11
0.8030058898932797
 21
5.0521746464578436
  0
LINE
  8
BEFGRIP
 62
    94
 10
0.8830411107006482
 20
5.0621719371649680
 11
0.9430411107006496
 21
4.9921746464578431
  0
LINE
  8
BEFGRIP
 62
    94
 10
1.0330817500937668
 20
5.0721773557507168
 11
1.1030790408008935
 21
4.9921746464578431
  0
POLYLINE
  8
BEFGRIP
 62
    94
 66
     1
 10
0.0
 20
0.0
 70
     0
  0
VERTEX
  8
BEFGRIP
 62
    94
 10
2.0917460687066107
 20
4.9921746464578431
  0
VERTEX
  8
BEFGRIP
 62
    94
 10
2.0917460687066107
 20
5.1421746464578453
  0
VERTEX
  8
BEFGRIP
 62
    94
 10
2.0217487779994832
 20
5.0521746464578436
  0
VERTEX
  8
BEFGRIP
 62
    94
 10
2.1217460687066092
 20
5.0521746464578436
  0
SEQEND
  8
BEFGRIP
 62
    94
  0
POLYLINE
  8
BEFGRIP
 62
    94
 66
     1
 10
0.0
 20
0.0
 70
     0
  0
VERTEX
  8
BEFGRIP
 62
    94
 10
2.4409034786226229
 20
5.0621719371649680
  0
VERTEX
  8
BEFGRIP
 62
    94
 10
2.5109007693297478
 20
5.0621719371649680
 42
0.4142135623730948
  0
VERTEX
  8
BEFGRIP
 62
    94
 10
2.5508980600368725
 20
5.1021692278720954
 42
0.4142730887184284
  0
VERTEX
  8
BEFGRIP
 62
    94
 10
2.5109007693297478
 20
5.1421746464578453
  0
VERTEX
  8
BEFGRIP
 62
    94
 10
2.4409034786226229
 20
5.1421746464578453
  0
VERTEX
  8
BEFGRIP
 62
    94
 10
2.4409034786226229
 20
4.9921746464578431
  0
SEQEND
  8
BEFGRIP
 62
    94
  0
POLYLINE
  8
BEFGRIP
 62
    94
 66
     1
 10
0.0
 20
0.0
 70
     0
  0
VERTEX
  8
BEFGRIP
 62
    94
 10
2.6009414087228668
 20
4.9921746464578431
  0
VERTEX
  8
BEFGRIP
 62
    94
 10
2.6009414087228668
 20
5.0821746464578430
 42
-0.4142135623730949
  0
VERTEX
  8
BEFGRIP
 62
    94
 10
2.6609414087228656
 20
5.1421746464578453
 42
-0.4142135623730949
  0
VERTEX
  8
BEFGRIP
 62
    94
 10
2.7209414087228661
 20
5.0821746464578430
  0
VERTEX
  8
BEFGRIP
 62
    94
 10
2.7209414087228661
 20
4.9921746464578431
  0
SEQEND
  8
BEFGRIP
 62
    94
  0
POLYLINE
  8
BEFGRIP
 62
    94
 66
     1
 10
0.0
 20
0.0
 70
     0
  0
VERTEX
  8
BEFGRIP
 62
    94
 10
2.7609793388231108
 20
4.9921746464578431
  0
VERTEX
  8
BEFGRIP
 62
    94
 10
2.7609793388231108
 20
5.1421746464578453
  0
VERTEX
  8
BEFGRIP
 62
    94
 10
2.8309766295302357
 20
5.1421746464578453
 42
-0.4142730887184284
  0
VERTEX
  8
BEFGRIP
 62
    94
 10
2.8709739202373603
 20
5.1021692278720954
 42
-0.4142135623730948
  0
VERTEX
  8
BEFGRIP
 62
    94
 10
2.8309766295302357
 20
5.0621719371649680
  0
VERTEX
  8
BEFGRIP
 62
    94
 10
2.7609793388231108
 20
5.0621719371649680
  0
SEQEND
  8
BEFGRIP
 62
    94
  0
LINE
  8
BEFGRIP
 62
    94
 10
2.8009766295302354
 20
5.0621719371649680
 11
2.8609766295302359
 21
4.9921746464578431
  0
LINE
  8
BEFGRIP
 62
    94
 10
2.9810172689233534
 20
4.9921746464578431
 11
2.9810172689233534
 21
5.1421746464578453
  0
LINE
  8
BEFGRIP
 62
    94
 10
2.9210172689233529
 20
5.1421746464578453
 11
3.0410172689233548
 21
5.1421746464578453
  0
POLYLINE
  8
BEFGRIP
 62
    94
 66
     1
 10
0.0
 20
0.0
 70
     0
  0
VERTEX
  8
BEFGRIP
 62
    94
 10
3.3610931291238408
 20
5.1421746464578453
  0
VERTEX
  8
BEFGRIP
 62
    94
 10
3.2410931291238407
 20
5.1421746464578453
  0
VERTEX
  8
BEFGRIP
 62
    94
 10
3.2410931291238407
 20
4.9921746464578431
  0
VERTEX
  8
BEFGRIP
 62
    94
 10
3.3610931291238408
 20
4.9921746464578431
  0
SEQEND
  8
BEFGRIP
 62
    94
  0
POLYLINE
  8
BEFGRIP
 62
    94
 66
     1
 10
0.0
 20
0.0
 70
     0
  0
VERTEX
  8
BEFGRIP
 62
    94
 10
3.4011310592240855
 20
4.9921746464578431
  0
VERTEX
  8
BEFGRIP
 62
    94
 10
3.4011310592240855
 20
5.1421746464578453
  0
VERTEX
  8
BEFGRIP
 62
    94
 10
3.4611310592240843
 20
5.0621719371649680
  0
VERTEX
  8
BEFGRIP
 62
    94
 10
3.5211310592240848
 20
5.1421746464578453
  0
VERTEX
  8
BEFGRIP
 62
    94
 10
3.5211310592240848
 20
4.9921746464578431
  0
SEQEND
  8
BEFGRIP
 62
    94
  0
POLYLINE
  8
BEFGRIP
 62
    94
 66
     1
 10
0.0
 20
0.0
 70
     0
  0
VERTEX
  8
BEFGRIP
 62
    94
 10
3.5911689893243279
 20
5.0721773557507168
 42
0.4142135623730948
  0
VERTEX
  8
BEFGRIP
 62
    94
 10
3.5611689893243295
 20
5.0421773557507192
 42
0.4142135623730950
  0
VERTEX
  8
BEFGRIP
 62
    94
 10
3.6111716986172047
 20
4.9921746464578431
 42
0.4141659576126406
  0
VERTEX
  8
BEFGRIP
 62
    94
 10
3.6611662800314546
 20
5.0421773557507192
 42
0.4142135623730947
  0
VERTEX
  8
BEFGRIP
 62
    94
 10
3.6311662800314517
 20
5.0721773557507168
  0
VERTEX
  8
BEFGRIP
 62
    94
 10
3.5911689893243279
 20
5.0721773557507168
 42
-0.4141342219961467
  0
VERTEX
  8
BEFGRIP
 62
    94
 10
3.5611689893243295
 20
5.1021692278720954
 42
-0.4142730887184284
  0
VERTEX
  8
BEFGRIP
 62
    94
 10
3.6011662800314541
 20
5.1421746464578453
  0
VERTEX
  8
BEFGRIP
 62
    94
 10
3.6211689893243308
 20
5.1421746464578453
 42
-0.4142730887184284
  0
VERTEX
  8
BEFGRIP
 62
    94
 10
3.6611662800314546
 20
5.1021692278720954
 42
-0.4141342219961467
  0
VERTEX
  8
BEFGRIP
 62
    94
 10
3.6311662800314517
 20
5.0721773557507168
  0
SEQEND
  8
BEFGRIP
 62
    94
  0
POLYLINE
  8
BEFGRIP
 62
    94
 66
     1
 10
0.0
 20
0.0
 70
     0
  0
VERTEX
  8
BEFGRIP
 62
    94
 10
3.7008872228653757
 20
5.0221746464578443
  0
VERTEX
  8
BEFGRIP
 62
    94
 10
3.7013505119469228
 20
5.0213537307168528
 42
0.2726144184464477
  0
VERTEX
  8
BEFGRIP
 62
    94
 10
3.7508899321582510
 20
4.9921746464578431
 42
0.4141659576126406
  0
VERTEX
  8
BEFGRIP
 62
    94
 10
3.8008845135725009
 20
5.0421773557507192
  0
VERTEX
  8
BEFGRIP
 62
    94
 10
3.8008845135725009
 20
5.0921719371649692
 42
0.4141659576126406
  0
VERTEX
  8
BEFGRIP
 62
    94
 10
3.7508899321582510
 20
5.1421746464578453
 42
0.4142135623730950
  0
VERTEX
  8
BEFGRIP
 62
    94
 10
3.7008872228653757
 20
5.0921719371649692
 42
0.4141659576126406
  0
VERTEX
  8
BEFGRIP
 62
    94
 10
3.7508899321582510
 20
5.0421773557507192
  0
VERTEX
  8
BEFGRIP
 62
    94
 10
3.7518246381999729
 20
5.0421692278720949
 42
0.2726544751729640
  0
VERTEX
  8
BEFGRIP
 62
    94
 10
3.8008845135725009
 20
5.0721773557507168
  0
SEQEND
  8
BEFGRIP
 62
    94
  0
POLYLINE
  8
BEFGRIP
 62
    94
 66
     1
 10
0.0
 20
0.0
 70
     0
  0
VERTEX
  8
BEFGRIP
 62
    94
 10
3.8406054564064220
 20
5.0221746464578443
  0
VERTEX
  8
BEFGRIP
 62
    94
 10
3.8410687454879691
 20
5.0213537307168528
 42
0.2726144184464477
  0
VERTEX
  8
BEFGRIP
 62
    94
 10
3.8906081656992972
 20
4.9921746464578431
 42
0.4141659576126406
  0
VERTEX
  8
BEFGRIP
 62
    94
 10
3.9406027471135472
 20
5.0421773557507192
  0
VERTEX
  8
BEFGRIP
 62
    94
 10
3.9406027471135472
 20
5.0921719371649692
 42
0.4141659576126406
  0
VERTEX
  8
BEFGRIP
 62
    94
 10
3.8906081656992972
 20
5.1421746464578453
 42
0.4142135623730950
  0
VERTEX
  8
BEFGRIP
 62
    94
 10
3.8406054564064220
 20
5.0921719371649692
 42
0.4141659576126406
  0
VERTEX
  8
BEFGRIP
 62
    94
 10
3.8906081656992972
 20
5.0421773557507192
  0
VERTEX
  8
BEFGRIP
 62
    94
 10
3.8915428717410192
 20
5.0421692278720949
 42
0.2726544751729640
  0
VERTEX
  8
BEFGRIP
 62
    94
 10
3.9406027471135472
 20
5.0721773557507168
  0
SEQEND
  8
BEFGRIP
 62
    94
  0
LINE
  8
BEFGRIP
 62
    94
 10
3.9803236899474639
 20
5.0421773557507192
 11
4.0403236899474644
 21
5.0421773557507192
  0
LINE
  8
BEFGRIP
 62
    94
 10
4.1300392141956364
 20
4.9921746464578431
 11
4.1700446327813854
 21
4.9921746464578431
  0
POLYLINE
  8
BEFGRIP
 62
    94
 66
     1
 10
0.0
 20
0.0
 70
     0
  0
VERTEX
  8
BEFGRIP
 62
    94
 10
4.1500419234885131
 20
4.9921746464578431
  0
VERTEX
  8
BEFGRIP
 62
    94
 10
4.1500419234885131
 20
5.1421746464578453
  0
VERTEX
  8
BEFGRIP
 62
    94
 10
4.1200419234885102
 20
5.1121746464578441
  0
SEQEND
  8
BEFGRIP
 62
    94
  0
POLYLINE
  8
BEFGRIP
 62
    94
 66
     1
 10
0.0
 20
0.0
 70
     0
  0
VERTEX
  8
BEFGRIP
 62
    94
 10
4.2597682849081808
 20
5.1121746464578441
 42
-0.2726544751729642
  0
VERTEX
  8
BEFGRIP
 62
    94
 10
4.3088281602807088
 20
5.1421827743364679
  0
VERTEX
  8
BEFGRIP
 62
    94
 10
4.3097628663224308
 20
5.1421746464578453
 42
-0.4142135623730950
  0
VERTEX
  8
BEFGRIP
 62
    94
 10
4.3597655756153069
 20
5.0921719371649692
 42
-0.2357463286950689
  0
VERTEX
  8
BEFGRIP
 62
    94
 10
4.3398116335941745
 20
5.0522071579723393
  0
VERTEX
  8
BEFGRIP
 62
    94
 10
4.2797628663224332
 20
5.0221746464578443
 42
0.3031173169420362
  0
VERTEX
  8
BEFGRIP
 62
    94
 10
4.2597601570295565
 20
4.9921746464578431
  0
VERTEX
  8
BEFGRIP
 62
    94
 10
4.3597655756153069
 20
4.9921746464578431
  0
SEQEND
  8
BEFGRIP
 62
    94
  0
POLYLINE
  8
BEFGRIP
 62
    94
 66
     1
 10
0.0
 20
0.0
 70
     0
  0
VERTEX
  8
BEFGRIP
 62
    94
 10
4.3994783905706027
 20
5.0221746464578443
  0
VERTEX
  8
BEFGRIP
 62
    94
 10
4.3999416796521542
 20
5.0213537307168528
 42
0.2726144184464477
  0
VERTEX
  8
BEFGRIP
 62
    94
 10
4.4494810998634771
 20
4.9921746464578431
 42
0.4141659576126406
  0
VERTEX
  8
BEFGRIP
 62
    94
 10
4.4994756812777288
 20
5.0421773557507192
 42
0.4141183544531992
  0
VERTEX
  8
BEFGRIP
 62
    94
 10
4.4494810998634771
 20
5.0921719371649692
  0
VERTEX
  8
BEFGRIP
 62
    94
 10
4.4994756812777288
 20
5.1421746464578453
  0
VERTEX
  8
BEFGRIP
 62
    94
 10
4.3994783905706027
 20
5.1421746464578453
  0
SEQEND
  8
BEFGRIP
 62
    94
  0
POLYLINE
  8
BEFGRIP
 62
    94
 66
     1
 10
0.0
 20
0.0
 70
     0
  0
VERTEX
  8
BEFGRIP
 62
    94
 10
4.5391966241116490
 20
5.0221746464578443
  0
VERTEX
  8
BEFGRIP
 62
    94
 10
4.5396599131932005
 20
5.0213537307168528
 42
0.2726144184464477
  0
VERTEX
  8
BEFGRIP
 62
    94
 10
4.5891993334045234
 20
4.9921746464578431
 42
0.4141659576126406
  0
VERTEX
  8
BEFGRIP
 62
    94
 10
4.6391939148187751
 20
5.0421773557507192
  0
VERTEX
  8
BEFGRIP
 62
    94
 10
4.6391939148187751
 20
5.0921719371649692
 42
0.4141659576126406
  0
VERTEX
  8
BEFGRIP
 62
    94
 10
4.5891993334045234
 20
5.1421746464578453
 42
0.4142135623730950
  0
VERTEX
  8
BEFGRIP
 62
    94
 10
4.5391966241116490
 20
5.0921719371649692
 42
0.4141659576126406
  0
VERTEX
  8
BEFGRIP
 62
    94
 10
4.5891993334045234
 20
5.0421773557507192
  0
VERTEX
  8
BEFGRIP
 62
    94
 10
4.5901340394462471
 20
5.0421692278720949
 42
0.2726544751729640
  0
VERTEX
  8
BEFGRIP
 62
    94
 10
4.6391939148187751
 20
5.0721773557507168
  0
SEQEND
  8
BEFGRIP
 62
    94
  0
LINE
  8
BEFGRIP
 62
    94
 10
4.6789148576526953
 20
5.0421773557507192
 11
4.7389148576526958
 21
5.0421773557507192
  0
POLYLINE
  8
BEFGRIP
 62
    94
 66
     1
 10
0.0
 20
0.0
 70
     0
  0
VERTEX
  8
BEFGRIP
 62
    94
 10
4.8186330911937416
 20
5.0421773557507192
 42
0.4142135623730950
  0
VERTEX
  8
BEFGRIP
 62
    94
 10
4.8686358004866159
 20
4.9921746464578431
 42
0.4141659576126406
  0
VERTEX
  8
BEFGRIP
 62
    94
 10
4.9186303819008677
 20
5.0421773557507192
  0
VERTEX
  8
BEFGRIP
 62
    94
 10
4.9186303819008677
 20
5.0921719371649692
 42
0.4141659576126406
  0
VERTEX
  8
BEFGRIP
 62
    94
 10
4.8686358004866159
 20
5.1421746464578453
 42
0.4142135623730950
  0
VERTEX
  8
BEFGRIP
 62
    94
 10
4.8186330911937416
 20
5.0921719371649692
  0
VERTEX
  8
BEFGRIP
 62
    94
 10
4.8186330911937416
 20
5.0421773557507192
  0
SEQEND
  8
BEFGRIP
 62
    94
  0
POLYLINE
  8
BEFGRIP
 62
    94
 66
     1
 10
0.0
 20
0.0
 70
     0
  0
VERTEX
  8
BEFGRIP
 62
    94
 10
4.9583513247347879
 20
5.0421773557507192
 42
0.4142135623730950
  0
VERTEX
  8
BEFGRIP
 62
    94
 10
5.0083540340276622
 20
4.9921746464578431
 42
0.4141659576126406
  0
VERTEX
  8
BEFGRIP
 62
    94
 10
5.0583486154419139
 20
5.0421773557507192
  0
VERTEX
  8
BEFGRIP
 62
    94
 10
5.0583486154419139
 20
5.0921719371649692
 42
0.4141659576126406
  0
VERTEX
  8
BEFGRIP
 62
    94
 10
5.0083540340276622
 20
5.1421746464578453
 42
0.4142135623730950
  0
VERTEX
  8
BEFGRIP
 62
    94
 10
4.9583513247347879
 20
5.0921719371649692
  0
VERTEX
  8
BEFGRIP
 62
    94
 10
4.9583513247347879
 20
5.0421773557507192
  0
SEQEND
  8
BEFGRIP
 62
    94
  0
POLYLINE
  8
BEFGRIP
 62
    94
 66
     1
 10
0.0
 20
0.0
 70
     0
  0
VERTEX
  8
BEFGRIP
 62
    94
 10
5.0980776861544586
 20
5.1121746464578441
 42
-0.2726544751729642
  0
VERTEX
  8
BEFGRIP
 62
    94
 10
5.1471375615269865
 20
5.1421827743364679
  0
VERTEX
  8
BEFGRIP
 62
    94
 10
5.1480722675687085
 20
5.1421746464578453
 42
-0.4142135623730950
  0
VERTEX
  8
BEFGRIP
 62
    94
 10
5.1980749768615846
 20
5.0921719371649692
 42
-0.2357463286950689
  0
VERTEX
  8
BEFGRIP
 62
    94
 10
5.1781210348404523
 20
5.0522071579723393
  0
VERTEX
  8
BEFGRIP
 62
    94
 10
5.1180722675687109
 20
5.0221746464578443
 42
0.3031173169420362
  0
VERTEX
  8
BEFGRIP
 62
    94
 10
5.0980695582758342
 20
4.9921746464578431
  0
VERTEX
  8
BEFGRIP
 62
    94
 10
5.1980749768615846
 20
4.9921746464578431
  0
SEQEND
  8
BEFGRIP
 62
    94
  0
CIRCLE
  8
BEFGRIP
 62
    92
 10
4.1400000000000157
 20
3.9949999999999983
 40
0.0782500000000000
  0
CIRCLE
  8
BEFGRIP
 62
     2
 10
4.1400000000000157
 20
3.9949999999999983
 40
0.0625000000000000
  0
LINE
  8
BEFGRIP
 62
     2
 10
4.1400000000000157
 20
4.0262499999999983
 11
4.1400000000000157
 21
3.9637499999999983
  0
LINE
  8
BEFGRIP
 62
     2
 10
4.1712500000000148
 20
3.9949999999999983
 11
4.1087500000000148
 21
3.9949999999999983
  0
CIRCLE
  8
BEFGRIP
 62
    92
 10
4.1400000000000112
 20
3.1499999999999995
 40
0.0782500000000000
  0
CIRCLE
  8
BEFGRIP
 62
     2
 10
4.1400000000000112
 20
3.1499999999999995
 40
0.0625000000000000
  0
LINE
  8
BEFGRIP
 62
     2
 10
4.1400000000000112
 20
3.1812499999999995
 11
4.1400000000000112
 21
3.1187499999999995
  0
LINE
  8
BEFGRIP
 62
     2
 10
4.1712500000000095
 20
3.1499999999999995
 11
4.1087500000000103
 21
3.1499999999999995
  0
CIRCLE
  8
BEFGRIP
 62
    92
 10
4.1400000000000077
 20
2.3050000000000006
 40
0.0782500000000000
  0
CIRCLE
  8
BEFGRIP
 62
     2
 10
4.1400000000000077
 20
2.3050000000000006
 40
0.0625000000000000
  0
LINE
  8
BEFGRIP
 62
     2
 10
4.1400000000000077
 20
2.3362500000000006
 11
4.1400000000000077
 21
2.2737500000000006
  0
LINE
  8
BEFGRIP
 62
     2
 10
4.1712500000000095
 20
2.3050000000000006
 11
4.1087500000000095
 21
2.3050000000000006
  0
CIRCLE
  8
BEFGRIP
 62
    92
 10
4.1400000000000041
 20
1.4600000000000006
 40
0.0782500000000000
  0
CIRCLE
  8
BEFGRIP
 62
     2
 10
4.1400000000000041
 20
1.4600000000000006
 40
0.0625000000000000
  0
LINE
  8
BEFGRIP
 62
     2
 10
4.1400000000000041
 20
1.4912500000000006
 11
4.1400000000000041
 21
1.4287500000000004
  0
LINE
  8
BEFGRIP
 62
     2
 10
4.1712500000000050
 20
1.4600000000000006
 11
4.1087500000000059
 21
1.4600000000000006
  0
LINE
  8
BEFGRIP
 62
    94
 10
3.3310931291238424
 20
5.0721773557507168
 11
3.2410931291238407
 21
5.0721773557507168
  0
LINE
  8
BEFGRIP
 62
    94
 10
2.7209414087228661
 20
5.0521746464578436
 11
2.6009414087228668
 21
5.0521746464578436
  0
LINE
  8
A
 62
     1
 10
1.8860000000000050
 20
0.4139999999999998
 11
1.1710000000000051
 21
0.4139999999999999
  0
LINE
  8
A
 62
     1
 10
1.1290000000000049
 20
0.4139999999999999
 11
0.4140000000000048
 21
0.4139999999999999
  0
LINE
  8
A
 62
     1
 10
0.4140000000000048
 20
0.4139999999999999
 11
0.4140000000000049
 21
1.1290000000000004
  0
LINE
  8
A
 62
     1
 10
0.4140000000000049
 20
1.1710000000000005
 11
0.4140000000000049
 21
1.8860000000000010
  0
LINE
  8
A
 62
     1
 10
0.4140000000000049
 20
1.8860000000000010
 11
0.8860000000000032
 21
1.8860000000000001
  0
LINE
  8
A
 62
     1
 10
0.8860000000000032
 20
1.8860000000000001
 11
0.8860000000000039
 21
1.4070000000000000
  0
LINE
  8
A
 62
     1
 10
0.8860000000000041
 20
1.3650000000000000
 11
0.8860000000000048
 21
0.8859999999999998
  0
LINE
  8
A
 62
     1
 10
0.8860000000000048
 20
0.8859999999999998
 11
1.3650000000000051
 21
0.8859999999999997
  0
LINE
  8
A
 62
     1
 10
1.4070000000000051
 20
0.8859999999999997
 11
1.8860000000000054
 21
0.8859999999999996
  0
LINE
  8
A
 62
     1
 10
1.8860000000000054
 20
0.8859999999999996
 11
1.8860000000000050
 21
0.4139999999999998
  0
LINE
  8
A
 62
     1
 10
3.7140000000000057
 20
0.4140000000000001
 11
4.4290000000000056
 21
0.4140000000000000
  0
LINE
  8
A
 62
     1
 10
4.4710000000000054
 20
0.4139999999999999
 11
5.1860000000000053
 21
0.4139999999999998
  0
LINE
  8
A
 62
     1
 10
5.1860000000000053
 20
0.4139999999999998
 11
5.1860000000000053
 21
1.1289999999999996
  0
LINE
  8
A
 62
     1
 10
5.1860000000000053
 20
1.1709999999999996
 11
5.1860000000000053
 21
1.8859999999999995
  0
LINE
  8
A
 62
     1
 10
5.1860000000000053
 20
1.8859999999999995
 11
4.7140000000000066
 21
1.8859999999999997
  0
LINE
  8
A
 62
     1
 10
4.7140000000000066
 20
1.8859999999999997
 11
4.7140000000000057
 21
1.4069999999999991
  0
LINE
  8
A
 62
     1
 10
4.7140000000000057
 20
1.3649999999999991
 11
4.7140000000000057
 21
0.8859999999999987
  0
LINE
  8
A
 62
     1
 10
4.7140000000000057
 20
0.8859999999999987
 11
4.2350000000000065
 21
0.8859999999999987
  0
LINE
  8
A
 62
     1
 10
4.1930000000000058
 20
0.8859999999999987
 11
3.7140000000000062
 21
0.8859999999999987
  0
LINE
  8
A
 62
     1
 10
3.7140000000000062
 20
0.8859999999999987
 11
3.7140000000000057
 21
0.4140000000000001
  0
LINE
  8
A
 62
     1
 10
1.8860000000000123
 20
4.3689999999999989
 11
1.4070000000000116
 21
4.3689999999999980
  0
LINE
  8
A
 62
     1
 10
1.3650000000000118
 20
4.3689999999999980
 11
0.8860000000000115
 21
4.3689999999999971
  0
LINE
  8
A
 62
     1
 10
0.8860000000000115
 20
4.3689999999999971
 11
0.8860000000000111
 21
3.8899999999999961
  0
LINE
  8
A
 62
     1
 10
0.8860000000000110
 20
3.8479999999999959
 11
0.8860000000000108
 21
3.3689999999999949
  0
LINE
  8
A
 62
     1
 10
0.8860000000000108
 20
3.3689999999999949
 11
0.4140000000000112
 21
3.3689999999999953
  0
LINE
  8
A
 62
     1
 10
0.4140000000000112
 20
3.3689999999999953
 11
0.4140000000000114
 21
4.0839999999999961
  0
LINE
  8
A
 62
     1
 10
0.4140000000000114
 20
4.1259999999999959
 11
0.4140000000000115
 21
4.8409999999999958
  0
LINE
  8
A
 62
     1
 10
0.4140000000000115
 20
4.8409999999999958
 11
1.1290000000000107
 21
4.8409999999999958
  0
LINE
  8
A
 62
     1
 10
1.1710000000000105
 20
4.8409999999999958
 11
1.8860000000000097
 21
4.8409999999999958
  0
LINE
  8
A
 62
     1
 10
1.8860000000000097
 20
4.8409999999999958
 11
1.8860000000000123
 21
4.3689999999999989
  0
LINE
  8
A
 62
     1
 10
5.1860000000000062
 20
4.8409999999999984
 11
4.4710000000000063
 21
4.8409999999999966
  0
LINE
  8
A
 62
     1
 10
4.4290000000000056
 20
4.8409999999999966
 11
3.7140000000000057
 21
4.8409999999999949
  0
LINE
  8
A
 62
     1
 10
3.7140000000000057
 20
4.8409999999999949
 11
3.7140000000000084
 21
4.3689999999999971
  0
LINE
  8
A
 62
     1
 10
3.7140000000000084
 20
4.3689999999999971
 11
4.1930000000000085
 21
4.3689999999999971
  0
LINE
  8
A
 62
     1
 10
4.2350000000000083
 20
4.3689999999999971
 11
4.7140000000000075
 21
4.3689999999999971
  0
LINE
  8
A
 62
     1
 10
4.7140000000000075
 20
4.3689999999999971
 11
4.7140000000000075
 21
3.8899999999999979
  0
LINE
  8
A
 62
     1
 10
4.7140000000000075
 20
3.8479999999999976
 11
4.7140000000000075
 21
3.3689999999999984
  0
LINE
  8
A
 62
     1
 10
4.7140000000000075
 20
3.3689999999999984
 11
5.1860000000000070
 21
3.3689999999999944
  0
LINE
  8
A
 62
     1
 10
5.1860000000000070
 20
3.3689999999999944
 11
5.1860000000000070
 21
4.0839999999999961
  0
LINE
  8
A
 62
     1
 10
5.1860000000000070
 20
4.1259999999999959
 11
5.1860000000000062
 21
4.8409999999999984
  0
ENDSEC
  0
EOF
